<svg width="314" height="83" viewBox="0 0 314 83" fill="none" xmlns="http://www.w3.org/2000/svg">
<g clip-path="url(#clip0_1552_457029)">
<path d="M312.779 -3.18914L215.215 -3.18913L215.215 83.3614L312.779 83.3614L312.779 -3.18914Z" fill="url(#paint0_radial_1552_457029)"/>
<path d="M11.3181 33.5175C12.5577 33.5175 13.5219 32.5087 13.5219 31.2706C13.5219 30.0325 12.5118 29.0696 11.3181 29.0696C10.1243 29.0696 9.06836 30.0325 9.06836 31.2706C9.06836 32.5087 10.0325 33.5175 11.3181 33.5175Z" fill="#5F636A"/>
<path d="M17.7341 55.2527C16.4485 55.2527 15.4844 56.2156 15.4844 57.4537C15.4844 58.6918 16.4485 59.6547 17.7341 59.6547C18.9278 59.6547 19.9379 58.6459 19.9379 57.4537C19.9379 56.2615 18.9278 55.2527 17.7341 55.2527Z" fill="#5F636A"/>
<path d="M21.0276 45.6002C21.0276 47.5604 20.293 48.2483 18.2385 48.2483H15.851V43.3074C15.851 38.3207 13.2914 35.707 8.51651 35.707C2.6512 35.707 -0.0117188 39.7766 -0.0117188 43.8118C-0.0117188 46.7465 0.952442 48.9819 2.69711 50.1742C4.71726 51.5039 6.40454 51.7791 10.2612 51.7791H18.4565C22.8067 51.7791 25.286 50.1283 25.286 45.7377V35.7185H21.0276V45.6002ZM11.6845 48.2483H9.25111C5.77325 48.2483 4.30405 46.8726 4.30405 43.6743C4.30405 40.9688 5.81916 39.2378 8.19512 39.2378C10.5711 39.2378 11.673 40.7052 11.673 43.766V48.2483H11.6845Z" fill="#5F636A"/>
<path d="M6.18622 33.5175C7.42585 33.5175 8.39001 32.5087 8.39001 31.2706C8.39001 30.0325 7.37994 29.0696 6.18622 29.0696C4.99249 29.0696 3.98242 30.0325 3.98242 31.2706C3.98242 32.5087 4.90067 33.5175 6.18622 33.5175Z" fill="#5F636A"/>
<path d="M42.0093 43.8118C42.0093 39.7881 39.3923 35.707 33.5384 35.707H30.1983V39.2264H33.8598C36.2473 39.2264 37.7509 40.9688 37.7509 43.6628V48.2368H26.8008V51.7561H42.0093V43.8004V43.8118Z" fill="#5F636A"/>
<path d="M22.819 55.2527C21.5794 55.2527 20.6152 56.2156 20.6152 57.4537C20.6152 58.6918 21.5794 59.6547 22.819 59.6547C24.0587 59.6547 25.0687 58.6459 25.0687 57.4537C25.0687 56.2615 24.0587 55.2527 22.819 55.2527Z" fill="#5F636A"/>
<path d="M187.976 27.8889H183.855V51.7792H187.976V27.8889Z" fill="#5F636A"/>
<path d="M185.223 55.2526V59.2305C186.554 59.4597 187.518 59.5514 188.425 59.5514C194.153 59.5514 196.953 56.9492 196.953 51.5384V37.2661H192.649V51.5842C192.649 54.2782 191.134 55.9289 188.758 55.9289C187.243 55.9289 186.141 55.5621 185.739 55.4245L185.234 55.2411L185.223 55.2526Z" fill="#5F636A"/>
<path d="M203.828 30.4568H199.707V51.7792H203.828V30.4568Z" fill="#5F636A"/>
<path d="M133.41 50.1743C135.43 51.504 137.117 51.7792 140.974 51.7792H142.397C142.351 54.519 140.79 55.8946 137.863 55.8946C136.532 55.8946 134.925 55.7112 133.192 55.1151L132.916 55.0234V59.0013C135.028 59.3681 136.624 59.5515 138.093 59.5515C143.729 59.5515 146.61 56.9378 146.701 51.7792H170.943C177.635 51.7792 181.159 50.0367 181.159 43.8119C181.159 39.7882 178.542 35.7071 172.688 35.7071C167.924 35.7071 165.353 38.3208 165.353 43.3075V48.2484H161.589C162.139 47.1937 162.461 45.9098 162.461 44.3622C162.461 40.8428 160.211 36.7732 153.99 36.7732H153.439L161.497 27.8889H156.504C153.485 31.2822 148.94 36.223 148.389 36.7159V40.2811H154.254C156.045 40.2811 158.191 40.9689 158.191 44.1673C158.191 47.1478 156.86 48.2369 153.244 48.2369H146.552V43.2961C146.552 38.3094 143.993 35.6957 139.218 35.6957C133.352 35.6957 130.689 39.7653 130.689 43.8005C130.689 46.7237 131.654 48.9706 133.398 50.1628M169.497 43.7546C169.497 40.6823 170.599 39.2265 172.986 39.2265C175.374 39.2265 176.877 40.9689 176.877 43.6629C176.877 46.8613 175.408 48.2369 171.976 48.2369H169.497V43.7546ZM138.896 39.2265C141.284 39.2265 142.328 40.6938 142.328 43.7546V48.2369H139.941C136.463 48.2369 134.994 46.8613 134.994 43.6629C134.994 40.9575 136.509 39.2265 138.885 39.2265" fill="#5F636A"/>
<path d="M109.042 51.7792C110.821 51.7792 112.658 51.3665 113.668 50.7704C114.999 49.9909 115.596 48.6611 115.688 47.9733C115.826 47.423 115.872 46.8728 115.872 45.7379V27.9348H111.613V45.6003C111.613 47.572 110.879 48.2484 108.812 48.2484H107.802C107.114 48.2484 106.425 48.1108 105.645 47.8357C105.736 47.2855 105.782 46.6893 105.782 45.9557V37.2662H101.616V45.6805C101.616 47.5147 100.789 48.2943 98.9184 48.2943C98.2297 48.2943 97.541 48.2025 96.8064 47.9733C96.8982 47.3772 96.9441 46.781 96.9441 45.9213V37.2777H92.7776V45.692C92.7776 47.3428 92.3644 48.0306 91.1706 48.2599H89.0128C88.6914 48.2599 87.9568 48.3057 87.9568 47.893V37.2777H83.7902V48.2599H76.7312C79.0268 45.841 80.3927 43.2732 80.3927 41.3014C80.3927 37.5528 75.8589 35.6269 71.3709 35.6269C66.883 35.6269 62.3491 37.5528 62.3491 41.3014C62.3491 43.9495 64.7366 46.8384 66.1025 48.2599H59.6862V43.319C59.6862 38.3323 57.1266 35.7301 52.3517 35.7301C46.4864 35.7301 43.8809 39.7997 43.8809 43.8349C43.8809 46.7581 44.7991 49.005 46.5323 50.1972C48.5524 51.527 50.2397 51.8021 54.0964 51.8021H55.5197C55.4737 54.5419 53.9586 55.9176 50.9858 55.9176C49.6543 55.9176 48.0589 55.7342 46.3142 55.138L46.0387 55.0463V59.0242C48.1507 59.3911 49.7462 59.5745 51.2154 59.5745C56.8511 59.5745 59.7436 56.9722 59.8354 51.8021H88.2437C89.0701 51.8938 89.8966 51.9397 90.723 51.9397C92.3299 51.9397 93.5122 51.6646 94.66 51.0226C96.1751 51.6187 97.9542 51.9397 99.6989 51.9397C101.306 51.9397 102.626 51.6187 103.636 50.9309C105.013 51.527 106.712 51.8021 108.629 51.8021H109.042V51.7792ZM55.5311 48.2599H53.1093C49.6314 48.2599 48.1622 46.8842 48.1622 43.6859C48.1622 40.9804 49.6773 39.2494 52.0533 39.2494C54.4292 39.2494 55.5311 40.7168 55.5311 43.7776V48.2599ZM71.3824 47.9847C70.7855 47.9847 66.3435 43.7776 66.3435 41.3014C66.3435 39.9258 68.9949 39.1921 71.5201 39.1921C74.0453 39.1921 76.4672 39.9258 76.4672 41.3014C76.4672 43.7203 72.2088 47.9847 71.3824 47.9847Z" fill="#5F636A"/>
<path d="M123.24 27.8889H119.119V51.7792H123.24V27.8889Z" fill="#5F636A"/>
<path d="M204.838 26.6966H202.542C201.578 26.6507 201.348 26.4673 201.348 25.7336C201.348 24.9082 201.624 24.7248 202.634 24.7248C203.277 24.7248 203.736 24.8624 204.413 25.3668V23.3492L204.092 23.2116C203.587 22.9823 203.128 22.8906 202.577 22.8906C200.465 22.8906 199.282 23.8994 199.282 25.7795C199.282 26.1922 199.374 26.4673 199.466 26.6966H198.686V28.5307H204.826V26.6966H204.838Z" fill="#5F636A"/>
<path d="M198.675 66.2576C194.187 66.2576 190.525 69.9145 190.525 74.3968C190.525 78.879 194.187 82.5474 198.675 82.5474C203.163 82.5474 206.79 78.879 206.79 74.3968C206.79 69.9145 203.174 66.2576 198.675 66.2576ZM198.675 78.8446C196.196 78.8446 194.233 76.8271 194.233 74.4082C194.233 71.9894 196.207 70.0176 198.675 70.0176C201.143 70.0176 203.071 71.9894 203.071 74.4082C203.071 76.8271 201.108 78.8446 198.675 78.8446Z" fill="#5F636A"/>
<path d="M168.808 66.0742C167.018 66.0742 165.193 66.441 163.724 67.0371C162.53 66.3493 161.382 66.0742 159.741 66.0742C157.686 66.0742 155.574 66.3493 153.278 67.1288L152.865 67.2664V82.2265H156.94V69.9604C157.766 69.6852 158.409 69.5935 159.236 69.5935C161.256 69.5935 161.853 70.2355 161.853 72.3333V82.215H165.973V72.0582C165.973 71.1411 165.927 70.545 165.79 69.9948C166.616 69.7196 167.259 69.5821 167.993 69.5821C169.922 69.5821 170.783 70.4533 170.783 72.3219V82.2035H174.857V72.0009C174.857 69.9833 174.536 68.8025 173.618 67.7937C172.608 66.6932 170.909 66.0513 168.808 66.0513" fill="#5F636A"/>
<path d="M185.152 78.9938C182.432 78.9938 180.883 77.3086 180.883 74.3625C180.883 71.4163 182.455 69.6165 185.198 69.6165C185.772 69.6165 186.243 69.6738 186.702 69.8114C186.702 69.8114 187.54 70.0521 188.286 70.6368L190.008 67.6791C189.066 66.8996 187.965 66.5557 187.586 66.464C186.53 66.143 184.969 66.0972 184.969 66.0972C180.068 66.0972 176.773 69.4904 176.773 74.5459C176.773 79.6013 179.895 82.536 184.728 82.536C184.728 82.536 187.965 82.6736 190.145 80.6675L188.114 78.0652C187.012 78.7645 186.254 79.0052 185.141 79.0052" fill="#5F636A"/>
<path d="M131.997 66.2119C126.178 66.2119 123.48 68.7798 123.48 74.225V82.2381H127.647V74.1791C127.647 71.4393 129.208 69.7427 131.63 69.7427C132.64 69.7427 133.421 69.9261 133.971 70.0637L134.936 66.4526C133.317 66.2234 132.009 66.2234 132.009 66.2234" fill="#5F636A"/>
<path d="M150.49 73.7549V82.2151H144.9C141.055 82.2151 139.356 81.94 137.348 80.6102C135.603 79.418 134.639 77.1826 134.639 74.2479C134.639 70.2241 137.29 66.1545 143.155 66.1545C147.919 66.1545 150.49 68.8026 150.49 73.7435M146.415 74.202C146.415 71.1298 145.221 69.628 142.846 69.628C140.47 69.628 138.863 71.4049 138.863 74.1103C138.863 77.3545 140.424 78.776 143.901 78.776H146.427V74.202H146.415Z" fill="#5F636A"/>
<path d="M121.208 73.7549V82.2151H115.664C111.819 82.2151 110.12 81.94 108.111 80.6102C106.367 79.418 105.402 77.1826 105.402 74.2479C105.402 70.2241 108.054 66.1545 113.919 66.1545C118.683 66.1545 121.208 68.8026 121.208 73.7435M116.995 74.202C116.995 71.0954 115.893 69.628 113.471 69.628C111.05 69.628 109.489 71.4049 109.489 74.1103C109.489 77.3545 111.05 78.776 114.527 78.776H117.007V74.202H116.995Z" fill="#5F636A"/>
<path d="M33.871 72.5397C31.3802 71.7946 30.3931 71.3819 30.3931 70.5909C30.3931 69.7311 31.6557 69.2841 33.2052 69.2841C34.7548 69.2841 36.224 69.628 37.3259 69.9948L38.2786 66.4411C36.6372 66.0628 34.6285 65.845 33.2856 65.845C28.878 65.845 26.4676 67.8396 26.4676 70.8202C26.4676 72.299 26.8923 74.351 31.518 75.6464C34.2383 76.4374 35.2254 76.5406 35.2254 77.4233C35.2254 78.4206 33.5266 79.1313 31.5639 79.1313C29.6011 79.1313 27.4892 78.2486 26.2266 77.6296V81.5043C27.7187 82.1119 29.5896 82.5704 31.4835 82.5704C36.2929 82.5704 39.1509 80.5414 39.1509 77.3889C39.1509 75.0159 37.7047 73.6976 33.871 72.5512" fill="#5F636A"/>
<path d="M68.7533 76.2769C68.7533 78.2487 67.9728 78.9824 65.8608 78.9824H65.6313C63.5193 78.9824 62.7388 78.2487 62.7388 76.2769V66.3953H58.6641V76.5521C58.6641 81.2636 61.3155 82.5475 65.4017 82.5475H66.0904C70.4406 82.5475 72.9658 81.3095 72.9658 76.5521V66.3953H68.7533V76.2769Z" fill="#5F636A"/>
<path d="M95.0046 60.6289C93.7649 60.6289 92.8008 61.5919 92.8008 62.8299C92.8008 64.068 93.7649 65.031 95.0046 65.031C96.2442 65.031 97.2084 64.068 97.2084 62.8299C97.2084 61.5919 96.1983 60.6289 95.0046 60.6289Z" fill="#5F636A"/>
<path d="M97.0132 66.8538H92.9844V82.2265H97.0132V66.8538Z" fill="#5F636A"/>
<path d="M56.3803 73.7549V82.2151H50.7905C46.9338 82.2151 45.2466 81.94 43.2264 80.6102C41.4817 79.418 40.5176 77.1826 40.5176 74.2479C40.5176 70.2241 43.169 66.1545 49.0343 66.1545C53.7977 66.1545 56.3688 68.8026 56.3688 73.7435M52.2941 74.202C52.2941 71.1298 51.1004 69.628 48.7244 69.628C46.3485 69.628 44.7415 71.4049 44.7415 74.1103C44.7415 77.3545 46.3025 78.776 49.7804 78.776H52.3056V74.202H52.2941Z" fill="#5F636A"/>
<path d="M90.3775 60.3081V82.2266H85.2927C81.4475 82.2266 79.7488 81.9515 77.7401 80.6217C75.9954 79.4295 75.0312 77.1941 75.0312 74.2594C75.0312 69.3644 78.3255 66.2119 83.0889 66.2119H83.5021C84.5581 66.2119 85.5567 66.5329 86.429 67.0831V60.3081H90.366H90.3775ZM86.4405 74.2594C86.4405 70.9693 85.5222 69.6395 83.2381 69.6395C80.8047 69.6395 79.2552 71.4278 79.2552 74.1218C79.2552 77.366 80.7703 78.7875 84.2482 78.7875H86.452V74.2594H86.4405Z" fill="#5F636A"/>
<path d="M269.609 33.2883C270.608 33.7927 271.273 34.8015 271.147 35.6269C270.986 36.4638 270.091 36.7389 269.058 36.246C268.025 35.7301 267.359 34.6984 267.52 33.85C267.704 33.0361 268.61 32.8069 269.609 33.2883Z" fill="white"/>
<path d="M272.582 17.0672C273.397 17.5028 273.971 18.225 273.902 18.7409C273.81 19.2567 273.11 19.3255 272.261 18.9014C271.423 18.4657 270.838 17.7206 270.929 17.1933C271.044 16.6889 271.744 16.6316 272.571 17.0557" fill="white"/>
<path d="M272.857 15.4509C273.534 15.8177 274.016 16.4138 273.97 16.8265C273.902 17.2392 273.316 17.285 272.616 16.9297C271.916 16.5628 271.434 15.9553 271.503 15.5311C271.594 15.1184 272.18 15.0955 272.869 15.4509" fill="white"/>
<path d="M273.121 13.846C273.753 14.1899 274.2 14.7287 274.154 15.107C274.085 15.4853 273.546 15.5082 272.903 15.1757C272.26 14.8318 271.813 14.2701 271.87 13.9033C271.951 13.5364 272.49 13.525 273.133 13.8574" fill="white"/>
<path d="M273.362 12.2867C273.947 12.6077 274.361 13.1006 274.326 13.4331C274.269 13.7655 273.775 13.777 273.167 13.4675C272.57 13.1465 272.157 12.6421 272.203 12.3097C272.272 11.9772 272.777 11.9772 273.362 12.2867Z" fill="white"/>
<path d="M273.593 10.8424C274.144 11.1404 274.522 11.599 274.488 11.8856C274.442 12.1836 273.983 12.1836 273.42 11.8856C272.87 11.5875 272.479 11.1175 272.525 10.8194C272.583 10.5328 273.042 10.5328 273.593 10.8194" fill="white"/>
<path d="M273.81 9.53544C274.315 9.81056 274.659 10.2233 274.636 10.4869C274.59 10.7506 274.166 10.7506 273.66 10.4755C273.144 10.1889 272.788 9.77618 272.834 9.50105C272.891 9.24885 273.305 9.26031 273.81 9.52398" fill="white"/>
<path d="M274.005 8.28597C274.464 8.53817 274.797 8.87062 274.774 9.15721C274.728 9.43234 274.349 9.37502 273.879 9.12282C273.408 8.85916 273.064 8.51525 273.11 8.24012C273.167 7.96499 273.546 8.03377 274.016 8.28597" fill="white"/>
<path d="M274.211 7.0021C274.613 7.23137 274.9 7.51797 274.877 7.74724C274.831 7.97651 274.509 7.91919 274.096 7.70138C273.694 7.47211 273.396 7.18552 273.43 6.94478C273.476 6.71551 273.809 6.77283 274.211 7.0021Z" fill="white"/>
<path d="M274.406 5.79848C274.774 6.00482 275.038 6.26849 275.015 6.47483C274.98 6.68118 274.682 6.62386 274.315 6.41752C273.936 6.19971 273.672 5.9475 273.695 5.72969C273.741 5.52335 274.039 5.59213 274.406 5.78702" fill="white"/>
<path d="M274.579 4.61758C274.889 4.801 275.13 5.01881 275.107 5.19077C275.072 5.37418 274.82 5.3054 274.498 5.13344C274.177 4.95003 273.947 4.73222 273.97 4.5488C274.005 4.37684 274.257 4.43416 274.579 4.61758Z" fill="white"/>
<path d="M274.762 3.50576C275.049 3.66625 275.244 3.84967 275.221 4.01016C275.198 4.17065 274.968 4.10187 274.693 3.94138C274.417 3.78089 274.199 3.59747 274.222 3.43698C274.245 3.28795 274.475 3.34527 274.75 3.50576" fill="white"/>
<path d="M268.565 38.9627C267.704 38.5271 267.153 37.6444 267.291 36.9222C267.451 36.2114 268.209 35.9936 269.058 36.3834C269.885 36.8075 270.436 37.6673 270.332 38.3895C270.195 39.1232 269.437 39.3639 268.565 38.9627Z" fill="white"/>
<path d="M267.898 42.4247C267.06 42.012 266.532 41.1178 266.67 40.3841C266.831 39.6505 267.577 39.4097 268.403 39.7995C269.23 40.2007 269.746 41.072 269.632 41.8056C269.482 42.5508 268.736 42.8259 267.898 42.4361" fill="white"/>
<path d="M267.198 46.0244C266.383 45.6232 265.867 44.7405 266.016 43.9839C266.177 43.2388 266.911 42.9751 267.715 43.3419C268.507 43.7317 269.023 44.6029 268.897 45.3481C268.748 46.1047 268.013 46.4027 267.187 46.0244" fill="white"/>
<path d="M266.419 49.9908C265.627 49.6125 265.133 48.7183 265.282 47.9502C265.455 47.1936 266.178 46.8956 266.958 47.2509C267.739 47.6292 268.232 48.489 268.095 49.2571C267.934 50.0251 267.222 50.3461 266.419 49.9908Z" fill="white"/>
<path d="M265.615 53.9456C264.926 53.6246 264.501 52.8222 264.639 52.1229C264.8 51.4351 265.431 51.1485 266.12 51.4465C266.797 51.7675 267.21 52.5356 267.095 53.2349C266.946 53.9342 266.315 54.2437 265.615 53.9342" fill="white"/>
<path d="M264.639 58.7374C263.973 58.4279 263.571 57.6484 263.721 56.9262C263.881 56.2269 264.513 55.9059 265.167 56.1925C265.821 56.4906 266.211 57.2586 266.085 57.9808C265.936 58.6916 265.316 59.024 264.639 58.7374Z" fill="white"/>
<path d="M263.549 63.9192C262.952 63.6555 262.607 62.9219 262.745 62.2455C262.894 61.5806 263.468 61.2711 264.054 61.5118C264.639 61.7755 264.983 62.4862 264.857 63.1511C264.708 63.8275 264.145 64.1599 263.537 63.9192" fill="white"/>
<path d="M262.47 69.1006C261.953 68.8828 261.678 68.2523 261.804 67.6218C261.953 67.0142 262.435 66.7047 262.94 66.8996C263.434 67.1174 263.721 67.7365 263.606 68.3555C263.468 68.9745 262.975 69.2955 262.458 69.1006" fill="white"/>
<path d="M273.156 35.237C273.948 35.6382 274.488 36.4636 274.407 37.1285C274.304 37.8048 273.615 38.0226 272.8 37.6214C271.997 37.2087 271.457 36.3719 271.549 35.6955C271.675 35.0421 272.364 34.8357 273.156 35.2255" fill="white"/>
<path d="M276.657 36.7044C277.621 37.2088 278.31 38.252 278.241 39.1003C278.138 39.96 277.323 40.2352 276.324 39.7422C275.326 39.2149 274.637 38.1602 274.729 37.3005C274.855 36.4636 275.682 36.2229 276.669 36.7044" fill="white"/>
<path d="M300.898 35.4205C300.497 35.1683 300.233 35.2485 300.279 35.6039C300.336 35.9593 300.68 36.4407 301.082 36.7044C301.484 36.9566 301.759 36.8763 301.713 36.5095C301.656 36.1427 301.312 35.6727 300.91 35.409" fill="white"/>
<path d="M298.086 33.4945C297.558 33.185 297.19 33.2767 297.225 33.7238C297.282 34.1824 297.741 34.7899 298.269 35.1224C298.809 35.4434 299.165 35.3517 299.119 34.8816C299.05 34.4231 298.602 33.8155 298.086 33.4945Z" fill="white"/>
<path d="M290.201 59.7806C289.524 59.3679 288.996 59.6545 288.984 60.4684C288.984 61.2938 289.512 62.2682 290.201 62.7153C290.89 63.1395 291.406 62.8414 291.406 62.0046C291.395 61.1792 290.878 60.2162 290.201 59.7921" fill="white"/>
<path d="M286.837 53.1203C286.045 52.6732 285.425 52.9712 285.379 53.831C285.368 54.7022 285.964 55.734 286.756 56.2154C287.56 56.674 288.18 56.353 288.203 55.4703C288.203 54.5991 287.606 53.5788 286.837 53.1203Z" fill="white"/>
<path d="M283.303 47.3769C282.522 46.9528 281.891 47.2164 281.834 48.0074C281.799 48.7984 282.373 49.7499 283.165 50.2085C283.957 50.6326 284.588 50.346 284.634 49.5436C284.646 48.7526 284.072 47.8125 283.303 47.3769Z" fill="white"/>
<path d="M281.133 23.7735C280.422 23.4066 279.859 23.4869 279.813 23.9683C279.79 24.4727 280.318 25.1491 281.03 25.5503C281.753 25.9286 282.315 25.8254 282.338 25.321C282.35 24.8166 281.822 24.1403 281.122 23.762" fill="white"/>
<path d="M295.561 34.2281C295.01 33.9072 294.62 34.0103 294.654 34.4803C294.7 34.9618 295.16 35.5923 295.722 35.9362C296.273 36.2687 296.663 36.154 296.629 35.6726C296.571 35.1911 296.112 34.572 295.573 34.2396" fill="white"/>
<path d="M292.714 32.5203C292.128 32.1878 291.704 32.291 291.715 32.7725C291.75 33.2654 292.232 33.9073 292.828 34.2627C293.425 34.5952 293.85 34.4805 293.816 33.9876C293.77 33.4947 293.288 32.8527 292.714 32.5088" fill="white"/>
<path d="M287.033 31.5573C286.344 31.179 285.816 31.3051 285.805 31.8554C285.805 32.4171 286.344 33.1508 287.044 33.5405C287.744 33.9188 288.261 33.7813 288.261 33.2195C288.25 32.6578 287.71 31.9356 287.033 31.5573Z" fill="white"/>
<path d="M289.902 30.7891C289.248 30.4338 288.766 30.5369 288.766 31.0528C288.789 31.5801 289.317 32.2794 289.982 32.6692C290.648 33.036 291.13 32.9099 291.107 32.3826C291.073 31.8553 290.556 31.1674 289.902 30.7891Z" fill="white"/>
<path d="M286.894 29.0581C286.16 28.6569 285.597 28.7715 285.586 29.3447C285.586 29.9179 286.171 30.6974 286.917 31.1101C287.663 31.5113 288.226 31.3852 288.226 30.8006C288.203 30.2159 287.629 29.4708 286.894 29.0581Z" fill="white"/>
<path d="M284.002 29.7918C283.233 29.3906 282.636 29.5167 282.602 30.1128C282.59 30.7204 283.176 31.5113 283.945 31.947C284.725 32.3597 285.322 32.2106 285.345 31.603C285.345 30.9955 284.76 30.2159 284.002 29.7918Z" fill="white"/>
<path d="M279.928 41.863C279.125 41.4618 278.459 41.691 278.379 42.4247C278.321 43.1813 278.907 44.0984 279.71 44.5455C280.537 44.9582 281.191 44.706 281.248 43.9494C281.283 43.1928 280.709 42.2986 279.917 41.863" fill="white"/>
<path d="M280.168 38.6876C279.307 38.2405 278.595 38.4698 278.504 39.2378C278.446 40.0174 279.078 40.9918 279.961 41.4732C280.845 41.9318 281.557 41.6681 281.626 40.8886C281.66 40.1091 281.029 39.1576 280.168 38.699" fill="white"/>
<path d="M280.388 35.6957C279.446 35.2142 278.677 35.432 278.597 36.223C278.54 37.0369 279.228 38.0572 280.181 38.5731C281.145 39.066 281.903 38.8138 281.96 37.9999C281.995 37.186 281.317 36.2001 280.388 35.6957Z" fill="white"/>
<path d="M280.581 32.8985C279.675 32.4399 278.929 32.6119 278.86 33.357C278.814 34.1136 279.479 35.0765 280.409 35.5809C281.339 36.0624 282.074 35.8446 282.131 35.0765C282.154 34.3314 281.488 33.3799 280.593 32.8985" fill="white"/>
<path d="M280.708 30.4797C279.916 30.067 279.262 30.2161 279.205 30.8351C279.17 31.4771 279.756 32.3024 280.559 32.7381C281.374 33.1622 282.017 32.9903 282.063 32.3483C282.086 31.7178 281.5 30.9039 280.708 30.4797Z" fill="white"/>
<path d="M280.892 28.0035C280.031 27.5564 279.331 27.694 279.274 28.336C279.228 29.0009 279.871 29.8836 280.754 30.3536C281.638 30.8121 282.327 30.6516 282.373 29.9753C282.384 29.3218 281.753 28.4621 280.904 28.0035" fill="white"/>
<path d="M281.019 25.7565C280.181 25.3209 279.504 25.4355 279.447 26.0316C279.412 26.6507 280.044 27.4875 280.893 27.9575C281.754 28.4046 282.419 28.267 282.465 27.648C282.477 27.029 281.857 26.215 281.019 25.768" fill="white"/>
<path d="M275.577 18.89C274.98 18.5919 274.498 18.6378 274.429 19.0046C274.383 19.3829 274.808 19.9217 275.405 20.2427C276.002 20.5522 276.495 20.4949 276.541 20.1166C276.576 19.7383 276.162 19.211 275.577 18.89Z" fill="white"/>
<path d="M275.703 17.1359C275.163 16.8493 274.716 16.8837 274.658 17.2161C274.624 17.5601 275.003 18.0415 275.554 18.3281C276.105 18.6147 276.552 18.5689 276.598 18.2364C276.633 17.8925 276.242 17.4225 275.714 17.1359" fill="white"/>
<path d="M275.785 15.4852C275.314 15.233 274.924 15.256 274.878 15.5311C274.855 15.8177 275.188 16.2304 275.659 16.4826C276.129 16.7348 276.508 16.7118 276.554 16.4252C276.577 16.1501 276.244 15.7374 275.785 15.4852Z" fill="white"/>
<path d="M275.853 13.8802C275.428 13.6509 275.084 13.6395 275.049 13.9031C275.015 14.1783 275.325 14.5107 275.75 14.74C276.186 14.9692 276.519 14.9807 276.553 14.7056C276.576 14.4305 276.266 14.098 275.853 13.8687" fill="white"/>
<path d="M275.945 12.3901C275.554 12.1837 275.233 12.1493 275.199 12.3901C275.176 12.6423 275.463 12.9403 275.853 13.1581C276.255 13.3645 276.564 13.3989 276.599 13.1467C276.622 12.8945 276.335 12.5964 275.945 12.3786" fill="white"/>
<path d="M276.013 10.8883C275.668 10.7049 275.393 10.6705 275.347 10.8883C275.324 11.1061 275.588 11.3698 275.932 11.5646C276.288 11.7595 276.564 11.7939 276.587 11.5646C276.598 11.3468 276.346 11.0946 276.001 10.8998" fill="white"/>
<path d="M276.072 9.5699C275.75 9.39795 275.486 9.35209 275.463 9.54698C275.452 9.74186 275.681 9.98259 276.003 10.166C276.336 10.338 276.588 10.3838 276.611 10.1775C276.623 9.98259 276.393 9.74186 276.072 9.5699Z" fill="white"/>
<path d="M276.128 8.20583C275.841 8.04534 275.623 8.01095 275.6 8.17144C275.6 8.34339 275.795 8.54974 276.082 8.71023C276.369 8.87072 276.587 8.90511 276.61 8.73316C276.621 8.57267 276.415 8.35486 276.128 8.20583Z" fill="white"/>
<path d="M272.397 40.4417C273.029 40.7397 273.557 40.5563 273.649 40.0175C273.706 39.4787 273.304 38.8253 272.684 38.5158C272.065 38.2177 271.525 38.3897 271.433 38.917C271.364 39.4558 271.778 40.1207 272.397 40.4417Z" fill="white"/>
<path d="M271.87 43.9149C272.467 44.2015 272.984 44.0066 273.076 43.4678C273.144 42.9176 272.754 42.2871 272.169 41.989C271.572 41.7139 271.055 41.8859 270.964 42.4247C270.883 42.9634 271.273 43.6169 271.882 43.9149" fill="white"/>
<path d="M271.043 47.4803C271.64 47.7554 272.145 47.5491 272.237 46.9873C272.306 46.4371 271.927 45.7837 271.353 45.4971C270.768 45.2219 270.262 45.4283 270.159 45.9785C270.079 46.5403 270.458 47.1937 271.043 47.4917" fill="white"/>
<path d="M270.287 51.355C270.838 51.6072 271.32 51.3893 271.412 50.8391C271.492 50.2888 271.125 49.6813 270.585 49.4061C270.034 49.1539 269.552 49.3603 269.461 49.8991C269.38 50.4493 269.736 51.0798 270.287 51.3435" fill="white"/>
<path d="M269.367 55.2412C269.884 55.4819 270.343 55.2412 270.435 54.7139C270.515 54.1865 270.182 53.5904 269.677 53.3382C269.161 53.1089 268.713 53.3267 268.61 53.8541C268.53 54.3929 268.851 55.0004 269.367 55.2412Z" fill="white"/>
<path d="M268.301 59.8496C268.783 60.0674 269.219 59.8267 269.311 59.2994C269.392 58.772 269.082 58.1988 268.611 57.9696C268.129 57.7518 267.704 57.981 267.601 58.5084C267.521 59.0357 267.819 59.6203 268.301 59.8496Z" fill="white"/>
<path d="M283.945 27.499C283.234 27.1207 282.683 27.2239 282.648 27.7512C282.648 28.29 283.188 29.0122 283.9 29.4134C284.623 29.7917 285.174 29.6771 285.185 29.1268C285.185 28.588 284.634 27.8888 283.945 27.499Z" fill="white"/>
<path d="M283.784 32.3368C283.153 32.0043 282.648 32.1189 282.613 32.6348C282.613 33.1507 283.084 33.8385 283.727 34.1939C284.381 34.5378 284.886 34.4002 284.897 33.8729C284.897 33.3456 284.415 32.6807 283.784 32.3368Z" fill="white"/>
<path d="M283.738 34.8474C283.015 34.4691 282.429 34.6181 282.395 35.2371C282.383 35.8562 282.923 36.6586 283.669 37.0599C284.403 37.4496 284.977 37.2777 285.012 36.6472C285.012 36.0281 284.461 35.2486 283.749 34.8474" fill="white"/>
<path d="M283.372 43.8463C282.66 43.468 282.087 43.6858 282.041 44.3622C282.006 45.05 282.534 45.8983 283.257 46.2996C283.98 46.6779 284.543 46.4486 284.589 45.7608C284.6 45.0729 284.072 44.2476 283.372 43.8463Z" fill="white"/>
<path d="M295.331 31.7637C294.734 31.4197 294.309 31.5115 294.344 32.0044C294.39 32.4973 294.895 33.1622 295.503 33.5291C296.111 33.873 296.525 33.7698 296.49 33.2654C296.421 32.7725 295.928 32.1076 295.331 31.7522" fill="white"/>
<path d="M286.596 57.4421C285.942 57.0638 285.414 57.339 285.379 58.0956C285.368 58.8636 285.861 59.7578 286.527 60.159C287.193 60.5373 287.709 60.2507 287.744 59.4827C287.744 58.7146 287.262 57.8434 286.607 57.4421" fill="white"/>
<path d="M290.246 64.2514C289.626 63.8617 289.133 64.1483 289.121 64.9392C289.121 65.7302 289.603 66.6703 290.234 67.0944C290.866 67.4956 291.348 67.1976 291.348 66.3837C291.348 65.5812 290.866 64.6641 290.246 64.2514Z" fill="white"/>
<path d="M283.015 51.1257C282.292 50.736 281.695 51.0111 281.637 51.7677C281.592 52.5358 282.131 53.4529 282.866 53.8656C283.612 54.2553 284.197 53.9687 284.243 53.2007C284.266 52.4326 283.738 51.5384 283.015 51.1372" fill="white"/>
<path d="M279.642 45.52C278.93 45.1531 278.333 45.3824 278.253 46.0702C278.207 46.7695 278.712 47.6178 279.435 48.0076C280.17 48.3859 280.767 48.1222 280.824 47.423C280.858 46.7237 280.353 45.8983 279.642 45.52Z" fill="white"/>
<path d="M276.358 40.0633C275.566 39.6735 274.912 39.8913 274.809 40.5906C274.728 41.3013 275.279 42.1726 276.071 42.5852C276.875 42.975 277.54 42.7343 277.621 42.0235C277.678 41.3128 277.127 40.4645 276.358 40.0633Z" fill="white"/>
<path d="M283.51 40.7855C282.844 40.4415 282.316 40.625 282.27 41.2211C282.247 41.8401 282.741 42.5967 283.418 42.975C284.095 43.3418 284.623 43.1355 284.658 42.5165C284.658 41.8974 284.176 41.1523 283.51 40.774" fill="white"/>
<path d="M281.225 21.8476C280.605 21.5267 280.1 21.584 280.065 21.9967C280.042 22.4208 280.513 23.0169 281.144 23.3494C281.775 23.6818 282.258 23.613 282.292 23.1889C282.292 22.7647 281.833 22.1801 281.225 21.8476Z" fill="white"/>
<path d="M292.566 30.3193C292.072 30.0441 291.716 30.1244 291.739 30.5141C291.774 30.9039 292.175 31.4312 292.669 31.7293C293.163 32.0159 293.518 31.9242 293.495 31.5344C293.461 31.1446 293.059 30.6173 292.566 30.3307" fill="white"/>
<path d="M287.055 36.9109C286.493 36.6014 286.068 36.7389 286.045 37.2204C286.045 37.7133 286.481 38.3438 287.044 38.6648C287.606 38.9743 288.031 38.8368 288.042 38.3324C288.042 37.8394 287.606 37.2204 287.055 36.9109Z" fill="white"/>
<path d="M286.78 49.4405C286.091 49.0507 285.552 49.2915 285.518 50.0137C285.518 50.7474 286.023 51.6186 286.734 52.0313C287.434 52.421 287.974 52.1688 287.985 51.4352C287.985 50.713 287.469 49.8417 286.78 49.4405Z" fill="white"/>
<path d="M283.623 37.8738C282.981 37.5299 282.464 37.6904 282.418 38.2521C282.407 38.8253 282.889 39.5589 283.543 39.9143C284.197 40.2697 284.714 40.0977 284.737 39.5131C284.737 38.9399 284.266 38.2292 283.623 37.8738Z" fill="white"/>
<path d="M290.27 41.5993C289.639 41.2439 289.168 41.4159 289.168 42.0005C289.179 42.5966 289.684 43.3532 290.316 43.7315C290.947 44.0984 291.418 43.915 291.406 43.3074C291.372 42.7113 290.89 41.9661 290.27 41.5878" fill="white"/>
<path d="M292.968 71.8978C292.463 71.5424 292.084 71.8061 292.072 72.5169C292.072 73.2391 292.485 74.0874 292.99 74.4771C293.507 74.844 293.874 74.5803 293.874 73.8466C293.851 73.1244 293.461 72.2761 292.968 71.9093" fill="white"/>
<path d="M290.006 33.3111C289.421 32.9901 288.996 33.1048 288.996 33.5862C289.019 34.0677 289.478 34.7097 290.064 35.0536C290.66 35.386 291.085 35.2599 291.074 34.767C291.051 34.2741 290.58 33.655 290.006 33.3111Z" fill="white"/>
<path d="M278.31 20.3687C277.748 20.0707 277.277 20.1165 277.231 20.4834C277.208 20.8617 277.622 21.3775 278.184 21.6985C278.758 21.9966 279.217 21.9393 279.252 21.561C279.263 21.1827 278.861 20.6668 278.299 20.3687" fill="white"/>
<path d="M284.026 21.561C283.487 21.2744 283.074 21.3202 283.051 21.6756C283.051 22.0424 283.464 22.5583 284.015 22.8563C284.566 23.1429 284.979 23.0971 284.991 22.7302C284.991 22.3634 284.566 21.859 284.026 21.561Z" fill="white"/>
<path d="M289.822 28.7831C289.374 28.5309 289.042 28.5997 289.053 28.9436C289.076 29.2875 289.432 29.7575 289.879 30.0097C290.339 30.2619 290.671 30.1931 290.648 29.8378C290.626 29.4939 290.27 29.0353 289.822 28.7717" fill="white"/>
<path d="M286.918 39.7881C286.344 39.4786 285.908 39.6276 285.885 40.1435C285.885 40.6708 286.321 41.3357 286.906 41.6681C287.492 41.9891 287.928 41.8286 287.939 41.2898C287.939 40.7625 287.492 40.1091 286.929 39.7766" fill="white"/>
<path d="M290.085 38.722C289.592 38.4469 289.213 38.5615 289.213 39.0086C289.224 39.4557 289.615 40.0403 290.12 40.3269C290.625 40.6135 290.992 40.4874 290.981 40.0289C290.958 39.5703 290.567 39.0086 290.085 38.722Z" fill="white"/>
<path d="M293.334 43.5368C292.783 43.2044 292.381 43.3649 292.393 43.9037C292.416 44.4539 292.863 45.1532 293.426 45.5086C293.977 45.8525 294.379 45.6805 294.367 45.1188C294.333 44.5686 293.885 43.8808 293.346 43.5368" fill="white"/>
<path d="M298.293 36.0739C297.88 35.8217 297.582 35.9135 297.616 36.2803C297.662 36.6586 298.018 37.1515 298.442 37.4267C298.867 37.6789 299.154 37.5871 299.108 37.2088C299.062 36.8305 298.706 36.3376 298.293 36.0739Z" fill="white"/>
<path d="M284.037 19.8642C283.566 19.612 283.199 19.6349 283.188 19.9444C283.188 20.254 283.555 20.6896 284.037 20.9647C284.519 21.2169 284.886 21.1825 284.886 20.873C284.886 20.5635 284.507 20.1393 284.037 19.8642Z" fill="white"/>
<path d="M284.014 23.4869C283.521 23.2233 283.13 23.2806 283.107 23.6245C283.107 23.9684 283.486 24.4499 283.991 24.725C284.496 24.9887 284.875 24.9313 284.887 24.5874C284.887 24.2435 284.508 23.7621 284.003 23.4869" fill="white"/>
<path d="M293.506 67.2549C292.932 66.8651 292.496 67.1403 292.496 67.8969C292.508 68.6649 292.967 69.5935 293.552 70.0062C294.137 70.4074 294.562 70.1323 294.551 69.3413C294.528 68.5618 294.069 67.6561 293.506 67.2434" fill="white"/>
<path d="M281.305 20.1508C280.812 19.8986 280.421 19.933 280.398 20.2425C280.398 20.5635 280.754 21.0221 281.259 21.2972C281.753 21.5609 282.143 21.515 282.155 21.194C282.155 20.8731 281.799 20.426 281.305 20.1508Z" fill="white"/>
<path d="M286.906 34.2627C286.412 33.999 286.045 34.1022 286.033 34.5034C286.033 34.9161 286.412 35.4549 286.906 35.73C287.399 35.9937 287.778 35.8905 287.778 35.4778C287.766 35.0651 287.388 34.5378 286.906 34.2627Z" fill="white"/>
<path d="M286.872 27.2468C286.47 27.029 286.148 27.0863 286.148 27.3843C286.148 27.6939 286.481 28.1065 286.883 28.3358C287.296 28.5651 287.606 28.4963 287.606 28.1868C287.595 27.8773 287.273 27.476 286.872 27.2468Z" fill="white"/>
<path d="M286.837 46.1503C286.343 45.8752 285.965 46.0357 285.953 46.5171C285.953 47.0101 286.32 47.6062 286.814 47.8928C287.308 48.1679 287.698 48.0074 287.698 47.5145C287.698 47.0215 287.319 46.4254 286.837 46.1503Z" fill="white"/>
<path d="M290.293 55.6997C289.731 55.3558 289.295 55.585 289.283 56.227C289.283 56.869 289.731 57.6485 290.293 58.0153C290.867 58.3592 291.292 58.13 291.292 57.4765C291.292 56.8231 290.856 56.055 290.293 55.6997Z" fill="white"/>
<path d="M283.98 25.7222C283.601 25.5273 283.314 25.5732 283.303 25.8368C283.303 26.1119 283.578 26.4788 283.957 26.6851C284.336 26.88 284.623 26.8342 284.634 26.559C284.634 26.2954 284.347 25.9285 283.98 25.7222Z" fill="white"/>
<path d="M290.006 68.8369C289.559 68.5503 289.214 68.7796 289.191 69.3757C289.191 69.9718 289.536 70.6711 289.983 70.9692C290.443 71.2558 290.787 71.0265 290.798 70.4189C290.798 69.8228 290.454 69.135 290.006 68.8369Z" fill="white"/>
<path d="M292.886 35.1682C292.415 34.9045 292.083 34.9962 292.094 35.3975C292.128 35.7987 292.496 36.326 292.966 36.6126C293.437 36.8877 293.781 36.7846 293.758 36.3719C293.724 35.9706 293.345 35.4433 292.886 35.1682Z" fill="white"/>
<path d="M286.838 21.4579C286.413 21.2286 286.092 21.263 286.092 21.5381C286.092 21.8247 286.436 22.2259 286.872 22.4667C287.308 22.6959 287.618 22.6615 287.618 22.375C287.595 22.0998 287.263 21.6986 286.838 21.4579Z" fill="white"/>
<path d="M303.677 37.3004C303.333 37.0826 303.114 37.1514 303.16 37.4724C303.218 37.7819 303.516 38.2175 303.849 38.4468C304.193 38.6761 304.412 38.5958 304.366 38.2748C304.308 37.9538 304.01 37.5297 303.677 37.3004Z" fill="white"/>
<path d="M296.457 45.5886C295.963 45.2791 295.619 45.4281 295.642 45.9325C295.676 46.4484 296.078 47.0904 296.583 47.4228C297.076 47.7323 297.421 47.5833 297.398 47.0674C297.352 46.5516 296.95 45.9096 296.468 45.5886" fill="white"/>
<path d="M294.941 76.8615C294.527 76.5176 294.229 76.7583 294.241 77.4117C294.264 78.0766 294.585 78.8676 294.998 79.2345C295.411 79.5898 295.71 79.3491 295.698 78.6727C295.675 77.9964 295.354 77.2054 294.952 76.8615" fill="white"/>
<path d="M286.448 61.9932C285.954 61.7066 285.564 61.9359 285.529 62.5205C285.529 63.1167 285.885 63.8045 286.379 64.1025C286.872 64.3891 287.262 64.1598 287.285 63.5523C287.285 62.9562 286.93 62.2798 286.448 61.9817" fill="white"/>
<path d="M293.197 40.7854C292.852 40.5791 292.588 40.6708 292.6 41.0032C292.623 41.3357 292.898 41.7598 293.254 41.9776C293.61 42.1955 293.863 42.0923 293.851 41.7598C293.828 41.4274 293.541 40.9918 293.197 40.7854Z" fill="white"/>
<path d="M286.688 19.7153C286.321 19.5204 286.057 19.5089 286.057 19.7726C286.068 20.0248 286.355 20.3343 286.722 20.5406C287.09 20.7355 287.365 20.7355 287.354 20.4833C287.342 20.2311 287.044 19.9216 286.688 19.7153Z" fill="white"/>
<path d="M289.271 21.2744C288.973 21.1139 288.755 21.1139 288.766 21.3202C288.789 21.538 289.019 21.7902 289.317 21.9622C289.615 22.1227 289.834 22.1227 289.822 21.9163C289.799 21.6985 289.57 21.4348 289.271 21.2744Z" fill="white"/>
<path d="M282.831 55.7569C282.395 55.5161 282.028 55.6996 281.993 56.1925C281.97 56.674 282.292 57.2471 282.728 57.4993C283.176 57.7401 283.531 57.5452 283.566 57.0523C283.589 56.5708 283.267 56.0091 282.831 55.7569Z" fill="white"/>
<path d="M279.206 49.7041C278.769 49.4863 278.414 49.6468 278.356 50.0824C278.322 50.518 278.632 51.0453 279.068 51.2861C279.515 51.5039 279.871 51.3434 279.917 50.8963C279.952 50.4492 279.63 49.9334 279.206 49.7041Z" fill="white"/>
<path d="M275.842 44.0869C275.406 43.8691 275.05 44.0181 274.981 44.4079C274.947 44.8091 275.234 45.3021 275.67 45.5313C276.106 45.7491 276.473 45.6001 276.519 45.1874C276.554 44.7862 276.267 44.3047 275.842 44.0869Z" fill="white"/>
<path d="M289.11 19.6351C288.789 19.4632 288.559 19.4517 288.571 19.681C288.594 19.9103 288.846 20.1739 289.168 20.3573C289.489 20.5293 289.719 20.5408 289.707 20.3115C289.684 20.0822 289.432 19.8186 289.11 19.6466" fill="white"/>
<path d="M291.142 19.6808C290.867 19.5317 290.672 19.5203 290.672 19.7152C290.683 19.91 290.901 20.1393 291.188 20.2998C291.464 20.4488 291.67 20.4603 291.648 20.2654C291.636 20.0705 291.418 19.8413 291.131 19.6808" fill="white"/>
<path d="M299.532 47.9387C299.222 47.7324 299.004 47.8241 299.027 48.168C299.061 48.5119 299.314 48.9475 299.635 49.1653C299.945 49.3717 300.163 49.28 300.14 48.9246C300.106 48.5807 299.853 48.1565 299.544 47.9387" fill="white"/>
<path d="M296.687 48.7184C296.297 48.4662 296.01 48.5923 296.033 49.0164C296.067 49.452 296.388 49.9908 296.779 50.2545C297.169 50.5181 297.456 50.3806 297.433 49.945C297.398 49.5093 297.077 48.982 296.687 48.7069" fill="white"/>
<path d="M293.495 46.735C293.128 46.5057 292.864 46.6203 292.875 46.9986C292.887 47.3769 293.185 47.8584 293.553 48.0877C293.92 48.317 294.184 48.1909 294.172 47.8126C294.161 47.4343 293.862 46.9643 293.495 46.7235" fill="white"/>
<path d="M290.236 44.8205C289.891 44.6256 289.639 44.7288 289.639 45.0613C289.639 45.4052 289.914 45.8179 290.247 46.0242C290.591 46.2191 290.844 46.1159 290.844 45.772C290.844 45.4281 290.568 45.0154 290.236 44.8091" fill="white"/>
<path d="M286.907 42.8833C286.563 42.6884 286.287 42.7916 286.287 43.124C286.287 43.4565 286.551 43.8577 286.895 44.064C287.24 44.2589 287.504 44.1557 287.515 43.8233C287.515 43.4908 287.251 43.0896 286.907 42.8833Z" fill="white"/>
<path d="M299.693 50.9193C299.383 50.7015 299.165 50.8047 299.176 51.1716C299.211 51.5384 299.475 51.9969 299.785 52.2147C300.094 52.4326 300.313 52.3294 300.29 51.9625C300.255 51.5957 300.003 51.1372 299.681 50.9193" fill="white"/>
<path d="M302.85 53.2922C302.575 53.0859 302.38 53.1776 302.414 53.5215C302.449 53.8654 302.69 54.301 302.965 54.5188C303.241 54.7366 303.436 54.6335 303.401 54.2896C303.367 53.9457 303.126 53.51 302.862 53.3037" fill="white"/>
<path d="M286.792 23.2919C286.447 23.097 286.183 23.1199 286.172 23.3721C286.183 23.6358 286.459 23.9568 286.815 24.1402C287.159 24.3351 287.434 24.3121 287.423 24.0485C287.412 23.7848 287.136 23.4753 286.792 23.2804" fill="white"/>
<path d="M265.925 31.6488C265.098 31.2705 264.352 31.4539 264.18 32.0844C264.031 32.7493 264.547 33.5633 265.385 33.9759C266.223 34.3657 266.969 34.1594 267.13 33.5059C267.256 32.8525 266.739 32.0501 265.925 31.6488Z" fill="white"/>
<path d="M262.366 29.6429C261.333 29.1729 260.346 29.3907 260.093 30.1817C259.864 30.9956 260.506 32.0159 261.574 32.5203C262.641 33.0017 263.617 32.7495 263.847 31.9356C264.042 31.1217 263.399 30.1473 262.366 29.6429Z" fill="white"/>
<path d="M238.538 4.51452C239.088 4.7094 239.364 5.0533 239.18 5.31697C238.974 5.58063 238.377 5.63795 237.803 5.45454C237.229 5.25965 236.954 4.92721 237.16 4.65208C237.378 4.39988 237.975 4.3311 238.538 4.51452Z" fill="white"/>
<path d="M242.463 5.72972C243.129 5.98192 243.473 6.42901 243.255 6.76145C243.026 7.08243 242.326 7.13975 241.637 6.89901C240.96 6.63535 240.604 6.19973 240.845 5.86729C241.086 5.54631 241.798 5.48898 242.463 5.72972Z" fill="white"/>
<path d="M240.982 36.796C241.613 37.0482 241.912 37.6214 241.694 38.1373C241.453 38.6531 240.775 38.871 240.121 38.6302C239.478 38.378 239.18 37.7819 239.421 37.266C239.674 36.7616 240.351 36.5668 240.993 36.796" fill="white"/>
<path d="M246.607 33.9875C247.457 34.3429 247.904 35.1224 247.64 35.8217C247.342 36.5095 246.458 36.7732 245.574 36.4407C244.702 36.0739 244.266 35.26 244.541 34.5722C244.851 33.8958 245.746 33.6551 246.607 33.9875Z" fill="white"/>
<path d="M252.265 32.3482C253.161 32.7495 253.654 33.5863 253.413 34.297C253.149 35.0078 252.242 35.2715 251.324 34.8932C250.406 34.4919 249.912 33.6322 250.176 32.9099C250.463 32.2107 251.37 31.9814 252.277 32.3482" fill="white"/>
<path d="M262.825 14.3389C263.582 14.7172 264.065 15.3477 263.938 15.8062C263.789 16.2647 263.089 16.3335 262.308 15.9667C261.528 15.5769 261.046 14.935 261.195 14.4764C261.356 14.0293 262.067 13.9835 262.836 14.3389" fill="white"/>
<path d="M244.942 8.92795C245.653 9.20308 246.032 9.69601 245.814 10.0743C245.585 10.4526 244.85 10.5329 244.127 10.2692C243.404 9.98261 243.025 9.50113 243.243 9.11137C243.496 8.74453 244.219 8.66429 244.942 8.92795Z" fill="white"/>
<path d="M248.582 10.3151C249.305 10.6131 249.707 11.1405 249.5 11.5417C249.282 11.9314 248.559 12.0232 247.802 11.7251C247.067 11.4156 246.665 10.8883 246.883 10.487C247.113 10.0973 247.848 10.0285 248.582 10.3151Z" fill="white"/>
<path d="M254.631 15.1986C255.423 15.5654 255.882 16.1959 255.698 16.6774C255.492 17.1588 254.711 17.2505 253.896 16.9066C253.081 16.5398 252.622 15.8978 252.829 15.4049C253.058 14.9464 253.839 14.8546 254.631 15.1986Z" fill="white"/>
<path d="M252.093 11.6907C252.862 12.0346 253.309 12.6307 253.114 13.0778C252.896 13.5134 252.127 13.6051 251.324 13.2727C250.532 12.9288 250.084 12.3212 250.29 11.8741C250.52 11.45 251.301 11.3697 252.081 11.7022" fill="white"/>
<path d="M255.607 13.1926C256.421 13.5709 256.904 14.2243 256.72 14.7058C256.513 15.1872 255.721 15.279 254.872 14.9007C254.034 14.5109 253.54 13.8575 253.759 13.3645C253.988 12.8945 254.792 12.8257 255.607 13.1926Z" fill="white"/>
<path d="M258.097 16.6887C258.946 17.09 259.463 17.8007 259.291 18.3395C259.084 18.8783 258.269 18.9929 257.385 18.5917C256.513 18.179 255.996 17.4568 256.191 16.918C256.41 16.3907 257.236 16.299 258.097 16.6887Z" fill="white"/>
<path d="M257.499 30.9267C258.383 31.3394 258.888 32.1647 258.704 32.864C258.475 33.5633 257.614 33.804 256.707 33.4028C255.8 32.9901 255.284 32.1303 255.513 31.4425C255.766 30.7662 256.627 30.5484 257.511 30.9381" fill="white"/>
<path d="M258.407 28.0035C259.359 28.4506 259.922 29.3218 259.715 30.044C259.486 30.7662 258.556 30.984 257.58 30.5599C256.605 30.1013 256.042 29.2072 256.272 28.485C256.524 27.7857 257.454 27.5793 258.407 28.0035Z" fill="white"/>
<path d="M259.21 25.2522C260.231 25.7451 260.84 26.6622 260.633 27.4074C260.392 28.1525 259.417 28.3703 258.361 27.9003C257.305 27.4074 256.696 26.4559 256.937 25.7108C257.213 24.9885 258.188 24.7937 259.221 25.2522" fill="white"/>
<path d="M260.036 22.6959C261.023 23.1659 261.62 24.0486 261.436 24.7364C261.206 25.4357 260.277 25.6191 259.244 25.1606C258.222 24.6791 257.614 23.7735 257.843 23.0857C258.096 22.4093 259.037 22.2603 260.036 22.7074" fill="white"/>
<path d="M260.748 20.4604C261.609 20.873 262.137 21.6296 261.976 22.2143C261.792 22.7989 260.966 22.9365 260.082 22.5238C259.198 22.0997 258.659 21.3316 258.842 20.7469C259.049 20.1852 259.875 20.0591 260.736 20.4604" fill="white"/>
<path d="M261.551 18.2136C262.481 18.6722 263.055 19.4632 262.894 20.0822C262.699 20.6898 261.827 20.8159 260.863 20.3688C259.91 19.8988 259.325 19.0849 259.52 18.4773C259.738 17.8927 260.622 17.7895 261.551 18.2251" fill="white"/>
<path d="M262.239 16.1615C263.146 16.6086 263.708 17.3766 263.559 17.9383C263.375 18.5001 262.538 18.6032 261.596 18.1676C260.667 17.7205 260.093 16.9295 260.276 16.3563C260.483 15.8061 261.332 15.7258 262.239 16.15" fill="white"/>
<path d="M269.447 15.6914C270.044 16.0009 270.446 16.5283 270.389 16.8951C270.297 17.2619 269.769 17.3078 269.16 16.9983C268.541 16.6773 268.139 16.15 268.219 15.7831C268.311 15.4163 268.85 15.3819 269.447 15.6914Z" fill="white"/>
<path d="M269.918 14.0408C270.469 14.3274 270.836 14.7974 270.779 15.1298C270.71 15.4508 270.228 15.4852 269.666 15.1986C269.103 14.912 268.724 14.4305 268.793 14.1095C268.885 13.7886 269.356 13.7656 269.918 14.0522" fill="white"/>
<path d="M270.402 12.5046C270.872 12.7568 271.194 13.158 271.148 13.4332C271.079 13.6968 270.677 13.7198 270.184 13.4676C269.702 13.2154 269.38 12.8027 269.426 12.5275C269.495 12.2639 269.908 12.2524 270.39 12.4931" fill="white"/>
<path d="M270.826 11.0144C271.251 11.2437 271.549 11.5647 271.503 11.8398C271.435 12.1035 271.079 12.0805 270.643 11.8513C270.206 11.622 269.908 11.2895 269.954 11.0144C270.023 10.7508 270.39 10.7851 270.826 11.0144Z" fill="white"/>
<path d="M271.227 9.67308C271.628 9.89089 271.904 10.1889 271.869 10.4297C271.812 10.6704 271.479 10.636 271.077 10.4297C270.676 10.2119 270.389 9.91382 270.435 9.67308C270.503 9.43235 270.836 9.4782 271.227 9.67308Z" fill="white"/>
<path d="M271.606 8.40071C271.962 8.59559 272.203 8.84779 272.168 9.0656C272.122 9.27194 271.824 9.23756 271.468 9.05414C271.112 8.85926 270.86 8.59559 270.906 8.38924C270.963 8.1829 271.25 8.22875 271.606 8.41217" fill="white"/>
<path d="M271.927 7.32295C272.249 7.50637 272.478 7.73565 272.455 7.93053C272.41 8.12541 272.146 8.07955 271.813 7.89614C271.48 7.71272 271.25 7.47198 271.285 7.28856C271.331 7.10514 271.606 7.13953 271.927 7.32295Z" fill="white"/>
<path d="M272.271 6.22262C272.558 6.38312 272.765 6.58946 272.73 6.74995C272.696 6.91044 272.455 6.86459 272.168 6.7041C271.881 6.54361 271.674 6.33726 271.697 6.17677C271.743 6.01628 271.973 6.06213 272.259 6.22262" fill="white"/>
<path d="M264.731 36.6814C264.088 36.3719 263.698 35.7299 263.813 35.1911C263.951 34.6753 264.536 34.5148 265.179 34.8014C265.81 35.1109 266.212 35.7414 266.097 36.2687C265.971 36.796 265.385 36.968 264.731 36.6814Z" fill="white"/>
<path d="M264.03 40.0746C263.41 39.7766 263.043 39.1461 263.158 38.6187C263.295 38.1029 263.858 37.9195 264.466 38.1946C265.074 38.4812 265.442 39.1117 265.338 39.639C265.212 40.1663 264.65 40.3497 264.03 40.0746Z" fill="white"/>
<path d="M263.376 43.6628C262.768 43.3762 262.4 42.7343 262.527 42.184C262.676 41.6452 263.227 41.4503 263.835 41.714C264.432 42.0006 264.799 42.6311 264.685 43.1699C264.547 43.7201 263.984 43.9265 263.376 43.6514" fill="white"/>
<path d="M262.78 47.5603C262.206 47.2967 261.873 46.6776 261.999 46.1389C262.149 45.6115 262.677 45.4052 263.239 45.6574C263.79 45.921 264.123 46.5172 264.019 47.0559C263.893 47.5947 263.354 47.8125 262.78 47.5603Z" fill="white"/>
<path d="M262 51.779C261.472 51.5383 261.162 50.9422 261.288 50.4149C261.426 49.899 261.931 49.6812 262.459 49.9105C262.987 50.1512 263.297 50.7358 263.182 51.2632C263.044 51.779 262.539 52.0083 262 51.7905" fill="white"/>
<path d="M261.173 56.5937C260.668 56.3759 260.392 55.8027 260.519 55.2754C260.656 54.7595 261.139 54.5303 261.632 54.7481C262.126 54.9659 262.401 55.5276 262.286 56.0549C262.149 56.5823 261.667 56.823 261.173 56.6052" fill="white"/>
<path d="M258.958 14.7629C259.75 15.1412 260.221 15.7946 260.071 16.2646C259.899 16.7346 259.142 16.8263 258.338 16.4595C257.523 16.0812 257.053 15.4163 257.225 14.9348C257.42 14.4648 258.177 14.396 258.969 14.7629" fill="white"/>
<path d="M257.19 18.9932C257.902 19.3256 258.327 19.9332 258.177 20.3917C258.005 20.8618 257.317 20.9649 256.582 20.6439C255.847 20.3 255.423 19.6925 255.595 19.2224C255.79 18.7754 256.479 18.6722 257.19 18.9932Z" fill="white"/>
<path d="M256.374 21.2284C257.189 21.6067 257.671 22.3174 257.488 22.8677C257.281 23.418 256.489 23.567 255.64 23.2002C254.802 22.8219 254.32 22.0996 254.526 21.5379C254.756 20.9991 255.548 20.873 256.374 21.2284Z" fill="white"/>
<path d="M253.368 29.253C254.172 29.6199 254.631 30.3535 254.424 30.9726C254.195 31.5916 253.38 31.7979 252.553 31.4426C251.727 31.0757 251.268 30.3191 251.486 29.6886C251.738 29.0811 252.553 28.8976 253.368 29.2416" fill="white"/>
<path d="M246.113 7.0022C246.871 7.31172 247.273 7.85051 247.043 8.24027C246.791 8.61857 246.01 8.68736 245.23 8.37784C244.449 8.06832 244.047 7.52952 244.3 7.13976C244.564 6.76146 245.356 6.70415 246.113 7.01366" fill="white"/>
<path d="M245.114 37.7706C245.906 38.1031 246.319 38.8597 246.055 39.536C245.768 40.2124 244.919 40.499 244.104 40.178C243.289 39.8341 242.887 39.066 243.174 38.3782C243.484 37.7133 244.322 37.4611 245.114 37.7706Z" fill="white"/>
<path d="M239.479 40.0173C240.283 40.3383 240.661 41.0949 240.363 41.7942C240.03 42.482 239.146 42.7915 238.32 42.482C237.494 42.161 237.126 41.3815 237.448 40.6822C237.792 40.0058 238.664 39.7193 239.479 40.0173Z" fill="white"/>
<path d="M250.969 35.8561C251.795 36.2229 252.254 37.0254 252.025 37.7247C251.761 38.424 250.911 38.6876 250.051 38.3437C249.201 37.9654 248.742 37.1515 249.006 36.4407C249.293 35.7644 250.131 35.5122 250.969 35.8561Z" fill="white"/>
<path d="M256.397 34.3084C257.189 34.6638 257.637 35.4319 257.453 36.0853C257.235 36.7387 256.454 36.968 255.651 36.6241C254.836 36.2573 254.388 35.4777 254.595 34.8128C254.825 34.1709 255.605 33.9645 256.397 34.3084Z" fill="white"/>
<path d="M261.425 32.7838C262.252 33.185 262.757 33.9875 262.596 34.6638C262.401 35.3402 261.609 35.5695 260.76 35.1912C259.899 34.7899 259.405 33.9646 259.589 33.2767C259.796 32.6118 260.588 32.4055 261.425 32.7838Z" fill="white"/>
<path d="M254.39 26.4216C255.147 26.7655 255.572 27.4304 255.388 27.9921C255.182 28.5424 254.436 28.7143 253.655 28.3819C252.886 28.038 252.45 27.3502 252.657 26.7999C252.886 26.2611 253.632 26.1006 254.378 26.4216" fill="white"/>
<path d="M263.387 12.5848C264.053 12.9173 264.478 13.4675 264.374 13.8573C264.248 14.2471 263.64 14.2929 262.951 13.9605C262.274 13.6166 261.849 13.0663 261.964 12.6765C262.102 12.2982 262.722 12.2639 263.387 12.5963" fill="white"/>
<path d="M249.66 8.62983C250.257 8.8935 250.578 9.32912 250.417 9.6501C250.234 9.95962 249.625 10.0055 249.017 9.74181C248.409 9.47814 248.076 9.03106 248.259 8.71008C248.455 8.40056 249.063 8.36617 249.66 8.61837" fill="white"/>
<path d="M252.655 19.8183C253.298 20.1049 253.677 20.6437 253.505 21.0679C253.321 21.492 252.678 21.6067 252.012 21.3201C251.347 21.0335 250.979 20.4832 251.152 20.0476C251.347 19.6349 252.001 19.5317 252.655 19.8069" fill="white"/>
<path d="M247.973 30.6401C248.799 30.9955 249.235 31.7406 248.983 32.3711C248.719 33.0016 247.87 33.2424 247.02 32.8985C246.171 32.5431 245.735 31.7865 245.999 31.1445C246.286 30.5255 247.135 30.3077 247.961 30.6401" fill="white"/>
<path d="M255.342 23.911C256.065 24.2435 256.501 24.8854 256.329 25.4013C256.134 25.9057 255.411 26.0662 254.665 25.7337C253.918 25.3898 253.494 24.7479 253.677 24.2205C253.895 23.7276 254.607 23.59 255.342 23.911Z" fill="white"/>
<path d="M247.697 20.598C248.466 20.919 248.879 21.538 248.661 22.0424C248.408 22.5353 247.628 22.6844 246.847 22.3863C246.067 22.0653 245.654 21.4348 245.895 20.9304C246.147 20.4375 246.939 20.2999 247.708 20.598" fill="white"/>
<path d="M234.566 42.4362C235.139 42.6425 235.38 43.1813 235.128 43.6742C234.864 44.1787 234.221 44.4079 233.636 44.213C233.05 44.0067 232.809 43.4564 233.073 42.952C233.349 42.4591 233.992 42.2413 234.566 42.4362Z" fill="white"/>
<path d="M251.014 13.7542C251.703 14.0638 252.093 14.5911 251.921 15.0038C251.726 15.405 251.037 15.4967 250.314 15.1987C249.603 14.8892 249.212 14.3504 249.407 13.9377C249.626 13.5364 250.314 13.4562 251.014 13.7428" fill="white"/>
<path d="M266.476 14.2013C267.061 14.5108 267.451 15.0038 267.371 15.3591C267.268 15.703 266.74 15.7489 266.131 15.4508C265.534 15.1413 265.144 14.6369 265.236 14.2816C265.339 13.9376 265.879 13.9033 266.464 14.2013" fill="white"/>
<path d="M257.82 8.32031C258.268 8.49227 258.567 8.81325 258.509 9.05399C258.44 9.29472 258.039 9.35204 257.579 9.18009C257.12 8.99667 256.822 8.67568 256.891 8.43495C256.971 8.19421 257.361 8.14836 257.82 8.32031Z" fill="white"/>
<path d="M252.953 10.0055C253.481 10.2462 253.78 10.6474 253.654 10.934C253.504 11.2206 252.988 11.2665 252.448 11.0372C251.909 10.7965 251.611 10.3952 251.748 10.0972C251.897 9.81058 252.425 9.77619 252.965 10.0055" fill="white"/>
<path d="M251.52 22.3748C252.186 22.6614 252.565 23.2346 252.381 23.6931C252.186 24.1516 251.52 24.2777 250.832 24.0026C250.143 23.7046 249.764 23.1199 249.959 22.6614C250.166 22.2143 250.843 22.0882 251.52 22.3748Z" fill="white"/>
<path d="M248.88 18.351C249.477 18.6032 249.81 19.0847 249.638 19.463C249.454 19.8413 248.846 19.9445 248.238 19.7037C247.629 19.4515 247.296 18.9586 247.48 18.5803C247.675 18.2134 248.284 18.1103 248.88 18.351Z" fill="white"/>
<path d="M243.692 19.2108C244.404 19.4859 244.76 20.0362 244.542 20.4833C244.301 20.9189 243.566 21.0679 242.843 20.7928C242.12 20.5177 241.753 19.9674 241.982 19.5203C242.235 19.0847 242.981 18.9586 243.692 19.2108Z" fill="white"/>
<path d="M241.246 7.78158C241.808 7.97646 242.095 8.35476 241.912 8.64135C241.716 8.92794 241.131 8.99672 240.557 8.81331C239.983 8.60696 239.685 8.24012 239.88 7.95353C240.087 7.67841 240.672 7.60962 241.246 7.79304" fill="white"/>
<path d="M258.589 6.77283C259.071 6.96772 259.393 7.31163 259.335 7.56383C259.267 7.81603 258.83 7.86188 258.337 7.67846C257.843 7.48358 257.51 7.13967 257.579 6.88747C257.66 6.63527 258.084 6.60088 258.589 6.7843" fill="white"/>
<path d="M260.3 11.1635C260.897 11.4615 261.264 11.9316 261.161 12.2755C261.023 12.6079 260.472 12.6423 259.852 12.3672C259.244 12.0691 258.877 11.5876 258.992 11.2437C259.129 10.9113 259.692 10.8769 260.289 11.1635" fill="white"/>
<path d="M261.001 9.50122C261.529 9.77635 261.862 10.2005 261.782 10.4986C261.678 10.7966 261.208 10.8081 260.668 10.5444C260.14 10.2808 259.796 9.84513 259.888 9.54708C259.991 9.26049 260.473 9.24902 261.001 9.50122Z" fill="white"/>
<path d="M253.563 17.6634C254.126 17.9156 254.458 18.3856 254.321 18.741C254.16 19.0963 253.609 19.1766 253.024 18.9358C252.45 18.6722 252.117 18.2136 252.266 17.8468C252.427 17.5029 252.989 17.4112 253.563 17.6634Z" fill="white"/>
<path d="M256.351 11.6105C256.822 11.8283 257.097 12.1951 256.994 12.4588C256.879 12.7225 256.431 12.7568 255.949 12.539C255.479 12.3212 255.192 11.9544 255.307 11.6907C255.433 11.4385 255.88 11.3927 256.351 11.6105Z" fill="white"/>
<path d="M249.19 27.8314C249.775 28.0836 250.085 28.5995 249.924 29.0237C249.741 29.4478 249.144 29.5854 248.558 29.3561C247.973 29.1039 247.652 28.588 247.824 28.1524C248.019 27.7283 248.604 27.6022 249.19 27.8314Z" fill="white"/>
<path d="M259.519 13.158C259.933 13.3644 260.185 13.6968 260.105 13.9375C260.013 14.1783 259.623 14.2127 259.198 14.0178C258.773 13.8114 258.521 13.4675 258.613 13.2268C258.716 12.9975 259.095 12.9631 259.519 13.158Z" fill="white"/>
<path d="M263.847 11.0257C264.317 11.2665 264.616 11.6562 264.558 11.9314C264.49 12.195 264.065 12.218 263.594 11.9772C263.124 11.7365 262.814 11.3353 262.883 11.0716C262.963 10.8079 263.376 10.785 263.858 11.0257" fill="white"/>
<path d="M247.308 12.3899C247.893 12.6306 248.203 13.0548 248.042 13.3872C247.859 13.7082 247.273 13.7885 246.676 13.5592C246.08 13.3184 245.77 12.8943 245.942 12.5504C246.137 12.2294 246.722 12.1606 247.308 12.3899Z" fill="white"/>
<path d="M234.647 3.24197C235.118 3.391 235.336 3.66613 235.164 3.88393C234.969 4.09028 234.464 4.1476 233.982 4.01004C233.5 3.86101 233.281 3.58588 233.465 3.36807C233.66 3.16173 234.177 3.10441 234.647 3.24197Z" fill="white"/>
<path d="M239.57 17.7895C240.236 18.0302 240.557 18.5002 240.339 18.9015C240.098 19.3027 239.398 19.4288 238.721 19.211C238.055 18.9817 237.711 18.5002 237.952 18.0875C238.204 17.6978 238.905 17.5602 239.57 17.7895Z" fill="white"/>
<path d="M233.166 46.1162C233.694 46.311 233.9 46.8269 233.648 47.3198C233.384 47.8013 232.775 48.0306 232.236 47.8472C231.708 47.6523 231.501 47.1249 231.754 46.632C232.018 46.162 232.638 45.9327 233.154 46.1162" fill="white"/>
<path d="M229.035 48.2598C229.505 48.4203 229.677 48.8559 229.448 49.28C229.207 49.6927 228.656 49.8991 228.185 49.75C227.715 49.5895 227.531 49.1425 227.772 48.7183C228.025 48.3056 228.564 48.1107 229.035 48.2598Z" fill="white"/>
<path d="M243.658 41.4273C244.254 41.6795 244.553 42.2642 244.335 42.8029C244.105 43.3417 243.462 43.571 242.854 43.3303C242.246 43.0781 241.947 42.482 242.177 41.9317C242.406 41.4044 243.061 41.1866 243.658 41.4158" fill="white"/>
<path d="M237.999 43.8348C238.595 44.087 238.894 44.6716 238.676 45.2104C238.446 45.7377 237.803 45.9785 237.195 45.7377C236.587 45.4855 236.3 44.878 236.518 44.3392C236.747 43.8118 237.402 43.594 237.999 43.8233" fill="white"/>
<path d="M244.954 16.9869C245.401 17.1588 245.631 17.5027 245.493 17.7664C245.344 18.0415 244.885 18.1103 244.426 17.9498C243.978 17.7664 243.737 17.4339 243.875 17.1588C244.024 16.8952 244.483 16.8149 244.942 16.9869" fill="white"/>
<path d="M256.569 4.48002C256.948 4.64051 257.2 4.86978 257.143 5.08759C257.062 5.28247 256.73 5.29394 256.351 5.14491C255.961 4.98442 255.708 4.74368 255.777 4.53734C255.857 4.34246 256.19 4.33099 256.569 4.48002Z" fill="white"/>
<path d="M249.615 39.5588C250.12 39.7766 250.396 40.281 250.235 40.7281C250.063 41.1752 249.546 41.3471 249.018 41.1408C248.502 40.9115 248.238 40.4071 248.398 39.9486C248.571 39.513 249.099 39.341 249.615 39.5473" fill="white"/>
<path d="M255.181 37.6787C255.663 37.8966 255.927 38.378 255.812 38.7907C255.675 39.1919 255.193 39.3639 254.699 39.1461C254.217 38.9283 253.941 38.4468 254.068 38.0226C254.217 37.6214 254.687 37.4724 255.181 37.6787Z" fill="white"/>
<path d="M260.346 36.5324C260.805 36.7502 261.069 37.1973 260.977 37.587C260.863 37.9653 260.427 38.1143 259.967 37.8965C259.508 37.6787 259.233 37.2202 259.336 36.8304C259.451 36.4521 259.887 36.3146 260.346 36.5209" fill="white"/>
<path d="M235.141 16.643C235.577 16.7806 235.795 17.0786 235.635 17.3423C235.463 17.5945 234.981 17.6862 234.533 17.5601C234.085 17.4225 233.867 17.1245 234.039 16.8608C234.223 16.6086 234.694 16.5169 235.141 16.6545" fill="white"/>
<path d="M238.067 19.8643C238.607 20.0477 238.859 20.4489 238.676 20.7813C238.469 21.1138 237.907 21.2284 237.344 21.0565C236.805 20.8731 236.541 20.4718 236.736 20.1394C236.943 19.8069 237.516 19.6923 238.067 19.8643Z" fill="white"/>
<path d="M242.267 21.7329C242.738 21.9163 242.979 22.2832 242.818 22.5927C242.658 22.8907 242.153 22.9939 241.671 22.8219C241.189 22.6385 240.947 22.2717 241.108 21.9622C241.28 21.6641 241.774 21.5609 242.256 21.7329" fill="white"/>
<path d="M246.4 23.3837C246.824 23.5556 247.042 23.8995 246.916 24.1861C246.778 24.4727 246.354 24.553 245.929 24.3925C245.504 24.2205 245.286 23.8766 245.413 23.59C245.55 23.3149 245.986 23.2232 246.411 23.3837" fill="white"/>
<path d="M250.361 25.0459C250.763 25.2293 250.992 25.5732 250.878 25.8598C250.751 26.1464 250.35 26.2381 249.936 26.0662C249.523 25.8827 249.294 25.5274 249.408 25.2408C249.535 24.9542 249.948 24.8739 250.361 25.0459Z" fill="white"/>
<path d="M259.279 5.51178C259.646 5.6608 259.899 5.89008 259.853 6.09642C259.796 6.30277 259.474 6.31423 259.107 6.1652C258.728 6.01618 258.487 5.78691 258.533 5.58056C258.602 5.38568 258.912 5.37421 259.29 5.51178" fill="white"/>
<path d="M257.328 3.26504C257.661 3.4026 257.879 3.62041 257.833 3.80383C257.775 3.98725 257.489 3.98725 257.156 3.84968C256.823 3.71212 256.605 3.49431 256.651 3.31089C256.708 3.13893 256.995 3.12747 257.328 3.26504Z" fill="white"/>
<path d="M255.284 1.30465C255.582 1.43075 255.789 1.61417 255.743 1.77466C255.697 1.93515 255.433 1.94661 255.135 1.83198C254.836 1.71734 254.629 1.52246 254.664 1.36197C254.721 1.20148 254.974 1.19001 255.272 1.30465" fill="white"/>
<path d="M261.529 8.15996C261.919 8.36631 262.172 8.6529 262.114 8.89363C262.034 9.12291 261.689 9.11144 261.288 8.91656C260.897 8.72168 260.633 8.42362 260.702 8.18288C260.794 7.95361 261.139 7.97654 261.529 8.17142" fill="white"/>
<path d="M233.695 18.6033C234.154 18.7409 234.372 19.0619 234.2 19.337C234.016 19.6007 233.522 19.7153 233.063 19.5778C232.593 19.4402 232.386 19.1192 232.558 18.8441C232.742 18.5804 233.235 18.4772 233.695 18.6033Z" fill="white"/>
<path d="M229.608 17.4912C230.044 17.6059 230.239 17.881 230.067 18.1217C229.883 18.3625 229.413 18.4657 228.976 18.3625C228.54 18.2478 228.345 17.9727 228.517 17.7205C228.701 17.4798 229.172 17.3766 229.619 17.4798" fill="white"/>
<path d="M264.259 15.9896C264.133 16.4596 264.546 17.0901 265.247 17.5486C264.42 17.2735 263.731 17.4111 263.559 17.9384C263.433 18.4084 263.754 19.0045 264.351 19.5089C263.651 19.3714 263.089 19.5548 262.939 20.0477C262.779 20.6324 263.238 21.3775 264.03 21.9163C263.158 21.6526 262.423 21.8475 262.228 22.4436C262.09 22.9595 262.377 23.5785 262.939 24.1058C262.239 24.0256 261.688 24.2663 261.528 24.8051C261.367 25.4012 261.723 26.112 262.4 26.6852C261.597 26.5476 260.942 26.8113 260.747 27.4303C260.518 28.2671 261.206 29.3333 262.343 29.8835C263.272 30.3077 264.122 30.216 264.546 29.723C264.661 30.4682 265.292 31.2592 266.199 31.7062C266.98 32.0845 267.691 32.0501 268.139 31.7292C268.38 32.3826 268.954 33.036 269.712 33.4143C270.481 33.7926 271.169 33.7697 271.594 33.4143C271.846 34.0907 272.42 34.7326 273.178 35.1224C273.958 35.5007 274.647 35.4663 275.037 35.0995C275.29 35.7988 275.875 36.4866 276.644 36.8878C277.712 37.4266 278.584 37.1515 278.687 36.2688C278.733 35.6039 278.32 34.8129 277.654 34.2282C278.366 34.3543 278.871 34.0792 278.928 33.4487C278.974 32.8641 278.619 32.1992 278.045 31.6489C278.664 31.7177 279.089 31.4655 279.135 30.9152C279.181 30.2618 278.664 29.4594 277.895 28.8976C278.687 29.1613 279.284 28.955 279.342 28.3359C279.376 27.8086 278.997 27.1552 278.4 26.6393C279.032 26.7654 279.468 26.5591 279.514 26.0547C279.548 25.4815 279.043 24.7249 278.297 24.2205C278.997 24.4612 279.491 24.3236 279.548 23.8192C279.571 23.2461 278.974 22.4895 278.159 22.0424C277.436 21.6755 276.851 21.687 276.633 22.0538C276.53 21.5265 275.99 20.9075 275.278 20.5292C274.59 20.1738 274.004 20.1738 273.74 20.4833C273.614 19.9216 273.04 19.2682 272.271 18.867C271.479 18.4657 270.79 18.4772 270.515 18.8326C270.412 18.3282 269.895 17.755 269.195 17.3881C268.334 16.964 267.588 16.9869 267.439 17.5257C267.554 16.9869 266.957 16.2647 266.096 15.8291C265.224 15.4049 264.432 15.4622 264.271 15.9896M275.382 32.2221C275.795 32.4399 276.082 32.8641 276.059 33.1965C276.013 33.529 275.657 33.6207 275.232 33.4143C274.819 33.1965 274.521 32.7724 274.555 32.4284C274.601 32.096 274.957 32.0043 275.382 32.2106M272.065 30.6057C272.443 30.8006 272.696 31.1674 272.65 31.4655C272.604 31.7636 272.271 31.8438 271.892 31.6604C271.514 31.4655 271.25 31.0872 271.296 30.7891C271.353 30.5026 271.674 30.4223 272.065 30.6057ZM268.713 28.9435C269.092 29.1384 269.344 29.5052 269.298 29.7918C269.229 30.0784 268.897 30.1586 268.506 29.9752C268.128 29.7803 267.875 29.4135 267.921 29.1155C267.99 28.8289 268.334 28.7486 268.713 28.932M265.706 28.0379C265.625 28.3589 265.224 28.4391 264.787 28.2442C264.34 28.0264 264.064 27.6137 264.145 27.2813C264.236 26.9718 264.638 26.88 265.074 27.0864C265.511 27.3042 265.786 27.7054 265.717 28.0379M275.806 29.8606C276.174 30.0555 276.426 30.4108 276.403 30.6974C276.357 30.984 276.059 31.0528 275.68 30.8694C275.313 30.6745 275.06 30.3077 275.083 30.0211C275.129 29.7345 275.428 29.6657 275.806 29.8606ZM265.648 24.7822C266.027 24.9771 266.268 25.321 266.211 25.5961C266.142 25.8712 265.786 25.94 265.407 25.7566C265.017 25.5617 264.776 25.2063 264.845 24.9427C264.925 24.6676 265.27 24.6102 265.648 24.7937M276.105 27.4303C276.461 27.6137 276.713 27.9576 276.69 28.2213C276.656 28.485 276.357 28.5537 276.002 28.3703C275.646 28.1754 275.393 27.8315 275.416 27.5679C275.462 27.3042 275.76 27.2469 276.116 27.4303M266.245 22.4551C266.612 22.65 266.853 22.9824 266.796 23.2346C266.727 23.4868 266.394 23.5441 266.016 23.3722C265.637 23.1773 265.407 22.8448 265.465 22.5812C265.534 22.329 265.866 22.2831 266.245 22.4551ZM276.392 25.1376C276.736 25.321 276.977 25.6305 276.966 25.8942C276.931 26.1578 276.644 26.1922 276.288 26.0203C275.933 25.8368 275.692 25.5159 275.715 25.2522C275.76 24.9885 276.036 24.9656 276.392 25.1376ZM266.796 20.2541C267.152 20.4375 267.393 20.747 267.336 20.9992C267.267 21.2514 266.957 21.2858 266.589 21.1024C266.222 20.9189 265.981 20.6094 266.039 20.3572C266.107 20.1165 266.429 20.0821 266.796 20.2541ZM276.541 22.7646C276.908 22.9709 277.172 23.3148 277.149 23.567C277.115 23.8192 276.805 23.8766 276.426 23.6817C276.047 23.4868 275.783 23.1314 275.806 22.8678C275.841 22.6156 276.151 22.5697 276.53 22.7646M273.568 21.2858C273.901 21.4577 274.142 21.7558 274.108 21.9965C274.062 22.2373 273.786 22.2602 273.442 22.0882C273.098 21.9048 272.868 21.6182 272.902 21.3775C272.948 21.1368 273.224 21.1138 273.568 21.2858ZM270.572 19.7497C270.917 19.9331 271.146 20.2082 271.1 20.4489C271.054 20.6782 270.756 20.7011 270.412 20.5406C270.067 20.3572 269.826 20.0706 269.872 19.8299C269.93 19.5892 270.217 19.5777 270.561 19.7497M267.313 18.053C267.691 18.2479 267.955 18.5918 267.898 18.8326C267.841 19.0848 267.485 19.1192 267.095 18.9243C266.704 18.7179 266.452 18.3855 266.509 18.1333C266.578 17.8925 266.922 17.8581 267.313 18.053Z" fill="white"/>
</g>
<defs>
<radialGradient id="paint0_radial_1552_457029" cx="0" cy="0" r="1" gradientTransform="matrix(122.427 -107.343 -107.479 -122.273 186.638 105.599)" gradientUnits="userSpaceOnUse">
<stop stop-color="#7FBF3F"/>
<stop offset="0.29" stop-color="#7FBF3F"/>
<stop offset="0.44" stop-color="#5FB744"/>
<stop offset="0.48" stop-color="#4AB044"/>
<stop offset="0.57" stop-color="#22A346"/>
<stop offset="0.64" stop-color="#099B47"/>
<stop offset="0.69" stop-color="#009848"/>
<stop offset="0.7" stop-color="#0062AF"/>
<stop offset="0.88" stop-color="#009DDF"/>
<stop offset="0.9" stop-color="#00A5E6"/>
<stop offset="1" stop-color="#00ACEC"/>
</radialGradient>
<clipPath id="clip0_1552_457029">
<rect width="314" height="83" fill="white"/>
</clipPath>
</defs>
</svg>
