<svg width="247" height="61" viewBox="0 0 247 61" fill="none" xmlns="http://www.w3.org/2000/svg">
<g clip-path="url(#clip0_1890_238881)">
<path d="M222.051 32.2262L208.874 6.48936C206.808 2.49191 202.676 0 198.18 0H191.682C188.629 0 185.835 1.71319 184.457 4.43872L172.1 28.8387L174.127 27.2553C178.168 24.2053 183.093 22.557 188.161 22.583L205.34 22.6479C208.978 22.6479 212.331 24.6466 214.072 27.8394L216.515 32.2911L222.051 32.2262Z" fill="#C2D316"/>
<path d="M227.976 30.6298L222.207 19.1955C221.063 16.8983 221.596 14.1208 223.506 12.4206L235.929 1.19401C237.242 0.0129447 239.256 0.103796 240.451 1.41465C240.646 1.62231 240.815 1.8689 240.932 2.1155L246.377 12.7321C247.52 14.9774 247.052 17.7159 245.207 19.4421L232.447 31.4215C231.303 32.4857 229.51 32.4338 228.444 31.2917C228.262 31.097 228.106 30.8634 227.976 30.6298Z" fill="#C2D316"/>
<path d="M195.646 28.7736L208.823 54.5104C210.902 58.4949 215.034 60.9998 219.53 60.9998H226.028C229.081 60.9998 231.875 59.2866 233.253 56.561L245.597 32.161L243.557 33.7444C239.516 36.7944 234.591 38.4427 229.536 38.4298L212.37 38.3649C208.732 38.3649 205.379 36.3661 203.625 33.1734L201.182 28.7217L195.646 28.7736Z" fill="#C2D316"/>
<path d="M189.719 30.3703L195.515 41.8045C196.659 44.1018 196.126 46.8662 194.216 48.5794L181.715 59.806C180.402 60.9871 178.388 60.8962 177.193 59.5854C176.998 59.3777 176.829 59.1311 176.712 58.8845L171.28 48.2679C170.124 46.0226 170.604 43.2841 172.437 41.5579L185.21 29.5786C186.341 28.4884 188.134 28.5273 189.213 29.6564C189.421 29.8641 189.589 30.1107 189.719 30.3703Z" fill="#C2D316"/>
<path d="M25.9111 42.4015H33.0061L24.8066 60.5718H16.8929L12.0849 49.462L7.08202 60.5588H0L8.19955 42.3886H17.9454L21.5709 52.0058L25.9111 42.4015ZM48.8075 42.4015H57.1759L58.7093 60.5718H50.7956V57.4569H41.6994L38.8666 60.5718H30.862L48.8075 42.4015ZM45.7277 53.0181H50.6787V47.6839L45.7277 53.0181ZM70.0015 42.4015H92.0922L89.4933 48.1641H74.4846L73.4841 50.3705H86.7775L84.3865 55.6788H71.0931L68.871 60.5847H61.815L70.0015 42.4015ZM97.8878 42.4015H119.147L117.042 47.0479H102.878L101.825 49.3711H115.989L114.092 53.6022H99.9279L98.8754 55.9254H113.052L110.947 60.5847H89.6622L97.8878 42.4015ZM134.675 49.3971C139.626 49.6567 146.591 50.0071 144.525 54.5886C142.173 59.7801 135.676 61.0001 129.309 61.0001C122.941 61.0001 118.016 60.2213 119.875 54.5886H127.346C127.528 55.9903 129.231 56.3537 131.453 56.3537C133.675 56.3537 136.521 55.9903 137.157 54.5886C137.521 53.7839 135.364 53.6671 132.583 53.5373C127.632 53.2777 120.667 52.9273 122.733 48.3458C125.072 43.1543 131.583 41.8564 137.95 41.8564C144.317 41.8564 149.255 42.6092 147.371 48.3458H139.951C139.795 46.9181 138.067 46.5807 135.845 46.5807C133.623 46.5807 130.803 46.9052 130.153 48.3458C129.737 49.1894 131.894 49.3192 134.675 49.423V49.3971Z" fill="#BFC5C2"/>
<path d="M83.9196 13.978L78.7218 25.2695H92.2621L91.3265 27.3202H72.7703L78.8778 13.978H71.7438L68.2742 21.5446H63.4273L66.8968 13.978H59.7758L56.3322 21.5446H51.4983L54.9678 13.978H47.8728L41.7524 27.3202H20.5973C20.5973 27.3202 23.1962 21.7004 23.768 20.4025C24.3397 19.1046 24.9634 18.5336 27.1335 18.5336H40.6998L42.7919 13.978H24.3787C20.2464 13.978 18.6221 16.1195 17.3487 18.897L11.4102 31.8757H46.7813L49.3802 26.1131H66.1821L63.5832 31.8757H96.6023L104.789 13.991H83.9196V13.978ZM94.3153 20.714H89.1174L90.131 18.5206H95.3288L94.3153 20.714Z" fill="#BFC5C2"/>
<path d="M151.439 19.9612C151.439 19.9612 149.269 24.6984 148.84 25.7367C148.411 26.775 148.035 27.3201 146.813 27.3201H110.961L120.174 7.20312H113.053L101.748 31.8627H148.281C151.27 32.1482 154.077 30.3572 155.052 27.5148C156.624 24.1014 158.508 19.9612 158.508 19.9612H151.439Z" fill="#BFC5C2"/>
<path d="M97.8356 2.90707L93.8592 6.59303C93.4434 6.98239 93.3265 7.57941 93.5604 8.09856L95.1197 11.8235C95.2366 12.096 95.4446 12.1479 95.6915 11.9143L99.7717 8.08558C100.227 7.73515 100.344 7.11217 100.058 6.61898C99.8497 6.19069 98.7582 4.02324 98.3423 2.99792C98.2514 2.69941 98.0695 2.68643 97.8356 2.90707Z" fill="#BFC5C2"/>
<path d="M158.13 6.67107L154.154 10.383C153.738 10.7723 153.621 11.3694 153.855 11.8885L155.415 15.5745C155.532 15.86 155.739 15.8989 155.973 15.6783L160.054 11.7847C160.495 11.4602 160.638 10.8632 160.392 10.383C160.197 9.95469 159.092 7.78724 158.689 6.76192C158.533 6.48937 158.351 6.48937 158.13 6.67107Z" fill="#BFC5C2"/>
</g>
<defs>
<clipPath id="clip0_1890_238881">
<rect width="247" height="61" fill="white"/>
</clipPath>
</defs>
</svg>
