<svg width="69" height="69" viewBox="0 0 69 69" fill="none" xmlns="http://www.w3.org/2000/svg">
<path d="M6.46881 43.125C6.46881 42.5296 6.95154 42.0469 7.54694 42.0469H11.8594C12.4548 42.0469 12.9376 42.5296 12.9376 43.125C12.9376 43.7204 12.4548 44.2031 11.8594 44.2031H7.54694C6.95154 44.2031 6.46881 43.7204 6.46881 43.125ZM14.0157 49.5938H18.3282C18.9236 49.5938 19.4063 49.111 19.4063 48.5156C19.4063 47.9202 18.9236 47.4375 18.3282 47.4375H14.0157C13.4203 47.4375 12.9376 47.9202 12.9376 48.5156C12.9376 49.111 13.4203 49.5938 14.0157 49.5938ZM18.3282 45.2812H23.7188C24.3142 45.2812 24.7969 44.7985 24.7969 44.2031C24.7969 43.6077 24.3142 43.125 23.7188 43.125H18.3282C17.7328 43.125 17.2501 43.6077 17.2501 44.2031C17.2501 44.7985 17.7328 45.2812 18.3282 45.2812ZM7.54694 51.75H9.70319C10.2986 51.75 10.7813 51.2673 10.7813 50.6719C10.7813 50.0765 10.2986 49.5938 9.70319 49.5938H7.54694C6.95154 49.5938 6.46881 50.0765 6.46881 50.6719C6.46881 51.2673 6.95154 51.75 7.54694 51.75ZM14.0157 10.2422C14.0157 8.16154 15.9502 6.46875 18.3282 6.46875C18.4627 6.46875 18.5964 6.47414 18.7292 6.48479C19.4167 5.18079 20.9116 4.3125 22.6407 4.3125C24.3697 4.3125 25.8647 5.18079 26.5521 6.48479C26.685 6.47414 26.8187 6.46875 26.9532 6.46875C29.3311 6.46875 31.2657 8.16154 31.2657 10.2422C31.2657 12.3228 29.3311 14.0156 26.9532 14.0156C26.8187 14.0156 26.6849 14.0102 26.5521 13.9996C25.8647 15.3036 24.3697 16.1719 22.6407 16.1719C20.9116 16.1719 19.4167 15.3036 18.7292 13.9996C18.5964 14.0102 18.4627 14.0156 18.3282 14.0156C15.9502 14.0156 14.0157 12.3228 14.0157 10.2422ZM16.1719 10.2422C16.1719 11.1188 17.1594 11.8594 18.3282 11.8594C18.6034 11.8594 18.871 11.8203 19.1238 11.7432C19.2268 11.7119 19.3327 11.6963 19.4383 11.6963C19.6368 11.6963 19.8337 11.751 20.0059 11.8578C20.2698 12.0211 20.4503 12.2902 20.5017 12.5961C20.635 13.3922 21.5746 14.0156 22.6407 14.0156C23.7068 14.0156 24.6463 13.3922 24.7797 12.5963C24.831 12.2902 25.0116 12.0211 25.2754 11.8579C25.5392 11.6946 25.8605 11.6525 26.1573 11.7432C26.4104 11.8203 26.6781 11.8594 26.9532 11.8594C28.122 11.8594 29.1094 11.1188 29.1094 10.2422C29.1094 9.36554 28.122 8.625 26.9532 8.625C26.6781 8.625 26.4102 8.66408 26.157 8.74117C25.8602 8.83173 25.5391 8.78968 25.2752 8.62621C25.0115 8.46288 24.831 8.19388 24.7797 7.88783C24.6463 7.09218 23.7068 6.46875 22.6407 6.46875C21.5746 6.46875 20.635 7.09218 20.5016 7.88797C20.4502 8.19402 20.2696 8.46301 20.0059 8.62635C19.7422 8.78968 19.421 8.8316 19.1241 8.7413C18.871 8.66408 18.6032 8.625 18.3282 8.625C17.1594 8.625 16.1719 9.36554 16.1719 10.2422ZM30.1876 19.9453C30.1876 17.8647 32.1221 16.1719 34.5001 16.1719C34.6346 16.1719 34.7682 16.1773 34.9011 16.1879C35.5886 14.8839 37.0835 14.0156 38.8126 14.0156C40.5416 14.0156 42.0366 14.8839 42.724 16.1879C42.8569 16.1773 42.9906 16.1719 43.1251 16.1719C45.503 16.1719 47.4376 17.8647 47.4376 19.9453C47.4376 22.026 45.503 23.7188 43.1251 23.7188C42.9906 23.7188 42.8567 23.7134 42.724 23.7027C42.0366 25.0067 40.5416 25.875 38.8126 25.875C37.0835 25.875 35.5886 25.0067 34.9011 23.7027C34.7682 23.7134 34.6346 23.7188 34.5001 23.7188C32.1221 23.7188 30.1876 22.026 30.1876 19.9453ZM32.3438 19.9453C32.3438 20.822 33.3312 21.5625 34.5001 21.5625C34.7753 21.5625 35.0429 21.5234 35.2957 21.4463C35.3987 21.4151 35.5046 21.3994 35.6101 21.3994C35.8086 21.3994 36.0055 21.4541 36.1778 21.5609C36.4416 21.7242 36.6222 21.9933 36.6736 22.2993C36.8068 23.0953 37.7464 23.7188 38.8126 23.7188C39.8787 23.7188 40.8181 23.0953 40.9516 22.2994C41.0029 21.9933 41.1835 21.7242 41.4472 21.561C41.7111 21.3978 42.0322 21.3556 42.3291 21.4463C42.5822 21.5234 42.85 21.5625 43.1251 21.5625C44.2939 21.5625 45.2813 20.822 45.2813 19.9453C45.2813 19.0687 44.2939 18.3281 43.1251 18.3281C42.85 18.3281 42.5821 18.3672 42.3289 18.4443C42.032 18.5349 41.7108 18.4927 41.4471 18.3293C41.1834 18.166 41.0029 17.897 40.9516 17.591C40.8181 16.7953 39.8787 16.1719 38.8126 16.1719C37.7464 16.1719 36.8068 16.7953 36.6734 17.5911C36.6221 17.8971 36.4415 18.1661 36.1778 18.3295C35.914 18.4928 35.5929 18.5347 35.296 18.4444C35.0429 18.3672 34.7751 18.3281 34.5001 18.3281C33.3312 18.3281 32.3438 19.0687 32.3438 19.9453ZM66.8438 8.625C66.8438 12.192 63.9419 15.0938 60.3751 15.0938C56.8082 15.0938 53.9063 12.192 53.9063 8.625C53.9063 5.05802 56.8082 2.15625 60.3751 2.15625C63.9419 2.15625 66.8438 5.05802 66.8438 8.625ZM64.6876 8.625C64.6876 6.24706 62.753 4.3125 60.3751 4.3125C57.9971 4.3125 56.0626 6.24706 56.0626 8.625C56.0626 11.0029 57.9971 12.9375 60.3751 12.9375C62.753 12.9375 64.6876 11.0029 64.6876 8.625ZM66.8438 38.8125V65.7656C66.8438 66.361 66.3611 66.8438 65.7657 66.8438H3.23444C2.63904 66.8438 2.15631 66.361 2.15631 65.7656V33.4219C2.15631 33.135 2.27073 32.8598 2.47423 32.6575C2.67772 32.4551 2.9552 32.3398 3.24037 32.3438C3.28174 32.3438 4.54881 32.3482 6.46881 32.297V28.0312H3.23444C2.88782 28.0312 2.5625 27.8647 2.35981 27.5836C2.15712 27.3024 2.102 26.941 2.21157 26.6122L6.52407 13.6747C6.67096 13.2344 7.08294 12.9375 7.54694 12.9375C8.01094 12.9375 8.42291 13.2344 8.56967 13.6747L11.3204 21.9266L12.993 16.909C13.1397 16.4688 13.5517 16.1719 14.0157 16.1719C14.4797 16.1719 14.8917 16.4688 15.0384 16.909L18.2728 26.6122C18.3824 26.941 18.3272 27.3024 18.1246 27.5836C17.922 27.8647 17.5965 28.0312 17.2499 28.0312H15.0937V31.7792C18.1739 31.4694 21.224 30.9898 23.3653 30.2471C29.1906 28.2269 34.9189 28.5783 41.3933 31.3528C44.0141 32.4761 47.8679 33.6077 51.7499 34.6005V20.4844V19.4062C51.7499 18.8109 52.2327 18.3281 52.8281 18.3281C53.4234 18.3281 53.9062 18.8109 53.9062 19.4062V19.8181L61.9352 23.8326C62.3188 24.0244 62.5522 24.4252 62.5297 24.8533C62.5072 25.2816 62.2331 25.6557 61.8316 25.8063L53.9063 28.7784V35.1381C60.1418 36.6541 65.8655 37.7344 65.9645 37.7528C66.4743 37.8485 66.8438 38.2937 66.8438 38.8125ZM53.9063 22.2288V26.4755L58.7596 24.6555L53.9063 22.2288ZM53.9063 37.3631V40.1692C58.7024 40.9899 62.5498 43.4457 64.6876 45.0966V39.7036C62.8812 39.3518 58.5901 38.4901 53.9063 37.3631ZM15.0938 33.9502V34.5C15.0938 35.0954 14.6111 35.5781 14.0157 35.5781C13.4203 35.5781 12.9376 35.0954 12.9376 34.5V34.1384C11.4134 34.2547 9.94226 34.334 8.62506 34.3877V36.6562C8.62506 36.6685 8.62358 36.6804 8.62318 36.6925C10.9449 36.7769 13.8011 36.9642 16.7656 37.3589C25.5856 38.5334 31.1704 40.9732 33.4017 44.6169C39.8705 41.4822 44.4654 39.8906 50.6719 39.8906C51.0354 39.8906 51.3946 39.9023 51.7501 39.923V36.8314C47.6119 35.7851 43.4171 34.566 40.5442 33.3348C34.5932 30.7844 29.3592 30.4507 24.0722 32.2843C21.7004 33.1068 18.3848 33.6244 15.0938 33.9502ZM4.31256 38.7923V53.8712C7.43737 53.7199 16.8249 52.9134 25.3929 48.6295C26.554 48.0492 30.5734 46.0172 31.4575 45.5754C29.5201 42.6439 24.3924 40.553 16.5071 39.4999C11.3467 38.8106 6.40103 38.7713 4.31256 38.7923ZM12.4569 25.3359L12.6365 25.875H15.7542L14.0157 20.6593L12.4569 25.3359ZM4.73034 25.875H10.3635L7.54694 17.4249L4.73034 25.875ZM8.62506 32.2231C9.94671 32.1679 11.4201 32.0873 12.9376 31.97V28.0312H8.62506V32.2231ZM4.31256 34.4966V36.6341C4.86187 36.6279 5.59459 36.6261 6.46881 36.6383V34.4592C5.59931 34.4811 4.86349 34.4916 4.31256 34.4966ZM64.6876 47.9063C63.5398 46.8751 59.3795 43.4352 53.9063 42.3668V45.3679C56.3639 45.7686 58.2188 47.5111 58.2188 49.5936C58.2188 51.9716 55.8006 53.9061 52.8282 53.9061C49.8558 53.9061 47.4376 51.9716 47.4376 49.5936C47.4376 47.5111 49.2925 45.7686 51.7501 45.3679V42.0857C51.3944 42.062 51.0355 42.0467 50.6719 42.0467C44.5549 42.0467 40.2314 43.6483 33.4082 47.0134C32.2328 47.5941 27.5211 49.9762 26.357 50.558C17.2398 55.1167 7.51864 55.9005 4.31256 56.0349V64.6875H64.6876V47.9063ZM51.7501 51.6214V47.5661C50.5081 47.8696 49.5938 48.6756 49.5938 49.5938C49.5938 50.5119 50.5081 51.3179 51.7501 51.6214ZM53.9063 51.6214C55.1483 51.3179 56.0626 50.5119 56.0626 49.5938C56.0626 48.6756 55.1483 47.8696 53.9063 47.5661V51.6214Z" fill="#096637"/>
</svg>
