<svg width="68" height="69" viewBox="0 0 68 69" fill="none" xmlns="http://www.w3.org/2000/svg">
<path d="M58.5805 18.1328C57.9993 18.1327 57.4312 18.3075 56.9479 18.635C56.4646 18.9626 56.0879 19.4282 55.8654 19.973C55.6429 20.5178 55.5847 21.1173 55.698 21.6957C55.8113 22.2741 56.0911 22.8054 56.502 23.2225C56.913 23.6395 57.4365 23.9235 58.0065 24.0386C58.5765 24.1537 59.1673 24.0947 59.7043 23.869C60.2412 23.6434 60.7002 23.2612 61.0231 22.7709C61.3459 22.2806 61.5183 21.7041 61.5183 21.1144C61.5175 20.324 61.2077 19.5661 60.657 19.0072C60.1062 18.4482 59.3594 18.1338 58.5805 18.1328ZM58.5805 22.4787C58.3145 22.4788 58.0545 22.3989 57.8333 22.2491C57.6121 22.0992 57.4397 21.8862 57.3379 21.6369C57.236 21.3876 57.2093 21.1132 57.2611 20.8485C57.3129 20.5838 57.441 20.3407 57.629 20.1498C57.817 19.9589 58.0566 19.8289 58.3174 19.7763C58.5783 19.7236 58.8487 19.7506 59.0944 19.8538C59.3401 19.9571 59.5501 20.1319 59.6979 20.3563C59.8457 20.5807 59.9245 20.8445 59.9245 21.1144C59.9243 21.4761 59.7826 21.8229 59.5306 22.0787C59.2786 22.3345 58.9369 22.4784 58.5805 22.4789V22.4787Z" fill="#096637"/>
<path d="M24.4345 10.8299C25.1192 10.8302 25.7885 10.6245 26.3579 10.2387C26.9273 9.85299 27.3712 9.30455 27.6334 8.66279C27.8956 8.02104 27.9644 7.31479 27.831 6.63338C27.6976 5.95197 27.3681 5.32601 26.884 4.83466C26.4 4.34332 25.7833 4.00866 25.1118 3.87302C24.4403 3.73738 23.7443 3.80684 23.1117 4.07263C22.4791 4.33843 21.9385 4.7886 21.5581 5.36622C21.1777 5.94384 20.9746 6.62296 20.9746 7.31768C20.9754 8.24868 21.3402 9.14134 21.9888 9.7998C22.6374 10.4583 23.517 10.8287 24.4345 10.8299ZM24.4345 5.42261C24.8039 5.42232 25.1652 5.53321 25.4725 5.74127C25.7798 5.94932 26.0194 6.24519 26.161 6.59144C26.3026 6.9377 26.3398 7.31878 26.2679 7.68648C26.196 8.05419 26.0182 8.392 25.7571 8.65718C25.496 8.92236 25.1632 9.10299 24.8009 9.17624C24.4385 9.24948 24.063 9.21203 23.7216 9.06864C23.3803 8.92525 23.0885 8.68236 22.8832 8.37068C22.6779 8.05901 22.5684 7.69256 22.5684 7.31768C22.5687 6.81544 22.7654 6.33386 23.1152 5.97858C23.4651 5.6233 23.9395 5.42336 24.4345 5.42261Z" fill="#096637"/>
<path d="M37.8114 31.2405C37.8111 30.5462 37.6079 29.8676 37.2276 29.2904C36.8472 28.7133 36.3068 28.2635 35.6745 27.998C35.0423 27.7325 34.3467 27.6632 33.6756 27.7988C33.0046 27.9345 32.3882 28.269 31.9045 28.76C31.4207 29.2511 31.0914 29.8766 30.958 30.5576C30.8246 31.2386 30.8932 31.9444 31.1551 32.5858C31.417 33.2273 31.8605 33.7755 32.4294 34.1612C32.9984 34.5469 33.6673 34.7528 34.3515 34.7528C35.269 34.7515 36.1485 34.381 36.7972 33.7226C37.4458 33.0641 37.8106 32.1715 37.8114 31.2405ZM34.3515 33.1356C33.9821 33.1359 33.6208 33.025 33.3135 32.8169C33.0062 32.6089 32.7666 32.313 32.625 31.9667C32.4834 31.6205 32.4462 31.2394 32.5181 30.8717C32.59 30.504 32.7678 30.1662 33.0289 29.901C33.2901 29.6358 33.6228 29.4552 33.9852 29.3819C34.3475 29.3087 34.7231 29.3461 35.0644 29.4895C35.4058 29.6329 35.6975 29.8758 35.9028 30.1875C36.1081 30.4992 36.2177 30.8656 36.2177 31.2405C36.2173 31.7428 36.0206 32.2244 35.6707 32.5797C35.3208 32.935 34.8462 33.1349 34.3512 33.1356H34.3515Z" fill="#096637"/>
<path d="M11.5077 21.8021C12.1924 21.8024 12.8618 21.5967 13.4312 21.2109C14.0006 20.8252 14.4445 20.2767 14.7067 19.635C14.9689 18.9932 15.0376 18.287 14.9042 17.6056C14.7708 16.9241 14.4413 16.2982 13.9573 15.8068C13.4733 15.3155 12.8565 14.9808 12.185 14.8452C11.5135 14.7095 10.8175 14.779 10.1849 15.0448C9.55238 15.3106 9.0117 15.7608 8.6313 16.3384C8.25089 16.916 8.04785 17.5951 8.04785 18.2899C8.04869 19.2208 8.41344 20.1135 9.06208 20.7719C9.71071 21.4304 10.5903 21.8009 11.5077 21.8021ZM11.5077 16.3948C11.8772 16.3945 12.2384 16.5054 12.5457 16.7134C12.8531 16.9215 13.0927 17.2174 13.2342 17.5636C13.3758 17.9099 13.413 18.2909 13.3411 18.6587C13.2692 19.0264 13.0915 19.3642 12.8303 19.6293C12.5692 19.8945 12.2364 20.0752 11.8741 20.1484C11.5118 20.2216 11.1362 20.1842 10.7948 20.0408C10.4535 19.8974 10.1617 19.6545 9.95645 19.3429C9.75117 19.0312 9.6416 18.6647 9.6416 18.2899C9.64195 17.7876 9.83863 17.306 10.1885 16.9507C10.5383 16.5955 11.0128 16.3955 11.5077 16.3948Z" fill="#096637"/>
<path d="M63.6066 20.9156C63.4357 18.2473 61.2872 16.1575 58.7154 16.1575C57.5269 16.16 56.3813 16.6082 55.4987 17.4159C52.8873 14.8275 49.6272 12.5979 46.0183 10.9405C41.926 9.06124 37.6715 8.06788 33.7149 8.06788C32.6235 8.07797 31.5333 8.14661 30.4491 8.27353C30.5034 7.87931 30.5178 7.48048 30.4921 7.08328C30.286 3.86697 27.6988 1.34766 24.6021 1.34766C21.5055 1.34766 18.9177 3.86696 18.7122 7.08193C18.6383 8.5534 19.0754 10.0046 19.9473 11.1827L20.1119 11.406C18.6538 12.2432 17.249 13.1724 15.9057 14.1881C15.3631 13.6006 14.7078 13.1317 13.9802 12.8104C13.2525 12.4891 12.4678 12.3222 11.6743 12.3197C8.5775 12.3197 5.98991 14.8399 5.78445 18.054C5.71067 19.5255 6.14775 20.9767 7.01961 22.1549L7.96961 23.4441C5.71844 27.8372 4.38288 33.1866 4.38288 37.8601C4.37467 41.774 5.12731 45.6512 6.59771 49.2696C8.06811 52.8879 10.2274 56.1765 12.952 58.947C15.6765 61.7175 18.9128 63.9156 22.4756 65.4153C26.0384 66.915 29.8578 67.687 33.715 67.687C37.5722 67.687 41.3915 66.915 44.9543 65.4153C48.5171 63.9156 51.7535 61.7175 54.478 58.947C57.2026 56.1765 59.3619 52.8879 60.8323 49.2696C62.3027 45.6512 63.0553 41.774 63.0471 37.8601C63.0471 34.543 62.2145 29.5684 61.127 26.291L62.5822 24.3167C63.3137 23.3439 63.6771 22.1372 63.6066 20.9156ZM20.3025 7.18813C20.4353 5.11274 22.0801 2.96484 24.6021 2.96484C27.1241 2.96484 28.7686 5.1122 28.9018 7.19029C28.961 8.27769 28.6341 9.35061 27.9805 10.2144L24.6021 14.7998L21.2295 10.2224C20.5807 9.35185 20.2528 8.27836 20.3025 7.18813ZM7.37514 18.1602C7.50796 16.0848 9.15271 13.9369 11.6747 13.9369C14.1967 13.9369 15.8413 16.0843 15.9744 18.1625C16.0336 19.2499 15.7068 20.3228 15.053 21.1865L11.6743 25.7719L8.30204 21.1945C7.65334 20.3239 7.32541 19.2504 7.37514 18.1602ZM9.03822 24.8944L11.0368 27.6065C11.111 27.7072 11.2073 27.7889 11.3181 27.8453C11.4289 27.9016 11.5511 27.9309 11.675 27.9309C11.7989 27.9309 11.9211 27.9016 12.0319 27.8453C12.1427 27.7889 12.239 27.7072 12.3132 27.6065L16.329 22.1555C17.0401 21.2151 17.467 20.0855 17.5578 18.9038C17.6487 17.722 17.3996 16.5389 16.8407 15.498C18.1905 14.4764 19.6053 13.5463 21.0758 12.7138L23.9641 16.6339C24.0383 16.7346 24.1346 16.8163 24.2454 16.8726C24.3562 16.929 24.4784 16.9583 24.6023 16.9583C24.7262 16.9583 24.8484 16.929 24.9592 16.8726C25.07 16.8163 25.1664 16.7346 25.2406 16.6339L29.2565 11.183C29.5372 10.8035 29.7759 10.3938 29.9683 9.96134C30.2994 9.91835 30.6302 9.87819 30.9564 9.84463L34.3033 14.7442C34.691 15.3093 34.8909 15.9853 34.8738 16.6737C34.8567 17.362 34.6235 18.0269 34.2082 18.5715L33.2628 19.8172C33.0322 20.1199 32.7277 20.3564 32.3795 20.5033C32.0313 20.6502 31.6513 20.7025 31.2771 20.6549L30.2048 20.5158C29.4492 20.4174 28.6818 20.5466 27.9979 20.8873C27.3141 21.2279 26.7441 21.7651 26.3587 22.4319C26.1416 22.8075 25.8206 23.1101 25.4355 23.3022C25.0504 23.4942 24.6182 23.5673 24.1925 23.5123L21.7166 23.1929C20.9761 23.0952 20.2234 23.2089 19.543 23.5212C18.8627 23.8336 18.2816 24.3322 17.8651 24.9612C17.4753 25.5454 17.262 26.2324 17.2513 26.9378C17.2406 27.6432 17.4329 28.3365 17.8048 28.9327L19.4404 31.5559C19.7418 32.0365 20.158 32.432 20.6504 32.7057C21.1428 32.9794 21.6954 33.1224 22.2568 33.1213C22.8007 33.1218 23.3362 32.9854 23.8155 32.7245L25.4995 31.8081C26.3246 31.3592 27.6644 31.3547 28.6301 31.7585C28.7222 32.9695 29.1499 34.1295 29.8638 35.1046L33.8805 40.5572C33.9547 40.6579 34.0511 40.7396 34.1618 40.796C34.2726 40.8523 34.3948 40.8816 34.5188 40.8816C34.6427 40.8816 34.7649 40.8523 34.8757 40.796C34.9865 40.7396 35.0828 40.6579 35.157 40.5572L37.1942 37.7921L37.4532 38.1521C37.5629 38.3074 37.6804 38.4602 37.8028 38.6063L39.8481 41.0507C39.9392 41.1596 40.0076 41.2862 40.0491 41.4228C40.0906 41.5593 40.1044 41.703 40.0895 41.8451C40.0747 41.9872 40.0316 42.1248 39.9628 42.2495C39.894 42.3742 39.801 42.4834 39.6894 42.5706L36.5899 44.9889C35.765 45.63 35.1582 46.5166 34.8542 47.5248L33.821 50.9279C33.7399 51.1963 33.607 51.4457 33.43 51.6616L32.4248 52.8896C31.6759 53.8025 31.2123 54.9213 31.0932 56.1029C31.0641 56.3903 30.9593 56.6644 30.7898 56.8964C30.6203 57.1285 30.3924 57.31 30.1299 57.4219C30.0199 57.4686 29.9009 57.4895 29.7818 57.4829C29.6627 57.4763 29.5466 57.4425 29.4423 57.3839C29.3379 57.3253 29.2479 57.2435 29.1792 57.1447C29.1104 57.0458 29.0646 56.9324 29.0451 56.813L28.0981 51.0425C27.9799 50.3254 27.6915 49.6482 27.2577 49.0695L23.7885 44.4496C23.4768 44.0352 23.2463 43.564 23.1096 43.0615L21.9646 38.8664C21.7622 38.1314 21.3759 37.462 20.8431 36.9232C20.3104 36.3844 19.6494 35.9947 18.9244 35.7917L18.6755 35.7229C18.1719 35.5828 17.7097 35.3198 17.3293 34.9567L15.1938 32.9145C14.8537 32.5894 14.5618 32.216 14.3275 31.8058C13.8305 30.9364 13.0784 30.2461 12.1761 29.8315C11.2738 29.4168 10.2665 29.2985 9.29468 29.4929C9.26355 29.4991 9.23281 29.5072 9.20264 29.5172L7.0629 30.2235C7.56211 28.3905 8.22323 26.6069 9.03822 24.8944ZM30.2194 31.1109C30.3522 29.0355 31.997 26.8876 34.519 26.8876C37.0409 26.8876 38.6856 29.035 38.8186 31.1132C38.8779 32.2006 38.551 33.2735 37.8973 34.1372L34.519 38.7226L31.1463 34.1452C30.4976 33.2746 30.1697 32.2011 30.2194 31.1109ZM61.4533 37.8601C61.4533 53.3959 49.0099 66.0352 33.7149 66.0352C18.42 66.0352 5.97663 53.3959 5.97663 37.8601C5.98964 35.9133 6.20366 33.9733 6.61519 32.0718L9.6477 31.0709C10.288 30.9524 10.9487 31.0373 11.5396 31.3141C12.1305 31.5909 12.6228 32.046 12.9493 32.6173C13.261 33.1627 13.649 33.6593 14.1013 34.0917L16.2369 36.1332C16.8076 36.6777 17.501 37.0723 18.2565 37.2824L18.5054 37.3511C18.9641 37.4797 19.3823 37.7266 19.7193 38.0677C20.0563 38.4087 20.3007 38.8325 20.4286 39.2977L21.5736 43.4935C21.7643 44.1946 22.0859 44.8522 22.5208 45.4304L25.99 50.0505C26.2667 50.4196 26.4507 50.8515 26.526 51.3089L27.473 57.0794C27.5313 57.4398 27.6695 57.7821 27.877 58.0805C28.0845 58.3789 28.356 58.6256 28.6711 58.8022C28.9862 58.9787 29.3366 59.0804 29.696 59.0997C30.0555 59.1189 30.4145 59.0552 30.7462 58.9133C31.2724 58.6892 31.7295 58.3255 32.0694 57.8603C32.4093 57.3951 32.6195 56.8456 32.6779 56.2695C32.7649 55.4066 33.1034 54.5896 33.6502 53.9228L34.6555 52.6948C34.967 52.315 35.2009 51.8762 35.3437 51.4038L36.3765 48.0007C36.5838 47.3131 36.9976 46.7085 37.5601 46.2712L40.6609 43.8527C40.9436 43.6321 41.1793 43.3556 41.3536 43.0398C41.5278 42.724 41.6371 42.3756 41.6747 42.0157C41.7123 41.6558 41.6775 41.2919 41.5724 40.9461C41.4673 40.6003 41.294 40.2797 41.0632 40.0038L39.0179 37.5594C38.9238 37.4471 38.8334 37.3295 38.7453 37.2049L38.1932 36.4367L39.1735 35.1063C40.0552 33.9334 40.4935 32.4787 40.4087 31.0061C40.2027 27.7898 37.6155 25.2704 34.5187 25.2704C31.7203 25.2704 29.339 27.3279 28.7534 30.0965C27.4297 29.7006 25.8448 29.7866 24.7465 30.3839L23.0624 31.3003C22.6774 31.5079 22.2293 31.5607 21.8076 31.448C21.3859 31.3353 21.0216 31.0654 20.7873 30.6922L19.1516 28.0689C18.9456 27.7385 18.839 27.3544 18.8449 26.9635C18.8508 26.5726 18.969 26.192 19.185 25.8683C19.437 25.4876 19.7886 25.1859 20.2003 24.9968C20.6121 24.8078 21.0676 24.739 21.5157 24.7981L23.9916 25.1173C24.7267 25.2127 25.4732 25.0868 26.1384 24.7551C26.8036 24.4235 27.358 23.9008 27.7328 23.2521C27.96 22.8582 28.2963 22.5409 28.7 22.3396C29.1036 22.1383 29.5567 22.0619 30.0028 22.12L31.075 22.2591C31.7252 22.3419 32.3855 22.2512 32.9906 21.9959C33.5957 21.7407 34.1248 21.3297 34.5256 20.8036L35.471 19.558C36.0934 18.7419 36.4429 17.7456 36.4685 16.714C36.4941 15.6824 36.1944 14.6694 35.6132 13.8226L32.8008 9.70663C33.1231 9.69315 33.4299 9.68507 33.7149 9.68507C37.4469 9.68507 41.4738 10.6284 45.3611 12.4139C46.579 12.9747 47.7626 13.6093 48.9055 14.3141L46.7648 18.0373C46.458 18.5837 46.3263 19.2134 46.3882 19.8392C46.4501 20.4649 46.7024 21.0556 47.1101 21.5292C47.7252 22.2442 48.5788 22.7035 49.5071 22.8192L49.8953 22.8677C50.2711 22.915 50.6252 23.0719 50.9148 23.3194C51.2043 23.5669 51.4168 23.8944 51.5265 24.2621C51.6303 24.6115 51.6333 24.9836 51.5353 25.3347C51.4373 25.6857 51.2423 26.001 50.9734 26.2432L47.1292 29.6921C46.7396 30.042 46.4276 30.4718 46.2139 30.9531C46.0002 31.4345 45.8896 31.9564 45.8896 32.4843V33.3995C45.8884 33.9418 46.0217 34.4758 46.2772 34.9521C46.5328 35.4284 46.9024 35.8318 47.352 36.1251C47.5755 36.2709 47.7635 36.4662 47.902 36.6963C48.0405 36.9264 48.1258 37.1853 48.1515 37.4537L48.2414 38.3674C48.3119 39.1071 48.6517 39.7936 49.1946 40.2925C49.7374 40.7914 50.4442 41.0668 51.1766 41.065H53.4265C54.3586 41.0647 55.2705 40.789 56.0507 40.2715C56.8309 39.754 57.4457 39.0171 57.82 38.1509L57.9552 37.8381C58.0877 37.528 58.3035 37.2621 58.5781 37.0707C58.8526 36.8793 59.1747 36.7703 59.5075 36.7561L60.0354 36.7319C60.1213 36.728 60.207 36.7217 60.2926 36.7129L61.415 36.5982C61.4399 37.0411 61.4533 37.4648 61.4533 37.8601ZM61.2827 34.9852L60.1329 35.1025C60.0769 35.1083 60.0206 35.1124 59.9637 35.1151L59.435 35.1395C58.8049 35.1663 58.195 35.3727 57.6751 35.735C57.1552 36.0972 56.7465 36.6008 56.4956 37.1879L56.3604 37.5007C56.1105 38.0792 55.7 38.5713 55.179 38.917C54.658 39.2627 54.049 39.4469 53.4265 39.4471H51.1763C50.8395 39.4478 50.5145 39.321 50.265 39.0915C50.0154 38.862 49.8592 38.5463 49.8269 38.2061L49.7369 37.2922C49.688 36.7819 49.5258 36.2895 49.2624 35.852C48.999 35.4144 48.6413 35.0431 48.2162 34.766C47.9907 34.6189 47.8054 34.4165 47.6773 34.1776C47.5491 33.9386 47.4823 33.6708 47.4829 33.3988V32.4836C47.4829 32.1848 47.5455 31.8893 47.6665 31.6168C47.7874 31.3443 47.964 31.101 48.1846 30.903L52.0287 27.454C52.5256 27.0065 52.8859 26.424 53.0671 25.7754C53.2484 25.1267 53.2429 24.439 53.0514 23.7934C52.8521 23.1259 52.4662 22.5315 51.9404 22.0822C51.4147 21.6329 50.7718 21.3481 50.0896 21.2624L49.7014 21.2139C49.1623 21.1467 48.6665 20.8799 48.3093 20.4647C48.12 20.2452 48.0026 19.9715 47.9731 19.6814C47.9437 19.3913 48.0038 19.0991 48.145 18.8451L50.2486 15.1863C51.7647 16.2162 53.1843 17.3852 54.4897 18.6785C54.1018 19.3626 53.8741 20.128 53.8243 20.9156C53.7627 22.1361 54.125 23.3399 54.848 24.3172L58.0772 28.6987C58.1514 28.7994 58.2478 28.8812 58.3585 28.9375C58.4693 28.9938 58.5915 29.0231 58.7154 29.0231C58.8393 29.0231 58.9615 28.9938 59.0723 28.9375C59.1831 28.8812 59.2794 28.7994 59.3536 28.6987L59.9474 27.893C60.5816 30.2163 61.0282 32.5882 61.2827 34.9852ZM61.3064 23.3472L58.7154 26.8628L56.1302 23.3549C55.6303 22.6853 55.3771 21.8594 55.4146 21.0202C55.5169 19.4246 56.7795 17.7742 58.7154 17.7742C60.6513 17.7742 61.9141 19.4246 62.0163 21.0221C62.0616 21.8584 61.8097 22.6835 61.3063 23.3473L61.3064 23.3472Z" fill="#096637"/>
</svg>
