<svg width="294" height="89" viewBox="0 0 294 89" fill="none" xmlns="http://www.w3.org/2000/svg">
<path d="M25.0337 71.2884C27.136 71.002 29.2384 70.6903 31.3153 70.3449L37.6137 69.5446C39.7245 69.3508 41.8184 69.0812 43.9123 68.8537L50.236 68.3483L56.5598 67.9522L60.8824 67.7923L62.4697 67.7333V63.959L60.7303 63.9843L56.3992 64.0517L49.9402 64.3718L43.5066 64.9784C41.379 65.2648 39.2429 65.5008 37.1068 65.804L30.741 66.908C28.6303 67.3208 26.5281 67.7926 24.4341 68.2559C23.0408 68.5761 21.6396 68.9215 20.2718 69.2921C18.4144 69.7724 16.5738 70.2947 14.733 70.8507C9.71517 72.3758 4.79506 74.2044 0 76.3263C5.44573 75.071 10.8747 73.9 16.3036 72.8471C18.3637 72.4594 20.3983 72.0808 22.4583 71.735C23.3113 71.5749 24.181 71.44 25.0337 71.2884Z" fill="#4F2129"/>
<path d="M89.3021 66.3263C87.4193 65.981 85.5281 65.6778 83.6284 65.4165C81.0111 65.0627 78.3881 64.7708 75.7594 64.5408C74.4676 64.4396 73.1675 64.3384 71.8926 64.2627V67.6409C73.1336 67.6578 74.3581 67.6578 75.5991 67.6409C77.7351 67.6831 79.8545 67.7337 81.9905 67.8178C84.0674 67.9106 86.1529 68.0033 88.2298 68.1212C92.502 68.3655 96.7826 68.6685 101.097 69.0141C97.2132 67.9272 93.2816 67.0313 89.3021 66.3263Z" fill="#4F2129"/>
<path d="M56.6545 75.5033C57.456 75.5033 58.1058 74.8549 58.1058 74.0551C58.1058 73.2553 57.456 72.6069 56.6545 72.6069C55.8529 72.6069 55.2031 73.2553 55.2031 74.0551C55.2031 74.8549 55.8529 75.5033 56.6545 75.5033Z" fill="#4F2129"/>
<path d="M64.3863 74.6414C64.3863 75.1806 66.0327 75.6187 68.0758 75.6187C70.1107 75.6187 71.7655 75.1808 71.7655 74.6414C71.7655 74.1781 70.5587 73.799 68.9371 73.689L68.9117 69.2913V67.6154L68.9032 66.0989L68.8865 64.1023V61.4148L68.8696 58.2639V58.2556L68.8612 55.13L68.8443 52.7374V52.7122L68.8358 49.4855V47.5311L68.8189 44.0178L68.7935 40.0076L68.7762 34.7088L68.7507 29.9578L68.8184 24.406L68.9112 15.4169V15.4079C68.905 14.9295 68.7118 14.4725 68.3729 14.1341C68.0339 13.7957 67.576 13.6027 67.0966 13.5962C66.8568 13.5952 66.6192 13.6416 66.3975 13.7327C66.1757 13.8238 65.9743 13.9578 65.8047 14.127C65.6352 14.2961 65.5009 14.4971 65.4096 14.7184C65.3183 14.9396 65.2718 15.1767 65.2728 15.4159C65.2679 15.5636 65.285 15.7111 65.3234 15.8538V16.0307C64.6906 15.7488 64.0236 15.5506 63.3394 15.441C60.722 15.0871 58.628 16.5867 56.3823 18.6423C53.9845 20.8749 52.2792 20.6052 49.5435 20.3947C47.036 20.2093 45.0433 21.7258 43.312 24.2278C41.4292 26.8647 39.4704 27.6399 38.5332 31.4056C39.0905 31.0855 39.5718 30.092 40.1713 29.6365C40.9455 29.0955 41.8473 28.7645 42.7884 28.676C44.8148 28.3812 46.1741 29.8891 47.8205 31.3799C49.2402 32.6898 51.0668 33.4748 52.9961 33.604C55.9681 33.8399 58.7036 31.5231 61.5911 31.5484C61.8858 31.5547 62.1794 31.5857 62.4688 31.6411C63.4873 31.8682 64.4604 32.2642 65.3477 32.8124C65.4155 32.8714 65.5 32.8799 65.5504 32.9387C65.5504 32.9387 65.5757 32.9387 65.5757 32.9725L65.6179 33.7729L65.6602 34.708L65.8459 40.0155L65.9979 44.0172L66.0824 46.3423L66.1331 47.9683L66.1668 48.617L66.2005 49.687V49.6954L66.2175 50.1756L66.2597 51.0011L66.2681 51.2118V51.237L66.2936 52.1217V52.147L66.3188 52.8038L66.42 55.129L66.5215 57.8838V57.8924L66.6565 61.4392L66.6817 62.6355L66.741 64.0508L66.8338 66.1486L66.8845 67.6565L66.9098 68.2968L66.9267 68.6506L66.9522 69.2909L67.1124 73.697C65.543 73.8074 64.3863 74.1865 64.3863 74.6414Z" fill="#4F2129"/>
<path d="M80.3025 69.9697C76.9164 73.9244 72.7731 77.1647 68.1156 79.5005C63.458 81.8364 58.3799 83.2208 53.179 83.5726C47.9781 83.9243 42.7592 83.2364 37.8284 81.5491C32.8975 79.8617 28.3539 77.209 24.464 73.7464C22.3775 74 20.2777 74.2938 18.1914 74.5872C18.0442 74.6139 17.8969 74.6271 17.75 74.6539C22.2674 79.5504 27.8291 83.3724 34.0245 85.8377C40.22 88.303 46.8911 89.3488 53.5457 88.8979C60.2003 88.447 66.6686 86.511 72.4731 83.2326C78.2777 79.9542 83.2705 75.4172 87.0831 69.9563C85.5318 69.943 83.9804 69.943 82.4288 69.9563C81.7203 69.9564 81.0113 69.9564 80.3025 69.9697Z" fill="#4F2129"/>
<path d="M16.962 68.4349C17.6576 68.2614 18.3663 68.088 19.0753 67.9278C17.8214 66.2439 16.7033 64.4633 15.7317 62.603C15.5577 62.2825 15.3972 61.9622 15.25 61.642C14.704 60.5525 14.2175 59.4343 13.7926 58.2923C13.7256 58.1055 13.6452 57.9053 13.5783 57.7051C13.3971 57.1884 13.2177 56.6708 13.0606 56.142C13.1177 56.1263 13.1549 56.1159 13.1549 56.1155L15.2723 55.5548L22.1235 57.5924L28.3601 51.8262L33.2926 52.7701L36.711 51.5086C36.711 51.5086 52.238 60.0331 52.5419 60.1931C52.5843 60.2184 52.6181 60.2352 52.6349 60.2437C52.4659 60.0668 44.1162 52.4343 43.9222 52.266C43.1323 51.5805 42.2696 50.971 41.5109 50.2505C41.6223 50.1028 41.9786 50.1285 42.1482 50.1159C43.0121 50.0039 43.8648 49.8187 44.6971 49.5622C45.9055 49.3402 47.1533 49.5898 48.1825 50.2595C50.5122 51.4685 52.656 53.145 55.2686 53.7206C57.8829 54.2966 60.0875 53.0523 62.471 52.1729C62.471 52.1729 62.471 46.8738 62.4625 46.8738C62.0742 46.7558 61.6688 46.6463 61.272 46.5283C60.4361 46.2925 59.6172 46.0565 58.7982 45.8291C58.7982 45.8291 58.7393 45.8123 58.7308 45.7954L54.7034 38.525L54.6612 38.5166L49.5025 37.295C49.5025 37.295 46.9948 38.7188 45.8213 39.3758C45.095 39.8056 43.8455 40.5216 43.8455 40.5216C40.899 40.5553 38.3491 40.6311 35.9515 40.7575L35.5293 40.7744L35.293 41.1703C34.8876 41.8359 34.4992 42.484 34.1276 43.0995C33.5113 44.1358 32.9456 45.1046 32.4304 45.9895C32.4222 46.0064 32.4222 46.0148 32.4137 46.0232C32.1474 46.4823 31.8871 46.945 31.629 47.4087C31.4351 47.9304 31.1666 48.4213 30.8318 48.8663C30.5758 49.0666 30.009 48.9617 29.6659 48.961C28.7553 48.959 27.8447 48.9549 26.9341 48.9549C26.9253 48.9703 26.9142 48.9843 26.9012 48.9964C26.0632 49.8355 22.5799 54.0256 22.1893 54.2203C22.1726 54.2288 22.1639 54.2456 22.1556 54.254C19.4707 53.4368 15.173 52.207 14.9199 52.1395L12.3701 53.1842L12.2689 53.2254L12.2548 53.1681C11.603 50.3226 11.2754 47.4126 11.2784 44.4937C11.2923 34.1416 15.4135 24.2162 22.7408 16.8875C30.0682 9.55888 40.0056 5.42327 50.3802 5.38496C60.7548 5.34665 70.7226 9.40874 78.1041 16.6831C85.4857 23.9574 89.6804 33.8522 89.7711 44.2038C87.7086 43.638 82.0586 42.0801 82.0586 42.0801L71.7665 46.1408V48.6682L83.7467 45.4922L89.671 47.1946C89.6591 47.357 89.6542 47.521 89.6398 47.6829C89.4051 50.5692 88.8488 53.4205 87.9813 56.1839V56.1971C87.8474 56.6375 87.7003 57.0779 87.5399 57.5051C87.3342 58.0772 87.1102 58.6455 86.8801 59.2105C83.147 56.9426 75.1972 52.2044 71.8934 50.9362V55.8057L86.2495 60.6703C86.1956 60.7851 86.1508 60.9002 86.0951 61.0149C85.6536 61.9892 85.1453 62.9366 84.6104 63.8707C86.5094 64.0977 88.4088 64.3512 90.2944 64.6314C90.7494 63.7373 91.177 62.8298 91.578 61.8957C91.6181 61.7888 91.6717 61.6688 91.712 61.562C94.6752 54.4528 95.7393 46.698 94.8003 39.0557C93.8612 31.4133 90.9512 24.1448 86.3546 17.9604C81.758 11.776 75.632 6.8873 68.5754 3.7721C61.5188 0.656905 53.7729 -0.578237 46.0947 0.18738C38.4165 0.952997 31.0688 3.69318 24.7695 8.14014C18.4702 12.5871 13.4349 18.5887 10.1557 25.5584C6.87644 32.5282 5.46545 40.2276 6.06061 47.9042C6.65577 55.5809 9.23671 62.9722 13.5512 69.3557C14.6884 69.0354 15.8253 68.7285 16.962 68.4349ZM32.3542 48.9383C32.5659 48.6687 32.7943 48.4126 33.038 48.1715C33.8497 47.4032 34.7473 46.7308 35.713 46.1674C36.5176 45.6111 37.4105 45.1944 38.3541 44.9348C39.2227 44.7429 40.0934 44.5594 40.9661 44.3841C41.7293 44.2303 42.4934 44.0804 43.2583 43.9345C43.5931 43.9178 43.9241 43.8552 44.2418 43.7484L49.7551 40.564C51.3256 40.8672 52.2712 41.0441 53.6729 41.28C53.7066 41.2884 53.7402 41.2884 53.7741 41.2969L51.4437 43.2176C51.5301 43.3429 51.6261 43.4612 51.7309 43.5715C51.9228 43.7709 52.1382 43.9463 52.3725 44.0938C52.4596 44.1521 52.5497 44.2055 52.6425 44.254C52.8169 44.35 52.9974 44.4345 53.183 44.5067C54.3652 45.0037 55.7414 45.1469 56.6025 45.4839C56.6701 45.5092 56.7291 45.5429 56.7882 45.5682C56.8551 45.6038 56.92 45.6432 56.9825 45.6861C57.0244 45.7066 57.0617 45.7352 57.0922 45.7704C57.1514 45.8081 57.2053 45.8534 57.2527 45.9051C52.6011 46.2758 48.1041 46.5989 44.9716 47.0538C44.9716 47.0538 41.6667 48.9548 40.671 49.5698C40.1476 49.1487 39.6068 48.719 39.0583 48.2809L38.7965 48.0703C38.7965 48.0703 35.3433 48.6853 33.6802 48.9802L32.3292 48.9717C32.3372 48.963 32.3458 48.9462 32.3542 48.9379V48.9383Z" fill="#4F2129"/>
<path d="M124.836 69.1697L123.093 67.335L121.34 69.1697L123.093 70.9289L124.836 69.1697Z" fill="#4F2129"/>
<path d="M130.215 76.8355H126.792C127.021 76.5321 127.205 76.1983 127.34 75.8438C127.454 75.54 127.513 75.2188 127.516 74.8946C127.489 74.1354 127.238 73.401 126.793 72.7844C126.652 72.5541 126.454 72.3645 126.217 72.2344C125.98 72.1043 125.714 72.0382 125.443 72.0426C124.534 72.1433 123.693 72.5688 123.074 73.2406C122.596 73.6795 122.179 74.1786 121.831 74.7253C121.571 75.1277 121.428 75.5935 121.416 76.0718C121.406 76.3453 121.489 76.6141 121.65 76.8355H115.497C114.477 76.8355 113.967 76.4183 113.967 75.5841C113.976 75.2856 114.031 74.9904 114.131 74.7089C114.263 74.3189 114.421 73.9382 114.604 73.5693C114.682 73.4068 114.744 73.2636 114.79 73.1399C114.83 73.0439 114.853 72.9417 114.859 72.8378C114.865 72.7904 114.856 72.7422 114.833 72.7003C114.81 72.6583 114.775 72.6247 114.731 72.6043C114.696 72.5764 114.63 72.5934 114.535 72.6576C114.411 72.7464 114.299 72.8496 114.2 72.9651C113.358 74.0079 112.834 75.2703 112.691 76.6018C112.691 76.8259 112.721 77.0489 112.781 77.2648C112.84 77.4758 112.92 77.6802 113.021 77.8744C113.309 78.3085 113.711 78.6551 114.183 78.8758C114.656 79.0966 115.18 79.183 115.698 79.1257H124.221C124.393 79.1243 124.563 79.0957 124.726 79.0407C124.906 78.9802 125.073 78.8868 125.22 78.7654C125.446 78.8921 125.689 78.9849 125.942 79.0407C126.214 79.0994 126.492 79.1278 126.771 79.1257H132.201V67.8965L130.214 69.7093L130.215 76.8355ZM125.571 76.1458C125.391 76.3136 125.199 76.4678 124.997 76.6073C124.882 76.6887 124.757 76.7546 124.625 76.8033C123.949 76.5685 123.387 76.0875 123.052 75.4568C123.254 75.1955 123.507 74.9773 123.796 74.8153C124.084 74.6532 124.402 74.5504 124.731 74.5131C124.872 74.5121 125.012 74.5465 125.136 74.6131C125.26 74.6798 125.366 74.7766 125.443 74.8946C125.539 75.0167 125.619 75.1504 125.682 75.2924C125.739 75.4173 125.77 75.5528 125.772 75.6903C125.772 75.7759 125.753 75.8605 125.719 75.9388C125.684 76.0172 125.634 76.0876 125.571 76.1458Z" fill="#4F2129"/>
<path d="M151.34 69.1697L149.608 67.335L147.844 69.1697L149.608 70.9289L151.34 69.1697Z" fill="#4F2129"/>
<path d="M147.61 69.1697L145.878 67.335L144.125 69.1697L145.878 70.9289L147.61 69.1697Z" fill="#4F2129"/>
<path d="M160.852 76.8355H157.143V67.928L155.209 69.7093V76.8358H150.288C150.757 76.2672 151.019 75.5571 151.032 74.8209C151.029 74.5747 150.992 74.3301 150.921 74.0942C150.834 73.8024 150.725 73.5172 150.597 73.2409C150.473 72.8962 150.25 72.596 149.954 72.3788C149.659 72.1616 149.305 72.0373 148.939 72.0217C147.924 72.1514 147.001 72.6729 146.367 73.4744C145.569 74.1397 145.056 75.0839 144.933 76.1142C144.925 76.3666 144.987 76.6162 145.113 76.8353H140.523C140.453 76.3049 140.345 75.7802 140.198 75.2657C140.073 74.8241 139.907 74.3947 139.704 73.9828C139.173 72.8304 138.475 72.2543 137.611 72.2543C136.783 72.2543 135.95 72.9647 135.114 74.3855C134.758 74.958 134.462 75.5658 134.232 76.1991C134.054 76.6782 133.957 77.1834 133.945 77.6941C133.945 78.6481 134.469 79.1253 135.518 79.1256H138.376C138.1 80.6315 137.328 81.3844 136.06 81.3843C135.781 81.3847 135.503 81.3544 135.231 81.2938C134.954 81.2314 134.684 81.1446 134.423 81.0343C134.175 80.9069 134.016 80.914 133.945 81.0555C133.909 81.1829 134.001 81.3454 134.221 81.5432C134.721 81.9673 135.277 82.3206 135.874 82.593C136.38 82.8203 136.928 82.9397 137.483 82.9433C137.93 82.9432 138.368 82.8255 138.755 82.6021C139.141 82.3786 139.461 82.0574 139.683 81.6708C139.918 81.3077 140.109 80.918 140.252 80.5099C140.409 80.0614 140.518 79.5974 140.576 79.1259H147.611C148.027 79.1624 148.439 79.0328 148.759 78.7656C148.966 78.8931 149.192 78.9861 149.428 79.0409C149.679 79.0989 149.936 79.1274 150.194 79.1259H162.839V67.8965L160.852 69.7093V76.8355ZM136.08 76.8355C135.69 76.8355 135.495 76.715 135.495 76.4742L135.57 76.22C136.059 75.1877 136.544 74.6716 137.026 74.6716C137.366 74.6716 137.681 74.9156 137.972 75.4037C138.098 75.6212 138.2 75.8524 138.274 76.0927C138.349 76.3348 138.4 76.5834 138.428 76.8351L136.08 76.8355ZM149.225 75.9128C149.19 75.9922 149.135 76.0615 149.066 76.1143C148.839 76.3193 148.65 76.4784 148.497 76.5916C148.392 76.6767 148.276 76.7479 148.152 76.8033C147.805 76.6782 147.482 76.4955 147.196 76.2628C146.932 76.0416 146.718 75.7668 146.568 75.4568C146.768 75.1973 147.018 74.9802 147.302 74.8182C147.587 74.6561 147.901 74.5524 148.227 74.5131C148.368 74.5105 148.508 74.5443 148.632 74.6111C148.757 74.6779 148.862 74.7755 148.938 74.8946C149.147 75.1077 149.264 75.3927 149.268 75.6903C149.268 75.7664 149.254 75.842 149.226 75.9128H149.225Z" fill="#4F2129"/>
<path d="M173.613 86.5794L175.366 88.3298L177.099 86.5794L175.366 84.7666L173.613 86.5794Z" fill="#4F2129"/>
<path d="M169.885 86.5794L171.649 88.3298L173.381 86.5794L171.649 84.7666L169.885 86.5794Z" fill="#4F2129"/>
<path d="M186.155 69.1697L184.422 67.335L182.658 69.1697L184.422 70.9289L186.155 69.1697Z" fill="#4F2129"/>
<path d="M193.752 82.3498L195.516 84.1101L197.248 82.3498L195.516 80.5469L193.752 82.3498Z" fill="#4F2129"/>
<path d="M196.559 79.1257V72.2756L194.572 74.1109V76.836H187.175C187.644 76.2674 187.906 75.5573 187.919 74.8211C187.916 74.5749 187.878 74.3302 187.807 74.0944C187.72 73.8026 187.612 73.5174 187.483 73.2411C187.36 72.8964 187.136 72.5962 186.841 72.379C186.546 72.1618 186.192 72.0375 185.826 72.022C185.322 72.0832 184.836 72.243 184.394 72.4923C183.953 72.7416 183.565 73.0754 183.254 73.4746C182.456 74.14 181.943 75.0844 181.819 76.1148C181.811 76.3673 181.874 76.6169 182 76.836H174.71L173.839 79.1262H175.496C175.95 79.1262 176.162 79.3807 176.134 79.8898C176.108 80.1513 176.001 80.3981 175.826 80.5947C175.599 80.8301 175.323 81.0129 175.018 81.1302C174.478 81.4033 173.881 81.545 173.275 81.5439C172.809 81.568 172.344 81.4837 171.916 81.2979C171.488 81.112 171.11 80.8295 170.81 80.4727C170.526 80.1334 170.315 79.7404 170.188 79.3173C170.05 78.8312 169.983 78.3275 169.992 77.8222C169.996 77.3262 170.099 76.836 170.294 76.3798C170.529 75.8395 170.846 75.3387 171.235 74.8951C171.338 74.8016 171.412 74.6802 171.447 74.5457C171.447 74.4608 171.395 74.4184 171.288 74.4184C171.246 74.4181 171.205 74.4265 171.167 74.4428C171.128 74.4592 171.094 74.4833 171.065 74.5136C170.312 75.0443 169.692 75.7411 169.253 76.5498C168.856 77.3201 168.654 78.1753 168.663 79.0414C168.641 80.2676 169.077 81.4581 169.885 82.3815C170.673 83.2977 171.793 83.8657 172.999 83.9615H173.658C174.381 84.0106 175.106 83.8747 175.762 83.5667C176.419 83.2588 176.986 82.7889 177.41 82.2015C177.671 81.822 177.873 81.4055 178.01 80.9659C178.141 80.5415 178.207 80.1002 178.207 79.6564C178.211 79.5257 178.195 79.3951 178.159 79.2694C178.127 79.1743 178.072 79.1263 177.994 79.1263H184.498C184.913 79.1629 185.326 79.0333 185.646 78.7661C185.852 78.8935 186.078 78.9865 186.315 79.0414C186.566 79.0994 186.823 79.1279 187.08 79.1263H196.56L196.559 79.1257ZM186.112 75.9129C186.077 75.9922 186.022 76.0615 185.953 76.1143C185.726 76.3193 185.537 76.4784 185.384 76.5916C185.279 76.6768 185.162 76.7479 185.039 76.8033C184.692 76.6782 184.368 76.4955 184.082 76.2628C183.818 76.0416 183.605 75.7669 183.455 75.4568C183.655 75.1973 183.904 74.9802 184.189 74.8182C184.474 74.6561 184.788 74.5524 185.113 74.5131C185.254 74.5135 185.393 74.5486 185.517 74.6151C185.641 74.6817 185.747 74.7776 185.825 74.8946C186.033 75.1077 186.151 75.3927 186.154 75.6903C186.154 75.7665 186.14 75.842 186.112 75.9129Z" fill="#4F2129"/>
<path d="M190.033 82.3498L191.786 84.1101L193.498 82.3498L191.786 80.5469L190.033 82.3498Z" fill="#4F2129"/>
<path d="M206.441 76.8355H202.786C202.569 75.2446 201.968 73.7304 201.032 72.4238L199.427 74.7677C200.202 75.8725 200.628 77.1835 200.65 78.5318C200.653 78.8825 200.619 79.2325 200.549 79.5761C200.489 79.8716 200.383 80.1559 200.235 80.4191C200.09 80.7022 199.867 80.9382 199.592 81.0997C199.318 81.2611 199.003 81.3412 198.684 81.3306C198.452 81.3302 198.222 81.3 197.998 81.2408C197.758 81.1772 197.525 81.0903 197.302 80.9813C197.076 80.8466 196.923 80.8713 196.845 81.0553C196.824 81.1681 196.902 81.3131 197.079 81.4902C197.856 82.3323 198.922 82.8511 200.065 82.9428C200.494 82.9269 200.909 82.7913 201.264 82.5513C201.62 82.3113 201.9 81.9766 202.074 81.5853C202.287 81.2292 202.454 80.848 202.573 80.4506C202.704 80.0183 202.793 79.5745 202.839 79.1253H208.428V67.8965L206.441 69.7093V76.8355Z" fill="#4F2129"/>
<path d="M210.182 79.1259H212.189V67.8965L210.182 69.7093V79.1259Z" fill="#4F2129"/>
<path d="M228.565 76.8355H220.786C219.78 76.8355 219.277 76.4184 219.277 75.5841C219.341 74.8743 219.558 74.1868 219.915 73.5693C219.983 73.4304 220.042 73.2869 220.09 73.1399C220.124 73.0426 220.144 72.9408 220.148 72.8379C220.148 72.7105 220.113 72.6328 220.042 72.6044C219.95 72.5552 219.766 72.6756 219.489 72.9656C219.055 73.5944 218.683 74.2637 218.379 74.9641C218.147 75.4804 218.019 76.0369 218.002 76.6023C218.002 76.8264 218.032 77.0494 218.092 77.2653C218.255 77.8801 218.642 78.4119 219.178 78.7563C219.714 79.1006 220.36 79.2326 220.988 79.1263H230.531V72.2544L228.566 74.0569L228.565 76.8355Z" fill="#4F2129"/>
<path d="M222.902 82.3498L224.665 84.1101L226.399 82.3498L224.665 80.5469L222.902 82.3498Z" fill="#4F2129"/>
<path d="M232.297 79.1259H234.305V67.8965L232.297 69.7093V79.1259Z" fill="#4F2129"/>
<path d="M246.367 82.3498L248.131 84.1101L249.864 82.3498L248.131 80.5469L246.367 82.3498Z" fill="#4F2129"/>
<path d="M249.172 79.1259V72.2759L247.185 74.1111V76.8363H240.989C240.773 75.2454 240.171 73.7312 239.236 72.4247L237.631 74.768C238.405 75.8728 238.831 77.1837 238.853 78.5321C238.856 78.8827 238.822 79.2327 238.752 79.5764C238.692 79.8719 238.586 80.1562 238.438 80.4193C238.293 80.7025 238.07 80.9385 237.795 81.0999C237.521 81.2613 237.206 81.3414 236.887 81.3309C236.656 81.3304 236.425 81.3003 236.201 81.2411C235.962 81.1775 235.728 81.0906 235.506 80.9816C235.279 80.8469 235.126 80.8716 235.048 81.0556C235.027 81.1684 235.105 81.3134 235.282 81.4905C236.059 82.3326 237.125 82.8514 238.268 82.943C238.697 82.9272 239.112 82.7916 239.468 82.5516C239.823 82.3116 240.103 81.9769 240.277 81.5856C240.49 81.2295 240.658 80.8483 240.776 80.4509C240.907 80.0186 240.996 79.5748 241.042 79.1256H249.172V79.1259Z" fill="#4F2129"/>
<path d="M242.646 82.3498L244.4 84.1101L246.11 82.3498L244.4 80.5469L242.646 82.3498Z" fill="#4F2129"/>
<path d="M254.018 71.3643L253.083 73.4744C253.426 73.6399 253.751 73.8388 254.055 74.0682C254.336 74.2814 254.591 74.5269 254.814 74.7996C255.064 75.0978 255.263 75.4342 255.405 75.7958C255.528 76.1278 255.577 76.4828 255.548 76.8358H251.903C251.761 76.8131 251.622 76.7756 251.488 76.7241C251.398 76.6925 251.315 76.6439 251.244 76.581C251.182 76.4927 251.137 76.3938 251.111 76.2893C251.076 76.1489 251.06 76.0045 251.063 75.8599C251.063 75.676 251.014 75.5842 250.914 75.5844C250.836 75.5844 250.783 75.6622 250.755 75.8174L250.447 78.2356L250.404 78.511C250.404 78.9209 250.727 79.1259 251.371 79.126H257.333C257.395 77.6175 257.295 76.1068 257.035 74.6195C256.841 73.8703 256.464 73.1809 255.937 72.6128C255.41 72.0447 254.751 71.6158 254.018 71.3643Z" fill="#4F2129"/>
<path d="M267.939 86.167L269.693 87.9273L271.436 86.167L269.693 84.3433L267.939 86.167Z" fill="#4F2129"/>
<path d="M264.209 86.167L265.973 87.9273L267.705 86.167L265.973 84.3433L264.209 86.167Z" fill="#4F2129"/>
<path d="M270.564 75.1494C270.779 74.9979 271.002 74.8579 271.233 74.7303C271.388 74.6412 271.557 74.5786 271.733 74.5453C271.904 74.5078 272.083 74.536 272.235 74.6243C272.387 74.7126 272.499 74.8546 272.551 75.022C272.923 74.5528 273.161 73.9924 273.242 73.3996C273.242 72.6645 272.92 72.2969 272.275 72.2969C272.183 72.297 272.092 72.3094 272.004 72.3339C271.915 72.3588 271.824 72.3886 271.733 72.4243C270.963 72.799 270.272 73.3172 269.698 73.951C269.039 74.689 268.496 75.522 268.087 76.4219C267.827 76.9767 267.666 77.5722 267.61 78.1821C267.609 78.3089 267.647 78.4329 267.719 78.5373C267.791 78.6416 267.894 78.7213 268.013 78.7655C268.197 78.8524 268.392 78.9148 268.592 78.9511C268.864 79.0006 269.14 79.0235 269.416 79.0196L270.638 78.9456C270.759 78.9172 270.836 78.9347 270.872 78.9984C270.903 79.0261 270.922 79.0643 270.926 79.1056C270.93 79.1468 270.918 79.188 270.893 79.2211C270.804 79.5045 270.648 79.7627 270.439 79.9747C270.23 80.1867 269.974 80.3464 269.692 80.4408C269.422 80.5589 269.141 80.6496 268.853 80.7113C268.559 80.7722 268.26 80.8023 267.96 80.801C267.484 80.8254 267.009 80.7396 266.572 80.5501C266.135 80.3607 265.748 80.0729 265.441 79.7093C264.868 78.9274 264.579 77.9734 264.623 77.0054C264.692 75.9045 265.143 74.8619 265.898 74.057C265.985 73.9556 266.037 73.8295 266.047 73.6968C266.047 73.6118 266.015 73.5695 265.951 73.5695C265.902 73.568 265.852 73.579 265.808 73.6015C265.769 73.6226 265.731 73.6474 265.697 73.6755C264.95 74.1972 264.34 74.8906 263.918 75.6972C263.496 76.5037 263.275 77.3997 263.274 78.3094C263.267 78.9142 263.368 79.5154 263.571 80.0853C263.77 80.627 264.065 81.1282 264.443 81.5647C265.224 82.4531 266.323 83.0013 267.504 83.0919L268.195 83.1447C268.87 83.151 269.538 82.9999 270.145 82.7034C270.752 82.407 271.282 81.9733 271.691 81.4369C272.309 80.6487 272.751 79.7378 272.988 78.7652C273.112 78.3015 273.13 77.8157 273.04 77.3441C273.008 77.2392 272.955 77.1419 272.883 77.0581C272.812 76.9743 272.725 76.9058 272.627 76.8565C272.522 76.7687 272.398 76.7069 272.264 76.6763C272.125 76.6471 271.981 76.6399 271.84 76.6551C271.4 76.683 271.032 76.7024 270.735 76.7133C270.508 76.7245 270.281 76.7227 270.054 76.7078L269.692 76.6229C269.664 76.609 269.65 76.5526 269.65 76.4531C269.706 76.1856 269.816 75.9323 269.973 75.7083C270.131 75.4842 270.331 75.2942 270.564 75.1494Z" fill="#4F2129"/>
<path d="M278.416 71.3643L277.481 73.4744C277.824 73.6399 278.149 73.8388 278.453 74.0682C278.734 74.2814 278.989 74.5269 279.213 74.7996C279.462 75.0978 279.661 75.4342 279.803 75.7958C279.926 76.1278 279.975 76.4828 279.946 76.8358H276.301C276.159 76.8131 276.02 76.7757 275.887 76.7241C275.797 76.6925 275.714 76.6439 275.642 76.581C275.581 76.4926 275.536 76.3938 275.51 76.2893C275.475 76.1489 275.459 76.0045 275.462 75.8599C275.462 75.6761 275.412 75.5844 275.313 75.5844C275.235 75.5844 275.181 75.6622 275.153 75.8174L274.845 78.2356L274.803 78.511C274.803 78.9209 275.125 79.1259 275.77 79.126H281.732C281.793 77.6175 281.693 76.1068 281.434 74.6195C281.239 73.8703 280.862 73.1808 280.336 72.6128C279.809 72.0447 279.149 71.6158 278.416 71.3643Z" fill="#4F2129"/>
<path d="M292.337 69.5823L290.638 67.7695L288.852 69.5823L290.638 71.3317L292.337 69.5823Z" fill="#4F2129"/>
<path d="M291.987 74.11V76.8358H288.044H287.162H285.037V69.7093L283.018 67.8965V79.1259H287.162H288.044H293.974V72.2753L291.987 74.11Z" fill="#4F2129"/>
<path d="M130.132 7.10498H112.496V38.6092H130.132C142.265 38.6092 149.977 32.7586 149.977 22.857C149.977 12.9555 142.265 7.10498 130.132 7.10498ZM129.41 31.318H121.698V14.396H129.41C136.176 14.396 140.596 17.2764 140.596 22.857C140.596 28.4377 136.176 31.318 129.41 31.318Z" fill="#4F2129"/>
<path d="M164.773 7.10498H155.572V38.6092H164.773V7.10498Z" fill="#4F2129"/>
<path d="M208.706 17.8611C208.706 10.6604 202.437 7.10498 194.363 7.10498H172.217V38.6092H181.373V28.6627H190.664L199.008 38.6092H209.698L200.407 27.8979C205.368 26.4574 208.706 23.127 208.706 17.8611ZM193.686 22.0018H181.328V14.0806H193.686C196.979 14.0806 199.369 14.9807 199.369 18.0412C199.369 21.1018 196.979 22.0018 193.686 22.0018Z" fill="#4F2129"/>
<path d="M227.065 7.10498L210.736 38.6092H220.389L223.366 32.5785H240.686L243.662 38.6092H253.451L237.123 7.10498H227.065ZM226.523 26.0522L232.026 14.8909L237.484 26.0522H226.523Z" fill="#4F2129"/>
<path d="M284.979 22.182C289.714 21.9121 292.195 18.8066 292.195 15.2512C292.195 10.2104 287.279 7.10498 279.521 7.10498H256.924V38.6092H281.325C289.083 38.6092 294 35.414 294 29.968C294 25.1073 289.94 22.4968 284.979 22.182ZM266.035 13.4959H277.988C281.054 13.4959 283.084 14.171 283.084 16.5558C283.084 18.9861 281.054 19.6613 277.988 19.6613H266.035V13.4959ZM279.386 32.2182H266.035V25.6022H279.386C282.633 25.6022 284.573 26.3227 284.573 28.8877C284.573 31.4527 282.633 32.2182 279.386 32.2182Z" fill="#4F2129"/>
<path d="M117.94 55.2454H119.667V57.113C119.021 57.3694 118.332 57.5033 117.637 57.5079C117.177 57.5178 116.719 57.4363 116.291 57.2683C115.862 57.1002 115.472 56.8489 115.142 56.5289C114.811 56.2089 114.548 55.8266 114.367 55.4042C114.186 54.9819 114.092 54.5279 114.088 54.0686C114.085 53.6093 114.173 53.1539 114.347 52.7289C114.521 52.3038 114.779 51.9176 115.104 51.5926C115.429 51.2676 115.816 51.0104 116.242 50.8358C116.667 50.6613 117.124 50.5729 117.584 50.5758C118.711 50.6045 119.811 50.9265 120.775 51.5099V50.1943C119.792 49.7023 118.71 49.4413 117.611 49.4313C116.979 49.405 116.349 49.5069 115.758 49.7307C115.168 49.9546 114.628 50.2957 114.174 50.7336C113.719 51.1714 113.358 51.6968 113.112 52.2779C112.867 52.859 112.742 53.4837 112.746 54.1143C112.744 54.7419 112.873 55.3629 113.125 55.9381C113.376 56.5133 113.745 57.03 114.207 57.4555C114.67 57.8809 115.216 58.2059 115.811 58.4096C116.405 58.6133 117.036 58.6915 117.663 58.639C118.803 58.6408 119.929 58.3893 120.959 57.9026V54.1143H117.94V55.2454Z" fill="#B0A098"/>
<path d="M129.091 49.4315C128.472 49.4053 127.853 49.504 127.273 49.7214C126.693 49.9389 126.162 50.2708 125.713 50.6972C125.264 51.1237 124.906 51.6361 124.659 52.2037C124.413 52.7714 124.284 53.3827 124.279 54.0013C124.275 54.6199 124.395 55.233 124.634 55.8041C124.872 56.3752 125.223 56.8926 125.666 57.3254C126.109 57.7583 126.634 58.0977 127.212 58.3234C127.789 58.5491 128.406 58.6565 129.025 58.6392C129.653 58.6793 130.282 58.5911 130.875 58.38C131.467 58.169 132.01 57.8395 132.47 57.4117C132.931 56.984 133.299 56.467 133.552 55.8924C133.805 55.3178 133.937 54.6977 133.942 54.0701C133.946 53.4425 133.822 52.8206 133.578 52.2424C133.333 51.6643 132.972 51.1421 132.518 50.7078C132.064 50.2736 131.526 49.9364 130.937 49.7169C130.347 49.4974 129.719 49.4003 129.091 49.4315ZM129.052 57.4291C128.602 57.4396 128.156 57.3602 127.738 57.1955C127.32 57.0309 126.939 56.7843 126.619 56.4704C126.298 56.1565 126.043 55.7816 125.87 55.3679C125.697 54.9542 125.609 54.51 125.611 54.0617C125.591 53.5995 125.67 53.1384 125.841 52.7084C126.012 52.2785 126.272 51.8895 126.605 51.5668C126.937 51.244 127.333 50.9948 127.769 50.8354C128.204 50.6759 128.668 50.6099 129.131 50.6415C129.582 50.6292 130.032 50.7071 130.452 50.8706C130.873 51.0341 131.257 51.28 131.582 51.5938C131.906 51.9075 132.164 52.2828 132.341 52.6976C132.517 53.1124 132.609 53.5582 132.611 54.0089C132.632 54.475 132.553 54.9403 132.38 55.3737C132.207 55.8072 131.943 56.1988 131.606 56.5224C131.27 56.8461 130.867 57.0944 130.427 57.2507C129.986 57.4071 129.517 57.4679 129.051 57.4291H129.052Z" fill="#B0A098"/>
<path d="M138.672 49.5493H137.367V58.5215H142.719V57.3501H138.672V49.5493Z" fill="#B0A098"/>
<path d="M145.682 58.5215H146.974V54.3507H150.48V53.1936H146.974V50.7075H150.48V49.5493H145.682V58.5215Z" fill="#B0A098"/>
<path d="M166.033 54.0616H164.74C164.493 54.5888 164.169 55.0765 163.778 55.5088L162.513 54.0616C163.778 53.1937 164.174 52.4829 164.174 51.6805C164.165 51.4016 164.1 51.1275 163.98 50.8752C163.861 50.6228 163.691 50.3977 163.481 50.2139C163.27 50.03 163.024 49.8914 162.758 49.8066C162.492 49.7218 162.211 49.6926 161.933 49.721C161.647 49.6963 161.358 49.7315 161.087 49.8243C160.815 49.917 160.566 50.0654 160.355 50.2597C160.144 50.4541 159.976 50.6903 159.862 50.9531C159.748 51.216 159.69 51.4997 159.691 51.7862C159.753 52.5826 160.116 53.3259 160.707 53.8647C159.323 54.6671 158.584 55.469 158.584 56.5874C158.618 57.1527 158.871 57.6827 159.289 58.0656C159.707 58.4484 160.258 58.6542 160.825 58.6393C161.907 58.5284 162.92 58.0556 163.699 57.2977L164.741 58.521H166.389L164.569 56.4163C165.198 55.7278 165.694 54.9296 166.033 54.0616ZM161.946 50.8125C162.073 50.8059 162.201 50.8246 162.321 50.8674C162.441 50.9102 162.551 50.9763 162.646 51.0619C162.74 51.1475 162.816 51.2509 162.87 51.3661C162.924 51.4813 162.955 51.6061 162.96 51.7332C162.96 52.2203 162.618 52.6933 161.787 53.1937C161.323 52.8115 161.025 52.2644 160.957 51.6677C160.976 51.424 161.091 51.1977 161.276 51.0376C161.461 50.8776 161.702 50.7967 161.946 50.8125H161.946ZM160.983 57.4157C160.713 57.4372 160.444 57.3511 160.237 57.1762C160.03 57.0012 159.9 56.7516 159.876 56.4817C159.876 55.877 160.35 55.4427 161.445 54.7192L162.908 56.403C162.408 56.9584 161.725 57.3175 160.983 57.4157H160.983Z" fill="#B0A098"/>
<path d="M175.745 54.0617C175.744 53.6005 175.837 53.1439 176.017 52.7192C176.197 52.2945 176.461 51.9104 176.793 51.5899C177.126 51.2694 177.519 51.0191 177.951 50.854C178.382 50.6888 178.843 50.6122 179.305 50.6287C180.401 50.6554 181.473 50.9632 182.416 51.5227V50.1677C181.429 49.7028 180.356 49.4519 179.265 49.4314C178.64 49.4102 178.018 49.5134 177.433 49.7349C176.849 49.9564 176.315 50.2919 175.862 50.7217C175.409 51.1515 175.047 51.6671 174.796 52.2382C174.545 52.8094 174.41 53.4247 174.4 54.0483C174.397 54.6723 174.522 55.2903 174.767 55.8644C175.012 56.4384 175.373 56.9564 175.826 57.3864C176.279 57.8164 176.816 58.1493 177.402 58.3648C177.989 58.5802 178.614 58.6736 179.239 58.6392C180.378 58.6564 181.503 58.3848 182.508 57.85V56.4425C181.56 57.0902 180.44 57.4386 179.291 57.4426C178.832 57.468 178.373 57.3991 177.942 57.2403C177.51 57.0814 177.116 56.8359 176.784 56.519C176.451 56.2021 176.188 55.8205 176.009 55.3978C175.83 54.9752 175.741 54.5204 175.745 54.0617Z" fill="#B0A098"/>
<path d="M190.349 49.4315C189.73 49.4053 189.111 49.504 188.531 49.7214C187.951 49.9389 187.42 50.2708 186.971 50.6972C186.522 51.1237 186.164 51.6361 185.917 52.2037C185.671 52.7714 185.542 53.3827 185.537 54.0013C185.533 54.6199 185.653 55.233 185.891 55.8041C186.13 56.3752 186.481 56.8926 186.924 57.3254C187.366 57.7583 187.892 58.0977 188.469 58.3234C189.047 58.5491 189.663 58.6565 190.283 58.6392C190.911 58.6793 191.54 58.5911 192.132 58.38C192.725 58.169 193.268 57.8395 193.728 57.4117C194.188 56.984 194.556 56.467 194.809 55.8924C195.062 55.3178 195.195 54.6977 195.2 54.0701C195.204 53.4425 195.08 52.8206 194.835 52.2424C194.591 51.6643 194.23 51.1421 193.776 50.7078C193.322 50.2736 192.784 49.9364 192.194 49.7169C191.605 49.4974 190.977 49.4003 190.349 49.4315ZM190.309 57.4291C189.86 57.4396 189.414 57.3602 188.996 57.1955C188.578 57.0309 188.197 56.7843 187.876 56.4704C187.556 56.1565 187.301 55.7816 187.128 55.3679C186.955 54.9542 186.867 54.51 186.868 54.0617C186.849 53.5995 186.928 53.1384 187.099 52.7085C187.27 52.2785 187.53 51.8895 187.862 51.5668C188.195 51.244 188.591 50.9948 189.027 50.8354C189.462 50.6759 189.926 50.6099 190.388 50.6415C190.84 50.6292 191.289 50.7071 191.71 50.8706C192.131 51.0341 192.515 51.28 192.839 51.5938C193.164 51.9075 193.422 52.2828 193.598 52.6976C193.775 53.1124 193.867 53.5582 193.868 54.0089C193.89 54.475 193.811 54.9403 193.638 55.3737C193.465 55.8071 193.201 56.1987 192.864 56.5224C192.528 56.846 192.125 57.0943 191.685 57.2507C191.244 57.407 190.775 57.4679 190.309 57.4291Z" fill="#B0A098"/>
<path d="M204.941 54.7325C204.941 56.692 204.097 57.4947 202.384 57.4947C200.67 57.4947 199.8 56.7317 199.8 54.7459V49.5498H198.508V54.7458C198.508 57.3896 199.892 58.6391 202.384 58.6391C204.981 58.6391 206.233 57.1792 206.233 54.7324V49.5498H204.941L204.941 54.7325Z" fill="#B0A098"/>
<path d="M217.026 56.5083L211.001 49.5493H209.934V58.5215H211.172V51.615L217.145 58.5215H218.265V49.5493H217.026V56.5083Z" fill="#B0A098"/>
<path d="M221.32 50.6812H224.405V58.5215H225.697V50.6812H228.834V49.5493H221.32V50.6812Z" fill="#B0A098"/>
<path d="M235.595 54.2588C236.05 54.1004 236.442 53.8 236.713 53.4021C236.984 53.0041 237.119 52.5297 237.098 52.0491C237.101 51.7007 237.031 51.3555 236.892 51.0359C236.753 50.7163 236.548 50.4293 236.291 50.1937C236.034 49.9581 235.73 49.779 235.399 49.6681C235.068 49.5571 234.717 49.5168 234.369 49.5497H231.891V58.5207H233.182V54.6143H233.762C234.395 54.6143 234.962 54.8903 235.871 56.3111L237.295 58.5213H238.824L237.243 56.1274C236.372 54.8114 236.122 54.6008 235.595 54.2588ZM234.013 53.4829H233.182V50.6805H234.277C235.252 50.6805 235.78 51.1802 235.78 52.0489C235.779 53.2459 234.949 53.4829 234.013 53.4829Z" fill="#B0A098"/>
<path d="M244.636 52.6407L242.224 49.5493H240.668L243.99 53.7727V58.5215H245.309V53.7727L248.631 49.5493H247.075L244.636 52.6407Z" fill="#B0A098"/>
<path d="M257.921 54.0617C257.92 53.6005 258.012 53.1439 258.192 52.7192C258.373 52.2945 258.637 51.9104 258.969 51.5899C259.301 51.2694 259.695 51.0191 260.126 50.854C260.558 50.6888 261.018 50.6122 261.48 50.6287C262.577 50.6554 263.648 50.9632 264.591 51.5227V50.1677C263.605 49.7028 262.531 49.4519 261.441 49.4314C260.816 49.4102 260.194 49.5134 259.609 49.7349C259.025 49.9564 258.491 50.2919 258.038 50.7217C257.585 51.1515 257.223 51.6671 256.972 52.2382C256.721 52.8094 256.586 53.4247 256.576 54.0483C256.573 54.6723 256.698 55.2903 256.943 55.8644C257.188 56.4385 257.548 56.9564 258.002 57.3864C258.455 57.8164 258.991 58.1494 259.578 58.3648C260.165 58.5802 260.79 58.6736 261.414 58.6392C262.554 58.6564 263.678 58.3848 264.684 57.85V56.4425C263.736 57.0902 262.615 57.4386 261.467 57.4426C261.008 57.468 260.549 57.3991 260.117 57.2403C259.686 57.0814 259.292 56.8359 258.96 56.519C258.627 56.2021 258.363 55.8205 258.185 55.3978C258.006 54.9751 257.916 54.5204 257.921 54.0617Z" fill="#B0A098"/>
<path d="M269.414 49.5493H268.109V58.5215H273.461V57.3501H269.414V49.5493Z" fill="#B0A098"/>
<path d="M282.74 54.7325C282.74 56.692 281.896 57.4947 280.182 57.4947C278.468 57.4947 277.599 56.7317 277.599 54.7459V49.5498H276.307V54.7458C276.307 57.3896 277.691 58.6391 280.182 58.6391C282.78 58.6391 284.032 57.1792 284.032 54.7324V49.5498H282.74V54.7325Z" fill="#B0A098"/>
<path d="M291.74 53.7725C292.141 53.6441 292.491 53.391 292.737 53.0503C292.984 52.7095 293.115 52.299 293.111 51.8787C293.111 50.5371 292.149 49.5503 290.329 49.5503H287.732V58.5213H290.606C292.201 58.5213 293.889 57.8639 293.889 56.0747C293.869 55.4969 293.641 54.9457 293.246 54.5226C292.851 54.0995 292.316 53.8331 291.74 53.7725ZM289.011 50.6811H290.119C291.292 50.6811 291.78 51.076 291.78 51.9838C291.78 52.7208 291.28 53.4179 289.922 53.4179H289.012L289.011 50.6811ZM290.369 57.3899H289.011V54.5217H290.317C291.951 54.5217 292.558 55.0877 292.558 55.9558C292.557 56.9429 291.859 57.3899 290.369 57.3899Z" fill="#B0A098"/>
</svg>
