<svg width="161" height="169" viewBox="0 0 161 169" fill="none" xmlns="http://www.w3.org/2000/svg">
<path d="M154.631 4.06697C156.511 4.06697 158.347 4.24097 160.182 4.34972V60.3561C114.723 69.0126 80.2998 109.533 80.2998 158.297C80.2998 161.864 80.5402 165.365 80.8899 168.824C80.7151 168.78 80.5402 168.758 80.2998 168.693C65.5691 151.25 56.6082 128.608 56.6082 103.791C56.6082 48.7198 100.494 4.06697 154.653 4.06697H154.631Z" fill="white"/>
<path d="M89.6312 166.844C89.6312 166.496 89.5875 166.148 89.5875 165.779C89.5875 120.408 119.421 82.1715 160.203 70.0784V81.8452C160.203 139.613 109.695 160.733 89.6531 166.823L89.6312 166.844Z" fill="white"/>
<path d="M80.1002 0H122.544C106.414 5.15476 91.946 14.1158 80.1002 25.8173C68.2325 14.1375 53.7859 5.15476 37.6346 0H80.0783H80.1002Z" fill="white"/>
<path d="M73.9816 32.429C61.2178 47.2843 52.41 65.6196 49.0879 85.8907C35.7122 73.0581 18.8178 63.9449 0 60.3561V4.34972C1.85774 4.24097 3.67176 4.06697 5.55135 4.06697C32.1935 4.06697 56.3003 14.8985 73.9816 32.429Z" fill="white"/>
<path d="M47.6017 101.768C47.6017 102.442 47.4924 103.095 47.4924 103.769C47.4924 125.911 54.2459 147.443 66.6162 165.561C44.6293 158.079 0 136.177 0 81.8668V70.1C18.8396 75.6898 35.297 86.8911 47.6017 101.79V101.768Z" fill="white"/>
</svg>
