<svg width="65" height="65" viewBox="0 0 65 65" fill="none" xmlns="http://www.w3.org/2000/svg">
<path d="M4.31256 40.9688C4.31256 40.3734 4.79529 39.8906 5.39069 39.8906H9.70319C10.2986 39.8906 10.7813 40.3734 10.7813 40.9688C10.7813 41.5641 10.2986 42.0469 9.70319 42.0469H5.39069C4.79529 42.0469 4.31256 41.5641 4.31256 40.9688ZM11.8594 47.4375H16.1719C16.7673 47.4375 17.2501 46.9548 17.2501 46.3594C17.2501 45.764 16.7673 45.2812 16.1719 45.2812H11.8594C11.264 45.2812 10.7813 45.764 10.7813 46.3594C10.7813 46.9548 11.264 47.4375 11.8594 47.4375ZM16.1719 43.125H21.5626C22.158 43.125 22.6407 42.6423 22.6407 42.0469C22.6407 41.4515 22.158 40.9688 21.5626 40.9688H16.1719C15.5765 40.9688 15.0938 41.4515 15.0938 42.0469C15.0938 42.6423 15.5765 43.125 16.1719 43.125ZM5.39069 49.5938H7.54694C8.14233 49.5938 8.62506 49.111 8.62506 48.5156C8.62506 47.9202 8.14233 47.4375 7.54694 47.4375H5.39069C4.79529 47.4375 4.31256 47.9202 4.31256 48.5156C4.31256 49.111 4.79529 49.5938 5.39069 49.5938ZM11.8594 8.08594C11.8594 6.00529 13.794 4.3125 16.1719 4.3125C16.3064 4.3125 16.4401 4.31789 16.573 4.32854C17.2604 3.02454 18.7554 2.15625 20.4844 2.15625C22.2135 2.15625 23.7084 3.02454 24.3959 4.32854C24.5288 4.31789 24.6624 4.3125 24.7969 4.3125C27.1749 4.3125 29.1094 6.00529 29.1094 8.08594C29.1094 10.1666 27.1749 11.8594 24.7969 11.8594C24.6624 11.8594 24.5286 11.854 24.3959 11.8433C23.7084 13.1473 22.2135 14.0156 20.4844 14.0156C18.7554 14.0156 17.2604 13.1473 16.573 11.8433C16.4401 11.854 16.3064 11.8594 16.1719 11.8594C13.794 11.8594 11.8594 10.1666 11.8594 8.08594ZM14.0157 8.08594C14.0157 8.96259 15.0031 9.70312 16.1719 9.70312C16.4471 9.70312 16.7148 9.66404 16.9676 9.58696C17.0706 9.55569 17.1765 9.54006 17.282 9.54006C17.4805 9.54006 17.6774 9.59477 17.8496 9.70151C18.1135 9.86484 18.2941 10.134 18.3454 10.4399C18.4787 11.2359 19.4183 11.8594 20.4844 11.8594C21.5506 11.8594 22.49 11.2359 22.6234 10.44C22.6748 10.134 22.8554 9.86484 23.1191 9.70164C23.383 9.53831 23.7043 9.49626 24.001 9.58696C24.2541 9.66404 24.5219 9.70312 24.7969 9.70312C25.9658 9.70312 26.9532 8.96259 26.9532 8.08594C26.9532 7.20929 25.9658 6.46875 24.7969 6.46875C24.5219 6.46875 24.254 6.50783 24.0007 6.58492C23.704 6.67548 23.3828 6.63343 23.119 6.46996C22.8552 6.30663 22.6748 6.03763 22.6234 5.73158C22.49 4.93593 21.5506 4.3125 20.4844 4.3125C19.4183 4.3125 18.4787 4.93593 18.3453 5.73172C18.294 6.03777 18.1134 6.30676 17.8496 6.4701C17.5859 6.63343 17.2648 6.67535 16.9679 6.58505C16.7148 6.50783 16.447 6.46875 16.1719 6.46875C15.0031 6.46875 14.0157 7.20929 14.0157 8.08594ZM28.0313 17.7891C28.0313 15.7084 29.9659 14.0156 32.3438 14.0156C32.4783 14.0156 32.612 14.021 32.7449 14.0317C33.4323 12.7277 34.9273 11.8594 36.6563 11.8594C38.3854 11.8594 39.8803 12.7277 40.5677 14.0317C40.7006 14.021 40.8343 14.0156 40.9688 14.0156C43.3468 14.0156 45.2813 15.7084 45.2813 17.7891C45.2813 19.8697 43.3468 21.5625 40.9688 21.5625C40.8343 21.5625 40.7005 21.5571 40.5677 21.5465C39.8803 22.8505 38.3854 23.7188 36.6563 23.7188C34.9273 23.7188 33.4323 22.8505 32.7449 21.5465C32.612 21.5571 32.4783 21.5625 32.3438 21.5625C29.9659 21.5625 28.0313 19.8697 28.0313 17.7891ZM30.1876 17.7891C30.1876 18.6657 31.175 19.4062 32.3438 19.4062C32.619 19.4062 32.8867 19.3672 33.1395 19.2901C33.2424 19.2588 33.3484 19.2432 33.4539 19.2432C33.6524 19.2432 33.8493 19.2979 34.0215 19.4046C34.2854 19.568 34.466 19.8371 34.5173 20.143C34.6506 20.9391 35.5902 21.5625 36.6563 21.5625C37.7224 21.5625 38.6619 20.9391 38.7953 20.1431C38.8467 19.8371 39.0272 19.568 39.291 19.4048C39.5548 19.2416 39.876 19.1994 40.1729 19.2901C40.426 19.3672 40.6938 19.4062 40.9688 19.4062C42.1376 19.4062 43.1251 18.6657 43.1251 17.7891C43.1251 16.9124 42.1376 16.1719 40.9688 16.1719C40.6938 16.1719 40.4258 16.211 40.1726 16.288C39.8757 16.3786 39.5546 16.3364 39.2908 16.1731C39.0271 16.0098 38.8467 15.7408 38.7953 15.4347C38.6619 14.6391 37.7224 14.0156 36.6563 14.0156C35.5902 14.0156 34.6506 14.6391 34.5172 15.4348C34.4658 15.7409 34.2852 16.0099 34.0215 16.1732C33.7578 16.3366 33.4366 16.3785 33.1397 16.2882C32.8867 16.211 32.6189 16.1719 32.3438 16.1719C31.175 16.1719 30.1876 16.9124 30.1876 17.7891ZM64.6876 6.46875C64.6876 10.0357 61.7857 12.9375 58.2188 12.9375C54.652 12.9375 51.7501 10.0357 51.7501 6.46875C51.7501 2.90177 54.652 0 58.2188 0C61.7857 0 64.6876 2.90177 64.6876 6.46875ZM62.5313 6.46875C62.5313 4.09081 60.5968 2.15625 58.2188 2.15625C55.8409 2.15625 53.9063 4.09081 53.9063 6.46875C53.9063 8.84669 55.8409 10.7812 58.2188 10.7812C60.5968 10.7812 62.5313 8.84669 62.5313 6.46875ZM64.6876 36.6562V63.6094C64.6876 64.2048 64.2048 64.6875 63.6094 64.6875H1.07819C0.482794 64.6875 6.31912e-05 64.2048 6.31912e-05 63.6094V31.2656C6.31912e-05 30.9787 0.114479 30.7035 0.317975 30.5012C0.521471 30.2988 0.798954 30.1836 1.08412 30.1875C1.12549 30.1875 2.39256 30.1919 4.31256 30.1407V25.875H1.07819C0.731571 25.875 0.406247 25.7084 0.203559 25.4273C0.000871816 25.1462 -0.0542474 24.7847 0.0553171 24.4559L4.36782 11.5184C4.51471 11.0781 4.92669 10.7812 5.39069 10.7812C5.85469 10.7812 6.26666 11.0781 6.41342 11.5184L9.16413 19.7704L10.8367 14.7528C10.9835 14.3125 11.3954 14.0156 11.8594 14.0156C12.3234 14.0156 12.7354 14.3125 12.8822 14.7528L16.1166 24.4559C16.2261 24.7847 16.171 25.1462 15.9683 25.4273C15.7658 25.7084 15.4403 25.875 15.0937 25.875H12.9374V29.623C16.0176 29.3131 19.0678 28.8335 21.2091 28.0908C27.0343 26.0707 32.7627 26.422 39.2371 29.1966C41.8579 30.3198 45.7116 31.4515 49.5937 32.4443V18.3281V17.25C49.5937 16.6546 50.0764 16.1719 50.6718 16.1719C51.2672 16.1719 51.7499 16.6546 51.7499 17.25V17.6618L59.779 21.6764C60.1625 21.8681 60.396 22.2689 60.3734 22.6971C60.3509 23.1254 60.0768 23.4995 59.6754 23.65L51.7501 26.6221V32.9819C57.9855 34.4978 63.7093 35.5781 63.8082 35.5966C64.318 35.6923 64.6876 36.1374 64.6876 36.6562ZM51.7501 20.0725V24.3193L56.6034 22.4993L51.7501 20.0725ZM51.7501 35.2068V38.0129C56.5461 38.8337 60.3935 41.2895 62.5313 42.9404V37.5473C60.7249 37.1956 56.4338 36.3339 51.7501 35.2068ZM12.9376 31.7939V32.3438C12.9376 32.9391 12.4548 33.4219 11.8594 33.4219C11.264 33.4219 10.7813 32.9391 10.7813 32.3438V31.9822C9.25711 32.0985 7.78601 32.1777 6.46881 32.2315V34.5C6.46881 34.5123 6.46733 34.5241 6.46693 34.5363C8.78867 34.6206 11.6449 34.8079 14.6093 35.2027C23.4293 36.3771 29.0142 38.8169 31.2455 42.4606C37.7142 39.326 42.3092 37.7344 48.5157 37.7344C48.8792 37.7344 49.2383 37.7461 49.5938 37.7667V34.6752C45.4557 33.6289 41.2608 32.4098 38.3879 31.1786C32.4369 28.6281 27.2029 28.2944 21.9159 30.1281C19.5442 30.9505 16.2285 31.4682 12.9376 31.7939ZM2.15631 36.636V51.715C5.28112 51.5636 14.6686 50.7572 23.2366 46.4733C24.3978 45.893 28.4171 43.861 29.3012 43.4192C27.3638 40.4876 22.2361 38.3968 14.3509 37.3437C9.1904 36.6544 4.24478 36.615 2.15631 36.636ZM10.3006 23.1797L10.4802 23.7188H13.5979L11.8594 18.5031L10.3006 23.1797ZM2.57409 23.7188H8.20729L5.39069 15.2687L2.57409 23.7188ZM6.46881 30.0669C7.79046 30.0116 9.26385 29.931 10.7813 29.8138V25.875H6.46881V30.0669ZM2.15631 32.3404V34.4779C2.70562 34.4717 3.43834 34.4698 4.31256 34.4821V32.3029C3.44306 32.3249 2.70724 32.3354 2.15631 32.3404ZM62.5313 45.7501C61.3835 44.7189 57.2233 41.279 51.7501 40.2106V43.2117C54.2076 43.6123 56.0626 45.3548 56.0626 47.4374C56.0626 49.8153 53.6443 51.7499 50.6719 51.7499C47.6995 51.7499 45.2813 49.8153 45.2813 47.4374C45.2813 45.3548 47.1362 43.6123 49.5938 43.2117V39.9294C49.2382 39.9057 48.8793 39.8905 48.5157 39.8905C42.3987 39.8905 38.0751 41.492 31.2519 44.8571C30.0765 45.4378 25.3648 47.82 24.2007 48.4017C15.0836 52.9605 5.36239 53.7443 2.15631 53.8786V62.5312H62.5313V45.7501ZM49.5938 49.4652V45.4098C48.3518 45.7133 47.4376 46.5193 47.4376 47.4375C47.4376 48.3557 48.3518 49.1617 49.5938 49.4652ZM51.7501 49.4652C52.9921 49.1617 53.9063 48.3557 53.9063 47.4375C53.9063 46.5193 52.9921 45.7133 51.7501 45.4098V49.4652Z" fill="#096637"/>
</svg>
