<svg width="306" height="74" viewBox="0 0 306 74" fill="none" xmlns="http://www.w3.org/2000/svg">
<path fill-rule="evenodd" clip-rule="evenodd" d="M65.7221 10.126L67.8104 2.08771L65.1409 3.92031L65.8264 5.31746C65.4427 5.774 64.9459 6.13911 64.3775 6.38221C63.8092 6.6253 63.1859 6.73929 62.5599 6.71461C61.7336 6.73676 60.917 6.54485 60.2031 6.1607C59.4891 5.77654 58.9064 5.21554 58.521 4.54142L59.7354 2.63269L57.9051 0L56.0748 2.63002L57.2907 4.54142C56.9059 5.21695 56.323 5.77932 55.6084 6.16448C54.8939 6.54964 54.0763 6.7421 53.2488 6.71995C52.6229 6.74463 51.9996 6.63064 51.4312 6.38755C50.8629 6.14445 50.3661 5.77934 49.9824 5.32281L50.6678 3.92565L47.9999 2.09306L50.0882 10.1314H65.7221V10.126ZM57.9051 5.82236C58.5764 6.62552 59.4823 7.23558 60.5164 7.58099C61.5506 7.9264 62.6702 7.99284 63.7439 7.7725C62.9129 8.40597 61.8574 8.73435 60.7799 8.69466C59.7023 8.65498 58.6786 8.25001 57.9051 7.55745C57.1316 8.25001 56.1079 8.65498 55.0304 8.69466C53.9528 8.73435 52.8973 8.40597 52.0663 7.7725C53.14 7.99267 54.2595 7.92616 55.2937 7.58076C56.3278 7.23537 57.2337 6.62539 57.9051 5.82236ZM65.1612 12.8896L65.4728 11.5833H50.3374L50.649 12.8896H65.1612ZM0.493779 11.5672C7.50703 10.2407 14.8028 11.2185 21.1158 14.3308C21.9694 14.7596 21.3651 14.8651 20.7028 14.61C18.724 13.8541 16.6544 13.3182 14.5379 13.0138C9.97543 12.2018 5.25473 12.6412 0.960424 14.2774C0.537259 14.4631 0.518416 14.972 1.20823 14.7783C7.73552 12.9625 14.742 13.2724 21.0506 15.6559C21.2221 15.6824 21.3807 15.7562 21.5057 15.8676C21.6307 15.9789 21.716 16.1226 21.7506 16.2796C21.6814 16.4071 21.5679 16.5096 21.4282 16.5706C21.2884 16.6316 21.1305 16.6477 20.9796 16.6162C19.8045 16.4076 18.5871 16.5908 17.545 17.1332C17.537 17.4708 17.6524 17.8011 17.8727 18.071C18.0929 18.3408 18.4053 18.5346 18.7594 18.6211C19.2569 18.7031 19.7662 18.7031 20.2637 18.6211C20.4565 18.6118 20.4391 18.7226 20.3043 18.7734C17.6595 19.7672 17.7725 23.9827 18.5653 26.5205C19.4768 29.4337 21.5303 34.0112 18.5551 38.8091C15.4031 43.8848 4.48776 42.9711 7.60643 54.6853C8.11153 53.7611 8.29233 52.7151 8.12379 51.692C8.11921 51.6713 8.12161 51.6499 8.13067 51.6306C8.13973 51.6112 8.15502 51.5949 8.17446 51.5839C8.1939 51.5728 8.21657 51.5675 8.23938 51.5687C8.2622 51.5698 8.28407 51.5775 8.30205 51.5905C9.78747 52.9729 11.0178 58.9756 7.26008 62.4458C7.26008 62.4458 6.99342 69.525 9.48169 73.4681H12.6163C12.6118 72.9283 12.4765 72.3963 12.2203 71.911C11.964 71.4257 11.5933 70.9993 11.1352 70.6631C10.3907 68.2321 10.2652 65.6755 10.7686 63.1924C12.5076 56.6154 18.1943 59.0277 23.449 50.2053C23.8418 49.5455 24.6504 54.4689 17.5073 58.7258C17.5073 58.7258 17.816 61.1728 19.6261 60.8857C21.923 60.517 25.9257 60.9832 27.6358 62.932C27.6541 63.1958 27.7344 63.4528 27.871 63.6853C28.0076 63.9177 28.1973 64.1201 28.427 64.2784C29.6574 64.5656 32.8413 64.3358 31.4051 63.0455C28.7021 61.0025 25.6148 59.4346 22.2969 58.4199C23.3389 57.4769 28.7893 54.5691 28.227 52.472C27.9378 51.2397 27.4554 50.0527 26.7952 48.9484C26.7952 48.9484 33.2601 45.1109 33.7905 38.5953C30.5675 40.0152 26.8228 39.6853 25.4489 37.0192C25.442 37.0064 25.4403 36.9918 25.4439 36.978C25.4476 36.9642 25.4566 36.952 25.4691 36.9436C25.4816 36.9353 25.497 36.9313 25.5124 36.9324C25.5278 36.9336 25.5423 36.9397 25.5533 36.9497C26.988 38.2855 30.5182 38.7823 33.8282 37.3652C35.0397 36.8469 36.8715 36.0709 38.2236 36.9858C38.2605 37.0116 38.2896 37.0456 38.3084 37.0846C38.3271 37.1236 38.3349 37.1664 38.3308 37.2089C38.1497 39.2939 37.6323 41.5913 35.7223 42.8629C35.2157 42.8913 34.723 43.0265 34.282 43.2581C33.8411 43.4897 33.4637 43.8115 33.1789 44.1986C33.2867 44.6697 33.5049 45.1133 33.8183 45.4984C34.1318 45.8836 34.5328 46.2008 34.9933 46.4279C35.4697 46.1185 35.9229 45.7798 36.3498 45.4141C36.6657 45.1563 36.7584 44.3002 37.1874 43.7191C38.5529 42.0381 39.745 40.2431 40.7481 38.3576C40.7605 38.3346 40.7808 38.3161 40.8059 38.305C40.831 38.294 40.8594 38.291 40.8866 38.2965C40.9138 38.302 40.9382 38.3158 40.9559 38.3356C40.9736 38.3554 40.9836 38.38 40.9843 38.4057C41.0003 40.6216 39.809 44.196 35.8643 47.4885C35.8469 47.7022 35.8324 47.9119 35.8324 48.123C35.8324 65.4177 51.2606 62.3443 57.9066 69.5518C64.5526 62.3389 79.9807 65.4111 79.9807 48.123C79.9807 47.9119 79.9648 47.7009 79.9474 47.4885C76.0027 44.1946 74.8114 40.6203 74.8274 38.4057C74.8281 38.38 74.8381 38.3554 74.8558 38.3356C74.8735 38.3158 74.8979 38.302 74.9251 38.2965C74.9523 38.291 74.9807 38.294 75.0058 38.305C75.0309 38.3161 75.0512 38.3346 75.0636 38.3576C76.0666 40.2431 77.2587 42.0381 78.6243 43.7191C79.059 44.3002 79.146 45.1563 79.4619 45.4141C79.8883 45.7768 80.3405 46.1128 80.8155 46.4199C81.2758 46.1927 81.6766 45.8754 81.9897 45.4903C82.3029 45.1052 82.5209 44.6616 82.6284 44.1906C82.3437 43.8034 81.9663 43.4815 81.5254 43.25C81.0844 43.0184 80.5916 42.8832 80.085 42.8549C78.1823 41.5833 77.6634 39.2872 77.4765 37.2009C77.4725 37.1584 77.4802 37.1156 77.4989 37.0766C77.5177 37.0376 77.5469 37.0036 77.5837 36.9778C78.9358 36.0628 80.772 36.8442 81.9792 37.3571C85.2891 38.7743 88.8194 38.2841 90.2541 36.9417C90.2641 36.9292 90.2791 36.9208 90.2958 36.9184C90.3125 36.916 90.3295 36.9198 90.3432 36.929C90.3568 36.9383 90.3659 36.9521 90.3685 36.9675C90.3711 36.9829 90.3669 36.9986 90.3569 37.0112C88.9846 39.6826 85.2398 40.0072 82.0168 38.5873C82.5458 45.1029 89.0121 48.9404 89.0121 48.9404C88.3516 50.0446 87.8692 51.2316 87.5803 52.464C87.018 54.5611 92.4684 57.4689 93.5104 58.4119C90.1924 59.4262 87.105 60.9941 84.4022 63.0375C82.9661 64.3278 86.1412 64.5575 87.3789 64.2704C87.6085 64.112 87.7981 63.9096 87.9348 63.6772C88.0714 63.4447 88.1516 63.1878 88.1701 62.924C89.8802 60.9752 93.8814 60.509 96.1798 60.8777C97.9899 61.1648 98.2985 58.7178 98.2985 58.7178C91.1526 54.4609 91.9598 49.5375 92.3568 50.1973C97.6116 59.0197 103.301 56.6087 105.037 63.1844C105.541 65.6674 105.415 68.2241 104.671 70.6551C104.212 70.9917 103.841 71.4188 103.585 71.9049C103.329 72.391 103.194 72.9237 103.191 73.4641H106.331C108.82 69.5184 108.553 62.4418 108.553 62.4418C104.797 58.9689 106.026 52.9689 107.513 51.5865C107.53 51.5726 107.552 51.5642 107.576 51.5626C107.599 51.561 107.622 51.5662 107.642 51.5775C107.661 51.5888 107.677 51.6055 107.686 51.6254C107.695 51.6452 107.696 51.6671 107.691 51.688C107.522 52.7083 107.7 53.7519 108.202 54.6746C111.321 42.9604 100.406 43.8674 97.2537 38.7984C94.2785 34.0072 96.332 29.4284 97.2435 26.5098C98.0348 23.972 98.1478 19.7632 95.5045 18.7627C95.3697 18.712 95.3509 18.6011 95.5451 18.6104C96.0426 18.6924 96.5519 18.6924 97.0493 18.6104C97.4035 18.5239 97.7158 18.3302 97.9361 18.0603C98.1564 17.7904 98.2718 17.4601 98.2638 17.1225C97.2221 16.5803 96.0053 16.3971 94.8306 16.6055C94.6798 16.637 94.5219 16.621 94.3821 16.5599C94.2423 16.4989 94.1288 16.3965 94.0597 16.2689C94.0938 16.1118 94.1791 15.9679 94.3041 15.8565C94.4291 15.745 94.588 15.6713 94.7596 15.6452C101.068 13.2616 108.075 12.9517 114.602 14.7676C115.292 14.9613 115.273 14.4524 114.85 14.2667C110.556 12.6305 105.835 12.1912 101.272 13.0031C99.1553 13.3074 97.0853 13.8433 95.106 14.5993C94.4437 14.8491 93.8394 14.7489 94.6944 14.3201C101.007 11.2077 108.303 10.2299 115.316 11.5566C115.912 11.6581 115.961 11.2133 115.519 11.0624C111.015 9.8762 106.246 9.83697 101.719 10.9488C95.0628 12.3661 89.0636 15.6869 84.579 20.4364C83.7631 21.3446 82.9921 22.0926 82.3719 22.6844C82.2406 23.1187 82.2578 23.5798 82.4212 24.0048C82.5845 24.4298 82.8861 24.798 83.2849 25.0593C83.6269 25.854 83.9588 26.0811 84.7964 25.7431C86.3626 25.16 87.9826 24.7081 89.6367 24.3927C90.2478 24.1817 90.7946 23.8378 91.2308 23.3905C91.667 22.9431 91.9797 22.4053 92.1424 21.8228C92.196 21.6625 92.4047 21.5357 92.4612 21.8883C92.576 22.4346 92.5202 22.9996 92.3003 23.5178C91.1033 25.83 85.8717 25.8086 83.7501 31.4199C81.3137 31.7917 78.9443 32.4704 76.7084 33.4368C76.679 33.4517 76.6459 33.4594 76.6123 33.4591C76.5787 33.4588 76.5458 33.4506 76.5166 33.4351C76.4875 33.4197 76.4632 33.3976 76.446 33.371C76.4289 33.3444 76.4194 33.3142 76.4186 33.2832C76.3882 26.2734 81.6255 19.9862 81.6255 19.9862L78.1315 14.6928H37.6787L34.2006 19.9822C34.2006 19.9822 39.438 26.2694 39.4076 33.2792C39.4068 33.3102 39.3973 33.3404 39.3801 33.367C39.363 33.3936 39.3386 33.4157 39.3095 33.4311C39.2804 33.4466 39.2475 33.4548 39.2139 33.4551C39.1803 33.4554 39.1472 33.4477 39.1177 33.4328C36.8819 32.4664 34.5125 31.7877 32.0761 31.4159C29.9487 25.8059 24.7171 25.826 23.5258 23.5138C23.3054 22.9957 23.2497 22.4305 23.365 21.8843C23.4215 21.5303 23.6302 21.6585 23.6824 21.8188C23.8456 22.4011 24.1585 22.9386 24.5946 23.3859C25.0307 23.8332 25.5773 24.1772 26.188 24.3887C27.8422 24.704 29.4621 25.156 31.0283 25.7391C31.8674 26.0771 32.1978 25.85 32.5398 25.0552C32.9386 24.794 33.2402 24.4258 33.4036 24.0008C33.5669 23.5758 33.5842 23.1147 33.4528 22.6804C32.8326 22.09 32.0616 21.3446 31.2457 20.4324C26.7591 15.6877 20.7601 12.3717 14.1061 10.9582C9.57917 9.84632 4.81004 9.88555 0.305388 11.0717C-0.151109 11.22 -0.10184 11.6688 0.493779 11.5672ZM76.6823 55.7419C76.4055 60.5611 59.605 63.6225 57.9051 66.6947C56.2052 63.6159 39.4047 60.5504 39.1279 55.7419C42.1625 59.8625 55.7617 61.9195 57.9051 64.7138C60.0499 61.9182 73.6477 59.8625 76.6823 55.7419ZM74.6419 52.9222C73.6955 53.7356 69.1668 56.2067 67.906 54.6519L57.8631 42.2592L47.9144 54.6693C46.6536 56.2294 42.1176 53.7543 41.1756 52.9515C41.0115 52.8076 40.9079 52.6148 40.8833 52.4073C40.8586 52.1997 40.9144 51.9908 41.0408 51.8175C41.2716 51.4064 41.5346 51.0113 41.8277 50.6354C42.6552 49.6163 43.7117 51.1176 46.5318 52.6043C46.3473 52.9019 46.0744 53.1448 45.7454 53.3045C45.4163 53.4642 45.0446 53.534 44.674 53.5059C44.4102 53.5059 44.0073 53.4631 43.9812 53.4631C43.49 53.4631 44.4957 54.0669 45.5319 54.0669C46.0092 54.0483 46.4752 53.9273 46.8928 53.7135C47.3105 53.4997 47.6682 53.199 47.9375 52.8353C47.9375 52.8353 55.2893 43.7004 66.0206 30.358C65.9392 30.2539 65.8775 30.1378 65.838 30.0147L71.6957 22.687C71.869 22.6049 72.0588 22.5562 72.2533 22.544C72.4478 22.5318 72.643 22.5563 72.8268 22.6161C73.0107 22.6759 73.1794 22.7696 73.3225 22.8916C73.4657 23.0136 73.5803 23.1612 73.6593 23.3255V23.3375V23.3736L67.6408 30.8536C67.441 30.9319 67.22 30.952 67.0075 30.911L58.6022 41.3843L67.877 52.822C68.1469 53.1852 68.505 53.4853 68.9229 53.6984C69.3408 53.9115 69.8069 54.0317 70.2841 54.0495C71.316 54.0495 72.3333 53.4431 71.8348 53.4431C71.8087 53.4431 71.4 53.4872 71.1421 53.4872C70.775 53.5122 70.4075 53.445 70.0786 53.2928C69.7496 53.1407 69.4716 52.9092 69.274 52.623C72.1377 51.0402 73.168 49.6109 73.981 50.6114C74.2758 50.9866 74.5403 51.3812 74.7723 51.7922C74.8981 51.9646 74.954 52.1724 74.9301 52.379C74.9062 52.5857 74.8042 52.778 74.6419 52.9222ZM57.2428 39.6986C57.0345 40.0245 56.797 40.3336 56.5327 40.623L48.6752 30.9257C48.5005 30.9512 48.3218 30.9407 48.152 30.895L42.0654 23.399L42.0828 23.3616C42.1598 23.1994 42.2713 23.0531 42.4107 22.9313C42.55 22.8094 42.7145 22.7146 42.8943 22.6524C43.0741 22.5901 43.2656 22.5617 43.4575 22.5688C43.6494 22.5759 43.8379 22.6184 44.0117 22.6937L49.9056 29.9747C49.8939 30.1288 49.8357 30.2769 49.7374 30.4021L49.7143 30.4141L57.2428 39.6986ZM55.2357 27.0962C55.2363 26.6092 55.3935 26.1332 55.6875 25.7285C55.9814 25.3239 56.399 25.0086 56.8874 24.8226C57.3757 24.6365 57.9129 24.5882 58.4311 24.6835C58.9493 24.7788 59.4252 25.0136 59.7987 25.3582C60.1721 25.7028 60.4263 26.1416 60.5292 26.6194C60.6321 27.0971 60.579 27.5922 60.3766 28.0421C60.1743 28.492 59.8318 28.8765 59.3924 29.147C58.953 29.4175 58.4364 29.5619 57.908 29.5619C57.5562 29.5621 57.2077 29.4983 56.8827 29.3741C56.5576 29.2499 56.2624 29.0678 56.0139 28.8383C55.7653 28.6087 55.5684 28.3362 55.4344 28.0363C55.3003 27.7365 55.2318 27.4152 55.2328 27.0909L55.2357 27.0962ZM39.3105 17.6381L37.6309 20.2039C37.6309 20.1786 39.3192 22.3344 38.5221 24.0909C38.1259 22.6014 37.3014 21.2379 36.1353 20.1438L38.6526 16.3197H77.1577L79.6749 20.1438C78.5089 21.2379 77.6843 22.6014 77.2881 24.0909C76.491 22.3344 78.1736 20.1786 78.1794 20.2039L76.4997 17.6381H39.3105ZM162.596 34.5214C162.353 34.4683 162.098 34.4896 161.87 34.5822C161.641 34.6748 161.451 34.8337 161.329 35.0346C161.208 35.2355 161.16 35.4676 161.194 35.6957C161.229 35.9237 161.343 36.1352 161.519 36.2981C161.696 36.461 161.925 36.5664 162.172 36.5984C162.42 36.6303 162.671 36.587 162.89 36.475C163.108 36.3631 163.281 36.1886 163.381 35.978C163.482 35.7674 163.506 35.5322 163.449 35.3082C163.401 35.1163 163.296 34.9407 163.146 34.8015C162.995 34.6623 162.805 34.5652 162.596 34.5214ZM140.776 27.3821C140.362 27.6698 139.85 27.8118 139.333 27.7824C138.816 27.753 138.327 27.5542 137.954 27.2218C137.809 27.0882 134.313 23.2841 134.313 23.2841C135.141 23.1019 135.884 22.6789 136.432 22.0777C136.98 21.4764 137.304 20.7286 137.356 19.9448C137.356 16.9114 134.946 16.0713 131.694 16.0713H125.846C125.846 16.0713 125.438 17.0263 126.729 17.0263H127.248V27.8322H126.274C126.274 27.8322 125.807 28.7672 127.172 28.7672H129.546C130.868 28.7672 130.965 27.9658 130.669 27.7307C130.129 27.8122 129.681 27.8482 129.459 27.8642V23.6915H131.952C131.952 23.6915 135.591 27.4502 135.879 27.7587C136.561 28.4334 137.5 28.8372 138.499 28.8847C139.002 28.9121 139.505 28.8295 139.966 28.6438C140.428 28.4581 140.835 28.1746 141.156 27.8162C141.133 27.7219 141.086 27.6337 141.021 27.5584C140.955 27.4832 140.871 27.4228 140.776 27.3821ZM131.816 22.6964H129.461V17.0116H131.634C133.36 17.0116 135.153 17.5325 135.165 19.8847C135.159 20.2759 135.066 20.6619 134.892 21.0187C134.717 21.3754 134.465 21.6953 134.151 21.9586C133.837 22.2219 133.468 22.4228 133.066 22.5491C132.664 22.6753 132.239 22.7241 131.816 22.6924V22.6964ZM273.66 18.8335V16.0552H262.763C262.763 16.0552 262.405 17.0103 263.207 17.0103H264.076V27.6572H262.952C262.636 27.716 262.624 28.7525 263.049 28.7525H273.815V27.3153C273.762 26.8733 273.82 26.426 273.983 26.0076C272.993 25.7845 272.679 26.2747 272.679 27.2097V27.6599H266.282V22.9395H270.833C270.97 22.941 271.106 22.9124 271.23 22.856C271.353 22.7996 271.46 22.717 271.542 22.615C271.624 22.513 271.678 22.3946 271.701 22.2694C271.723 22.1442 271.713 22.0159 271.672 21.895H266.282V17.0116H272.492V17.7649C272.499 18.6585 273.022 18.9511 273.66 18.8335ZM247.864 27.6626C247.548 27.7213 247.537 28.7578 247.961 28.7578H258.727V27.3153C258.674 26.8733 258.732 26.426 258.896 26.0076C257.906 25.7845 257.591 26.2747 257.591 27.2097V27.6599H251.194V22.9395H255.745C255.883 22.941 256.019 22.9124 256.142 22.856C256.265 22.7996 256.372 22.717 256.454 22.615C256.536 22.513 256.591 22.3946 256.613 22.2694C256.636 22.1442 256.626 22.0159 256.584 21.895H251.194V17.0116H257.404V17.7649C257.404 18.6572 257.927 18.9497 258.564 18.8335V16.0552H247.676C247.676 16.0552 247.318 17.0103 248.119 17.0103H248.989V27.6572H247.864V27.6626ZM149.71 15.744C146.889 15.744 142.631 17.065 142.631 22.5682C142.597 23.4176 142.751 24.2645 143.083 25.0575C143.415 25.8506 143.918 26.5733 144.562 27.1817C145.206 27.7902 145.977 28.2718 146.829 28.5974C147.681 28.923 148.595 29.0857 149.517 29.0757C151.204 29.0757 156.968 28.5575 156.968 22.5682C156.972 17.0276 152.664 15.744 149.71 15.744ZM149.658 28.0125C147.868 28.0125 144.841 26.9039 144.841 22.5682C144.841 18.2324 147.573 16.6416 149.848 16.6416C151.596 16.6416 154.756 17.8611 154.756 22.5682C154.761 27.3821 151.525 28.0125 149.662 28.0125H149.658ZM190.411 44.1092V39.3447H190.828C191.115 39.3443 191.389 39.2392 191.592 39.0524C191.794 38.8655 191.908 38.6123 191.908 38.3482V38.1866H189.28C189.135 38.1878 188.992 38.2156 188.859 38.2685C188.726 38.3213 188.605 38.3981 188.504 38.4944C188.404 38.5906 188.325 38.7044 188.273 38.8291C188.22 38.9538 188.195 39.0868 188.199 39.2205V44.2547H184.091V38.1879H183.561C183.335 38.1788 183.111 38.2133 182.901 38.2893C182.691 38.3652 182.501 38.4809 182.342 38.6288C182.184 38.7767 182.061 38.9536 181.982 39.148C181.902 39.3424 181.868 39.55 181.881 39.7574V44.2534H163.911V39.3447H164.328C164.47 39.3447 164.611 39.3189 164.742 39.2688C164.873 39.2187 164.992 39.1453 165.092 39.0527C165.192 38.9602 165.272 38.8503 165.326 38.7295C165.38 38.6086 165.408 38.479 165.408 38.3482V38.1866H162.781C162.494 38.187 162.219 38.2921 162.017 38.4789C161.815 38.6658 161.701 38.919 161.701 39.1831V47.001C161.701 48.7307 159.152 48.9671 157.633 47.5433C157.427 47.8114 157.343 48.1431 157.399 48.4674C157.455 48.7918 157.646 49.0832 157.932 49.2797C159.197 50.1145 163.914 50.1626 163.914 46.7766V45.0936C164.101 45.2587 164.351 45.3498 164.611 45.3474H182.478C182.856 45.3095 183.205 45.1399 183.452 44.8732C183.528 45.0167 183.647 45.1374 183.795 45.2213C183.943 45.3052 184.113 45.3489 184.287 45.3474H188.799C189.169 45.3045 189.517 45.1651 189.803 44.9457C190.09 44.7264 190.302 44.4361 190.415 44.1092H190.411ZM190.991 27.6585C190.673 27.7173 190.664 28.7538 191.086 28.7538H201.468V27.3153C201.433 26.833 201.49 26.3488 201.636 25.8847C200.647 25.6617 200.303 26.2387 200.303 27.1723V27.6572H194.383V17.0116H194.49C194.625 17.023 194.761 17.0052 194.887 16.9596C195.013 16.9141 195.126 16.8421 195.216 16.7494C195.307 16.6567 195.372 16.5457 195.408 16.4255C195.444 16.3052 195.449 16.1789 195.422 16.0566H191.385C191.095 16.1901 190.95 17.0116 191.617 17.0116H192.179V27.6585H190.993H190.991ZM159.539 17.0169H160.086L164.904 23.7369V27.8175H164.015C164.015 27.8175 163.546 28.7525 164.912 28.7525H166.811C168.132 28.7525 168.229 27.9511 167.935 27.7146C167.616 27.7627 167.334 27.7961 167.106 27.8175V23.5432L171.703 17.0116H172.181C172.318 17.0224 172.455 17.0045 172.582 16.9594C172.71 16.9142 172.824 16.843 172.918 16.751C173.011 16.6591 173.081 16.5488 173.121 16.4285C173.161 16.3082 173.172 16.181 173.151 16.0566H168.995C168.705 16.1901 168.551 17.0116 169.227 17.0116H170.341L166.443 22.5521L162.53 17.0089C162.652 16.9982 162.771 16.9646 162.879 16.9102C162.987 16.8558 163.081 16.7817 163.157 16.6925C163.233 16.6033 163.288 16.5008 163.32 16.3912C163.351 16.2816 163.358 16.1673 163.34 16.0552H159.302C159.013 16.1928 158.863 17.0169 159.539 17.0169ZM204.045 34.4293C203.881 34.3937 203.709 34.3974 203.547 34.4401C203.384 34.4828 203.236 34.563 203.117 34.6731C202.998 34.7832 202.911 34.9196 202.865 35.0693C202.819 35.219 202.815 35.3771 202.854 35.5285C202.894 35.6951 202.985 35.8476 203.116 35.9684C203.247 36.0892 203.412 36.1733 203.593 36.2111C203.757 36.2459 203.928 36.2416 204.09 36.1987C204.252 36.1557 204.4 36.0755 204.519 35.9656C204.638 35.8557 204.725 35.7197 204.771 35.5703C204.817 35.421 204.822 35.2632 204.784 35.1118C204.743 34.9454 204.652 34.7931 204.521 34.6723C204.39 34.5516 204.225 34.4673 204.045 34.4293ZM186.108 28.7538C187.43 28.7538 187.527 27.9524 187.233 27.7173C186.908 27.7654 186.62 27.7988 186.389 27.8202L181.53 16.0566H178.22C178.22 16.0566 177.887 17.0116 178.868 17.0116L174.231 27.8202C174.086 27.8202 172.963 27.8202 172.818 27.8202C172.818 27.8202 172.348 28.7552 173.716 28.7552H175.62C176.943 28.7552 177.041 27.9537 176.743 27.7187C176.22 27.7975 175.784 27.8349 175.552 27.8522L176.874 24.6813H182.882L184.203 27.8215H183.303C183.303 27.8215 182.833 28.7565 184.2 28.7565H186.105L186.108 28.7538ZM177.362 23.6781L179.951 17.5339H179.99L182.478 23.6781H177.362ZM183.253 34.5161C183.01 34.4629 182.755 34.4843 182.526 34.5769C182.298 34.6695 182.108 34.8283 181.986 35.0293C181.864 35.2302 181.817 35.4623 181.851 35.6903C181.886 35.9183 181.999 36.1299 182.176 36.2928C182.352 36.4557 182.582 36.5611 182.829 36.593C183.076 36.625 183.328 36.5816 183.546 36.4697C183.765 36.3577 183.937 36.1832 184.038 35.9726C184.139 35.762 184.163 35.5269 184.105 35.3028C184.057 35.1118 183.952 34.9371 183.801 34.7986C183.651 34.6602 183.461 34.5637 183.253 34.5201V34.5161ZM224.952 27.7614V23.3028C225.066 23.2888 225.174 23.2509 225.27 23.1921C225.365 23.1332 225.444 23.055 225.501 22.9634C225.558 22.8719 225.591 22.7694 225.598 22.6641C225.606 22.5587 225.586 22.4532 225.542 22.3558H221.195C221.156 22.4761 221.149 22.6033 221.175 22.7266C221.2 22.8499 221.258 22.9657 221.343 23.0641C221.427 23.1625 221.536 23.2407 221.661 23.292C221.785 23.3433 221.921 23.3663 222.057 23.3589H223.276V27.5156C221.827 28.4947 214.388 28.4974 214.436 22.4105C214.463 17.6728 218.135 16.5441 220.616 16.5441C221.763 16.5112 222.904 16.7043 223.963 17.1104C223.911 17.5002 223.907 17.894 223.951 18.2845C223.944 18.3976 223.97 18.5103 224.025 18.6115C224.081 18.7126 224.164 18.7987 224.266 18.861C224.369 18.9234 224.487 18.96 224.61 18.9671C224.733 18.9742 224.855 18.9517 224.965 18.9016V16.6576C223.496 15.9371 221.846 15.5869 220.183 15.6425C219.165 15.5922 218.145 15.7275 217.183 16.0404C216.222 16.3534 215.336 16.838 214.578 17.4666C213.819 18.0951 213.202 18.8552 212.763 19.7036C212.323 20.5519 212.069 21.4717 212.015 22.4105C212.015 26.602 215.688 28.9635 219.776 28.9635C221.59 29.025 223.385 28.6094 224.952 27.7654V27.7614ZM252.674 46.834C252.431 46.7812 252.176 46.8028 251.947 46.8957C251.719 46.9885 251.53 47.1475 251.408 47.3485C251.286 47.5496 251.239 47.7817 251.274 48.0096C251.308 48.2375 251.422 48.4489 251.599 48.6117C251.776 48.7744 252.005 48.8796 252.252 48.9114C252.499 48.9431 252.751 48.8997 252.969 48.7876C253.188 48.6756 253.36 48.501 253.461 48.2904C253.562 48.0799 253.585 47.8447 253.528 47.6207C253.479 47.4297 253.374 47.255 253.223 47.1166C253.072 46.9782 252.882 46.8817 252.674 46.838V46.834ZM251.57 39.179V44.2547H234.235V34.3398H234.65C234.937 34.3398 235.212 34.2348 235.415 34.0479C235.618 33.861 235.732 33.6076 235.732 33.3433V33.1817H233.104C232.817 33.1817 232.542 33.2867 232.34 33.4736C232.137 33.6604 232.023 33.9139 232.023 34.1781V44.1092C232.137 44.4339 232.348 44.7222 232.633 44.9405C232.917 45.1587 233.263 45.298 233.63 45.342H252.168C252.535 45.298 252.881 45.1587 253.166 44.9405C253.45 44.7222 253.662 44.4339 253.775 44.1092V39.3447H254.197C254.484 39.3443 254.758 39.2392 254.961 39.0524C255.163 38.8655 255.277 38.6123 255.277 38.3482V38.1866H252.649C252.363 38.187 252.088 38.2921 251.886 38.4789C251.684 38.6658 251.57 38.919 251.57 39.1831V39.179ZM249.866 46.834C249.623 46.7812 249.367 46.8028 249.139 46.8957C248.91 46.9885 248.721 47.1475 248.6 47.3485C248.478 47.5496 248.431 47.7817 248.465 48.0096C248.5 48.2375 248.614 48.4489 248.79 48.6117C248.967 48.7744 249.196 48.8796 249.444 48.9114C249.691 48.9431 249.943 48.8997 250.161 48.7876C250.379 48.6756 250.551 48.501 250.652 48.2904C250.753 48.0799 250.776 47.8447 250.719 47.6207C250.671 47.4296 250.565 47.2548 250.414 47.1164C250.263 46.978 250.073 46.8815 249.866 46.838V46.834ZM261.548 37.9208C259.433 37.9208 256.403 38.9774 256.268 41.8037C256.062 46.2116 261.05 46.3972 263.1 45.5905V47.1092C263.1 48.5344 260.646 49.3224 258.897 47.6007C258.788 47.7305 258.709 47.8795 258.665 48.0384C258.621 48.1974 258.613 48.363 258.641 48.5251C258.668 48.6871 258.732 48.8421 258.828 48.9807C258.923 49.1192 259.048 49.2382 259.195 49.3304C260.79 50.1679 265.137 49.9556 265.137 46.5682V39.3447C265.279 39.3793 265.429 39.3769 265.57 39.3376C265.711 39.2983 265.837 39.2238 265.935 39.1222C266.032 39.0207 266.097 38.8962 266.123 38.7626C266.148 38.629 266.132 38.4915 266.078 38.3656C264.591 38.057 263.071 37.9095 261.548 37.9261V37.9208ZM263.1 44.6661C261.516 45.1323 258.472 44.6341 258.472 41.988C258.427 41.4613 258.529 40.9325 258.77 40.4529C259.011 39.9733 259.381 39.559 259.847 39.2501C260.312 38.9412 260.856 38.7482 261.426 38.6897C261.995 38.6311 262.572 38.709 263.1 38.9159V44.6661ZM288.275 16.0552C287.985 16.1888 287.84 17.0103 288.507 17.0103H289.702V26.5659H289.426L282.065 16.0552H278.222C278.19 16.1713 278.187 16.2926 278.215 16.4097C278.243 16.5267 278.3 16.636 278.382 16.7289C278.464 16.8218 278.569 16.8957 278.687 16.9445C278.806 16.9934 278.936 17.0159 279.065 17.0103H279.668V27.8295C279.244 27.8202 279.558 27.8295 278.051 27.8295C278.051 27.8295 277.584 28.7645 278.949 28.7645H281.48C282.803 28.7645 282.9 27.9631 282.603 27.728C282.153 27.7963 281.7 27.8409 281.245 27.8616L280.852 27.8536V18.2992H280.942L288.323 28.7525H290.107C290.215 28.7593 290.323 28.7438 290.424 28.7074C290.525 28.6709 290.615 28.6143 290.69 28.5416C290.764 28.4689 290.819 28.3819 290.853 28.287C290.886 28.192 290.896 28.0914 290.882 27.9925V17.0129H291.343C291.479 17.0237 291.616 17.0058 291.744 16.9607C291.871 16.9156 291.986 16.8443 292.079 16.7524C292.173 16.6604 292.242 16.5501 292.283 16.4298C292.323 16.3096 292.333 16.1824 292.312 16.0579H288.275V16.0552ZM301.841 21.736C300.292 21.2284 298.237 20.6487 298.237 19.1554C298.321 18.4456 298.7 17.7933 299.294 17.3352C299.889 16.8771 300.652 16.6486 301.425 16.6977C302.384 16.6578 303.337 16.8522 304.189 17.2614C304.189 17.2614 304.189 17.8237 304.189 18.6104C304.173 18.7468 304.194 18.8847 304.25 19.0116C304.306 19.1386 304.396 19.2506 304.511 19.3375C304.626 19.4244 304.763 19.4834 304.909 19.5092C305.055 19.535 305.206 19.5268 305.348 19.4853V16.8299C301.806 14.5379 296.022 15.4849 296.022 19.301C296.022 21.9337 299.296 22.7605 301.002 23.395C302.639 24.0054 303.647 24.4181 303.647 26.0664C303.634 26.4272 303.539 26.7816 303.367 27.1059C303.195 27.4303 302.95 27.7172 302.649 27.9478C302.347 28.1783 301.996 28.3471 301.619 28.443C301.241 28.5389 300.845 28.5597 300.458 28.504C297.734 28.504 296.999 27.5851 296.999 27.5851V25.6523C296.845 25.6212 296.685 25.625 296.532 25.6635C296.38 25.702 296.24 25.7739 296.124 25.8732C296.009 25.9725 295.921 26.0962 295.869 26.2336C295.816 26.371 295.801 26.518 295.824 26.6621V28.0699C295.824 28.0699 297.05 29.391 300.432 29.391C304.065 29.391 305.783 27.4061 305.783 25.5882C305.789 22.9475 303.026 22.126 301.841 21.736ZM234.794 27.716C234.253 27.7975 233.806 27.8335 233.581 27.8496V23.6928H236.082C236.082 23.6928 239.721 27.4502 240.01 27.7574C240.691 28.4329 241.632 28.8369 242.631 28.8834C243.134 28.9101 243.636 28.8273 244.097 28.6416C244.558 28.4559 244.966 28.1727 245.286 27.8148C245.264 27.7199 245.217 27.6312 245.151 27.5556C245.085 27.48 245.001 27.4197 244.905 27.3794C244.526 27.6156 244.083 27.7497 243.625 27.7667C243.339 27.7944 243.05 27.7594 242.782 27.6644C242.513 27.5695 242.273 27.4173 242.08 27.2204C241.936 27.0869 238.442 23.2828 238.442 23.2828C239.271 23.1012 240.014 22.6784 240.562 22.077C241.11 21.4756 241.434 20.7275 241.485 19.9435C241.485 16.9088 239.076 16.0619 235.824 16.0619H229.974C229.974 16.0619 229.567 17.0169 230.858 17.0169H231.372V27.8228H230.4C230.4 27.8228 229.932 28.7578 231.298 28.7578H233.671C234.991 28.7538 235.091 27.9511 234.794 27.716ZM233.581 17.0103H235.755C237.476 17.0103 239.272 17.5325 239.282 19.8834C239.276 20.2744 239.182 20.6601 239.008 21.0166C238.833 21.373 238.581 21.6926 238.267 21.9556C237.953 22.2185 237.583 22.4192 237.182 22.5453C236.78 22.6713 236.354 22.72 235.932 22.6884H233.577V17.0103H233.581ZM270.488 39.1831V47.001C270.488 49.1154 267.937 48.9671 266.421 47.5459C266.216 47.8131 266.132 48.1436 266.188 48.4669C266.244 48.7901 266.435 49.0804 266.72 49.2757C267.985 50.1105 272.702 50.1586 272.702 46.7726V39.3447H273.118C273.26 39.3447 273.4 39.3189 273.532 39.2688C273.663 39.2188 273.782 39.1454 273.882 39.0528C273.983 38.9603 274.062 38.8505 274.117 38.7296C274.171 38.6087 274.199 38.4791 274.199 38.3482V38.1866H271.572C271.429 38.1863 271.289 38.2118 271.157 38.2617C271.026 38.3116 270.906 38.385 270.805 38.4775C270.705 38.5701 270.625 38.68 270.57 38.8011C270.516 38.9222 270.488 39.052 270.488 39.1831ZM208.317 44.2588H206.21C205.246 44.2791 204.311 43.9563 203.599 43.3575C202.887 42.7587 202.453 41.93 202.387 41.0437C202.375 40.6878 202.441 40.3334 202.582 40.0019C202.723 39.6703 202.935 39.3685 203.206 39.1147C203.477 38.8609 203.801 38.6603 204.158 38.5252C204.516 38.39 204.899 38.323 205.285 38.3282C205.84 38.3005 206.394 38.4006 206.897 38.6194C206.788 39.0639 206.75 39.5205 206.782 39.9751C206.864 40.8781 207.942 40.4346 207.942 40.4346V38.1879C206.954 37.7899 205.882 37.6001 204.804 37.6323C203.992 37.5951 203.183 37.7506 202.455 38.0838C201.726 38.4171 201.103 38.917 200.644 39.5357C200.179 40.3055 200.027 41.2021 200.212 42.066C200.398 42.9299 200.91 43.705 201.658 44.2534H196.864V39.3447H197.282C197.568 39.3443 197.843 39.2392 198.045 39.0524C198.247 38.8655 198.361 38.6123 198.361 38.3482V38.1866H195.734C195.447 38.187 195.173 38.2921 194.97 38.4789C194.768 38.6658 194.654 38.919 194.654 39.1831V47.001C194.654 48.7307 192.105 48.9671 190.586 47.5433C190.381 47.8114 190.297 48.1431 190.352 48.4674C190.408 48.7918 190.599 49.0832 190.885 49.2797C192.15 50.1145 196.867 50.1626 196.867 46.7766V45.0936C197.055 45.2587 197.305 45.3498 197.564 45.3474H208.277C208.427 45.2008 208.514 45.0084 208.521 44.8067C208.527 44.605 208.453 44.4081 208.313 44.2534L208.317 44.2588ZM188.907 46.8433C188.664 46.7902 188.408 46.8115 188.18 46.9041C187.951 46.9968 187.761 47.1556 187.64 47.3565C187.518 47.5575 187.47 47.7896 187.505 48.0176C187.539 48.2456 187.653 48.4571 187.829 48.62C188.006 48.783 188.235 48.8884 188.482 48.9203C188.73 48.9522 188.982 48.9089 189.2 48.797C189.418 48.685 189.591 48.5105 189.692 48.2999C189.792 48.0893 189.816 47.8541 189.759 47.6301C189.712 47.4367 189.607 47.2594 189.456 47.1192C189.304 46.9789 189.112 46.8813 188.902 46.838L188.907 46.8433ZM186.953 47.6314C186.906 47.4483 186.807 47.2799 186.666 47.1439C186.525 47.0078 186.348 46.9089 186.151 46.8573C185.955 46.8058 185.747 46.8035 185.549 46.8508C185.352 46.898 185.172 46.993 185.027 47.126C184.883 47.259 184.779 47.4251 184.728 47.6072C184.677 47.7893 184.679 47.9807 184.734 48.1617C184.79 48.3428 184.897 48.5068 185.045 48.6369C185.192 48.767 185.375 48.8584 185.573 48.9017C185.765 48.9458 185.965 48.9435 186.155 48.8949C186.344 48.8464 186.517 48.7534 186.656 48.6249C186.796 48.4963 186.896 48.3368 186.948 48.1617C187.001 47.9867 187.003 47.8021 186.955 47.6261L186.953 47.6314ZM222.944 48.6198C226.952 48.6198 228.171 46.4907 228.171 46.0326V34.3398H228.588C228.875 34.3394 229.15 34.2343 229.352 34.0475C229.554 33.8606 229.668 33.6074 229.668 33.3433V33.1817H227.041C226.754 33.1817 226.479 33.2867 226.276 33.4736C226.074 33.6604 225.96 33.9139 225.96 34.1781V46.6817C225.535 47.0213 225.038 47.274 224.5 47.423C223.961 47.572 223.395 47.6139 222.838 47.5459C222.273 47.5579 221.711 47.4609 221.189 47.2612C220.667 47.0615 220.196 46.7634 219.807 46.3862C219.417 46.0089 219.117 45.5608 218.926 45.0704C218.735 44.5801 218.657 44.0584 218.698 43.5388C218.656 42.5399 218.927 41.5511 219.477 40.6897C219.191 40.5663 218.867 40.5398 218.561 40.6149C217.959 40.7071 216.853 41.6181 216.853 43.9889C216.853 46.5548 219.066 48.6198 222.944 48.6198ZM146.003 62.391C145.819 62.391 145.654 62.4004 145.568 62.4004C145.483 62.4004 145.241 62.4004 144.997 62.3897C144.718 62.3897 144.418 62.3777 144.273 62.3777H144.211V62.7784L144.263 62.7864C144.863 62.8826 144.912 63.0883 144.912 63.2753V64.8354C144.471 65.056 143.985 65.1876 143.484 65.2214C143.037 65.227 142.593 65.1432 142.183 64.9757C141.774 64.8083 141.408 64.5611 141.112 64.2512C140.816 63.9413 140.597 63.576 140.468 63.1805C140.34 62.7849 140.306 62.3684 140.369 61.9596C140.334 61.5855 140.384 61.2089 140.516 60.8537C140.647 60.4984 140.857 60.1722 141.133 59.8959C141.409 59.6195 141.744 59.3991 142.117 59.2485C142.49 59.0978 142.893 59.0204 143.3 59.021C143.722 59.0051 144.14 59.0919 144.513 59.2724C144.886 59.453 145.201 59.721 145.426 60.0495L145.444 60.0789H145.857L145.776 58.6537H145.715C145.503 58.6494 145.293 58.6234 145.087 58.5762C144.915 58.5428 144.757 58.5081 144.603 58.4734C144.162 58.3591 143.708 58.2976 143.25 58.2904C142.677 58.2578 142.103 58.3345 141.564 58.5156C141.025 58.6967 140.532 58.9783 140.117 59.3429C139.701 59.7074 139.372 60.1471 139.149 60.6343C138.926 61.1216 138.814 61.646 138.821 62.1748C138.828 62.7036 138.953 63.2254 139.189 63.7076C139.424 64.1898 139.765 64.622 140.19 64.9772C140.615 65.3325 141.115 65.6031 141.659 65.7722C142.202 65.9413 142.778 66.0053 143.35 65.96C144.002 65.9635 144.653 65.8977 145.289 65.7637C145.62 65.6736 145.96 65.6097 146.303 65.5727H146.361V63.3127C146.337 63.2048 146.355 63.0926 146.411 62.9952C146.466 62.8978 146.557 62.8212 146.667 62.7784L146.713 62.7663V62.3777H146.65C146.487 62.3777 146.232 62.3857 146.003 62.391ZM152.709 58.2824C152.161 58.2765 151.619 58.3729 151.113 58.5657C150.607 58.7586 150.15 59.0439 149.767 59.4044C149.384 59.765 149.085 60.1933 148.887 60.6634C148.689 61.1336 148.596 61.6358 148.615 62.1399C148.604 62.6406 148.703 63.1382 148.903 63.6035C149.104 64.0688 149.404 64.4926 149.784 64.8501C150.165 65.2075 150.619 65.4914 151.12 65.6852C151.621 65.8791 152.159 65.9789 152.702 65.9789C153.245 65.9789 153.783 65.8791 154.284 65.6852C154.785 65.4914 155.239 65.2075 155.62 64.8501C156.001 64.4926 156.3 64.0688 156.501 63.6035C156.702 63.1382 156.8 62.6406 156.79 62.1399C156.809 61.6368 156.717 61.1353 156.52 60.6658C156.323 60.1963 156.024 59.7684 155.643 59.408C155.262 59.0477 154.805 58.7622 154.301 58.569C153.796 58.3758 153.255 58.2787 152.709 58.2837V58.2824ZM155.246 62.1399C155.246 63.6292 154.58 65.2201 152.709 65.2201C150.838 65.2201 150.159 63.6292 150.159 62.1399C150.159 60.6292 150.829 59.0143 152.709 59.0143C154.588 59.0143 155.246 60.6306 155.246 62.1412V62.1399ZM164.25 64.2062C164.165 64.4635 163.991 64.6877 163.754 64.8442C163.517 65.0007 163.23 65.0807 162.938 65.0718H160.857V59.3055C160.87 59.1657 160.94 59.0354 161.052 58.9406C161.164 58.8458 161.311 58.7935 161.463 58.7939L161.511 58.7819V58.3972H161.449C161.333 58.3972 161.03 58.3972 160.743 58.4093C160.481 58.4093 160.23 58.4199 160.142 58.4199C160.053 58.4199 159.765 58.4199 159.491 58.4079C159.217 58.3959 158.94 58.3959 158.836 58.3959H158.772V58.7873L158.823 58.7966C158.898 58.7932 158.974 58.8039 159.045 58.828C159.116 58.852 159.181 58.8891 159.236 58.9368C159.291 58.9846 159.335 59.0421 159.365 59.1059C159.396 59.1697 159.412 59.2385 159.413 59.3082V64.8928C159.41 65.0284 159.353 65.1585 159.254 65.2587C159.155 65.3589 159.02 65.4226 158.873 65.4378L158.82 65.4498V65.8425H158.884C159.036 65.8425 159.318 65.8358 159.591 65.8291C159.82 65.8291 160.026 65.8198 160.128 65.8198H162.463C163.111 65.8079 163.759 65.8306 164.404 65.8879H164.466L164.678 64.2543L164.264 64.1622L164.25 64.2062ZM170 58.3959H166.412V58.7859L166.461 58.7966C166.602 58.8107 166.733 58.8695 166.832 58.9628C166.931 59.0561 166.992 59.1782 167.003 59.3082V64.8928C167.001 65.0298 166.945 65.1614 166.846 65.2636C166.747 65.3658 166.612 65.4319 166.464 65.4498L166.412 65.4578V65.8385H166.476C166.632 65.8385 166.964 65.8318 167.26 65.8251C167.498 65.8251 167.712 65.8158 167.795 65.8158C167.877 65.8158 168.147 65.8158 168.416 65.8265C168.725 65.8265 169.054 65.8398 169.199 65.8398H169.263V65.4498L169.209 65.4418C168.45 65.3336 168.45 65.0411 168.45 64.9315V62.359H170.099C170.237 62.3597 170.372 62.3992 170.485 62.4722C170.598 62.5453 170.684 62.6483 170.732 62.7677L170.748 62.8024H171.158V62.7436C171.158 62.6101 171.15 62.4244 171.142 62.2655C171.142 62.1493 171.134 62.0464 171.134 61.9983C171.134 61.8728 171.134 61.4894 171.158 61.265V61.2009H170.724L170.706 61.2343C170.662 61.3537 170.579 61.4574 170.467 61.531C170.356 61.6045 170.223 61.6441 170.086 61.6444H168.437V59.1399H170.283C170.517 59.132 170.749 59.1922 170.944 59.312C171.139 59.4319 171.289 59.6053 171.371 59.8078L171.389 59.8425H171.8L171.826 58.3224L171.658 58.3331C171.158 58.3705 170.67 58.3972 169.999 58.3972L170 58.3959ZM184.994 64.6323L183.979 63.7989C184.152 63.4916 184.31 63.131 184.463 62.7904C184.521 62.6568 184.579 62.5233 184.637 62.4017C184.675 62.3076 184.718 62.2157 184.768 62.1265C185.01 61.8273 185.341 61.599 185.721 61.4694L185.763 61.4547V61.0647H185.694C185.404 61.0874 184.771 61.098 184.602 61.098C184.434 61.098 183.813 61.086 183.524 61.0647H183.455V61.4427L183.487 61.46C183.602 61.507 183.696 61.5893 183.753 61.693C183.81 61.7967 183.827 61.9155 183.8 62.029C183.651 62.4333 183.477 62.8289 183.276 63.2138L181.537 61.8046C181.984 61.7027 182.385 61.477 182.688 61.1582C182.991 60.8394 183.181 60.4427 183.232 60.0215C183.232 58.9529 182.362 58.3478 180.864 58.3478C180.566 58.315 180.265 58.3391 179.978 58.4186C179.692 58.4981 179.426 58.6314 179.198 58.8099C178.97 58.9885 178.784 59.2085 178.653 59.4563C178.521 59.7041 178.446 59.9743 178.433 60.2499C178.492 60.5885 178.625 60.9125 178.825 61.202C179.024 61.4916 179.285 61.7407 179.593 61.9342C179.16 62.1052 178.788 62.3827 178.516 62.7361C178.243 63.0896 178.082 63.5053 178.049 63.9378C178.057 64.2466 178.137 64.5502 178.284 64.828C178.43 65.1058 178.64 65.3513 178.898 65.5478C179.157 65.7444 179.458 65.8873 179.782 65.9669C180.106 66.0466 180.445 66.0611 180.775 66.0095C181.247 66.0376 181.72 65.9522 182.145 65.7616C182.571 65.571 182.936 65.2817 183.204 64.9222L183.594 65.2227C183.955 65.5409 184.399 65.7671 184.883 65.8791C185.368 65.991 185.875 65.9849 186.356 65.8612L186.41 65.8532V65.4778L186.368 65.4645C185.855 65.274 185.388 64.9916 184.994 64.6337V64.6323ZM179.987 59.9106C179.977 59.7967 179.992 59.6822 180.032 59.5739C180.072 59.4657 180.135 59.3661 180.218 59.2811C180.301 59.1961 180.401 59.1276 180.514 59.0796C180.626 59.0317 180.748 59.0054 180.872 59.0023C180.999 58.9991 181.124 59.0227 181.239 59.0714C181.353 59.12 181.454 59.1923 181.534 59.2827C181.614 59.3731 181.67 59.4791 181.698 59.5927C181.726 59.7062 181.725 59.8241 181.695 59.9373C181.709 60.2103 181.634 60.4809 181.479 60.7138C181.324 60.9468 181.096 61.1314 180.826 61.2436L180.787 61.2116C180.545 61.0749 180.345 60.884 180.205 60.6567C180.065 60.4294 179.99 60.1732 179.987 59.9119V59.9106ZM182.549 64.3812C182.397 64.5819 182.194 64.745 181.957 64.8564C181.721 64.9677 181.458 65.0238 181.193 65.0197C180.983 65.0368 180.772 65.0123 180.574 64.9477C180.376 64.8831 180.195 64.7799 180.044 64.6453C179.893 64.5106 179.775 64.3476 179.698 64.1672C179.621 63.9868 179.587 63.7933 179.598 63.5998C179.602 63.382 179.661 63.1681 179.772 62.9756C179.883 62.7831 180.041 62.6176 180.235 62.4925L182.549 64.3812ZM198.97 64.1982C198.715 64.5616 198.353 64.8508 197.927 65.0324C197.5 65.214 197.027 65.2804 196.561 65.2241C195.752 65.1421 195.009 64.7717 194.491 64.1921C193.973 63.6124 193.722 62.8693 193.79 62.1212C193.79 60.2646 194.903 59.0183 196.561 59.0183C197.009 58.9656 197.464 59.0347 197.87 59.2169C198.276 59.3991 198.615 59.6866 198.847 60.0442L198.864 60.0762H199.273L199.192 58.651H199.131C198.919 58.6466 198.709 58.6206 198.503 58.5736L198.158 58.5028C197.634 58.3765 197.097 58.304 196.555 58.2864C195.993 58.2531 195.428 58.3284 194.899 58.5075C194.369 58.6865 193.886 58.9654 193.48 59.3262C193.074 59.6871 192.754 60.122 192.54 60.6032C192.327 61.0845 192.224 61.6015 192.24 62.1212C192.211 62.6442 192.304 63.1668 192.513 63.6538C192.722 64.1407 193.041 64.5808 193.45 64.9442C193.859 65.3077 194.348 65.5861 194.884 65.7606C195.419 65.9351 195.989 66.0018 196.555 65.956C197.182 65.9382 197.804 65.8566 198.41 65.7129L198.626 65.6702C198.828 65.6251 199.035 65.5987 199.242 65.5914L199.315 65.6047L199.396 64.1662H198.983L198.97 64.1982ZM205.152 58.2864C204.605 58.2816 204.063 58.3788 203.558 58.5721C203.053 58.7653 202.596 59.0506 202.213 59.4109C201.831 59.7713 201.531 60.1991 201.333 60.6687C201.134 61.1384 201.041 61.6401 201.058 62.1439C201.048 62.6446 201.146 63.1422 201.347 63.6075C201.548 64.0729 201.847 64.4966 202.228 64.8541C202.608 65.2115 203.062 65.4954 203.563 65.6892C204.064 65.8831 204.602 65.9829 205.146 65.9829C205.689 65.9829 206.227 65.8831 206.728 65.6892C207.229 65.4954 207.683 65.2115 208.063 64.8541C208.444 64.4966 208.743 64.0729 208.944 63.6075C209.145 63.1422 209.243 62.6446 209.233 62.1439C209.253 61.6405 209.161 61.1386 208.965 60.6686C208.768 60.1986 208.47 59.7702 208.088 59.4094C207.707 59.0486 207.25 58.7628 206.745 58.5693C206.241 58.3759 205.699 58.2787 205.152 58.2837V58.2864ZM207.69 62.1439C207.69 63.6332 207.023 65.2241 205.152 65.2241C203.281 65.2241 202.603 63.6332 202.603 62.1439C202.603 60.6332 203.272 59.0183 205.152 59.0183C207.032 59.0183 207.69 60.6306 207.69 62.1412V62.1439ZM218.346 58.4119C218.148 58.4119 217.96 58.4226 217.872 58.4226C217.783 58.4226 217.562 58.4226 217.356 58.4106C217.15 58.3986 216.941 58.3986 216.837 58.3986H216.773V58.7899L216.824 58.7993C216.899 58.7959 216.975 58.8065 217.046 58.8306C217.117 58.8547 217.182 58.8917 217.237 58.9395C217.292 58.9873 217.336 59.0448 217.366 59.1086C217.397 59.1724 217.413 59.2412 217.414 59.3109V63.4275C217.4 63.6924 217.326 63.9518 217.198 64.1891C217.069 64.4265 216.889 64.6367 216.668 64.8066C216.447 64.9764 216.19 65.1022 215.913 65.1759C215.637 65.2495 215.347 65.2696 215.062 65.2347C214.805 65.2415 214.55 65.1989 214.312 65.1097C214.075 65.0205 213.86 64.8866 213.681 64.7165C213.503 64.5465 213.365 64.344 213.276 64.1221C213.188 63.9001 213.15 63.6636 213.166 63.4275V59.3202C213.168 59.1918 213.22 59.0684 213.313 58.9725C213.405 58.8766 213.532 58.8146 213.67 58.798L213.721 58.7886V58.3972H213.657C213.499 58.3972 213.207 58.4039 212.944 58.4106C212.734 58.4106 212.544 58.4199 212.462 58.4199C212.379 58.4199 212.143 58.4199 211.907 58.4093C211.637 58.4093 211.349 58.3972 211.204 58.3972H211.14V58.7873L211.189 58.798C211.331 58.8132 211.461 58.8741 211.558 58.9697C211.655 59.0653 211.713 59.1895 211.72 59.3202V63.1417C211.682 63.5249 211.738 63.911 211.882 64.272C212.027 64.633 212.257 64.9597 212.556 65.2283C212.855 65.497 213.215 65.7009 213.61 65.8252C214.005 65.9494 214.425 65.9909 214.84 65.9467C217.115 65.9467 218.318 64.9743 218.318 63.1417V59.3055C218.318 59.0891 218.419 58.9289 218.925 58.7939L218.97 58.7806V58.3972H218.906C218.79 58.3972 218.563 58.4039 218.346 58.4093V58.4119ZM228.502 58.4119C228.304 58.4119 228.116 58.4226 228.028 58.4226C227.939 58.4226 227.717 58.4226 227.512 58.4106C227.306 58.3986 227.097 58.3986 226.993 58.3986H226.929V58.7899L226.98 58.7993C227.055 58.7959 227.131 58.8065 227.202 58.8306C227.273 58.8547 227.338 58.8917 227.393 58.9395C227.448 58.9873 227.492 59.0448 227.522 59.1086C227.553 59.1724 227.569 59.2412 227.57 59.3109V63.7935L222.542 58.4199L222.524 58.3986H222.495C222.35 58.3986 222.238 58.4053 222.137 58.4119C221.967 58.4218 221.796 58.4218 221.627 58.4119C221.508 58.4119 221.373 58.3986 221.2 58.3986H221.137V58.7859L221.182 58.798C221.327 58.845 221.451 58.9375 221.53 59.0595C221.609 59.1815 221.64 59.3252 221.616 59.4658V64.9422C221.616 65.1586 221.515 65.3189 221.011 65.4538L220.964 65.4658V65.8412H221.028C221.144 65.8412 221.371 65.8411 221.589 65.8278C221.806 65.8144 221.974 65.8171 222.063 65.8171C222.151 65.8171 222.373 65.8171 222.579 65.8291C222.784 65.8411 222.993 65.8412 223.097 65.8412H223.161V65.4498L223.112 65.4404C222.59 65.3389 222.521 65.1306 222.521 64.9409V60.3741L226.932 65.0892C227.256 65.3966 227.606 65.6806 227.977 65.9387L227.994 65.9507H228.474V59.3055C228.474 59.0891 228.575 58.9289 229.081 58.7939L229.128 58.7806V58.3972H229.064C228.946 58.3972 228.719 58.4039 228.502 58.4093V58.4119ZM234.35 58.4226C232.059 58.4226 231.472 58.3852 230.956 58.3518L230.749 58.3385L230.79 59.9961H231.209L231.22 59.952C231.244 59.7435 231.347 59.5497 231.512 59.4056C231.677 59.2615 231.893 59.1767 232.12 59.1666H233.619V64.9155C233.587 65.0519 233.509 65.1757 233.397 65.2694C233.284 65.3631 233.143 65.4219 232.993 65.4378L232.945 65.4498V65.8412H233.009C233.165 65.8412 233.497 65.8345 233.793 65.8278C234.029 65.8278 234.245 65.8185 234.327 65.8185C234.41 65.8185 234.674 65.8184 234.937 65.8291C235.239 65.8291 235.562 65.8425 235.707 65.8425H235.771V65.4498L235.72 65.4404C235.566 65.4268 235.42 65.3692 235.303 65.2756C235.186 65.182 235.104 65.057 235.068 64.9182V59.1639H236.569C236.797 59.1683 237.015 59.2514 237.179 59.397C237.343 59.5425 237.442 59.7397 237.456 59.9493L237.469 59.9934H237.888L237.942 58.3358L237.729 58.3492C237.216 58.3825 236.636 58.4199 234.35 58.4199V58.4226ZM245.715 64.6323L243.949 62.5393C244.435 62.4376 244.872 62.1912 245.191 61.838C245.511 61.4849 245.695 61.0446 245.717 60.5851C245.697 60.2542 245.602 59.9306 245.439 59.6351C245.277 59.3396 245.049 59.0786 244.77 58.8688C244.492 58.6589 244.169 58.5048 243.822 58.4163C243.476 58.3277 243.113 58.3067 242.757 58.3545C242.546 58.3545 242.178 58.3732 241.814 58.3906C241.45 58.4079 241.153 58.4226 240.982 58.4226C240.885 58.4226 240.666 58.4226 240.433 58.4119C240.166 58.4119 239.882 58.3999 239.737 58.3999H239.675V58.7899L239.724 58.8006C239.866 58.8127 239.998 58.8708 240.097 58.9645C240.197 59.0583 240.256 59.1815 240.266 59.3122V64.9222C240.258 65.0525 240.201 65.1761 240.104 65.2715C240.007 65.3669 239.878 65.4281 239.737 65.4445L239.686 65.4498V65.8412H239.75C239.907 65.8412 240.201 65.8345 240.463 65.8278C240.673 65.8278 240.863 65.8185 240.946 65.8185C241.028 65.8185 241.265 65.8184 241.501 65.8291C241.77 65.8291 242.057 65.8425 242.202 65.8425H242.266V65.4498L242.217 65.4391C242.078 65.4244 241.949 65.363 241.856 65.2667C241.763 65.1704 241.711 65.0459 241.711 64.9168V62.6167C241.913 62.64 242.116 62.653 242.32 62.6555L244.408 65.1239C244.56 65.3589 244.777 65.5525 245.037 65.6848C245.297 65.8171 245.591 65.8835 245.888 65.8772C246.159 65.8724 246.43 65.8487 246.698 65.8064L246.753 65.7984V65.4618L246.718 65.4498C246.326 65.2427 245.985 64.9635 245.715 64.6297V64.6323ZM244.172 60.5744C244.182 60.7757 244.145 60.9767 244.062 61.1631C243.98 61.3496 243.853 61.517 243.692 61.6535C243.532 61.79 243.34 61.8923 243.132 61.953C242.923 62.0137 242.703 62.0315 242.486 62.005C242.227 62.004 241.968 61.9907 241.711 61.9649V59.0624C241.943 59.0249 242.177 59.0057 242.412 59.005C242.644 58.984 242.878 59.0097 243.097 59.0803C243.317 59.1508 243.518 59.2645 243.685 59.4136C243.852 59.5626 243.982 59.7433 244.067 59.9433C244.151 60.1433 244.186 60.3577 244.172 60.5718V60.5744ZM253.857 58.4133C253.699 58.4133 253.567 58.4226 253.493 58.4226C253.419 58.4226 253.286 58.4226 253.128 58.4133C252.915 58.4133 252.668 58.3986 252.506 58.3986H252.442V58.7913L252.496 58.7993C252.684 58.826 252.751 58.8834 252.751 58.9235C252.732 59.0777 252.667 59.2241 252.564 59.3469L251.028 61.5442L249.505 59.3135C249.419 59.1979 249.369 59.0632 249.36 58.9235C249.372 58.8861 249.398 58.8535 249.432 58.831C249.467 58.8085 249.509 58.7973 249.551 58.7993L249.606 58.7926V58.3919H249.542C249.36 58.3919 249.058 58.3999 248.798 58.4066C248.6 58.4066 248.427 58.4159 248.347 58.4159C248.267 58.4159 248.076 58.4159 247.87 58.4066C247.614 58.4066 247.324 58.3932 247.145 58.3932H247.096V58.7739L247.132 58.7899C247.531 58.9861 247.87 59.2725 248.116 59.6221L250.052 62.4271V64.9155C250.05 65.0472 249.995 65.1733 249.897 65.2697C249.8 65.3661 249.667 65.4259 249.525 65.4378L249.473 65.4498V65.8412H249.537C249.711 65.8412 250.018 65.8345 250.286 65.8278C250.492 65.8278 250.676 65.8185 250.755 65.8185C250.835 65.8185 251.067 65.8184 251.299 65.8278C251.568 65.8278 251.86 65.8412 252.013 65.8412H252.077V65.4498L252.028 65.4391C251.885 65.4279 251.752 65.3683 251.654 65.2719C251.556 65.1754 251.5 65.0489 251.497 64.9168V62.3857L253.276 59.8411C253.561 59.3856 253.989 59.0205 254.504 58.7939L254.542 58.7779V58.3972H254.478C254.316 58.3972 254.068 58.4053 253.857 58.4119V58.4133ZM266.846 64.1982C266.591 64.5616 266.229 64.8508 265.803 65.0324C265.376 65.214 264.903 65.2804 264.437 65.2241C263.628 65.1421 262.885 64.7717 262.367 64.1921C261.849 63.6124 261.598 62.8693 261.666 62.1212C261.666 60.2646 262.779 59.0183 264.437 59.0183C264.885 58.9656 265.34 59.0347 265.746 59.2169C266.152 59.3991 266.491 59.6866 266.723 60.0442L266.74 60.0762H267.153L267.073 58.651H267.012C266.801 58.6466 266.59 58.6206 266.385 58.5736L266.039 58.5028C265.517 58.377 264.983 58.3045 264.444 58.2864C263.882 58.2531 263.317 58.3284 262.788 58.5075C262.258 58.6865 261.775 58.9654 261.369 59.3262C260.963 59.6871 260.643 60.122 260.429 60.6032C260.216 61.0845 260.113 61.6015 260.129 62.1212C260.1 62.6442 260.193 63.1668 260.402 63.6538C260.611 64.1407 260.93 64.5808 261.339 64.9442C261.748 65.3077 262.237 65.5861 262.773 65.7606C263.308 65.9351 263.878 66.0018 264.444 65.956C265.07 65.938 265.692 65.8564 266.298 65.7129L266.515 65.6689C266.717 65.6225 266.924 65.5961 267.131 65.59L267.202 65.6034L267.283 64.1648H266.863L266.846 64.1982ZM274.671 64.2103C274.587 64.4676 274.413 64.692 274.175 64.8485C273.938 65.0051 273.651 65.085 273.36 65.0758H271.28V59.3055C271.293 59.1657 271.362 59.0354 271.475 58.9406C271.587 58.8458 271.734 58.7935 271.886 58.7939L271.932 58.7819V58.3972H271.877C271.76 58.3972 271.459 58.3972 271.17 58.4093C270.909 58.4093 270.659 58.4199 270.57 58.4199C270.482 58.4199 270.192 58.4199 269.918 58.4079C269.644 58.3959 269.369 58.3959 269.264 58.3959H269.201V58.7873L269.251 58.7966C269.327 58.7932 269.402 58.8039 269.473 58.828C269.544 58.852 269.609 58.8891 269.664 58.9368C269.719 58.9846 269.763 59.0421 269.794 59.1059C269.824 59.1697 269.84 59.2385 269.841 59.3082V64.8928C269.838 65.0284 269.782 65.1585 269.683 65.2587C269.584 65.3589 269.448 65.4226 269.302 65.4378L269.243 65.4498V65.8425H269.307C269.459 65.8425 269.741 65.8358 270.014 65.8291C270.243 65.8291 270.448 65.8198 270.551 65.8198H272.892C273.54 65.8079 274.188 65.8306 274.834 65.8879H274.896L275.106 64.2543L274.695 64.1622L274.671 64.2103ZM283.965 58.4119C283.768 58.4119 283.58 58.4226 283.491 58.4226C283.403 58.4226 283.181 58.4226 282.977 58.4106C282.772 58.3986 282.561 58.3986 282.457 58.3986H282.393V58.7899L282.443 58.7993C282.519 58.7959 282.594 58.8065 282.665 58.8306C282.736 58.8547 282.801 58.8917 282.856 58.9395C282.911 58.9873 282.956 59.0448 282.986 59.1086C283.016 59.1724 283.032 59.2412 283.033 59.3109V63.4275C283.019 63.6924 282.946 63.9518 282.817 64.1891C282.689 64.4265 282.508 64.6367 282.287 64.8066C282.066 64.9764 281.809 65.1022 281.533 65.1759C281.257 65.2495 280.967 65.2696 280.681 65.2347C280.425 65.2415 280.169 65.1989 279.932 65.1097C279.694 65.0205 279.479 64.8866 279.301 64.7165C279.123 64.5465 278.985 64.344 278.896 64.1221C278.807 63.9001 278.77 63.6636 278.786 63.4275V59.3202C278.788 59.1918 278.84 59.0684 278.932 58.9725C279.025 58.8766 279.152 58.8146 279.29 58.798L279.341 58.7886V58.3972H279.277C279.12 58.3972 278.826 58.4039 278.564 58.4106C278.354 58.4106 278.164 58.4199 278.081 58.4199C277.999 58.4199 277.763 58.4199 277.526 58.4093C277.257 58.4093 276.97 58.3972 276.825 58.3972H276.761V58.7873L276.805 58.798C276.945 58.8135 277.076 58.8745 277.173 58.9701C277.269 59.0656 277.326 59.1897 277.334 59.3202V63.1417C277.296 63.5249 277.351 63.911 277.496 64.272C277.641 64.633 277.871 64.9597 278.17 65.2283C278.469 65.497 278.829 65.7009 279.224 65.8252C279.619 65.9494 280.039 65.9909 280.454 65.9467C282.729 65.9467 283.932 64.9743 283.932 63.1417V59.3055C283.932 59.0891 284.033 58.9289 284.539 58.7939L284.584 58.7806V58.3972H284.522C284.41 58.3972 284.182 58.4039 283.965 58.4093V58.4119ZM291.114 61.8848C291.442 61.7456 291.719 61.5215 291.911 61.2397C292.104 60.958 292.203 60.6307 292.197 60.298C292.197 59.0237 291.227 58.3505 289.395 58.3505C289.184 58.3505 288.914 58.3692 288.652 58.3866C288.39 58.4039 288.174 58.4186 288.004 58.4186C287.905 58.4186 287.687 58.4186 287.453 58.4079C287.188 58.4079 286.903 58.3959 286.759 58.3959H286.695V58.7859L286.745 58.7966C286.885 58.8107 287.016 58.8695 287.115 58.9628C287.214 59.0561 287.275 59.1782 287.287 59.3082V64.8928C287.284 65.0284 287.227 65.1585 287.128 65.2587C287.029 65.3589 286.894 65.4226 286.748 65.4378L286.695 65.4498V65.8425H286.759C286.904 65.8425 287.194 65.8358 287.466 65.8291C287.695 65.8291 287.901 65.8198 288.004 65.8198C288.175 65.8198 288.472 65.8358 288.788 65.8518C289.104 65.8679 289.468 65.8879 289.679 65.8879C290.562 65.8879 292.614 65.6795 292.614 63.7508C292.595 63.3373 292.442 62.9384 292.175 62.606C291.907 62.2735 291.538 62.0227 291.114 61.8861V61.8848ZM288.733 61.5696V59.0584L288.762 59.0504C288.879 59.0157 289.002 58.9998 289.126 59.0037C289.326 58.9781 289.53 58.9944 289.722 59.0514C289.915 59.1084 290.091 59.2047 290.237 59.333C290.384 59.4614 290.497 59.6185 290.568 59.7927C290.64 59.9669 290.668 60.1538 290.65 60.3394C290.668 60.5165 290.642 60.6951 290.572 60.8609C290.501 61.0267 290.39 61.1751 290.247 61.2942C290.104 61.4134 289.932 61.5 289.746 61.5471C289.56 61.5942 289.364 61.6005 289.175 61.5656H288.733V61.5696ZM291.071 63.7214C291.086 63.9202 291.053 64.1197 290.975 64.3055C290.897 64.4914 290.775 64.6592 290.619 64.7969C290.463 64.9346 290.275 65.0389 290.07 65.1023C289.865 65.1658 289.648 65.1868 289.433 65.164C289.198 65.1634 288.964 65.1441 288.733 65.1065V62.2908H289.469C289.677 62.2862 289.883 62.3198 290.077 62.3895C290.27 62.4593 290.447 62.5639 290.596 62.6972C290.745 62.8305 290.864 62.9899 290.945 63.1659C291.027 63.342 291.069 63.5313 291.071 63.7227V63.7214Z" fill="#AF884D"/>
</svg>
