<svg width="69" height="60" viewBox="0 0 69 60" fill="none" xmlns="http://www.w3.org/2000/svg">
<path d="M34.5 20.1877C37.6803 20.1877 40.2675 17.6004 40.2675 14.4202C40.2675 11.24 37.6803 8.65259 34.5 8.65259C31.3197 8.65259 28.7324 11.24 28.7324 14.4202C28.7324 17.6005 31.3197 20.1877 34.5 20.1877ZM34.5 10.6741C36.5655 10.6741 38.2461 12.3546 38.2461 14.4202C38.2461 16.4858 36.5655 18.1662 34.5 18.1662C32.4344 18.1662 30.7539 16.4857 30.7539 14.4202C30.7539 12.3546 32.4344 10.6741 34.5 10.6741Z" fill="#176E41"/>
<path d="M10.7139 28.7265C13.8942 28.7265 16.4814 26.1392 16.4814 22.959C16.4814 19.7788 13.8942 17.1914 10.7139 17.1914C7.53352 17.1914 4.94629 19.7788 4.94629 22.959C4.94629 26.1393 7.53352 28.7265 10.7139 28.7265ZM10.7139 19.2129C12.7794 19.2129 14.4599 20.8934 14.4599 22.959C14.4599 25.0247 12.7794 26.7051 10.7139 26.7051C8.6483 26.7051 6.96777 25.0245 6.96777 22.959C6.96777 20.8934 8.6483 19.2129 10.7139 19.2129Z" fill="#176E41"/>
<path d="M17.0541 30.8049C15.6974 30.8049 5.72889 30.8049 4.37355 30.8049C1.96205 30.8049 0 32.7668 0 35.1785V44.6419C0 46.3566 1.39509 47.7517 3.10985 47.7517C3.49259 47.7517 3.85928 47.6818 4.19822 47.5547V55.3673C4.19822 57.4423 5.88629 59.1305 7.96141 59.1305C9.04682 59.1305 10.0263 58.6685 10.7139 57.9311C11.4014 58.6687 12.3809 59.1305 13.4663 59.1305C15.5413 59.1305 17.2295 57.4424 17.2295 55.3673C17.2295 54.4541 17.2295 48.4677 17.2295 47.5547C17.5685 47.6818 17.9351 47.7517 18.3179 47.7517C20.0328 47.7517 21.4277 46.3566 21.4277 44.6419C21.4277 43.7314 21.4277 36.0949 21.4277 35.1785C21.4277 32.7668 19.4657 30.8049 17.0541 30.8049ZM12.9422 32.8264C12.6414 33.7702 11.7561 34.4557 10.7139 34.4557C9.67159 34.4557 8.78631 33.7703 8.48552 32.8264H12.9422ZM4.19822 44.6419C4.19822 45.242 3.70996 45.7302 3.10985 45.7302C2.50974 45.7302 2.02148 45.242 2.02148 44.6419V40.7102H4.19822V44.6419ZM9.70312 55.3673C9.70312 56.3276 8.92175 57.109 7.96141 57.109C7.00107 57.109 6.2197 56.3276 6.2197 55.3673V52.2438H9.70312V55.3673ZM15.208 55.3673C15.208 56.3276 14.4267 57.109 13.4663 57.109C12.506 57.109 11.7246 56.3276 11.7246 55.3673V52.2438H15.208V55.3673ZM15.208 50.2224H11.7246V48.9421C11.7246 48.3839 11.2722 47.9313 10.7139 47.9313C10.1555 47.9313 9.70312 48.3839 9.70312 48.9421V50.2224H6.2197V46.0065H15.2079V50.2224H15.208ZM15.208 43.985H6.2197V40.7102H15.2079V43.985H15.208ZM19.4062 44.6419C19.4062 45.242 18.918 45.7302 18.3179 45.7302C17.7178 45.7302 17.2295 45.242 17.2295 44.6419V40.7102H19.4062V44.6419ZM19.4062 38.6887H17.2295V36.9031C17.2295 36.3449 16.7771 35.8923 16.2188 35.8923C15.6604 35.8923 15.208 36.3449 15.208 36.9031V38.6887H6.2197V36.9031C6.2197 36.3449 5.76729 35.8923 5.20896 35.8923C4.65063 35.8923 4.19822 36.3449 4.19822 36.9031V38.6887H2.02148V35.1785C2.02148 33.8815 3.07656 32.8264 4.37355 32.8264H6.41269C6.75243 34.8943 8.55142 36.4772 10.7139 36.4772C12.8763 36.4772 14.6753 34.8943 15.015 32.8264H17.0541C18.351 32.8264 19.4062 33.8816 19.4062 35.1785V38.6887Z" fill="#176E41"/>
<path d="M40.8402 22.2659C39.4846 22.2659 29.52 22.2659 28.1597 22.2659C25.7481 22.2659 23.7861 24.2279 23.7861 26.6396V38.6329C23.7861 40.3476 25.1812 41.7427 26.896 41.7427C27.2787 41.7427 27.6454 41.6728 27.9844 41.5457V55.3673C27.9844 57.4423 29.6724 59.1305 31.7475 59.1305C32.8329 59.1305 33.8124 58.6685 34.5 57.9311C35.1876 58.6686 36.1671 59.1305 37.2525 59.1305C39.3274 59.1305 41.0156 57.4424 41.0156 55.3673V49.0992C41.0156 48.541 40.5632 48.0884 40.0049 48.0884C39.4466 48.0884 38.9942 48.541 38.9942 49.0992V52.9175H35.5107V42.933C35.5107 42.3748 35.0583 41.9222 34.5 41.9222C33.9417 41.9222 33.4893 42.3748 33.4893 42.933V52.9175H30.0058V39.9974H38.994V44.3823C38.994 44.9405 39.4464 45.393 40.0048 45.393C40.5631 45.393 41.0155 44.9405 41.0155 44.3823V41.5457C41.3544 41.6728 41.7211 41.7427 42.1039 41.7427C43.8188 41.7427 45.2137 40.3476 45.2137 38.6329C45.2137 37.2223 45.2137 28.0224 45.2137 26.6396C45.2139 24.2279 43.2518 22.2659 40.8402 22.2659ZM35.5107 54.9391H38.9942V55.3673C38.9942 56.3276 38.2128 57.109 37.2525 57.109C36.2921 57.109 35.5107 56.3276 35.5107 55.3673V54.9391ZM36.7285 24.2874C36.4276 25.2311 35.5423 25.9167 34.5 25.9167C33.4577 25.9167 32.5724 25.2311 32.2715 24.2874H36.7285ZM27.9844 38.6329C27.9844 39.233 27.4961 39.7213 26.896 39.7213C26.2959 39.7213 25.8076 39.233 25.8076 38.6329V33.2649H27.9844V38.6329ZM33.4893 54.9391V55.3673C33.4893 56.3276 32.7079 57.109 31.7475 57.109C30.7872 57.109 30.0058 56.3277 30.0058 55.3673V54.9391H33.4893ZM43.1924 38.6329C43.1924 39.233 42.7041 39.7213 42.104 39.7213C41.5039 39.7213 41.0156 39.233 41.0156 38.6329V33.2649H43.1924V38.6329ZM43.1924 31.2434H41.0156V28.364C41.0156 27.8058 40.5632 27.3533 40.0049 27.3533C39.4466 27.3533 38.9942 27.8058 38.9942 28.364V37.976H30.006C30.006 35.7395 30.006 30.1753 30.006 28.364C30.006 27.8058 29.5536 27.3533 28.9952 27.3533C28.4369 27.3533 27.9845 27.8058 27.9845 28.364V31.2434H25.8076V26.6396C25.8076 25.3426 26.8627 24.2874 28.1597 24.2874H30.1988C30.5386 26.3552 32.3376 27.9382 34.5 27.9382C36.6624 27.9382 38.4616 26.3552 38.8012 24.2874H40.8402C42.1372 24.2874 43.1924 25.3426 43.1924 26.6396V31.2434Z" fill="#176E41"/>
<path d="M67.9895 21.6114C68.5479 21.6114 69.0003 21.1589 69.0003 20.6007V17.0434C69.0003 14.6855 67.1055 12.6699 64.5909 12.6699C64.5212 12.5801 64.4426 12.4961 64.3552 12.4197L62.7645 11.0281C62.4089 10.7168 61.9531 10.5633 61.4814 10.5941C61.4635 10.5953 61.4461 10.5985 61.4283 10.6003L61.4286 10.6001C63.0074 9.56998 64.0537 7.78918 64.0537 5.76756C64.0537 2.58723 61.4665 0 58.2861 0C55.1058 0 52.5186 2.58737 52.5186 5.76756C52.5186 7.78999 53.5658 9.57132 55.1456 10.6013C54.6763 10.5555 54.1899 10.6939 53.808 11.0281L52.2172 12.4199L52.2171 12.42C52.1292 12.497 52.0515 12.5809 51.9826 12.67C49.463 12.67 47.5723 14.689 47.5723 17.0435V32.5685C47.5723 34.2833 48.9674 35.6784 50.6821 35.6784C51.0649 35.6784 51.4315 35.6084 51.7705 35.4814V55.3674C51.7705 57.4424 53.4586 59.1306 55.5337 59.1306C56.6191 59.1306 57.5986 58.6686 58.2861 57.9312C58.9737 58.6687 59.9532 59.1306 61.0386 59.1306C63.1136 59.1306 64.8018 57.4425 64.8018 55.3674C64.8018 54.7059 64.8018 36.2304 64.8018 35.4814C65.1407 35.6084 65.5074 35.6784 65.8901 35.6784C67.605 35.6784 69 34.2833 69 32.5685C69 31.2484 69 26.9127 69 25.3176C69 24.7594 68.5476 24.3069 67.9893 24.3069C67.4309 24.3069 66.9785 24.7594 66.9785 25.3176V29.2986H64.8018V19.9857C64.8018 19.4275 64.3494 18.975 63.791 18.975C63.2327 18.975 62.7803 19.4275 62.7803 19.9857V31.9117H53.7921C53.7921 30.7466 53.7921 21.6138 53.7921 19.9857C53.7921 19.4275 53.3397 18.975 52.7814 18.975C52.223 18.975 51.7706 19.4275 51.7706 19.9857V29.2986H49.594V17.0434C49.594 15.7672 50.6158 14.725 51.8844 14.6921C51.9904 14.8626 51.8813 14.7227 54.605 17.836C55.2442 18.5667 56.3698 18.6432 57.1021 18.0024L58.2864 16.9662C58.3472 17.0193 59.4205 17.959 59.4808 18.0105C60.2235 18.6512 61.332 18.5623 61.9677 17.8358C64.6211 14.8033 64.572 14.878 64.6883 14.6921C65.9569 14.725 66.9786 15.7672 66.9786 17.0434V20.6007C66.9788 21.159 67.4312 21.6114 67.9895 21.6114ZM64.802 31.3199H66.9788V32.5684C66.9788 33.1685 66.4905 33.6568 65.8904 33.6568C65.2903 33.6568 64.802 33.1685 64.802 32.5684V31.3199ZM62.7806 55.3674C62.7806 56.3277 61.9992 57.1091 61.0389 57.1091C60.0785 57.1091 59.2971 56.3277 59.2971 55.3674V53.9742H62.7806V55.3674ZM53.7922 33.9332H62.7804V51.9527H59.2971V36.8686C59.2971 36.3104 58.8447 35.8579 58.2864 35.8579C57.7281 35.8579 57.2757 36.3104 57.2757 36.8686V51.9525H53.7922V33.9332ZM53.7922 53.9742H57.2757V55.3674C57.2757 56.3277 56.4943 57.1091 55.5339 57.1091C54.5736 57.1091 53.7922 56.3277 53.7922 55.3674V53.9742ZM51.7708 31.3199V32.5684C51.7708 33.1685 51.2825 33.6568 50.6824 33.6568C50.0823 33.6568 49.594 33.1685 49.594 32.5684V31.3199H51.7708ZM58.2864 2.02121C60.352 2.02121 62.0325 3.70174 62.0325 5.76729C62.0325 7.83285 60.352 9.51337 58.2864 9.51337C56.2209 9.51337 54.5403 7.83285 54.5403 5.76729C54.5403 3.70174 56.2209 2.02121 58.2864 2.02121ZM55.9605 16.3151C54.4112 14.5444 54.6313 14.7959 53.7382 13.7751L54.9497 12.715L57.172 15.2549C56.7211 15.6497 57.0199 15.3882 55.9605 16.3151ZM58.2864 13.4586C55.8659 10.692 56.3788 11.2773 56.2897 11.1781C56.4307 11.2486 57.1211 11.4656 57.8767 11.5191L57.8762 11.5187C58.2016 11.5417 58.3615 11.5351 58.5146 11.5291L58.514 11.5297C59.3463 11.497 60.1439 11.2478 60.2834 11.1781C60.1975 11.2737 60.6957 10.7051 58.2864 13.4586ZM60.6123 16.315C60.3811 16.1127 59.6359 15.4609 59.4006 15.2551L61.6229 12.7151L62.8346 13.7751L60.6123 16.315Z" fill="#176E41"/>
</svg>
