<svg width="253" height="58" viewBox="0 0 253 58" fill="none" xmlns="http://www.w3.org/2000/svg">
<g clip-path="url(#clip0_1552_456997)">
<path d="M90.3314 11.1439C90.2993 14.4998 90.0112 16.1778 89.1146 17.9507C87.1933 21.7815 83.6389 23.9343 79.0599 23.9343C72.0472 23.9343 66.9238 18.9638 66.9238 12.0937C66.9238 5.22363 72.0793 0.0314941 79.22 0.0314941C83.5108 0.0314941 86.9691 1.8994 89.1466 5.41359L85.1759 7.50311C83.799 5.22363 81.7817 4.11556 79.188 4.11556C74.8011 4.11556 71.5989 7.50311 71.5989 12.0937C71.5989 16.6843 74.8331 19.8819 79.1559 19.8819C82.4541 19.8819 84.8878 17.9507 85.24 15.038H79.7964V11.1756H90.3634L90.3314 11.1439Z" fill="#3EA02C"/>
<path d="M118.094 11.9672C118.094 18.7106 112.651 23.9028 105.606 23.9028C98.5613 23.9028 93.3418 18.6473 93.3418 11.7772C93.3418 4.90713 98.8815 -0.0317383 105.766 -0.0317383C112.651 -0.0317383 118.094 5.22372 118.094 11.9355V11.9672ZM98.0169 11.8722C98.0169 16.3045 101.443 19.8187 105.766 19.8187C110.089 19.8187 113.483 16.2728 113.483 11.9355C113.483 7.59817 110.057 4.08398 105.734 4.08398C101.411 4.08398 98.0169 7.62983 98.0169 11.8722Z" fill="#3EA02C"/>
<path d="M126.771 19.5339H133.88V23.3963H122.256V0.506592H126.771V19.5339Z" fill="#3EA02C"/>
<path d="M141.533 4.4007V9.4662H148.769V13.3286H141.533V23.3963H137.018V0.506592H149.282V4.4007H141.533Z" fill="#3EA02C"/>
<path d="M171.921 5.69868C170.704 4.36899 169.615 3.86244 168.174 3.86244C166.349 3.86244 164.908 5.00218 164.908 6.39519C164.908 7.62991 165.708 8.29475 168.398 9.27619C170.928 10.1943 171.985 10.6692 173.009 11.5873C174.354 12.7271 175.059 14.3734 175.059 16.3996C175.059 20.8952 171.793 23.9345 167.021 23.9345C163.659 23.9345 161.161 22.5731 159.08 19.5655L161.994 16.7795C163.051 18.7423 164.78 19.8188 166.861 19.8188C168.943 19.8188 170.448 18.4891 170.448 16.5895C170.448 15.6714 170.031 14.8799 169.199 14.2784C168.75 13.9618 167.854 13.5819 165.965 12.917C161.802 11.3974 160.265 9.75108 160.265 6.74344C160.265 2.91266 163.307 0.0949707 167.47 0.0949707C169.999 0.0949707 172.337 0.949774 174.258 2.62772L171.889 5.66702L171.921 5.69868Z" fill="#3EA02C"/>
<path d="M183.096 18.5207L181.014 23.3646H176.211L186.266 0H189.66L199.362 23.3646H194.527L192.542 18.5207H183.063H183.096ZM187.931 6.68013L184.568 14.9116H191.165L187.931 6.68013Z" fill="#3EA02C"/>
<path d="M205.832 13.5818C205.832 15.9246 205.96 16.6845 206.568 17.6659C207.337 18.9639 208.906 19.7871 210.635 19.7871C212.364 19.7871 213.933 18.9639 214.702 17.6659C215.278 16.6845 215.438 15.9246 215.438 13.5818V0.474854H219.953V14.4683C219.953 17.1594 219.441 19.0273 218.256 20.5786C216.655 22.6364 213.805 23.8711 210.667 23.8711C207.529 23.8711 204.679 22.6364 203.078 20.5786C201.893 19.0273 201.381 17.1594 201.381 14.4683V0.474854H205.896V13.5818H205.832Z" fill="#3EA02C"/>
<path d="M225.236 0.474854H231.865C235.259 0.474854 237.981 1.32966 240.158 3.10258C242.752 5.1921 244.289 8.45302 244.289 11.8722C244.289 15.2914 242.72 18.5207 240.094 20.6735C237.885 22.5414 235.355 23.3013 231.833 23.3013H225.236V0.474854ZM230.968 19.4705C233.882 19.4705 235.707 18.9323 237.148 17.6659C238.717 16.3045 239.646 14.0884 239.646 11.9039C239.646 9.71939 238.717 7.56656 237.148 6.2052C235.643 4.87551 233.882 4.3373 230.968 4.3373H229.751V19.4705H230.968Z" fill="#3EA02C"/>
<path d="M252.966 23.3646H248.451V0.474854H252.966V23.3646Z" fill="#3EA02C"/>
<path d="M215.375 40.6507C215.375 40.6507 215.695 40.904 215.887 40.9989C216.079 41.0939 216.271 41.1256 216.496 41.1256C216.72 41.1256 216.944 41.0939 217.136 40.9989C217.328 40.904 217.488 40.809 217.648 40.6507C217.808 40.4924 217.905 40.3341 218.001 40.1441C218.097 39.9542 218.129 39.7326 218.129 39.5109C218.129 39.2893 218.097 39.0994 218.001 38.9094C217.905 38.7195 217.808 38.5612 217.648 38.4029C217.52 38.2762 217.328 38.1496 217.136 38.0546C216.944 37.9596 216.72 37.928 216.496 37.928C216.047 37.928 215.695 38.0863 215.375 38.4029C215.055 38.7195 214.895 39.0677 214.895 39.5109C214.895 39.7326 214.927 39.9542 215.023 40.1441C215.119 40.3341 215.215 40.4924 215.375 40.6507Z" fill="#999999"/>
<path d="M228.856 31.1845C228.472 31.6277 228.184 31.976 227.991 32.2293C227.799 32.4825 227.447 32.7675 226.935 33.0841C226.775 33.179 226.422 33.369 225.878 33.7172V33.9389C226.326 34.1921 226.647 34.5087 226.871 34.8886C227.223 35.5535 227.415 36.5982 227.415 37.9913V48.3755H220.531C220.595 48.2172 220.627 47.964 220.659 47.679C220.691 47.3941 220.691 47.1092 220.691 46.8876C220.691 45.9061 220.274 45.0196 219.442 44.2915C218.609 43.5633 217.617 43.1834 216.528 43.1834C215.343 43.1834 214.35 43.5633 213.55 44.2915C212.749 45.0196 212.333 45.9061 212.333 46.8876C212.333 47.1408 212.333 47.3941 212.365 47.679C212.365 47.964 212.429 48.2172 212.493 48.3755H202.022C200.934 48.3755 200.069 48.2172 199.396 47.9007C198.852 47.6474 198.372 47.1725 197.956 46.4443H197.731C197.475 46.9192 197.251 47.2358 197.123 47.4574C196.771 48.0273 196.419 48.4705 196.066 48.7871C195.17 49.6103 194.689 50.0218 194.657 50.0535C194.081 50.56 193.569 50.9083 193.152 51.0982V51.4148H230.169V30.0764H229.849C229.496 30.4563 229.176 30.8362 228.824 31.2162L228.856 31.1845ZM216.528 48.3439C215.759 48.3439 215.375 47.964 215.375 47.2358C215.375 46.5076 215.759 46.1277 216.528 46.1277C217.296 46.1277 217.649 46.5076 217.649 47.2358C217.649 47.964 217.264 48.3439 216.528 48.3439Z" fill="#999999"/>
<path d="M251.816 39.9541C251.112 39.3526 250.215 39.0676 249.126 39.0676C248.102 39.0676 247.205 39.4792 246.468 40.2707C245.732 41.0622 245.348 42.0753 245.348 43.2467C245.348 44.3231 245.636 45.1779 246.212 45.8427C246.885 46.5709 247.845 46.9508 249.126 46.9508H250.215V47.2357C250.215 47.5523 250.119 47.8056 249.895 48.0272C249.671 48.2488 249.414 48.3438 249.094 48.3438H241.153V46.8242C241.153 45.7478 240.737 44.8296 239.936 44.1331C239.168 43.4683 238.271 43.12 237.214 43.12C236.158 43.12 235.261 43.4999 234.525 44.2281C233.724 45.0196 233.34 46.096 233.34 47.394C233.34 48.5654 233.596 49.4836 234.108 50.1484C234.749 50.9716 235.805 51.4148 237.246 51.4148H238.367C238.367 52.8711 237.791 54.2008 236.606 55.4355C235.581 56.5436 234.364 57.3034 233.02 57.7467V58.0316H234.396C236.606 58.0316 238.335 57.3668 239.552 56.0371C240.641 54.834 241.185 53.3144 241.185 51.4464H249.671C250.599 51.4464 251.368 51.1299 252.04 50.465C252.713 49.8002 253.033 49.0403 253.033 48.1222V42.9617C253.033 41.6637 252.649 40.6823 251.848 40.0174L251.816 39.9541ZM237.214 48.3438C236.478 48.3438 236.094 47.9639 236.094 47.2357C236.094 46.5076 236.478 46.1277 237.214 46.1277C237.951 46.1277 238.335 46.5076 238.335 47.2357C238.335 47.9639 237.951 48.3438 237.214 48.3438ZM249.094 44.0065C248.358 44.0065 247.973 43.6266 247.973 42.8984C247.973 42.1702 248.358 41.7903 249.094 41.7903C249.831 41.7903 250.215 42.1702 250.215 42.8984C250.215 43.6266 249.831 44.0065 249.094 44.0065Z" fill="#999999"/>
<path d="M245.732 37.4847C245.732 37.4847 246.053 37.7379 246.245 37.8329C246.437 37.9279 246.629 37.9596 246.853 37.9596C247.077 37.9596 247.301 37.9279 247.493 37.8329C247.686 37.7379 247.846 37.643 248.006 37.4847C248.166 37.3264 248.262 37.1681 248.358 36.9781C248.454 36.7882 248.486 36.5665 248.486 36.3449C248.486 36.1233 248.454 35.9334 248.358 35.7434C248.262 35.5534 248.166 35.3952 248.006 35.2369C247.878 35.1102 247.686 34.9836 247.493 34.8886C247.301 34.7936 247.077 34.762 246.853 34.762C246.405 34.762 246.052 34.9203 245.732 35.2369C245.412 35.5534 245.252 35.9017 245.252 36.3449C245.252 36.5665 245.284 36.7882 245.38 36.9781C245.476 37.1681 245.572 37.3264 245.732 37.4847Z" fill="#999999"/>
<path d="M249.607 37.4847C249.607 37.4847 249.927 37.7379 250.12 37.8329C250.312 37.9279 250.504 37.9596 250.728 37.9596C250.952 37.9596 251.176 37.9279 251.368 37.8329C251.561 37.7379 251.721 37.643 251.881 37.4847C252.041 37.3264 252.137 37.1681 252.233 36.9781C252.329 36.7882 252.361 36.5665 252.361 36.3449C252.361 36.1233 252.329 35.9334 252.233 35.7434C252.137 35.5534 252.041 35.3952 251.881 35.2369C251.753 35.1102 251.561 34.9836 251.368 34.8886C251.176 34.7936 250.952 34.762 250.728 34.762C250.28 34.762 249.927 34.9203 249.607 35.2369C249.287 35.5534 249.127 35.9017 249.127 36.3449C249.127 36.5665 249.159 36.7882 249.255 36.9781C249.351 37.1681 249.447 37.3264 249.607 37.4847Z" fill="#999999"/>
<path d="M67.9497 37.8329C68.1418 37.9279 68.3339 37.9596 68.5581 37.9596C68.7822 37.9596 69.0064 37.9279 69.1985 37.8329C69.3906 37.7379 69.5508 37.643 69.7109 37.4847C69.871 37.3264 69.967 37.1681 70.0631 36.9781C70.1592 36.7882 70.1912 36.5665 70.1912 36.3449C70.1912 36.1233 70.1592 35.9334 70.0631 35.7434C69.967 35.5534 69.871 35.3952 69.7109 35.2369C69.5828 35.1102 69.3906 34.9836 69.1985 34.8886C69.0064 34.7936 68.7822 34.762 68.5581 34.762C68.1098 34.762 67.7576 34.9203 67.4373 35.2369C67.1171 35.5534 66.957 35.9017 66.957 36.3449C66.957 36.5665 66.9891 36.7882 67.0851 36.9781C67.1812 37.1681 67.2772 37.3264 67.4373 37.4847C67.5654 37.6113 67.7576 37.7379 67.9497 37.8329Z" fill="#999999"/>
<path d="M71.3436 37.5164C71.3436 37.5164 71.6638 37.7697 71.8559 37.8647C72.0481 37.9596 72.2402 37.9913 72.4643 37.9913C72.6885 37.9913 72.9126 37.9596 73.1048 37.8647C73.2969 37.7697 73.457 37.6747 73.6171 37.5164C73.7772 37.3581 73.8733 37.1998 73.9693 37.0099C74.0654 36.8199 74.0974 36.5983 74.0974 36.3767C74.0974 36.1551 74.0654 35.9651 73.9693 35.7751C73.8733 35.5852 73.7772 35.4269 73.6171 35.2686C73.489 35.142 73.2969 35.0153 73.1048 34.9203C72.9126 34.8254 72.6885 34.7937 72.4643 34.7937C72.016 34.7937 71.6638 34.952 71.3436 35.2686C71.0234 35.5852 70.8633 35.9334 70.8633 36.3767C70.8633 36.5983 70.8953 36.8199 70.9914 37.0099C71.0874 37.1998 71.1835 37.3581 71.3436 37.5164Z" fill="#999999"/>
<path d="M82.455 53.441C82.455 53.441 82.1348 53.1877 81.9427 53.0927C81.7505 52.9977 81.5264 52.9661 81.3022 52.9661C80.8539 52.9661 80.5017 53.1244 80.1815 53.441C79.8613 53.7575 79.7012 54.1058 79.7012 54.549C79.7012 54.7706 79.7332 54.9923 79.8293 55.1822C79.9253 55.3722 80.0214 55.5305 80.1815 55.6888C80.3096 55.8154 80.5017 55.9421 80.6938 56.037C80.886 56.132 81.0781 56.1637 81.3022 56.1637C81.5264 56.1637 81.7505 56.132 81.9427 56.037C82.1348 55.9421 82.2949 55.8471 82.455 55.6888C82.5831 55.5621 82.7112 55.3722 82.8072 55.1822C82.9033 54.9923 82.9353 54.7706 82.9353 54.549C82.9353 54.3274 82.9033 54.1375 82.8072 53.9475C82.7112 53.7576 82.6151 53.5993 82.455 53.441Z" fill="#999999"/>
<path d="M78.5488 53.441C78.5488 53.441 78.2285 53.1877 78.0364 53.0927C77.8443 52.9977 77.6201 52.9661 77.396 52.9661C76.9477 52.9661 76.5955 53.1244 76.2752 53.441C75.955 53.7575 75.7949 54.1058 75.7949 54.549C75.7949 54.7706 75.8269 54.9923 75.923 55.1822C76.0191 55.3722 76.1151 55.5305 76.2752 55.6888C76.4033 55.8154 76.5955 55.9421 76.7876 56.037C76.9797 56.132 77.1718 56.1637 77.396 56.1637C77.6201 56.1637 77.8443 56.132 78.0364 56.037C78.2285 55.9421 78.3886 55.8471 78.5488 55.6888C78.6768 55.5621 78.8049 55.3722 78.901 55.1822C78.997 54.9923 79.0291 54.7706 79.0291 54.549C79.0291 54.3274 78.997 54.1375 78.901 53.9475C78.8049 53.7576 78.7089 53.5993 78.5488 53.441Z" fill="#999999"/>
<path d="M84.2487 51.3833V39.9226H83.8004C83.288 40.3025 82.8718 40.6507 82.5836 40.999C82.2954 41.3472 82.0072 41.6638 81.751 41.9804C81.4948 42.297 81.2387 42.6136 80.9505 42.9619C80.6623 43.2785 80.278 43.6267 79.7657 43.975V44.5132C80.278 44.9248 80.6303 45.368 80.8544 45.8112C81.0786 46.2544 81.1746 46.6977 81.1746 47.0776V48.344H75.9231C76.0512 47.9324 76.1153 47.5208 76.1153 47.0776V37.2632H75.667C75.1546 37.6431 74.7383 37.9913 74.4502 38.3396C74.162 38.6879 73.8738 39.0044 73.6176 39.321C73.3614 39.6376 73.1053 39.9542 72.8171 40.3025C72.5289 40.6191 72.1446 40.9673 71.6323 41.3156V41.8538C72.0486 42.1704 72.3368 42.5186 72.5609 42.8669C72.3047 42.8352 72.0486 42.8036 71.7924 42.8036C71.184 42.8036 70.6396 42.9302 70.0953 43.1518C69.5829 43.3734 69.1026 43.69 68.7183 44.07C68.3341 44.4499 68.0139 44.9248 67.7897 45.4313C67.5656 45.9379 67.4375 46.5077 67.4375 47.1093V51.4149H84.2807L84.2487 51.3833ZM71.6003 48.344C70.7357 48.344 70.2874 47.9324 70.2874 47.0776C70.2874 46.2228 70.7357 45.8112 71.6003 45.8112C72.4648 45.8112 72.8811 46.2228 72.8811 47.0776C72.8811 47.9324 72.4648 48.344 71.6003 48.344Z" fill="#999999"/>
<path d="M132.217 45.0197C131.865 44.6715 131.481 44.4182 131 44.2282C130.552 44.0383 130.04 43.9433 129.527 43.9433H99.1392C98.7549 43.9433 98.3067 43.8483 97.8584 43.6267C97.4101 43.4051 96.9618 43.0568 96.5455 42.5503H96.0011C95.6489 43.0568 95.3287 43.4368 94.9764 43.7217C94.6562 44.0066 94.336 44.2916 93.9838 44.5132C93.6636 44.7665 93.3113 45.0197 92.9911 45.3363C92.6389 45.6213 92.2867 46.0328 91.9024 46.5394V46.9826H129.527C129.72 46.9826 129.88 47.0459 130.008 47.1726C130.136 47.2992 130.2 47.4892 130.2 47.6791V48.3756H93.0552C92.6709 48.3756 92.2226 48.2806 91.7743 48.059C91.326 47.8374 90.8777 47.4892 90.4614 46.9826H89.9171C89.5648 47.4892 89.2446 47.8691 88.8924 48.154C88.5722 48.4389 88.252 48.7239 87.8997 48.9455C87.5475 49.1671 87.2273 49.452 86.9071 49.7686C86.5869 50.0852 86.2026 50.4651 85.8184 50.9717V51.4149H133.306V47.6791C133.306 47.1726 133.21 46.6977 133.018 46.2228C132.826 45.7796 132.537 45.368 132.217 45.0197Z" fill="#999999"/>
<path d="M183.899 31.8493C183.611 32.1975 183.323 32.5141 183.067 32.8307C182.811 33.1473 182.555 33.4639 182.266 33.8122C181.978 34.1288 181.594 34.477 181.082 34.8253V35.3635C181.594 35.7751 181.946 36.2183 182.17 36.6615C182.394 37.1047 182.49 37.548 182.49 37.9279V50.9716C182.49 51.6048 182.426 52.1746 182.33 52.6812C182.234 53.2194 182.074 53.6943 181.85 54.1058C181.626 54.5174 181.338 54.929 180.921 55.3089C180.537 55.6888 180.057 56.0054 179.48 56.322V57.0818C180.441 57.0818 181.306 56.9235 182.074 56.6386C182.843 56.3537 183.451 55.9104 183.963 55.3722C184.476 54.834 184.86 54.1692 185.148 53.441C185.404 52.6812 185.565 51.858 185.565 50.9399V30.7412H185.116C184.604 31.1211 184.188 31.4694 183.899 31.8176V31.8493Z" fill="#999999"/>
<path d="M179.8 30.7729C179.288 31.1529 178.872 31.5011 178.583 31.8494C178.295 32.1976 178.007 32.5142 177.751 32.8308C177.495 33.1474 177.239 33.464 176.95 33.8123C176.662 34.1288 176.278 34.4771 175.766 34.8254V35.3636C176.278 35.7751 176.63 36.2184 176.854 36.6616C177.078 37.1048 177.175 37.5481 177.175 37.928V48.3439H173.3V39.9542H172.852C172.339 40.3341 171.923 40.6823 171.635 41.0306C171.347 41.3788 171.059 41.6954 170.802 42.012C170.546 42.3286 170.29 42.6452 170.002 42.9935C169.714 43.3101 169.329 43.6583 168.817 44.0066V44.5448C169.329 44.9564 169.682 45.3996 169.906 45.8428C170.13 46.286 170.226 46.7293 170.226 47.1092V48.3439H168.081V40.524H167.632C167.12 40.904 166.704 41.2522 166.415 41.6005C166.127 41.9487 165.839 42.2653 165.583 42.5819C165.327 42.8985 165.071 43.2151 164.782 43.5633C164.494 43.8799 164.11 44.2282 163.598 44.5764V45.1147C164.11 45.5262 164.462 45.9695 164.686 46.4127C164.91 46.8559 165.006 47.2992 165.006 47.6791V48.3439H162.861V41.0939H162.413C161.9 41.4738 161.484 41.8221 161.196 42.1703C160.908 42.5186 160.62 42.8352 160.363 43.1518C160.107 43.4684 159.851 43.785 159.563 44.1332C159.275 44.4498 158.89 44.7981 158.378 45.1463V45.6845C158.89 46.0961 159.243 46.5393 159.467 46.9826C159.691 47.4258 159.787 47.869 159.787 48.2489V48.3439H155.688C155.816 47.9323 155.912 47.5208 155.912 47.0775C155.912 46.5077 155.784 45.9378 155.56 45.3996C155.336 44.8614 155.016 44.4181 154.632 44.0382C154.247 43.6583 153.767 43.3417 153.255 43.1201C152.71 42.8985 152.166 42.7719 151.558 42.7719H146.658V44.3232C146.658 44.3232 146.818 44.3232 146.882 44.4181C146.946 44.4815 147.011 44.5448 147.075 44.6081C147.139 44.6714 147.171 44.7664 147.171 44.8297C147.171 44.893 147.203 44.9564 147.203 44.988V47.0775C147.203 47.5208 147.299 47.9323 147.427 48.3439H145.506H143.84V46.8243C143.84 45.7478 143.424 44.8614 142.624 44.1332C141.855 43.4684 140.959 43.1201 139.902 43.1201C138.845 43.1201 137.949 43.5 137.212 44.2282C136.411 45.0197 136.027 46.0644 136.027 47.3941C136.027 48.5655 136.283 49.452 136.796 50.1168C137.436 50.94 138.461 51.3516 139.934 51.3516H141.055C141.055 52.7762 140.478 54.1376 139.293 55.3723C138.269 56.4804 137.052 57.2402 135.707 57.6518V57.9367H137.084C139.293 57.9367 141.023 57.2719 142.207 55.9422C143.296 54.7391 143.84 53.2511 143.84 51.3832H180.281V30.7729H179.832H179.8ZM139.902 48.3756C139.165 48.3756 138.781 47.9957 138.781 47.2675C138.781 46.5393 139.165 46.1594 139.902 46.1594C140.638 46.1594 141.023 46.5393 141.023 47.2675C141.023 47.9957 140.638 48.3756 139.902 48.3756ZM151.269 48.3756C150.533 48.3756 150.149 48.0273 150.149 47.2991C150.149 46.571 150.533 46.2227 151.269 46.2227C152.006 46.2227 152.358 46.571 152.358 47.2991C152.358 48.0273 152.006 48.3756 151.269 48.3756Z" fill="#999999"/>
<path d="M53.2192 1.67798C53.8596 1.67798 54.5 1.7413 55.1404 1.77296V20.9269C39.482 23.9029 27.6342 37.738 27.6342 54.4225C27.6342 55.6256 27.7302 56.8286 27.8263 58.0317C27.7623 58.0317 27.6982 58.0317 27.6342 58C22.5748 52.0481 19.4688 44.2915 19.4688 35.8068C19.4688 16.9695 34.5828 1.70964 53.2192 1.70964V1.67798Z" fill="url(#paint0_linear_1552_456997)"/>
<path d="M30.8359 57.335C30.8359 57.335 30.8359 57.0818 30.8359 56.9868C30.8359 41.4737 41.1148 28.3984 55.1401 24.251V28.2717C55.1401 48.0272 37.7525 55.2455 30.868 57.335H30.8359Z" fill="url(#paint1_linear_1552_456997)"/>
<path d="M27.5704 0.284912H42.1721C36.6325 2.05784 31.6371 5.1288 27.5704 9.11788C23.4717 5.1288 18.5084 2.05784 12.9688 0.284912H27.5704Z" fill="url(#paint2_linear_1552_456997)"/>
<path d="M25.4569 11.3658C21.07 16.4313 18.028 22.7315 16.9072 29.6332C12.2962 25.2326 6.50032 22.1299 0 20.8952V1.77296C0.640425 1.7413 1.28085 1.67798 1.92128 1.67798C11.0794 1.67798 19.3729 5.38213 25.4569 11.3658Z" fill="url(#paint3_linear_1552_456997)"/>
<path d="M16.3949 35.0785C16.3949 35.3001 16.3629 35.5217 16.3629 35.775C16.3629 43.3416 18.7004 50.7182 22.9272 56.8918C15.3702 54.3274 0 46.8558 0 28.2717V24.251C6.50032 26.1505 12.1361 29.9813 16.3949 35.0785Z" fill="url(#paint4_linear_1552_456997)"/>
</g>
<defs>
<linearGradient id="paint0_linear_1552_456997" x1="55.1404" y1="29.8548" x2="19.5008" y2="29.8548" gradientUnits="userSpaceOnUse">
<stop offset="0.36" stop-color="#144920"/>
<stop offset="1" stop-color="#3E9F2C"/>
</linearGradient>
<linearGradient id="paint1_linear_1552_456997" x1="55.1401" y1="40.8088" x2="30.8359" y2="40.8088" gradientUnits="userSpaceOnUse">
<stop offset="0.36" stop-color="#144920"/>
<stop offset="1" stop-color="#3E9F2C"/>
</linearGradient>
<linearGradient id="paint2_linear_1552_456997" x1="42.2042" y1="4.71723" x2="12.9687" y2="4.71723" gradientUnits="userSpaceOnUse">
<stop offset="0.36" stop-color="#144920"/>
<stop offset="1" stop-color="#3E9F2C"/>
</linearGradient>
<linearGradient id="paint3_linear_1552_456997" x1="25.4569" y1="15.6714" x2="0" y2="15.6714" gradientUnits="userSpaceOnUse">
<stop offset="0.36" stop-color="#144920"/>
<stop offset="1" stop-color="#3E9F2C"/>
</linearGradient>
<linearGradient id="paint4_linear_1552_456997" x1="22.9272" y1="40.5872" x2="0" y2="40.5872" gradientUnits="userSpaceOnUse">
<stop offset="0.36" stop-color="#144920"/>
<stop offset="1" stop-color="#3E9F2C"/>
</linearGradient>
<clipPath id="clip0_1552_456997">
<rect width="253" height="58" fill="white"/>
</clipPath>
</defs>
</svg>
