<svg width="299" height="68" viewBox="0 0 299 68" fill="none" xmlns="http://www.w3.org/2000/svg">
<g clip-path="url(#clip0_11089_6695)">
<path d="M106.756 13.0655C106.718 17 106.377 18.9672 105.318 21.0458C103.047 25.5371 98.8465 28.0611 93.4349 28.0611C85.1472 28.0611 79.0923 22.2336 79.0923 14.179C79.0923 6.12445 85.1851 0.0371094 93.6241 0.0371094C98.6951 0.0371094 102.782 2.22707 105.356 6.34715L100.663 8.79694C99.0357 6.12445 96.6516 4.82532 93.5863 4.82532C88.4017 4.82532 84.6174 8.79694 84.6174 14.179C84.6174 19.5611 88.4396 23.31 93.5484 23.31C97.4463 23.31 100.322 21.0458 100.739 17.631H94.3053V13.1026H106.794L106.756 13.0655Z" fill="#3EA02C"/>
<path d="M139.566 14.0306C139.566 21.9367 133.133 28.024 124.807 28.024C116.481 28.024 110.313 21.8625 110.313 13.8079C110.313 5.75328 116.86 -0.0371094 124.996 -0.0371094C133.132 -0.0371094 139.566 6.12446 139.566 13.9935V14.0306ZM115.838 13.9192C115.838 19.1157 119.887 23.2358 124.996 23.2358C130.105 23.2358 134.116 19.0786 134.116 13.9935C134.116 8.90831 130.067 4.78822 124.958 4.78822C119.85 4.78822 115.838 8.94542 115.838 13.9192Z" fill="#3EA02C"/>
<path d="M149.821 22.9016H158.222V27.43H144.485V0.59375H149.821V22.9016Z" fill="#3EA02C"/>
<path d="M167.267 5.15925V11.0981H175.82V15.6265H167.267V27.43H161.931V0.59375H176.425V5.15925H167.267Z" fill="#3EA02C"/>
<path d="M203.181 6.6812C201.742 5.12225 200.456 4.52836 198.753 4.52836C196.596 4.52836 194.893 5.8646 194.893 7.49779C194.893 8.94539 195.839 9.72487 199.018 10.8755C202.007 11.9519 203.256 12.5087 204.467 13.5851C206.057 14.9214 206.889 16.8515 206.889 19.227C206.889 24.4978 203.029 28.0611 197.391 28.0611C193.417 28.0611 190.465 26.465 188.005 22.9388L191.449 19.6725C192.698 21.9738 194.741 23.2358 197.201 23.2358C199.661 23.2358 201.44 21.6768 201.44 19.4498C201.44 18.3733 200.948 17.4454 199.964 16.7402C199.434 16.369 198.374 15.9236 196.142 15.1441C191.222 13.3624 189.406 11.4323 189.406 7.90609C189.406 3.41482 193.001 0.111328 197.92 0.111328C200.91 0.111328 203.672 1.11351 205.943 3.08076L203.143 6.64408L203.181 6.6812Z" fill="#3EA02C"/>
<path d="M216.388 21.714L213.928 27.393H208.251L220.134 0H224.146L235.612 27.393H229.898L227.552 21.714H216.35H216.388ZM222.102 7.83188L218.129 17.4825H225.924L222.102 7.83188Z" fill="#3EA02C"/>
<path d="M243.257 15.9235C243.257 18.6702 243.408 19.561 244.127 20.7117C245.035 22.2335 246.89 23.1986 248.933 23.1986C250.977 23.1986 252.831 22.2335 253.739 20.7117C254.421 19.561 254.61 18.6702 254.61 15.9235V0.556641H259.946V16.9628C259.946 20.1178 259.34 22.3077 257.94 24.1265C256.048 26.5392 252.68 27.9868 248.971 27.9868C245.263 27.9868 241.894 26.5392 240.002 24.1265C238.602 22.3077 237.997 20.1178 237.997 16.9628V0.556641H243.333V15.9235H243.257Z" fill="#3EA02C"/>
<path d="M266.189 0.556641H274.023C278.034 0.556641 281.251 1.55882 283.824 3.63743C286.89 6.08721 288.706 9.91035 288.706 13.9191C288.706 17.9278 286.852 21.7138 283.749 24.2379C281.138 26.4278 278.148 27.3186 273.985 27.3186H266.189V0.556641ZM272.963 22.8274C276.407 22.8274 278.564 22.1964 280.267 20.7117C282.121 19.1156 283.219 16.5173 283.219 13.9562C283.219 11.3951 282.121 8.87105 280.267 7.27498C278.489 5.71603 276.407 5.08502 272.963 5.08502H271.525V22.8274H272.963Z" fill="#3EA02C"/>
<path d="M298.962 27.3929H293.626V0.556641H298.962V27.3929Z" fill="#3EA02C"/>
<path d="M254.534 47.6594C254.534 47.6594 254.912 47.9564 255.139 48.0677C255.367 48.1791 255.594 48.2162 255.858 48.2162C256.123 48.2162 256.388 48.1791 256.615 48.0677C256.842 47.9564 257.032 47.845 257.221 47.6594C257.41 47.4738 257.524 47.2882 257.637 47.0655C257.751 46.8428 257.788 46.583 257.788 46.3232C257.788 46.0634 257.751 45.8406 257.637 45.6179C257.524 45.3952 257.41 45.2096 257.221 45.0241C257.069 44.8756 256.842 44.7271 256.615 44.6158C256.388 44.5044 256.123 44.4673 255.858 44.4673C255.329 44.4673 254.912 44.6529 254.534 45.0241C254.156 45.3952 253.966 45.8035 253.966 46.3232C253.966 46.583 254.004 46.8428 254.118 47.0655C254.231 47.2882 254.345 47.4738 254.534 47.6594Z" fill="#999999"/>
<path d="M270.466 36.5613C270.012 37.081 269.672 37.4893 269.445 37.7862C269.217 38.0832 268.801 38.4172 268.196 38.7884C268.006 38.8998 267.59 39.1225 266.947 39.5308V39.7906C267.477 40.0875 267.855 40.4587 268.12 40.9041C268.536 41.6836 268.763 42.9085 268.763 44.5417V56.7164H260.627C260.703 56.5308 260.741 56.2338 260.778 55.8998C260.816 55.5657 260.816 55.2316 260.816 54.9718C260.816 53.8212 260.324 52.7819 259.34 51.9281C258.356 51.0744 257.183 50.629 255.897 50.629C254.496 50.629 253.323 51.0744 252.377 51.9281C251.431 52.7819 250.939 53.8212 250.939 54.9718C250.939 55.2688 250.939 55.5657 250.977 55.8998C250.977 56.2338 251.053 56.5308 251.128 56.7164H238.754C237.467 56.7164 236.445 56.5308 235.65 56.1596C235.007 55.8626 234.439 55.3059 233.947 54.4522H233.683C233.38 55.0089 233.115 55.3801 232.964 55.6399C232.547 56.3081 232.131 56.8277 231.715 57.1989C230.655 58.164 230.087 58.6465 230.05 58.6836C229.368 59.2775 228.763 59.6858 228.271 59.9085V60.2797H272.018V35.2622H271.639C271.223 35.7076 270.845 36.153 270.428 36.5985L270.466 36.5613ZM255.897 56.6792C254.988 56.6792 254.534 56.2338 254.534 55.3801C254.534 54.5264 254.988 54.081 255.897 54.081C256.805 54.081 257.221 54.5264 257.221 55.3801C257.221 56.2338 256.767 56.6792 255.897 56.6792Z" fill="#999999"/>
<path d="M297.6 46.843C296.767 46.1378 295.708 45.8037 294.421 45.8037C293.21 45.8037 292.15 46.2862 291.28 47.2142C290.41 48.1421 289.955 49.3299 289.955 50.7033C289.955 51.9653 290.296 52.9675 290.977 53.7469C291.772 54.6007 292.907 55.0461 294.421 55.0461H295.708V55.3801C295.708 55.7513 295.594 56.0483 295.329 56.3081C295.064 56.5679 294.762 56.6793 294.383 56.6793H284.998V54.8976C284.998 53.6356 284.506 52.5592 283.56 51.7426C282.652 50.9631 281.592 50.5548 280.343 50.5548C279.094 50.5548 278.035 51.0002 277.164 51.8539C276.218 52.7819 275.764 54.0439 275.764 55.5657C275.764 56.9391 276.067 58.0155 276.672 58.795C277.429 59.76 278.678 60.2797 280.381 60.2797H281.706C281.706 61.9871 281.024 63.5461 279.624 64.9937C278.413 66.2928 276.975 67.1836 275.386 67.7033V68.0373H277.013C279.624 68.0373 281.668 67.2579 283.106 65.6989C284.392 64.2884 285.036 62.5068 285.036 60.3168H295.064C296.162 60.3168 297.07 59.9456 297.865 59.1662C298.659 58.3867 299.038 57.4958 299.038 56.4194V50.3692C299.038 48.8474 298.584 47.6967 297.638 46.9172L297.6 46.843ZM280.343 56.6793C279.473 56.6793 279.019 56.2338 279.019 55.3801C279.019 54.5264 279.473 54.081 280.343 54.081C281.214 54.081 281.668 54.5264 281.668 55.3801C281.668 56.2338 281.214 56.6793 280.343 56.6793ZM294.383 51.5941C293.513 51.5941 293.059 51.1487 293.059 50.295C293.059 49.4413 293.513 48.9958 294.383 48.9958C295.253 48.9958 295.708 49.4413 295.708 50.295C295.708 51.1487 295.253 51.5941 294.383 51.5941Z" fill="#999999"/>
<path d="M290.409 43.948C290.409 43.948 290.788 44.2449 291.015 44.3563C291.242 44.4677 291.469 44.5048 291.734 44.5048C291.999 44.5048 292.264 44.4677 292.491 44.3563C292.718 44.2449 292.907 44.1336 293.096 43.948C293.286 43.7624 293.399 43.5768 293.513 43.3541C293.626 43.1314 293.664 42.8716 293.664 42.6118C293.664 42.3519 293.626 42.1292 293.513 41.9065C293.399 41.6838 293.286 41.4982 293.096 41.3126C292.945 41.1642 292.718 41.0157 292.491 40.9043C292.264 40.793 291.999 40.7559 291.734 40.7559C291.204 40.7559 290.788 40.9415 290.409 41.3126C290.031 41.6838 289.842 42.0921 289.842 42.6118C289.842 42.8716 289.88 43.1314 289.993 43.3541C290.107 43.5768 290.22 43.7624 290.409 43.948Z" fill="#999999"/>
<path d="M294.989 43.948C294.989 43.948 295.367 44.2449 295.594 44.3563C295.821 44.4677 296.048 44.5048 296.313 44.5048C296.578 44.5048 296.843 44.4677 297.07 44.3563C297.297 44.2449 297.486 44.1336 297.675 43.948C297.865 43.7624 297.978 43.5768 298.092 43.3541C298.205 43.1314 298.243 42.8716 298.243 42.6118C298.243 42.3519 298.205 42.1292 298.092 41.9065C297.978 41.6838 297.865 41.4982 297.675 41.3126C297.524 41.1642 297.297 41.0157 297.07 40.9043C296.843 40.793 296.578 40.7559 296.313 40.7559C295.783 40.7559 295.367 40.9415 294.989 41.3126C294.61 41.6838 294.421 42.0921 294.421 42.6118C294.421 42.8716 294.459 43.1314 294.572 43.3541C294.686 43.5768 294.799 43.7624 294.989 43.948Z" fill="#999999"/>
<path d="M80.3035 44.3563C80.5306 44.4677 80.7576 44.5048 81.0225 44.5048C81.2874 44.5048 81.5523 44.4677 81.7794 44.3563C82.0065 44.2449 82.1957 44.1336 82.3849 43.948C82.5741 43.7624 82.6876 43.5768 82.8012 43.3541C82.9147 43.1314 82.9525 42.8716 82.9525 42.6118C82.9525 42.3519 82.9147 42.1292 82.8012 41.9065C82.6876 41.6838 82.5741 41.4982 82.3849 41.3126C82.2335 41.1642 82.0065 41.0157 81.7794 40.9043C81.5523 40.793 81.2874 40.7559 81.0225 40.7559C80.4927 40.7559 80.0765 40.9415 79.698 41.3126C79.3196 41.6838 79.1304 42.0921 79.1304 42.6118C79.1304 42.8716 79.1682 43.1314 79.2817 43.3541C79.3953 43.5768 79.5088 43.7624 79.698 43.948C79.8494 44.0965 80.0765 44.2449 80.3035 44.3563Z" fill="#999999"/>
<path d="M84.3147 43.9851C84.3147 43.9851 84.6932 44.2821 84.9202 44.3934C85.1473 44.5048 85.3743 44.5419 85.6392 44.5419C85.9041 44.5419 86.169 44.5048 86.3961 44.3934C86.6232 44.2821 86.8124 44.1707 87.0016 43.9851C87.1908 43.7995 87.3043 43.6139 87.4179 43.3912C87.5314 43.1685 87.5692 42.9087 87.5692 42.6489C87.5692 42.389 87.5314 42.1663 87.4179 41.9436C87.3043 41.7209 87.1908 41.5353 87.0016 41.3497C86.8502 41.2013 86.6232 41.0528 86.3961 40.9414C86.169 40.8301 85.9041 40.793 85.6392 40.793C85.1094 40.793 84.6932 40.9786 84.3147 41.3497C83.9363 41.7209 83.7471 42.1292 83.7471 42.6489C83.7471 42.9087 83.7849 43.1685 83.8984 43.3912C84.012 43.6139 84.1255 43.7995 84.3147 43.9851Z" fill="#999999"/>
<path d="M97.4464 62.6554C97.4464 62.6554 97.068 62.3585 96.8409 62.2471C96.6139 62.1358 96.349 62.0986 96.0841 62.0986C95.5543 62.0986 95.138 62.2842 94.7595 62.6554C94.3811 63.0266 94.1919 63.4349 94.1919 63.9545C94.1919 64.2144 94.2297 64.4742 94.3433 64.6969C94.4568 64.9196 94.5703 65.1052 94.7595 65.2908C94.9109 65.4392 95.138 65.5877 95.365 65.6991C95.5921 65.8104 95.8192 65.8475 96.0841 65.8475C96.349 65.8475 96.6139 65.8104 96.8409 65.6991C97.068 65.5877 97.2572 65.4764 97.4464 65.2908C97.5978 65.1423 97.7492 64.9196 97.8627 64.6969C97.9762 64.4742 98.0141 64.2144 98.0141 63.9545C98.0141 63.6947 97.9762 63.472 97.8627 63.2493C97.7492 63.0266 97.6356 62.841 97.4464 62.6554Z" fill="#999999"/>
<path d="M92.8297 62.6554C92.8297 62.6554 92.4513 62.3585 92.2242 62.2471C91.9972 62.1358 91.7323 62.0986 91.4674 62.0986C90.9376 62.0986 90.5213 62.2842 90.1428 62.6554C89.7644 63.0266 89.5752 63.4349 89.5752 63.9545C89.5752 64.2144 89.613 64.4742 89.7266 64.6969C89.8401 64.9196 89.9536 65.1052 90.1428 65.2908C90.2942 65.4392 90.5213 65.5877 90.7483 65.6991C90.9754 65.8104 91.2025 65.8475 91.4674 65.8475C91.7323 65.8475 91.9972 65.8104 92.2242 65.6991C92.4513 65.5877 92.6405 65.4764 92.8297 65.2908C92.9811 65.1423 93.1325 64.9196 93.246 64.6969C93.3595 64.4742 93.3974 64.2144 93.3974 63.9545C93.3974 63.6947 93.3595 63.472 93.246 63.2493C93.1325 63.0266 93.0189 62.841 92.8297 62.6554Z" fill="#999999"/>
<path d="M99.566 60.2426V46.8059H99.0362C98.4307 47.2513 97.9387 47.6596 97.5981 48.0679C97.2575 48.4762 96.917 48.8474 96.6142 49.2186C96.3115 49.5897 96.0087 49.9609 95.6681 50.3692C95.3275 50.7404 94.8734 51.1487 94.2679 51.557V52.188C94.8734 52.6705 95.2897 53.1902 95.5546 53.7098C95.8195 54.2295 95.933 54.7491 95.933 55.1945V56.6793H89.7267C89.8781 56.1967 89.9538 55.7142 89.9538 55.1945V43.688H89.424C88.8185 44.1334 88.3265 44.5417 87.9859 44.95C87.6453 45.3583 87.3047 45.7295 87.002 46.1007C86.6993 46.4718 86.3965 46.843 86.0559 47.2513C85.7153 47.6225 85.2612 48.0308 84.6557 48.4391V49.0701C85.1477 49.4413 85.4883 49.8496 85.7532 50.2579C85.4504 50.2207 85.1477 50.1836 84.8449 50.1836C84.1259 50.1836 83.4826 50.3321 82.8392 50.5919C82.2337 50.8517 81.6661 51.2229 81.212 51.6683C80.7579 52.1138 80.3794 52.6705 80.1145 53.2644C79.8496 53.8583 79.6982 54.5264 79.6982 55.2317V60.2797H99.6038L99.566 60.2426ZM84.6179 56.6793C83.5961 56.6793 83.0663 56.1967 83.0663 55.1945C83.0663 54.1924 83.5961 53.7098 84.6179 53.7098C85.6396 53.7098 86.1316 54.1924 86.1316 55.1945C86.1316 56.1967 85.6396 56.6793 84.6179 56.6793Z" fill="#999999"/>
<path d="M156.255 52.7819C155.839 52.3736 155.384 52.0767 154.817 51.854C154.287 51.6313 153.682 51.5199 153.076 51.5199H117.163C116.709 51.5199 116.179 51.4086 115.649 51.1487C115.119 50.8889 114.589 50.4806 114.097 49.8867H113.454C113.038 50.4806 112.659 50.926 112.243 51.2601C111.865 51.5941 111.486 51.9282 111.07 52.188C110.692 52.485 110.275 52.7819 109.897 53.1531C109.481 53.4872 109.064 53.9697 108.61 54.5636V55.0832H153.076C153.303 55.0832 153.492 55.1575 153.644 55.3059C153.795 55.4544 153.871 55.6771 153.871 55.8998V56.7164H109.973C109.518 56.7164 108.989 56.6051 108.459 56.3452C107.929 56.0854 107.399 55.6771 106.907 55.0832H106.264C105.848 55.6771 105.469 56.1225 105.053 56.4566C104.674 56.7907 104.296 57.1247 103.88 57.3845C103.463 57.6444 103.085 57.9784 102.707 58.3496C102.328 58.7208 101.874 59.1662 101.42 59.7601V60.2797H157.542V55.8998C157.542 55.3059 157.428 54.7492 157.201 54.1924C156.974 53.6727 156.633 53.1902 156.255 52.7819Z" fill="#999999"/>
<path d="M217.334 37.3406C216.994 37.7489 216.653 38.1201 216.35 38.4913C216.048 38.8625 215.745 39.2336 215.404 39.6419C215.064 40.0131 214.609 40.4214 214.004 40.8297V41.4607C214.609 41.9433 215.026 42.4629 215.291 42.9826C215.556 43.5022 215.669 44.0219 215.669 44.4673V59.7598C215.669 60.5022 215.593 61.1703 215.48 61.7642C215.366 62.3952 215.177 62.952 214.912 63.4345C214.647 63.9171 214.307 64.3996 213.815 64.845C213.361 65.2904 212.793 65.6616 212.112 66.0328V66.9236C213.247 66.9236 214.269 66.738 215.177 66.4039C216.085 66.0699 216.804 65.5502 217.41 64.9192C218.015 64.2882 218.469 63.5088 218.81 62.655C219.113 61.7642 219.302 60.7991 219.302 59.7227V36.0415H218.772C218.167 36.4869 217.675 36.8952 217.334 37.3035V37.3406Z" fill="#999999"/>
<path d="M212.49 36.0786C211.885 36.524 211.393 36.9323 211.052 37.3406C210.711 37.7489 210.371 38.1201 210.068 38.4913C209.765 38.8625 209.463 39.2336 209.122 39.6419C208.781 40.0131 208.327 40.4214 207.722 40.8297V41.4607C208.327 41.9432 208.744 42.4629 209.009 42.9825C209.273 43.5022 209.387 44.0218 209.387 44.4673V56.6791H204.808V46.8428H204.278C203.673 47.2882 203.181 47.6965 202.84 48.1048C202.499 48.5131 202.159 48.8843 201.856 49.2555C201.553 49.6267 201.251 49.9978 200.91 50.4061C200.569 50.7773 200.115 51.1856 199.51 51.5939V52.2249C200.115 52.7074 200.532 53.2271 200.797 53.7467C201.061 54.2664 201.175 54.786 201.175 55.2315V56.6791H198.639V47.5109H198.11C197.504 47.9563 197.012 48.3646 196.672 48.7729C196.331 49.1812 195.99 49.5524 195.688 49.9236C195.385 50.2948 195.082 50.666 194.742 51.0742C194.401 51.4454 193.947 51.8537 193.341 52.262V52.893C193.947 53.3756 194.363 53.8952 194.628 54.4149C194.893 54.9345 195.007 55.4542 195.007 55.8996V56.6791H192.471V48.179H191.941C191.336 48.6245 190.844 49.0328 190.503 49.4411C190.163 49.8494 189.822 50.2205 189.519 50.5917C189.216 50.9629 188.914 51.3341 188.573 51.7424C188.233 52.1135 187.778 52.5218 187.173 52.9301V53.5611C187.778 54.0437 188.195 54.5633 188.46 55.083C188.725 55.6026 188.838 56.1223 188.838 56.5677V56.6791H183.994C184.145 56.1965 184.259 55.714 184.259 55.1943C184.259 54.5262 184.108 53.8581 183.843 53.2271C183.578 52.5961 183.199 52.0764 182.745 51.631C182.291 51.1856 181.724 50.8144 181.118 50.5546C180.475 50.2948 179.831 50.1463 179.112 50.1463H173.322V51.9651C173.322 51.9651 173.512 51.9651 173.587 52.0764C173.663 52.1507 173.739 52.2249 173.814 52.2991C173.89 52.3734 173.928 52.4847 173.928 52.559C173.928 52.6332 173.966 52.7074 173.966 52.7446V55.1943C173.966 55.714 174.079 56.1965 174.231 56.6791H171.96H169.992V54.8974C169.992 53.6354 169.5 52.5961 168.554 51.7424C167.646 50.9629 166.586 50.5546 165.337 50.5546C164.089 50.5546 163.029 51 162.159 51.8537C161.212 52.7817 160.758 54.0066 160.758 55.5655C160.758 56.9389 161.061 57.9782 161.667 58.7577C162.423 59.7227 163.634 60.2052 165.375 60.2052H166.7C166.7 61.8756 166.019 63.4716 164.618 64.9192C163.407 66.2184 161.969 67.1092 160.38 67.5917V67.9258H162.007C164.618 67.9258 166.662 67.1463 168.062 65.5873C169.349 64.1769 169.992 62.4323 169.992 60.2424H213.058V36.0786H212.528H212.49ZM165.337 56.7162C164.467 56.7162 164.013 56.2708 164.013 55.417C164.013 54.5633 164.467 54.1179 165.337 54.1179C166.208 54.1179 166.662 54.5633 166.662 55.417C166.662 56.2708 166.208 56.7162 165.337 56.7162ZM178.772 56.7162C177.901 56.7162 177.447 56.3079 177.447 55.4542C177.447 54.6004 177.901 54.1922 178.772 54.1922C179.642 54.1922 180.058 54.6004 180.058 55.4542C180.058 56.3079 179.642 56.7162 178.772 56.7162Z" fill="#999999"/>
<path d="M62.8956 1.96729C63.6525 1.96729 64.4094 2.04152 65.1662 2.07864V24.535C46.6609 28.0241 32.6588 44.2446 32.6588 63.8057C32.6588 65.2162 32.7724 66.6267 32.8859 68.0372C32.8102 68.0372 32.7345 68.0372 32.6588 68C26.6796 61.0219 23.0088 51.928 23.0088 41.9804C23.0088 19.8952 40.8708 2.0044 62.8956 2.0044V1.96729Z" fill="url(#paint0_linear_11089_6695)"/>
<path d="M36.4429 67.2203C36.4429 67.2203 36.4429 66.9234 36.4429 66.812C36.4429 48.6243 48.5906 33.2946 65.1659 28.4321V33.1461C65.1659 56.3077 44.617 64.7706 36.4807 67.2203H36.4429Z" fill="url(#paint1_linear_11089_6695)"/>
<path d="M32.5832 0.333984H49.8398C43.2929 2.41259 37.3893 6.01303 32.5832 10.6899C27.7393 6.01303 21.8736 2.41259 15.3267 0.333984H32.5832Z" fill="url(#paint2_linear_11089_6695)"/>
<path d="M30.0854 13.3254C24.9009 19.2642 21.3058 26.6507 19.9813 34.7424C14.5318 29.583 7.68219 25.9454 0 24.4979V2.07864C0.756866 2.04152 1.51373 1.96729 2.2706 1.96729C13.0938 1.96729 22.8952 6.31008 30.0854 13.3254Z" fill="url(#paint3_linear_11089_6695)"/>
<path d="M19.3758 41.1265C19.3758 41.3863 19.3379 41.6461 19.3379 41.943C19.3379 50.8142 22.1005 59.4627 27.0958 66.7007C18.1648 63.6941 0 54.9343 0 33.1461V28.4321C7.68219 30.6592 14.3426 35.1505 19.3758 41.1265Z" fill="url(#paint4_linear_11089_6695)"/>
</g>
<defs>
<linearGradient id="paint0_linear_11089_6695" x1="65.1662" y1="35.0022" x2="23.0466" y2="35.0022" gradientUnits="userSpaceOnUse">
<stop offset="0.36" stop-color="#144920"/>
<stop offset="1" stop-color="#3E9F2C"/>
</linearGradient>
<linearGradient id="paint1_linear_11089_6695" x1="65.1659" y1="47.8448" x2="36.4429" y2="47.8448" gradientUnits="userSpaceOnUse">
<stop offset="0.36" stop-color="#144920"/>
<stop offset="1" stop-color="#3E9F2C"/>
</linearGradient>
<linearGradient id="paint2_linear_11089_6695" x1="49.8776" y1="5.53049" x2="15.3267" y2="5.53049" gradientUnits="userSpaceOnUse">
<stop offset="0.36" stop-color="#144920"/>
<stop offset="1" stop-color="#3E9F2C"/>
</linearGradient>
<linearGradient id="paint3_linear_11089_6695" x1="30.0854" y1="18.3734" x2="0" y2="18.3734" gradientUnits="userSpaceOnUse">
<stop offset="0.36" stop-color="#144920"/>
<stop offset="1" stop-color="#3E9F2C"/>
</linearGradient>
<linearGradient id="paint4_linear_11089_6695" x1="27.0958" y1="47.585" x2="0" y2="47.585" gradientUnits="userSpaceOnUse">
<stop offset="0.36" stop-color="#144920"/>
<stop offset="1" stop-color="#3E9F2C"/>
</linearGradient>
<clipPath id="clip0_11089_6695">
<rect width="299" height="68" fill="white"/>
</clipPath>
</defs>
</svg>
