<svg width="388" height="258" viewBox="0 0 388 258" fill="none" xmlns="http://www.w3.org/2000/svg">
<g clip-path="url(#clip0_1552_450994)">
<path d="M166.762 151.678C173.487 153.665 180.083 155.832 186.834 157.457V157.225L186.239 156.864C180.445 154.284 174.651 151.91 168.857 149.485C168.107 149.175 167.796 148.814 168.029 148.014C168.214 147.258 168.352 146.491 168.443 145.718C175.531 148.892 182.463 152.013 189.55 154.8L189.731 154.439L176.332 146.518L177.574 143.628L182.308 146.363C185.334 148.169 188.36 149.975 191.413 151.755C191.671 151.86 191.888 152.044 192.032 152.281C192.176 152.518 192.24 152.795 192.215 153.071C191.93 157.509 191.671 161.972 191.439 166.436C191.439 167.261 190.714 167.081 190.249 167.158C188.076 167.416 185.877 167.648 183.704 167.958C182.799 167.958 181.92 168.345 181.118 168.5C180.885 168.5 180.471 168.5 180.368 168.345C179.747 167.416 179.204 166.436 178.505 165.275L185.515 164.217V163.933L181.739 163.417L171.392 162.05C171.155 162.044 170.929 161.951 170.758 161.789C170.586 161.627 170.48 161.408 170.461 161.172C170.461 160.295 170.15 159.418 169.969 158.36L184.687 160.605V160.269C184.348 160.148 184.003 160.045 183.653 159.96C178.479 158.489 173.151 157.019 167.9 155.6C167.747 155.584 167.598 155.537 167.463 155.464C167.328 155.39 167.209 155.29 167.112 155.17C167.016 155.05 166.945 154.912 166.902 154.765C166.86 154.617 166.847 154.462 166.865 154.31C166.788 153.407 166.762 152.607 166.762 151.678Z" fill="#5BA44C"/>
<path d="M200.778 157.561L220.824 151.705C220.824 152.814 220.824 153.82 220.618 154.826C220.618 155.084 220.152 155.368 219.842 155.471L204.089 159.961L202.77 160.373V160.735L217.514 158.49C217.281 159.625 217.151 160.631 216.867 161.612C216.867 161.87 216.324 162.102 216.013 162.154C213.427 162.515 211.099 162.824 208.615 163.16L202.537 163.96C202.424 163.981 202.317 164.027 202.223 164.094C202.129 164.161 202.051 164.247 201.994 164.347L209.029 165.404C208.331 166.54 207.762 167.546 207.115 168.526C207.115 168.526 206.598 168.526 206.339 168.526C203.261 168.088 200.183 167.623 197.105 167.21C196.303 167.21 195.992 166.875 195.967 165.998C195.786 161.818 195.501 157.664 195.216 153.485C195.161 153.118 195.227 152.743 195.404 152.417C195.581 152.091 195.861 151.832 196.199 151.679C200.442 149.099 204.658 146.699 208.9 144.223C209.184 144.042 209.495 143.913 209.883 143.707C210.257 144.496 210.585 145.305 210.866 146.132C210.866 146.364 210.633 146.854 210.348 147.009C207.943 148.48 205.486 149.873 203.054 151.318C201.269 152.375 199.51 153.459 197.881 154.672C205.046 152.092 211.978 148.918 219.04 145.771C219.273 146.719 219.429 147.686 219.505 148.66C219.505 148.944 219.014 149.331 218.678 149.486L206.365 154.646L201.399 156.736C201.132 156.849 200.874 156.978 200.623 157.123L200.778 157.561Z" fill="#5BA44C"/>
<path d="M385.413 232.458C384.559 232.458 384.301 232.665 384.301 233.542C384.301 238.702 384.301 244.042 384.301 249.306V250.518C384.065 250.458 383.861 250.31 383.732 250.105C380.576 244.945 377.343 239.631 374.264 234.316C374.008 233.677 373.548 233.141 372.953 232.795C372.356 232.449 371.662 232.312 370.979 232.407C370.1 232.407 369.815 232.665 369.815 233.568C369.815 241.308 369.815 249.048 369.815 256.607C369.815 256.917 369.815 257.2 369.815 257.536H373.049V239.476C373.292 239.603 373.491 239.801 373.618 240.043C376.911 245.513 380.188 250.991 383.447 256.478C383.939 257.329 384.456 257.82 385.491 257.665C386.153 257.614 386.818 257.614 387.482 257.665V232.536C386.758 232.51 386.034 232.536 385.413 232.458Z" fill="#305743"/>
<path d="M363.426 237.901C363.346 236.587 362.852 235.332 362.017 234.313C361.181 233.294 360.046 232.564 358.77 232.225C357.074 231.788 355.294 231.788 353.597 232.225C352.216 232.482 350.964 233.208 350.059 234.281C349.153 235.353 348.649 236.705 348.631 238.107C348.501 242.777 348.631 247.473 348.631 252.143C348.631 253.156 348.931 254.146 349.492 254.99C350.053 255.834 350.853 256.495 351.786 256.89C352.723 257.313 353.68 257.683 354.658 257.999H357.503C357.839 257.999 358.15 257.767 358.486 257.69C359.934 257.478 361.256 256.749 362.208 255.639C363.16 254.529 363.675 253.113 363.659 251.652C363.789 249.408 363.659 247.137 363.659 244.867C363.659 242.597 363.582 240.223 363.426 237.901ZM353.882 254.336C353.245 254.082 352.702 253.644 352.319 253.078C351.936 252.513 351.732 251.845 351.735 251.162C351.735 247.137 351.735 243.113 351.735 239.088C351.686 238.353 351.869 237.622 352.265 237C352.661 236.378 353.245 235.898 353.933 235.631C354.735 235.288 355.612 235.153 356.479 235.239C357.348 235.325 358.181 235.628 358.9 236.121C359.352 236.496 359.709 236.971 359.942 237.509C360.175 238.047 360.278 238.632 360.245 239.217C360.245 241.203 360.245 243.164 360.245 245.151C360.245 246.905 360.245 248.685 360.245 250.311C360.278 251.072 360.11 251.829 359.756 252.505C359.402 253.181 358.877 253.751 358.23 254.159C357.586 254.568 356.843 254.799 356.08 254.83C355.317 254.861 354.559 254.69 353.882 254.336Z" fill="#305743"/>
<path d="M14.0973 244.893C12.6021 243.98 11.0366 243.186 9.41547 242.52C8.06295 241.916 6.74204 241.244 5.45787 240.507C5.06829 240.267 4.74979 239.927 4.53492 239.524C4.32004 239.12 4.21653 238.667 4.23494 238.21C4.25336 237.753 4.39306 237.31 4.63973 236.925C4.88642 236.54 5.23125 236.227 5.63893 236.018C6.1288 235.746 6.66297 235.563 7.2168 235.476C9.14832 235.196 11.1198 235.427 12.9333 236.147L13.9421 233.232C12.401 232.511 10.7254 232.12 9.02353 232.084C7.32161 232.049 5.63115 232.369 4.06107 233.025C3.05268 233.47 2.19154 234.19 1.57791 235.104C0.964283 236.018 0.6234 237.086 0.594933 238.185C0.51043 239.297 0.773488 240.408 1.3479 241.364C1.92231 242.32 2.77981 243.076 3.8024 243.526C5.2768 244.248 6.80293 244.842 8.27733 245.538C9.46505 246.042 10.6074 246.646 11.6917 247.344C12.4202 247.807 12.9829 248.489 13.2989 249.291C13.6149 250.093 13.668 250.974 13.4507 251.808C13.251 252.575 12.8182 253.263 12.2115 253.776C11.6049 254.288 10.8541 254.601 10.0621 254.672C9.37307 254.902 8.64304 254.985 7.91962 254.915C7.19624 254.846 6.49566 254.625 5.86358 254.267C5.23151 253.909 4.68213 253.423 4.25121 252.839C3.8203 252.255 3.51756 251.587 3.36267 250.879L0 251.214V252.143C0.430636 253.137 0.941003 254.095 1.52613 255.007C2.69634 256.518 4.415 257.509 6.31147 257.768L7.00987 258H10.3467C11.443 257.724 12.5156 257.362 13.5541 256.916C14.5941 256.316 15.4659 255.464 16.0894 254.439C16.7129 253.415 17.0681 252.25 17.1222 251.053C17.1763 249.855 16.9276 248.664 16.399 247.588C15.8704 246.511 15.0789 245.585 14.0973 244.893Z" fill="#305743"/>
<path d="M290.664 249.615C290.55 249.392 290.521 249.136 290.584 248.894C290.646 248.652 290.793 248.441 291 248.299C291.556 247.849 292.014 247.294 292.353 246.665C292.689 246.036 292.899 245.346 292.966 244.635C293.253 242.714 293.323 240.767 293.173 238.83C293.16 237.918 292.958 237.019 292.573 236.19C292.19 235.362 291.636 234.623 290.948 234.022C290.26 233.421 289.453 232.971 288.581 232.702C287.707 232.432 286.786 232.349 285.878 232.458C283.499 232.458 281.145 232.458 278.791 232.458C277.937 232.458 277.705 232.69 277.73 233.516C277.73 241.256 277.73 248.996 277.73 256.736C277.73 257.02 277.73 257.277 277.73 257.587H280.886V256.529C280.886 254.646 280.886 252.762 280.886 250.879C280.886 250.182 281.093 249.95 281.791 249.95C283.447 249.95 285.077 249.95 286.706 249.95C286.923 249.928 287.143 249.991 287.317 250.125C287.49 250.26 287.604 250.456 287.637 250.673C288.103 252.169 288.646 253.64 289.163 255.136C290.095 257.871 290.095 257.871 293.276 257.561L292.862 256.271C292.293 254.001 291.44 251.808 290.664 249.615ZM289.681 243.681C289.601 244.591 289.166 245.435 288.47 246.028C287.772 246.622 286.869 246.919 285.956 246.854C284.533 246.854 283.137 246.854 281.714 246.854C281.119 246.854 280.912 246.648 280.938 246.08C280.964 245.513 280.938 244.455 280.938 243.5V241.153C280.938 239.579 280.938 238.005 280.938 236.431C280.938 235.76 281.093 235.476 281.817 235.502C283.111 235.502 284.404 235.502 285.697 235.502C286.238 235.442 286.784 235.5 287.301 235.67C287.818 235.841 288.292 236.121 288.69 236.491C289.086 236.86 289.399 237.312 289.606 237.814C289.813 238.316 289.908 238.856 289.888 239.398C289.999 240.828 289.937 242.266 289.707 243.681H289.681Z" fill="#305743"/>
<path d="M71.238 232.407C69.2722 232.407 67.3322 232.407 65.3663 232.407H64.5127V257.51C67.4098 257.51 70.1775 257.51 72.9452 257.51C73.8221 257.594 74.707 257.483 75.536 257.186C76.3651 256.889 77.118 256.413 77.7409 255.792C78.3638 255.17 78.8413 254.419 79.1393 253.592C79.437 252.766 79.5477 251.883 79.4636 251.009C79.6706 247.345 79.593 243.681 79.4636 239.992C79.5001 238.932 79.3071 237.877 78.8979 236.898C78.4887 235.92 77.8728 235.04 77.0922 234.321C76.3118 233.601 75.3847 233.057 74.3744 232.727C73.3643 232.397 72.2944 232.287 71.238 232.407ZM76.2562 251.163C76.2562 253.253 75.0663 254.337 72.7124 254.569C71.1087 254.569 69.4532 254.569 67.7202 254.569C67.7202 254.182 67.7202 253.898 67.7202 253.614C67.7202 247.938 67.7202 242.262 67.7202 236.561C67.7202 235.812 67.8754 235.477 68.7031 235.529C69.9188 235.529 71.1604 235.529 72.3762 235.529C72.9013 235.521 73.4222 235.62 73.9075 235.82C74.393 236.019 74.8327 236.315 75.2003 236.689C75.5679 237.062 75.8557 237.507 76.0461 237.995C76.2365 238.483 76.3255 239.004 76.3079 239.528C76.3596 243.501 76.3338 247.319 76.2562 251.163Z" fill="#305743"/>
<path d="M245.735 232.484C243.148 232.33 240.561 232.484 238.181 232.484C238.061 232.476 237.94 232.476 237.819 232.484V257.433C240.975 257.433 244.053 257.588 247.131 257.433C247.895 257.423 248.65 257.261 249.35 256.955C250.05 256.65 250.682 256.207 251.208 255.654C251.733 255.101 252.142 254.448 252.411 253.734C252.679 253.021 252.802 252.261 252.77 251.499C252.925 247.526 252.951 243.553 252.77 239.605C252.781 238.676 252.606 237.754 252.258 236.892C251.909 236.03 251.393 235.245 250.739 234.584C250.085 233.922 249.306 233.395 248.447 233.035C247.588 232.675 246.666 232.488 245.735 232.484ZM249.64 250.957C249.675 251.434 249.606 251.914 249.439 252.363C249.272 252.811 249.011 253.22 248.673 253.559C248.335 253.899 247.928 254.163 247.479 254.332C247.03 254.502 246.55 254.574 246.071 254.543C244.441 254.698 242.786 254.543 241.053 254.543C241.053 254.182 241.053 253.898 241.053 253.64C241.053 247.939 241.053 242.263 241.053 236.561C241.053 235.813 241.234 235.477 242.061 235.529C242.889 235.58 244.441 235.529 245.631 235.529C246.189 235.528 246.741 235.646 247.25 235.874C247.759 236.103 248.214 236.437 248.583 236.855C248.953 237.272 249.229 237.763 249.393 238.295C249.558 238.827 249.607 239.388 249.537 239.941C249.64 243.553 249.615 247.268 249.563 250.957H249.64Z" fill="#305743"/>
<path d="M146.896 236.818C146.641 235.609 146.03 234.503 145.14 233.644C144.251 232.784 143.124 232.209 141.904 231.994C140.261 231.631 138.554 231.685 136.937 232.148C135.713 232.389 134.601 233.024 133.773 233.956C132.946 234.889 132.449 236.066 132.359 237.308C132.1 239.888 132.359 242.468 132.359 245.048H132.178C132.178 247.19 132.178 249.331 132.178 251.447C132.14 252.636 132.462 253.81 133.104 254.813C133.745 255.817 134.676 256.604 135.773 257.071C137.329 257.771 139.043 258.046 140.74 257.871C141.615 257.879 142.482 257.709 143.288 257.372C144.095 257.034 144.824 256.537 145.432 255.909C146.039 255.281 146.512 254.537 146.822 253.721C147.131 252.905 147.271 252.035 147.232 251.163C147.232 247.164 147.232 243.139 147.232 239.114C147.216 238.338 147.103 237.567 146.896 236.818ZM143.999 250.26C144.054 250.957 143.936 251.656 143.655 252.297C143.375 252.937 142.941 253.499 142.391 253.933C141.842 254.366 141.193 254.658 140.504 254.782C139.814 254.907 139.105 254.86 138.438 254.646C137.557 254.492 136.761 254.026 136.195 253.334C135.63 252.643 135.334 251.771 135.359 250.879C135.359 248.918 135.359 246.983 135.359 245.023C135.359 243.062 135.359 241.436 135.359 239.656C135.272 238.883 135.411 238.101 135.76 237.405C136.109 236.709 136.653 236.129 137.325 235.735C137.961 235.346 138.686 235.128 139.431 235.102C140.176 235.075 140.915 235.241 141.576 235.584C142.237 235.927 142.798 236.435 143.205 237.058C143.611 237.681 143.849 238.398 143.895 239.14C144.077 241.127 143.895 243.165 143.895 245.177C143.999 246.777 144.025 248.454 143.999 250.26Z" fill="#305743"/>
<path d="M31.3513 233.077C31.2683 232.916 31.1472 232.778 30.9982 232.674C30.8495 232.571 30.6777 232.505 30.4977 232.483C29.6182 232.483 28.7129 232.483 27.911 232.483C27.1092 232.483 26.954 232.664 26.7729 233.335C24.7294 241.075 22.6601 248.815 20.5907 256.555C20.5907 256.839 20.5907 257.122 20.4355 257.484C21.4185 257.484 22.2979 257.484 23.1774 257.484C24.0569 257.484 24.0051 257.484 24.1345 256.761C24.6001 254.8 25.1433 252.865 25.6347 250.905C25.6347 250.337 25.9969 250.053 26.6436 250.079C28.3766 250.079 30.1097 250.079 31.8169 250.079C31.9243 250.065 32.0334 250.072 32.1379 250.101C32.2424 250.13 32.3397 250.18 32.4243 250.247C32.5091 250.315 32.5789 250.398 32.6302 250.494C32.6814 250.589 32.7127 250.694 32.7222 250.801C33.0068 251.962 33.3172 253.098 33.6534 254.259C33.9897 255.42 33.9638 256.839 34.6881 257.277C35.4124 257.716 36.8609 257.432 37.999 257.458H38.1801C38.1801 257.303 38.1801 257.2 38.1801 257.071C35.8521 249.099 33.6276 241.075 31.3513 233.077ZM26.5918 246.777C27.3678 243.887 28.1438 241.049 28.9198 238.237H29.1785C30.0062 241.049 30.8081 243.861 31.7652 246.802L26.5918 246.777Z" fill="#305743"/>
<path d="M309.521 235.58C309.236 234.573 309.236 233.206 308.564 232.716C307.891 232.226 306.52 232.561 305.46 232.458C304.399 232.355 304.296 232.742 304.089 233.541C302.33 240.275 300.519 247.035 298.734 253.769C298.424 255.007 298.088 256.349 297.726 257.587C298.709 257.587 299.562 257.587 300.312 257.587C301.062 257.587 301.295 257.406 301.45 256.71C301.916 254.826 302.459 252.943 302.899 251.06C302.902 250.923 302.938 250.788 303 250.666C303.062 250.544 303.15 250.437 303.258 250.353C303.367 250.269 303.494 250.21 303.628 250.181C303.763 250.152 303.903 250.152 304.037 250.182C305.486 250.182 306.934 250.182 308.409 250.182C309.883 250.182 309.805 250.182 310.193 251.576C310.711 253.562 311.254 255.549 311.797 257.51H315.574C315.418 256.968 315.289 256.503 315.186 256.065L309.521 235.58ZM304.037 246.803C304.839 243.887 305.589 241.075 306.365 238.237H306.624C307.451 241.049 308.253 243.836 309.21 246.828L304.037 246.803Z" fill="#305743"/>
<path d="M57.2961 232.483H54.1662V233.592C54.1662 238.89 54.1662 244.17 54.1662 249.434C54.1755 250.187 54.106 250.939 53.9593 251.678C53.8072 252.576 53.3258 253.385 52.6085 253.948C51.8913 254.51 50.9895 254.787 50.0793 254.723C49.1789 254.877 48.2529 254.701 47.473 254.227C46.6928 253.752 46.1116 253.012 45.8372 252.143C45.5738 251.212 45.4518 250.246 45.475 249.279C45.475 244.119 45.475 238.778 45.475 233.515V232.38C44.5956 232.38 43.8713 232.38 43.147 232.38C42.4228 232.38 42.2676 232.56 42.2676 233.231C42.2676 239.32 42.2676 245.435 42.2676 251.523C42.2233 252.718 42.5565 253.897 43.2202 254.892C43.884 255.887 44.8447 256.649 45.9665 257.07C47.6871 257.8 49.5832 258.015 51.4244 257.69C52.2824 257.65 53.123 257.434 53.8939 257.056C54.6647 256.677 55.3491 256.145 55.9047 255.492C56.4603 254.838 56.8753 254.078 57.1236 253.257C57.3719 252.437 57.4482 251.575 57.3478 250.724V233.463C57.322 233.128 57.2961 232.793 57.2961 232.483Z" fill="#305743"/>
<path d="M125.996 246.777C124.107 246.777 122.193 246.777 120.124 246.777L121.159 249.925H123.202C123.464 250.705 123.444 251.552 123.147 252.32C122.849 253.088 122.292 253.728 121.573 254.13C120.913 254.599 120.132 254.867 119.324 254.902C118.515 254.937 117.714 254.738 117.016 254.329C116.318 253.92 115.755 253.317 115.393 252.596C115.031 251.873 114.886 251.062 114.977 250.26C114.977 246.682 114.977 243.096 114.977 239.502C114.977 236.457 116.27 235.141 119.374 235.219C120.555 235.304 121.729 235.459 122.892 235.683L123.797 233.103C122.262 232.262 120.53 231.844 118.779 231.89C117.854 231.797 116.92 231.908 116.043 232.213C115.166 232.519 114.366 233.012 113.701 233.659C113.035 234.306 112.519 235.09 112.19 235.957C111.861 236.823 111.726 237.751 111.795 238.676C111.795 242.804 111.795 246.932 111.795 251.034C111.752 252.534 112.251 254 113.201 255.165C114.15 256.33 115.487 257.116 116.968 257.381C119.043 257.974 121.268 257.743 123.176 256.736C123.641 257.093 124.191 257.321 124.773 257.398C125.354 257.475 125.945 257.398 126.487 257.174C126.487 256.917 126.487 256.633 126.487 256.375C126.487 253.279 126.487 250.208 126.487 247.112C126.487 247.112 126.177 246.777 125.996 246.777Z" fill="#305743"/>
<path d="M219.194 257.535H230.938V254.723H230.317H223.23C222.531 254.723 222.298 254.517 222.324 253.82C222.324 251.498 222.324 249.176 222.324 246.828C222.324 246.132 222.557 245.9 223.255 245.925C224.497 245.925 225.842 245.925 227.032 245.925L227.989 242.752H222.454C222.454 240.482 222.454 238.314 222.454 236.147C222.518 236.032 222.607 235.933 222.714 235.857C222.821 235.782 222.945 235.73 223.074 235.709C223.902 235.709 224.73 235.709 225.661 235.709H231.274V232.535H219.194V257.535Z" fill="#305743"/>
<path d="M270.565 232.483H259.262V257.561H271.083C271.083 257.045 271.083 256.632 271.083 256.194C271.083 254.491 271.29 254.697 269.583 254.697H262.469V245.925C263.84 245.925 265.056 245.925 266.427 245.925C266.66 245.925 267.073 245.77 267.151 245.564C267.487 244.713 267.72 243.81 268.031 242.752H262.443V235.631H271.16C271.16 234.702 271.16 233.851 271.16 233.051C271.132 232.907 271.059 232.776 270.953 232.675C270.847 232.573 270.713 232.506 270.565 232.483Z" fill="#305743"/>
<path d="M201.164 257.51H204.346V245.9C205.613 245.9 206.777 245.9 207.915 245.9C208.2 245.9 208.614 245.9 208.691 245.565C209.079 244.687 209.39 243.784 209.752 242.778H207.346C206.57 242.778 205.82 242.778 205.07 242.778C204.32 242.778 204.346 242.52 204.346 242.004C204.346 240.843 204.346 239.656 204.346 238.495C204.346 237.334 204.087 236.302 204.553 235.915C205.018 235.528 206.312 235.683 207.139 235.683C209.079 235.683 210.993 235.683 212.933 235.683V232.51H201.164V257.51Z" fill="#305743"/>
<path d="M182.982 232.329C179.594 232.329 176.231 232.329 172.868 232.329H171.963V255.136C171.963 257.432 171.963 257.406 174.265 257.406C174.963 257.406 175.17 257.174 175.17 256.477C175.17 253.278 175.17 250.053 175.17 246.854V245.667H178.818C179.102 245.667 179.516 245.512 179.594 245.332C179.982 244.48 180.266 243.603 180.628 242.571C178.999 242.571 177.55 242.571 176.102 242.571C175.351 242.571 175.144 242.313 175.17 241.591C175.17 239.836 175.17 238.056 175.17 236.431C175.17 235.734 175.377 235.502 176.076 235.502C177.964 235.502 179.878 235.502 181.766 235.502C183.655 235.502 183.965 235.502 183.991 233.257C183.965 232.535 183.655 232.329 182.982 232.329Z" fill="#305743"/>
<path d="M317.307 235.683H322.79V257.562H325.92V237.515C325.92 235.657 325.92 235.657 327.757 235.657H331.559V232.51H317.255L317.307 235.683Z" fill="#305743"/>
<path d="M166.4 254.543H157.501V232.355H154.346C154.346 232.665 154.346 232.871 154.346 233.077V256.555C154.346 257.252 154.553 257.484 155.251 257.484H165.184C167.357 257.484 167.331 257.484 167.305 255.343C167.227 254.698 166.995 254.543 166.4 254.543Z" fill="#305743"/>
<path d="M87.4807 232.458C85.6441 232.458 85.8511 232.148 85.8252 234.135C85.8252 235.477 85.8252 235.477 87.1185 235.528H88.1015V257.484H91.2831V232.458H87.4807Z" fill="#305743"/>
<path d="M341.88 233.077C341.699 232.845 341.492 232.483 341.285 232.483C339.862 232.483 338.439 232.483 337.043 232.483C336.908 232.502 336.779 232.554 336.67 232.636C336.562 232.717 336.476 232.824 336.422 232.948C336.422 233.748 336.422 234.573 336.422 235.399C336.73 235.419 337.043 235.419 337.353 235.399C338.698 235.399 338.698 235.399 338.698 236.818V257.458H341.88C341.88 257.097 341.88 256.813 341.88 256.529V233.309C341.88 233.309 341.957 233.154 341.88 233.077Z" fill="#305743"/>
<path d="M117.59 157.611V156.218H158.718V157.611H117.59Z" fill="#305743"/>
<path d="M228.766 157.587V156.193H269.893V157.587H228.766Z" fill="#305743"/>
<path d="M249.536 46.2852C250.328 46.3319 251.068 46.6892 251.597 47.279C252.125 47.8688 252.398 48.643 252.356 49.4328C252.366 49.802 252.302 50.1691 252.168 50.513C252.033 50.8569 251.831 51.1706 251.573 51.4351C251.315 51.6998 251.006 51.9101 250.665 52.0535C250.324 52.1972 249.958 52.271 249.588 52.2708C248.795 52.2486 248.039 51.9366 247.462 51.3943C246.885 50.8523 246.527 50.1175 246.458 49.3296C246.471 48.522 246.801 47.7516 247.376 47.1827C247.951 46.6138 248.726 46.2919 249.536 46.2852Z" fill="#5BA44C"/>
<path d="M40.0426 189.346C40.4748 189.346 40.8894 189.175 41.1949 188.87C41.5004 188.565 41.6722 188.152 41.6722 187.72C41.6722 187.289 41.5004 186.876 41.1949 186.571C40.8894 186.266 40.4748 186.095 40.0426 186.095C39.8154 186.07 39.5857 186.092 39.3674 186.158C39.1489 186.225 38.9463 186.335 38.772 186.482C38.5979 186.63 38.4554 186.811 38.3537 187.015C38.2521 187.219 38.1928 187.441 38.1802 187.669C38.1701 187.908 38.213 188.146 38.3056 188.366C38.3982 188.586 38.5384 188.784 38.7164 188.944C38.8943 189.104 39.1051 189.223 39.3346 189.292C39.5638 189.362 39.8056 189.38 40.0426 189.346Z" fill="#305743"/>
<path d="M263.271 183.18C262.521 183.152 261.773 183.231 261.046 183.412C260.865 183.412 260.736 184.109 260.736 184.47C260.736 190.49 260.736 196.51 260.736 202.53C260.762 202.994 260.762 203.459 260.736 203.924C260.581 205.11 260.167 205.6 259.003 205.652C257.52 205.755 256.034 205.755 254.553 205.652C253.907 205.546 253.286 205.328 252.716 205.007C252.422 204.89 252.174 204.681 252.011 204.411C251.847 204.14 251.777 203.824 251.811 203.51C251.811 200.75 251.811 197.964 251.811 195.203C251.811 194.894 251.811 194.3 251.578 194.274C250.849 194.17 250.108 194.17 249.379 194.274C249.172 194.274 248.991 195.074 248.991 195.487C248.991 198.067 248.991 200.389 248.991 202.84C249.056 203.24 249.026 203.649 248.903 204.035C248.78 204.421 248.568 204.773 248.283 205.062C247.998 205.351 247.65 205.569 247.265 205.698C246.88 205.827 246.47 205.865 246.068 205.807C244.99 205.672 243.936 205.385 242.938 204.956C242.654 204.856 242.414 204.658 242.262 204.398C242.111 204.138 242.057 203.832 242.111 203.536C242.111 201.885 242.111 200.208 242.111 198.531C242.111 197.422 242.111 197.37 240.636 197.37C239.162 197.37 239.291 197.37 239.291 198.531C239.291 200.079 239.291 201.601 239.291 203.149C239.292 203.808 239.041 204.442 238.589 204.921C238.137 205.401 237.519 205.69 236.86 205.729C236.136 205.812 235.403 205.747 234.704 205.539C234.006 205.33 233.358 204.983 232.799 204.517C232.578 204.308 232.448 204.021 232.436 203.717C232.436 202.117 232.436 200.518 232.436 198.918C232.436 197.319 232.436 197.267 230.755 197.241C229.85 197.241 229.539 197.576 229.565 198.454C229.565 199.898 229.565 201.343 229.565 202.788C229.602 203.148 229.562 203.511 229.448 203.855C229.334 204.198 229.15 204.514 228.906 204.782C228.662 205.049 228.364 205.263 228.032 205.408C227.7 205.554 227.341 205.628 226.979 205.626C224.107 205.626 221.211 205.626 218.314 205.368C217.513 205.228 216.731 204.994 215.985 204.672L216.968 203.846C218.548 202.633 219.787 201.033 220.564 199.202C220.836 198.672 220.98 198.086 220.983 197.491C220.986 196.895 220.849 196.307 220.582 195.775C220.315 195.242 219.926 194.779 219.446 194.425C218.967 194.07 218.41 193.833 217.822 193.732C217.27 193.581 216.708 193.469 216.14 193.397C213.435 193.19 210.713 193.399 208.07 194.016C205.484 194.48 206.027 194.016 205.484 196.777C205.496 196.957 205.546 197.133 205.63 197.293C205.715 197.453 205.832 197.594 205.975 197.705C206.622 198.196 207.501 198.454 207.993 199.047C209.26 200.544 210.347 202.195 211.588 203.898L210.45 204.388C206.738 205.54 202.844 205.995 198.965 205.729C198.422 205.729 198.344 205.42 198.344 204.981C198.344 203.459 198.344 201.911 198.344 200.363C198.443 199.048 198.089 197.738 197.341 196.65C196.594 195.562 195.497 194.761 194.231 194.377C192.548 193.847 190.742 193.847 189.058 194.377C188.208 194.623 187.425 195.056 186.766 195.646C186.108 196.236 185.591 196.966 185.256 197.783C184.644 199.313 184.448 200.977 184.687 202.608C184.69 204.033 185.22 205.407 186.174 206.468C187.128 207.529 188.44 208.203 189.86 208.361C191.173 208.521 192.495 208.589 193.818 208.567H194.775L194.956 208.851C194.385 209.731 193.717 210.545 192.964 211.276C191.633 212.211 190.251 213.072 188.825 213.856C188.36 214.14 187.894 214.398 188.308 214.992C188.722 215.585 188.774 216.772 189.938 216.179C191.679 215.311 193.357 214.319 194.956 213.211C195.956 212.538 196.723 211.574 197.154 210.451C197.723 208.542 198.887 208.361 200.569 208.439C204.787 208.776 209.024 208.076 212.907 206.4C213.061 206.362 213.22 206.356 213.376 206.383C213.532 206.409 213.681 206.468 213.813 206.555C215.219 207.602 216.899 208.22 218.65 208.335C221.624 208.516 224.625 208.568 227.625 208.542C228.338 208.542 229.042 208.378 229.679 208.06C230.317 207.741 230.872 207.279 231.298 206.71L231.686 206.4C232.275 207.114 233.019 207.685 233.861 208.069C234.704 208.453 235.623 208.642 236.549 208.619C237.481 208.684 238.415 208.515 239.264 208.128C240.114 207.74 240.852 207.146 241.412 206.4C242.002 207.112 242.746 207.682 243.588 208.066C244.431 208.451 245.349 208.639 246.275 208.619C247.197 208.688 248.12 208.52 248.958 208.131C249.796 207.743 250.52 207.147 251.06 206.4C251.428 206.989 251.928 207.485 252.52 207.847C253.113 208.21 253.782 208.43 254.475 208.49C256.326 208.619 258.185 208.619 260.038 208.49C260.501 208.505 260.961 208.424 261.393 208.252C261.822 208.08 262.213 207.821 262.539 207.492C262.865 207.162 263.118 206.769 263.284 206.337C263.449 205.905 263.524 205.443 263.504 204.981C263.504 197.963 263.504 190.946 263.504 183.954C263.504 183.645 263.348 183.18 263.271 183.18ZM195.422 202.711C195.473 203.493 195.473 204.277 195.422 205.059C195.374 205.208 195.291 205.343 195.178 205.451C195.065 205.559 194.926 205.637 194.775 205.678C193.492 205.768 192.204 205.768 190.92 205.678C190.498 205.681 190.08 205.601 189.689 205.441C189.298 205.282 188.944 205.046 188.645 204.748C188.347 204.451 188.11 204.097 187.95 203.707C187.79 203.317 187.71 202.9 187.713 202.479C187.648 201.826 187.648 201.17 187.713 200.518C187.779 199.835 188.018 199.179 188.408 198.614C188.797 198.048 189.324 197.59 189.939 197.283C190.555 196.976 191.238 196.83 191.926 196.859C192.613 196.888 193.282 197.09 193.869 197.448C194.405 197.78 194.842 198.25 195.133 198.808C195.424 199.366 195.56 199.993 195.525 200.621C195.473 201.24 195.422 201.989 195.422 202.711ZM209.519 196.622C211.758 196.105 214.078 196.026 216.347 196.39C217.899 196.751 218.339 197.861 217.537 199.254C216.663 200.637 215.465 201.789 214.045 202.608L209.519 196.622Z" fill="#305743"/>
<path d="M119.608 183.18C118.89 183.142 118.17 183.238 117.487 183.464C117.228 183.464 117.125 184.263 117.125 184.702C117.125 190.739 117.125 196.776 117.125 202.762C117.151 203.2 117.151 203.64 117.125 204.078C117.122 204.292 117.075 204.504 116.988 204.7C116.901 204.897 116.776 205.073 116.619 205.221C116.462 205.367 116.277 205.481 116.075 205.555C115.873 205.629 115.658 205.662 115.444 205.652C113.969 205.652 112.469 205.652 110.995 205.652C110.463 205.584 109.947 205.427 109.468 205.187C109.082 205.059 108.752 204.802 108.536 204.458C108.319 204.114 108.228 203.707 108.279 203.304C108.279 198.453 108.279 193.629 108.279 188.778C108.279 187.205 108.279 185.631 108.279 184.057C108.284 183.881 108.251 183.706 108.179 183.545C108.107 183.384 108 183.242 107.865 183.128C107.597 183.025 107.308 182.987 107.022 183.018C106.736 183.049 106.463 183.149 106.224 183.309C105.985 183.468 105.789 183.683 105.651 183.934C105.513 184.186 105.439 184.467 105.433 184.754C105.433 190.825 105.433 196.897 105.433 202.968C105.433 203.304 105.433 203.639 105.433 204C105.304 205.161 104.942 205.574 103.778 205.677C102.614 205.781 101.372 205.677 100.182 205.677C99.3951 205.778 98.5974 205.607 97.9202 205.194C97.2433 204.782 96.7272 204.151 96.4575 203.407C96.1134 202.67 95.8449 201.901 95.6556 201.111C95.3193 200.079 95.1383 199.021 94.7503 198.015C94.3483 196.809 93.6085 195.743 92.6183 194.943C91.6284 194.143 90.4292 193.642 89.1631 193.5C87.0024 193.152 84.7867 193.485 82.8257 194.454C81.1961 195.254 81.1961 195.383 82.0239 197.034C82.3084 197.576 82.5671 197.654 83.1361 197.396C84.0396 196.96 84.984 196.615 85.9556 196.364C86.6036 196.131 87.295 196.044 87.9807 196.107C88.6667 196.17 89.3302 196.383 89.9246 196.73C90.519 197.077 91.0299 197.55 91.4212 198.115C91.8126 198.68 92.0749 199.324 92.1895 200.001C92.5035 202.051 93.3015 203.996 94.5175 205.677H75.5831C75.5831 203.975 75.5831 202.349 75.5831 200.724C75.724 199.347 75.3844 197.963 74.6208 196.806C73.8572 195.65 72.717 194.792 71.3927 194.377C69.8926 193.978 68.314 193.978 66.8143 194.377C65.7392 194.598 64.7488 195.117 63.957 195.874C63.1652 196.632 62.6045 197.598 62.3393 198.66C62.0957 199.69 62.0085 200.751 62.0807 201.807C61.9976 202.71 62.1143 203.62 62.4226 204.473C62.7307 205.326 63.2229 206.101 63.8644 206.743C64.5059 207.385 65.2809 207.879 66.1347 208.19C66.9886 208.501 67.9004 208.621 68.806 208.541C69.6337 208.541 70.4615 208.541 71.3927 208.541C71.6596 208.528 71.9273 208.528 72.1945 208.541L72.4273 208.799C71.8451 209.733 71.1596 210.598 70.3839 211.379C69.0856 212.323 67.7292 213.185 66.3228 213.959C65.8831 214.217 65.3657 214.346 65.702 215.069C66.3487 216.41 66.6073 216.694 67.3833 216.281C69.0409 215.458 70.6474 214.536 72.1945 213.521C73.6087 212.588 74.6374 211.177 75.0916 209.547C75.3244 208.722 75.7641 208.593 76.5143 208.593H102.872C103.774 208.722 104.694 208.619 105.545 208.294C106.396 207.968 107.15 207.432 107.735 206.735C108.162 207.259 108.693 207.689 109.293 208C109.894 208.311 110.552 208.495 111.227 208.541C112.909 208.541 114.59 208.541 116.245 208.541C116.765 208.561 117.282 208.467 117.761 208.266C118.24 208.066 118.67 207.763 119.019 207.38C119.369 206.997 119.631 206.542 119.786 206.047C119.942 205.553 119.987 205.03 119.919 204.516V194.196C119.919 190.817 119.919 187.463 119.919 184.083C119.919 183.747 119.712 183.18 119.608 183.18ZM72.4273 205.497C71.9359 206.013 70.5908 205.677 69.6337 205.703C65.2364 205.858 64.3052 202.943 65.3399 199.227C65.6575 198.358 66.2912 197.639 67.1153 197.214C67.9395 196.789 68.8937 196.688 69.7889 196.931C70.6009 196.977 71.3645 197.332 71.9224 197.922C72.4803 198.513 72.7908 199.293 72.7895 200.105C72.7895 200.93 72.7895 201.782 72.7895 202.685H72.9188C72.7377 203.639 72.9705 204.955 72.4273 205.497Z" fill="#305743"/>
<path d="M56.9069 184.056C56.9069 183.747 56.7517 183.153 56.6482 183.153C55.9074 183.149 55.1689 183.235 54.4496 183.411C54.2426 183.411 54.1133 184.16 54.1133 184.573C54.1133 190.79 54.1133 197.008 54.1133 203.252C54.1133 205.084 53.5701 205.677 51.7853 205.832C49.4573 205.832 47.1034 205.832 44.7754 205.832C44.4539 205.797 44.1345 205.745 43.8184 205.677C44.756 204.592 45.6202 203.445 46.405 202.246C46.8039 201.594 47.0605 200.865 47.1572 200.107C47.254 199.35 47.1893 198.58 46.9669 197.849C46.7447 197.119 46.3701 196.443 45.8675 195.866C45.3649 195.29 44.7459 194.826 44.0512 194.506C42.8173 193.894 41.4583 193.576 40.0806 193.576C38.703 193.576 37.3439 193.894 36.1101 194.506C35.4236 194.796 34.8062 195.227 34.2971 195.77C33.7883 196.314 33.3993 196.958 33.1556 197.66C32.9117 198.363 32.8186 199.109 32.8819 199.85C32.9453 200.591 33.1639 201.31 33.5234 201.962C34.3382 203.2 35.2371 204.381 36.2136 205.496C35.7257 205.578 35.2332 205.629 34.7392 205.651H22.6335C21.9362 205.643 21.242 205.557 20.5642 205.393C19.548 205.293 18.6034 204.826 17.908 204.08C17.2126 203.334 16.8142 202.361 16.7876 201.343C16.6628 200.186 16.6024 199.023 16.6066 197.859C16.6066 196.234 16.6066 196.234 15.0028 196.26H14.6148C14.0458 196.26 13.7871 196.569 13.7871 197.137C13.7871 198.737 13.7871 200.362 13.7871 201.936C13.8161 203.337 14.3088 204.688 15.1884 205.78C16.068 206.872 17.2851 207.643 18.65 207.973C19.581 208.263 20.5466 208.428 21.5212 208.463C25.4788 208.463 29.4624 208.618 33.42 208.463C35.4823 208.256 37.5299 207.92 39.5504 207.457C39.8486 207.393 40.1572 207.393 40.4557 207.457C44.6575 208.645 49.0556 208.978 53.389 208.438C55.9757 208.438 57.0362 206.915 57.0362 204.309V193.293C56.9069 190.223 56.9069 187.127 56.9069 184.056ZM41.9042 203.355C39.9901 204.671 40.2746 204.774 38.2312 203.355C37.1779 202.642 36.3944 201.597 36.0066 200.388C35.8633 200.036 35.7912 199.659 35.7943 199.278C35.7974 198.898 35.8757 198.523 36.0247 198.173C36.1737 197.823 36.3905 197.506 36.6626 197.239C36.9347 196.973 37.2568 196.763 37.6104 196.621C38.3729 196.272 39.2025 196.09 40.0418 196.09C40.8812 196.09 41.7105 196.272 42.4733 196.621C43.0421 196.836 43.5299 197.222 43.8683 197.726C44.2069 198.23 44.3792 198.827 44.3616 199.433C44.2674 200.227 43.9981 200.991 43.5734 201.669C43.1484 202.347 42.5786 202.923 41.9042 203.355Z" fill="#305743"/>
<path d="M341.233 194.171C340.524 194.042 339.797 194.042 339.086 194.171C338.879 194.171 338.75 194.997 338.724 195.461C338.724 198.041 338.724 200.492 338.724 203.02C338.724 205.549 338.258 205.6 335.982 205.6C335.206 205.6 334.404 205.6 333.628 205.6C332.997 205.696 332.353 205.59 331.787 205.298C331.22 205.006 330.76 204.543 330.473 203.975C330.012 203.156 329.64 202.292 329.36 201.395C328.998 200.311 328.791 199.15 328.403 198.067C328.147 197.2 327.713 196.395 327.131 195.702C326.546 195.01 325.827 194.445 325.015 194.042C323.507 193.378 321.854 193.108 320.211 193.257C318.569 193.406 316.991 193.969 315.625 194.893C315.418 194.893 315.185 195.409 315.237 195.564C315.472 196.204 315.804 196.805 316.22 197.344C316.22 197.344 317.022 197.086 317.462 196.932C317.865 196.759 318.282 196.612 318.703 196.493C323.385 195.203 325.351 196.957 326.153 200.647C326.194 200.831 326.246 201.012 326.308 201.189C326.825 202.633 327.343 204.052 327.912 205.549H311.642C309.96 205.549 309.495 204.981 309.365 203.304C309.365 203.02 309.365 202.737 309.365 202.453V184.883C309.365 182.845 309.365 182.819 307.27 183.258C307.162 183.26 307.055 183.285 306.96 183.332C306.861 183.379 306.776 183.447 306.706 183.53C306.636 183.613 306.587 183.711 306.559 183.815C306.533 183.919 306.528 184.029 306.546 184.135C306.546 191.049 306.546 197.989 306.546 204.775C306.502 205.607 306.776 206.425 307.314 207.063C307.852 207.7 308.613 208.109 309.443 208.206C310.219 208.36 311.008 208.438 311.797 208.438H336.267C337.084 208.443 337.901 208.357 338.698 208.18C339.461 208.058 340.157 207.669 340.659 207.083C341.161 206.497 341.437 205.752 341.44 204.981C341.44 201.601 341.44 198.247 341.44 194.868C341.44 194.635 341.44 194.171 341.233 194.171Z" fill="#305743"/>
<path d="M159.726 194.481C157.237 193.051 154.29 192.635 151.501 193.32C150.243 193.533 149.084 194.133 148.185 195.034C147.286 195.936 146.69 197.095 146.482 198.351C146.202 199.59 146.344 200.889 146.888 202.039C147.432 203.189 148.345 204.124 149.483 204.697C150.13 205.11 150.802 205.471 151.449 205.807C152.096 206.142 153.311 206.736 154.217 207.277C155.122 207.819 156.182 208.464 156.105 209.857C156.027 211.251 154.967 211.741 153.958 212.283C153.683 212.424 153.398 212.545 153.104 212.644C151.397 212.979 149.716 213.444 147.931 213.624C145.104 214.035 142.218 213.678 139.576 212.592C138.64 212.233 137.828 211.61 137.241 210.799C136.653 209.989 136.314 209.025 136.265 208.026C136.125 206.135 136.51 204.242 137.377 202.556C137.765 201.73 137.584 201.343 136.808 201.06L136.291 200.853C135.644 200.492 135.179 200.647 134.92 201.318C134.48 202.556 133.911 203.898 133.601 205.033C133.23 206.147 133.101 207.327 133.222 208.495C133.343 209.663 133.712 210.792 134.304 211.807C134.896 212.822 135.697 213.7 136.655 214.382C137.614 215.065 138.706 215.536 139.861 215.766C141.952 216.228 144.068 216.573 146.198 216.798V216.643C147.44 216.643 148.785 216.488 149.949 216.307C152.545 216.085 155.018 215.107 157.062 213.495C157.689 213.046 158.194 212.448 158.531 211.755C158.867 211.062 159.025 210.296 158.989 209.527C158.953 208.758 158.724 208.01 158.325 207.351C157.925 206.692 157.366 206.144 156.7 205.755C156.094 205.354 155.464 204.992 154.812 204.672C153.518 203.949 152.225 203.33 150.932 202.556C150.295 202.218 149.787 201.683 149.484 201.031C149.18 200.379 149.098 199.646 149.25 198.944C149.385 198.212 149.747 197.542 150.286 197.028C150.825 196.513 151.512 196.182 152.251 196.08C154.43 195.637 156.695 195.956 158.666 196.983C158.976 197.138 159.545 197.293 159.597 197.215C160.013 196.673 160.328 196.062 160.528 195.409C160.58 195.151 160.088 194.687 159.726 194.481Z" fill="#305743"/>
<path d="M365.237 183.98C365.237 183.696 365.056 183.154 364.978 183.154C364.228 183.148 363.481 183.234 362.754 183.412C362.547 183.412 362.417 184.16 362.417 184.573C362.417 190.662 362.417 196.751 362.417 202.865C362.443 203.235 362.443 203.605 362.417 203.975C362.262 205.11 361.874 205.497 360.736 205.652H359.96C358.486 205.652 358.46 205.652 358.046 204.259C356.261 198.092 354.476 191.952 352.666 185.786C352.329 184.625 352.174 184.522 351.217 184.805C349.562 185.296 349.562 185.296 349.924 186.56C351.45 191.72 353.002 197.112 354.528 202.401C354.839 203.407 355.097 204.439 355.459 205.652H348.191C346.251 205.652 346.251 205.652 346.328 207.587C346.328 208.206 346.587 208.49 347.234 208.49C351.916 208.49 356.572 208.49 361.228 208.49C364.073 208.49 365.315 206.993 365.315 204.155V189.166C365.263 187.437 365.263 185.76 365.237 183.98Z" fill="#305743"/>
<path d="M175.013 193.784C172.46 193.194 169.806 193.194 167.253 193.784C166.296 193.99 166.141 194.403 166.296 195.77C166.296 196.647 167.072 196.389 167.615 196.415C169.607 196.415 171.624 196.415 173.642 196.415C174.513 196.44 175.342 196.791 175.965 197.398C176.588 198.005 176.96 198.824 177.005 199.692C177.16 200.932 177.212 202.184 177.16 203.433C177.16 205.007 176.617 205.523 175.065 205.652H165.235C163.89 205.652 163.864 205.652 163.864 207.045C163.877 207.165 163.877 207.286 163.864 207.406C163.864 208.257 164.201 208.515 164.977 208.515C166.787 208.515 168.572 208.515 170.383 208.515H174.909C175.701 208.509 176.489 208.422 177.263 208.257C178 208.097 178.659 207.69 179.13 207.102C179.601 206.515 179.855 205.784 179.85 205.032C179.85 203.149 179.85 201.266 179.85 199.382C179.807 198.038 179.303 196.749 178.423 195.731C177.543 194.712 176.339 194.025 175.013 193.784Z" fill="#305743"/>
<path d="M296.225 193.784C293.674 193.182 291.015 193.182 288.465 193.784C288.149 193.865 287.873 194.058 287.689 194.326C287.146 195.745 287.689 196.468 289.215 196.364C289.466 196.352 289.714 196.352 289.965 196.364C291.631 196.317 293.297 196.36 294.957 196.493C295.842 196.532 296.678 196.901 297.301 197.527C297.924 198.154 298.289 198.991 298.32 199.873C298.45 200.934 298.501 202.004 298.475 203.072C298.475 205.214 297.932 205.652 295.889 205.652H286.991C285.232 205.652 285.283 205.652 285.283 207.458C285.283 208.284 285.62 208.542 286.422 208.542C288.206 208.542 289.991 208.542 291.802 208.542H296.251C297.035 208.534 297.813 208.448 298.579 208.284C299.373 208.165 300.092 207.76 300.607 207.147C301.122 206.534 301.393 205.755 301.372 204.956C301.466 203.237 301.466 201.515 301.372 199.796C301.388 198.342 300.876 196.933 299.929 195.827C298.982 194.722 297.666 193.996 296.225 193.784Z" fill="#305743"/>
<path d="M271.6 183.18C271.336 183.065 271.047 183.014 270.76 183.03C270.47 183.046 270.191 183.128 269.94 183.271C269.689 183.414 269.474 183.613 269.314 183.852C269.153 184.091 269.05 184.365 269.014 184.651V207.277C269.014 208.515 269.014 208.619 270.566 208.619C272.118 208.619 271.911 208.619 271.911 207.277V184.212C271.919 183.844 271.81 183.483 271.6 183.18Z" fill="#305743"/>
<path d="M373.696 184.134C373.696 183.799 373.515 183.18 373.411 183.18C372.661 183.141 371.911 183.219 371.187 183.412C371.006 183.412 370.902 184.109 370.902 184.496C370.902 192.081 370.902 199.683 370.902 207.303C370.902 208.515 370.902 208.567 372.299 208.567C373.696 208.567 373.722 208.567 373.722 207.329C373.722 203.484 373.722 199.589 373.722 195.822C373.722 192.055 373.722 188.03 373.696 184.134Z" fill="#305743"/>
<path d="M144.31 220.513C144.081 220.496 143.85 220.525 143.633 220.6C143.415 220.674 143.216 220.793 143.046 220.948C142.876 221.102 142.74 221.29 142.646 221.499C142.552 221.709 142.502 221.935 142.499 222.165C142.506 222.384 142.556 222.599 142.647 222.799C142.738 222.998 142.868 223.178 143.03 223.327C143.191 223.475 143.38 223.591 143.587 223.666C143.793 223.741 144.013 223.774 144.232 223.764C144.46 223.785 144.691 223.76 144.91 223.691C145.128 223.621 145.33 223.508 145.504 223.359C145.678 223.209 145.82 223.027 145.921 222.822C146.023 222.616 146.082 222.393 146.094 222.165C146.099 221.935 146.055 221.707 145.965 221.496C145.876 221.285 145.742 221.095 145.574 220.94C145.405 220.783 145.205 220.665 144.987 220.591C144.77 220.518 144.539 220.491 144.31 220.513Z" fill="#305743"/>
<path d="M342.526 186.405C342.296 186.383 342.066 186.41 341.849 186.483C341.629 186.557 341.43 186.675 341.262 186.831C341.093 186.987 340.959 187.177 340.871 187.388C340.78 187.599 340.736 187.827 340.742 188.056C340.744 188.275 340.791 188.491 340.881 188.691C340.972 188.891 341.101 189.071 341.264 189.218C341.427 189.366 341.619 189.479 341.825 189.549C342.035 189.62 342.255 189.648 342.475 189.63C342.702 189.655 342.935 189.633 343.155 189.564C343.375 189.496 343.579 189.384 343.753 189.233C343.928 189.084 344.071 188.899 344.169 188.692C344.27 188.485 344.327 188.26 344.337 188.03C344.334 187.802 344.283 187.577 344.19 187.369C344.094 187.16 343.959 186.974 343.789 186.821C343.618 186.669 343.419 186.553 343.202 186.481C342.984 186.409 342.754 186.383 342.526 186.405Z" fill="#305743"/>
<path d="M87.0944 212.953C86.8649 212.939 86.6352 212.972 86.419 213.05C86.203 213.128 86.0051 213.249 85.838 213.406C85.6707 213.563 85.5375 213.753 85.4467 213.964C85.3556 214.174 85.3091 214.401 85.3096 214.63C85.3256 214.858 85.3877 215.082 85.4922 215.286C85.5967 215.49 85.7415 215.671 85.918 215.818C86.0941 215.965 86.2985 216.074 86.5183 216.141C86.7382 216.207 86.9694 216.228 87.1978 216.204C87.6301 216.204 88.0445 216.032 88.3499 215.728C88.6557 215.423 88.8274 215.009 88.8274 214.578C88.8274 214.147 88.6557 213.734 88.3499 213.429C88.0445 213.124 87.6301 212.953 87.1978 212.953H87.0944Z" fill="#305743"/>
<path d="M149.226 220.513C148.997 220.491 148.766 220.517 148.547 220.589C148.328 220.66 148.127 220.776 147.954 220.928C147.782 221.081 147.643 221.266 147.546 221.474C147.449 221.683 147.396 221.908 147.39 222.138C147.41 222.581 147.602 222.998 147.926 223.301C148.249 223.605 148.679 223.771 149.123 223.763C149.578 223.799 150.03 223.654 150.379 223.359C150.727 223.064 150.946 222.644 150.985 222.19C150.993 221.961 150.953 221.732 150.866 221.52C150.779 221.308 150.649 221.116 150.483 220.958C150.316 220.8 150.119 220.678 149.902 220.601C149.686 220.525 149.455 220.494 149.226 220.513Z" fill="#305743"/>
<path d="M337.689 189.63C337.919 189.644 338.149 189.611 338.367 189.531C338.584 189.451 338.781 189.327 338.946 189.167C339.112 189.007 339.241 188.813 339.329 188.6C339.414 188.386 339.456 188.157 339.448 187.927C339.401 187.487 339.189 187.081 338.85 186.793C338.514 186.505 338.08 186.357 337.637 186.379C337.407 186.365 337.177 186.398 336.962 186.476C336.745 186.554 336.548 186.675 336.38 186.832C336.212 186.99 336.08 187.179 335.99 187.39C335.899 187.6 335.853 187.827 335.853 188.056C335.853 188.285 335.904 188.511 336 188.719C336.096 188.927 336.235 189.111 336.411 189.261C336.585 189.41 336.789 189.52 337.009 189.584C337.231 189.648 337.461 189.663 337.689 189.63Z" fill="#305743"/>
<path d="M158.486 5.676C164.021 8.5656 169.531 11.3778 175.066 14.2416L199.174 26.5224L201.269 22.059L198.683 20.8722C186.939 14.8694 175.187 8.83219 163.426 2.7606C161.693 1.8576 159.986 0.9288 158.253 0H158.072C157.192 0.258 156.313 0.5676 155.485 0.7998C153.338 1.3416 151.165 1.8318 148.915 2.3736C149.303 4.0248 149.691 5.547 150.053 7.095C152.381 6.5274 154.528 6.0372 156.649 5.4954C156.952 5.40056 157.27 5.36766 157.586 5.3987C157.902 5.42974 158.208 5.52406 158.486 5.676Z" fill="#5BA44C"/>
<path d="M191.076 77.3992C191.222 72.1639 190.532 66.9386 189.033 61.9192C188.697 60.8872 188.257 59.9068 187.817 58.8232L183.472 61.042C184.041 63.0286 184.687 64.8862 185.075 66.7696C185.915 71.2346 186.305 75.7723 186.239 80.3146C186.239 87.3064 186.084 94.2724 185.981 101.264C185.981 107.043 185.8 112.797 185.722 118.576C185.722 120.253 185.722 121.93 185.722 123.607H190.895C190.895 121.027 190.895 118.447 190.895 116.022C190.818 103.199 191.025 90.2992 191.076 77.3992Z" fill="#305743"/>
<path d="M180.496 37.8747C180.476 35.4495 179.503 33.1288 177.786 31.4116C176.069 29.6941 173.745 28.717 171.314 28.6899C170.117 28.7266 168.939 28.999 167.848 29.4915C166.757 29.9841 165.774 30.6871 164.957 31.5599C164.14 32.433 163.503 33.4586 163.085 34.5778C162.666 35.697 162.474 36.8876 162.519 38.0811C162.449 40.3239 163.273 42.5033 164.809 44.1421C166.346 45.7812 168.47 46.7466 170.719 46.8273C173.2 46.9117 175.615 46.0208 177.444 44.3464C179.273 42.6717 180.369 40.3477 180.496 37.8747ZM167.563 38.2101C167.5 37.1389 167.843 36.0832 168.523 35.2519C169.203 34.4206 170.171 33.8742 171.236 33.7209C172.315 33.7264 173.351 34.1438 174.13 34.8876C174.91 35.6317 175.374 36.6454 175.427 37.7199C175.362 38.811 174.886 39.8371 174.094 40.593C173.303 41.349 172.254 41.7788 171.159 41.7963C170.682 41.8069 170.209 41.7215 169.766 41.5453C169.324 41.3691 168.922 41.1057 168.584 40.771C168.246 40.4362 167.979 40.0368 167.799 39.5969C167.619 39.157 167.53 38.6854 167.537 38.2101H167.563Z" fill="#305743"/>
<path d="M204.475 23.3492L200.983 21.9302L198.655 26.9096C198.617 27.0804 198.556 27.2452 198.474 27.3998C197.802 28.7672 197.155 30.1604 196.482 31.5536L196.146 32.2502C194.801 35.0624 193.559 37.8746 191.982 40.6352C190.722 42.8707 189.322 45.025 187.791 47.0852C187.494 47.5276 187.082 47.8814 186.599 48.1084C186.116 48.3357 185.581 48.4278 185.049 48.3752C182.721 48.3752 180.393 48.3752 178.065 48.3752C175.426 48.3378 172.801 48.7568 170.305 49.6136C168.937 50.0697 167.765 50.9781 166.985 52.1884C166.204 53.3987 165.86 54.8386 166.012 56.27C166.078 57.3969 166.305 58.5089 166.684 59.5724C167.382 61.4042 168.314 63.1586 169.09 64.9904C171.995 72.2059 173.74 79.8331 174.263 87.5912C174.713 91.7421 174.512 95.9375 173.668 100.027C173.52 100.773 173.095 101.437 172.478 101.884L155.613 114.991L152.121 117.726L155.199 121.725L162.959 115.842C167.486 112.282 172.013 108.696 176.565 105.161C177.484 104.441 178.131 103.431 178.402 102.297C179.471 98.1297 179.864 93.8177 179.566 89.5262C179.201 81.1479 177.525 72.8782 174.599 65.0162C173.72 62.72 172.53 60.527 171.625 58.2308C170.435 55.1864 171.004 54.1286 174.211 53.819C177.988 53.4836 181.79 53.432 185.593 53.3804C186.408 53.4585 187.231 53.3631 188.006 53.1007C188.782 52.8383 189.494 52.4149 190.093 51.8582C191.664 50.2725 193.084 48.5449 194.335 46.6982C198.4 40.0255 201.862 33.0061 204.682 25.7228L205.484 23.6846L204.475 23.3492Z" fill="#305743"/>
</g>
<defs>
<clipPath id="clip0_1552_450994">
<rect width="388" height="258" fill="white"/>
</clipPath>
</defs>
</svg>
