<svg width="164" height="109" viewBox="0 0 164 109" fill="none" xmlns="http://www.w3.org/2000/svg">
<g clip-path="url(#clip0_1552_456951)">
<path d="M70.4863 64.081C73.329 64.9203 76.117 65.8359 78.9706 66.5226V66.4245L78.7191 66.2719C76.2701 65.1819 73.821 64.1791 71.3719 63.1545C71.0549 63.0237 70.9237 62.8711 71.0221 62.5332C71.1 62.2137 71.1585 61.8898 71.197 61.5631C74.1927 62.9038 77.1229 64.2227 80.1186 65.3999L80.1951 65.2473L74.5317 61.901L75.0565 60.6802L77.0573 61.8356C78.3365 62.5986 79.6157 63.3616 80.9058 64.1137C81.0148 64.1577 81.1065 64.2355 81.1676 64.3357C81.2286 64.4359 81.2557 64.5529 81.2447 64.6696C81.1245 66.5444 81.0151 68.4301 80.9167 70.3158C80.9167 70.6646 80.6106 70.5883 80.4138 70.621C79.4954 70.73 78.5661 70.8281 77.6477 70.9589C77.265 70.9589 76.8933 71.1224 76.5543 71.1878C76.4559 71.1878 76.281 71.1878 76.2373 71.1224C75.9749 70.73 75.7453 70.3158 75.4501 69.8253L78.413 69.3784V69.2585L76.8167 69.0405L72.4434 68.4628C72.3435 68.4605 72.2479 68.4212 72.1753 68.3528C72.1026 68.2843 72.0579 68.1916 72.0498 68.0922C72.0498 67.7216 71.9186 67.351 71.8421 66.9041L78.0631 67.8524V67.7107C77.9198 67.6596 77.7738 67.6158 77.6258 67.5799C75.4391 66.9586 73.1869 66.3373 70.9674 65.7378C70.9027 65.731 70.8399 65.7115 70.7827 65.6803C70.7255 65.6493 70.6753 65.6071 70.6346 65.5564C70.5939 65.5057 70.5637 65.4474 70.5458 65.3851C70.5279 65.3226 70.5225 65.2573 70.5301 65.1928C70.4973 64.8113 70.4863 64.4734 70.4863 64.081Z" fill="#5BA44C"/>
<path d="M84.8646 66.5664L93.338 64.0921C93.338 64.5608 93.338 64.9859 93.2505 65.411C93.2505 65.52 93.0537 65.6399 92.9225 65.6835L86.2641 67.5801L85.7065 67.7545V67.9071L91.9385 66.9588C91.8401 67.4384 91.7854 67.8635 91.6652 68.2777C91.6652 68.3867 91.4356 68.4848 91.3044 68.5066C90.211 68.6592 89.227 68.79 88.1774 68.9317L85.6081 69.2696C85.5603 69.2788 85.5151 69.2982 85.4755 69.3264C85.4359 69.3547 85.4028 69.3911 85.3785 69.4331L88.3524 69.88C88.0572 70.3596 87.8166 70.7847 87.5433 71.1989C87.5433 71.1989 87.3246 71.1989 87.2153 71.1989C85.9142 71.0136 84.6132 70.8174 83.3121 70.643C82.9732 70.643 82.842 70.5013 82.831 70.1307C82.7545 68.3649 82.6342 66.61 82.514 64.8442C82.4905 64.6893 82.5184 64.531 82.5932 64.3932C82.6682 64.2555 82.7863 64.146 82.9294 64.0812C84.7225 62.9912 86.5046 61.9775 88.2977 60.9311C88.418 60.8548 88.5492 60.8003 88.7132 60.7131C88.8713 61.0465 89.01 61.3885 89.1286 61.7377C89.1286 61.8358 89.0302 62.0429 88.91 62.1083C87.8932 62.7296 86.8545 63.3182 85.8268 63.9286C85.0724 64.3755 84.3289 64.8333 83.6401 65.3456C86.6686 64.2556 89.5988 62.9149 92.5836 61.5851C92.6822 61.986 92.748 62.3944 92.7804 62.8059C92.7804 62.9258 92.5726 63.0893 92.4305 63.1547L87.2262 65.3347L85.127 66.2176C85.0145 66.2656 84.9051 66.3201 84.799 66.3811L84.8646 66.5664Z" fill="#5BA44C"/>
<path d="M162.907 98.2092C162.546 98.2092 162.437 98.2964 162.437 98.667C162.437 100.847 162.437 103.103 162.437 105.327V105.839C162.338 105.814 162.251 105.751 162.197 105.665C160.863 103.485 159.496 101.239 158.195 98.994C158.087 98.7239 157.892 98.4976 157.641 98.3514C157.388 98.2052 157.095 98.1474 156.806 98.1874C156.435 98.1874 156.314 98.2964 156.314 98.6779C156.314 101.948 156.314 105.218 156.314 108.412C156.314 108.542 156.314 108.662 156.314 108.804H157.681V101.174C157.784 101.228 157.868 101.311 157.922 101.414C159.313 103.725 160.699 106.039 162.076 108.357C162.284 108.717 162.503 108.924 162.94 108.859C163.22 108.837 163.501 108.837 163.782 108.859V98.2419C163.476 98.231 163.17 98.2419 162.907 98.2092Z" fill="#305743"/>
<path d="M153.614 100.509C153.58 99.9535 153.371 99.4231 153.018 98.9928C152.665 98.5624 152.185 98.2538 151.646 98.1106C150.929 97.926 150.177 97.926 149.459 98.1106C148.876 98.2189 148.346 98.5259 147.964 98.979C147.581 99.4321 147.368 100.003 147.36 100.596C147.306 102.569 147.36 104.552 147.36 106.525C147.36 106.953 147.487 107.372 147.724 107.728C147.962 108.085 148.299 108.364 148.694 108.531C149.09 108.71 149.494 108.866 149.908 109H151.11C151.253 109 151.384 108.902 151.526 108.869C152.138 108.779 152.697 108.471 153.099 108.003C153.501 107.534 153.719 106.935 153.712 106.318C153.767 105.37 153.712 104.411 153.712 103.452C153.712 102.492 153.68 101.49 153.614 100.509ZM149.58 107.452C149.311 107.345 149.081 107.16 148.919 106.921C148.758 106.682 148.671 106.4 148.672 106.111C148.672 104.411 148.672 102.71 148.672 101.01C148.651 100.7 148.729 100.391 148.896 100.128C149.064 99.865 149.311 99.6624 149.602 99.5494C149.941 99.4046 150.311 99.3477 150.677 99.3839C151.045 99.4201 151.397 99.5483 151.701 99.7565C151.892 99.9148 152.043 100.116 152.141 100.343C152.24 100.57 152.284 100.817 152.269 101.064C152.269 101.904 152.269 102.732 152.269 103.571C152.269 104.313 152.269 105.065 152.269 105.751C152.284 106.073 152.212 106.393 152.063 106.678C151.913 106.964 151.691 107.205 151.418 107.377C151.145 107.55 150.832 107.648 150.509 107.661C150.187 107.674 149.866 107.602 149.58 107.452Z" fill="#305743"/>
<path d="M5.95867 103.463C5.32668 103.077 4.66495 102.742 3.97973 102.46C3.40805 102.205 2.84973 101.921 2.30693 101.61C2.14227 101.508 2.00764 101.365 1.91682 101.194C1.826 101.024 1.78224 100.832 1.79003 100.639C1.79781 100.446 1.85686 100.259 1.96112 100.096C2.06539 99.9335 2.21115 99.8013 2.38347 99.7132C2.59052 99.5983 2.81631 99.5208 3.0504 99.4843C3.86681 99.3657 4.70014 99.4635 5.46667 99.7677L5.89307 98.536C5.24165 98.2313 4.53343 98.0662 3.81407 98.0512C3.0947 98.0362 2.38018 98.1716 1.71653 98.4488C1.29031 98.6365 0.92632 98.941 0.666952 99.327C0.407584 99.713 0.263499 100.164 0.251467 100.629C0.215749 101.098 0.326938 101.568 0.569731 101.972C0.812522 102.376 1.17497 102.695 1.6072 102.885C2.2304 103.19 2.87547 103.441 3.49867 103.735C4.00069 103.948 4.48353 104.203 4.94187 104.498C5.24979 104.694 5.4876 104.982 5.62119 105.321C5.75476 105.659 5.77722 106.032 5.68533 106.384C5.60095 106.708 5.418 106.999 5.16158 107.215C4.90517 107.432 4.58783 107.564 4.25307 107.594C3.96181 107.691 3.65324 107.726 3.34747 107.697C3.04171 107.667 2.74559 107.574 2.47842 107.423C2.21126 107.272 1.97904 107.066 1.7969 106.82C1.61477 106.573 1.4868 106.291 1.42133 105.992L0 106.133V106.526C0.182021 106.946 0.397744 107.35 0.645067 107.736C1.13969 108.374 1.86613 108.793 2.66773 108.902L2.96293 109H4.37333C4.83674 108.884 5.2901 108.731 5.72907 108.542C6.16863 108.288 6.53714 107.929 6.80069 107.496C7.06422 107.063 7.21434 106.571 7.2372 106.065C7.26007 105.559 7.15496 105.056 6.93154 104.601C6.70811 104.146 6.37356 103.755 5.95867 103.463Z" fill="#305743"/>
<path d="M122.858 105.458C122.81 105.363 122.798 105.255 122.824 105.153C122.85 105.051 122.913 104.961 123 104.902C123.235 104.712 123.429 104.477 123.572 104.211C123.714 103.945 123.803 103.654 123.831 103.354C123.953 102.542 123.982 101.719 123.919 100.901C123.913 100.516 123.828 100.136 123.665 99.7859C123.503 99.436 123.269 99.1238 122.978 98.87C122.688 98.616 122.346 98.4259 121.978 98.3121C121.608 98.1982 121.219 98.1631 120.835 98.209C119.83 98.209 118.835 98.209 117.84 98.209C117.479 98.209 117.38 98.3071 117.391 98.6559C117.391 101.926 117.391 105.196 117.391 108.466C117.391 108.586 117.391 108.695 117.391 108.826H118.725V108.379C118.725 107.583 118.725 106.787 118.725 105.992C118.725 105.697 118.813 105.599 119.108 105.599C119.808 105.599 120.496 105.599 121.185 105.599C121.277 105.59 121.37 105.616 121.443 105.673C121.517 105.73 121.565 105.813 121.579 105.904C121.776 106.537 122.005 107.158 122.224 107.79C122.618 108.946 122.618 108.946 123.962 108.815L123.787 108.27C123.547 107.311 123.186 106.384 122.858 105.458ZM122.443 102.951C122.409 103.335 122.225 103.691 121.931 103.942C121.636 104.193 121.254 104.318 120.868 104.291C120.267 104.291 119.676 104.291 119.075 104.291C118.824 104.291 118.736 104.204 118.747 103.964C118.758 103.724 118.747 103.278 118.747 102.874V101.882C118.747 101.217 118.747 100.553 118.747 99.8876C118.747 99.6042 118.813 99.4843 119.119 99.4952C119.666 99.4952 120.212 99.4952 120.759 99.4952C120.987 99.4699 121.218 99.4941 121.437 99.5662C121.655 99.6382 121.856 99.7565 122.024 99.9128C122.191 100.069 122.323 100.26 122.411 100.472C122.498 100.684 122.539 100.912 122.53 101.141C122.577 101.745 122.551 102.353 122.454 102.951H122.443Z" fill="#305743"/>
<path d="M30.1102 98.1873C29.2793 98.1873 28.4593 98.1873 27.6284 98.1873H27.2676V108.793C28.4921 108.793 29.662 108.793 30.8318 108.793C31.2025 108.828 31.5765 108.782 31.9269 108.656C32.2773 108.531 32.5956 108.329 32.8589 108.067C33.1222 107.804 33.324 107.487 33.4499 107.138C33.5758 106.788 33.6226 106.416 33.587 106.046C33.6745 104.498 33.6417 102.951 33.587 101.392C33.6025 100.944 33.5209 100.498 33.3479 100.085C33.175 99.6714 32.9146 99.3 32.5847 98.9959C32.2548 98.6917 31.863 98.4621 31.4359 98.3226C31.009 98.183 30.5568 98.1368 30.1102 98.1873ZM32.2313 106.112C32.2313 106.994 31.7284 107.452 30.7334 107.55C30.0556 107.55 29.3558 107.55 28.6233 107.55C28.6233 107.387 28.6233 107.267 28.6233 107.147C28.6233 104.749 28.6233 102.351 28.6233 99.9422C28.6233 99.6261 28.6889 99.4844 29.0388 99.5062C29.5526 99.5062 30.0774 99.5062 30.5913 99.5062C30.8133 99.503 31.0335 99.5449 31.2386 99.6291C31.4438 99.7134 31.6297 99.8383 31.785 99.9963C31.9404 100.154 32.0621 100.342 32.1425 100.548C32.223 100.754 32.2606 100.975 32.2532 101.196C32.275 102.874 32.2641 104.487 32.2313 106.112Z" fill="#305743"/>
<path d="M103.867 98.2202C102.774 98.1548 101.68 98.2202 100.675 98.2202C100.624 98.2166 100.572 98.2166 100.521 98.2202V108.761C101.855 108.761 103.156 108.826 104.457 108.761C104.78 108.756 105.099 108.688 105.395 108.559C105.691 108.43 105.958 108.243 106.18 108.009C106.403 107.775 106.576 107.499 106.689 107.198C106.802 106.896 106.854 106.575 106.841 106.254C106.907 104.575 106.917 102.896 106.841 101.229C106.845 100.836 106.772 100.446 106.624 100.082C106.477 99.7182 106.259 99.3867 105.982 99.1072C105.706 98.8275 105.377 98.6051 105.014 98.4529C104.651 98.3007 104.261 98.2216 103.867 98.2202ZM105.518 106.025C105.533 106.226 105.503 106.429 105.433 106.618C105.362 106.808 105.252 106.98 105.109 107.124C104.966 107.267 104.794 107.379 104.604 107.451C104.415 107.522 104.212 107.553 104.009 107.54C103.32 107.605 102.621 107.54 101.888 107.54C101.888 107.387 101.888 107.267 101.888 107.158C101.888 104.749 101.888 102.351 101.888 99.9424C101.888 99.6263 101.965 99.4846 102.315 99.5064C102.664 99.5282 103.32 99.5064 103.823 99.5064C104.059 99.5061 104.293 99.5559 104.508 99.6525C104.723 99.7491 104.915 99.8902 105.071 100.067C105.227 100.243 105.344 100.45 105.414 100.675C105.483 100.9 105.504 101.137 105.474 101.37C105.518 102.896 105.507 104.466 105.485 106.025H105.518Z" fill="#305743"/>
<path d="M62.0895 100.051C61.982 99.5403 61.7235 99.0732 61.3475 98.7099C60.9715 98.3467 60.495 98.104 59.9794 98.0128C59.2851 97.8598 58.5635 97.8823 57.8802 98.0783C57.3625 98.1797 56.8926 98.4481 56.5428 98.842C56.1932 99.2359 55.9831 99.7335 55.945 100.258C55.8357 101.348 55.945 102.438 55.945 103.528H55.8685C55.8685 104.433 55.8685 105.338 55.8685 106.231C55.8523 106.734 55.9886 107.23 56.2598 107.654C56.531 108.078 56.9243 108.41 57.3882 108.608C58.0457 108.903 58.7701 109.02 59.4874 108.946C59.8572 108.949 60.2237 108.877 60.5646 108.735C60.9056 108.592 61.2138 108.382 61.4706 108.117C61.7273 107.851 61.9273 107.537 62.0582 107.192C62.189 106.847 62.2481 106.48 62.2317 106.112C62.2317 104.422 62.2317 102.722 62.2317 101.021C62.2247 100.693 62.177 100.367 62.0895 100.051ZM60.865 105.73C60.8882 106.024 60.8383 106.32 60.7198 106.59C60.6013 106.861 60.4178 107.099 60.1855 107.282C59.9532 107.465 59.6792 107.588 59.3877 107.641C59.0963 107.693 58.7963 107.673 58.5143 107.583C58.142 107.518 57.8055 107.321 57.5666 107.029C57.3277 106.737 57.2023 106.368 57.2133 105.992C57.2133 105.163 57.2133 104.346 57.2133 103.517C57.2133 102.689 57.2133 102.002 57.2133 101.25C57.1763 100.923 57.2351 100.593 57.3826 100.299C57.5301 100.005 57.7599 99.7599 58.0442 99.5934C58.3127 99.4291 58.6193 99.337 58.9342 99.3259C59.2491 99.3146 59.5614 99.3849 59.8409 99.5298C60.1205 99.6746 60.3576 99.8891 60.5295 100.152C60.7012 100.416 60.8018 100.719 60.8213 101.032C60.8978 101.871 60.8213 102.733 60.8213 103.583C60.865 104.259 60.8759 104.967 60.865 105.73Z" fill="#305743"/>
<path d="M13.2526 98.4704C13.2175 98.4024 13.1663 98.3441 13.1033 98.3004C13.0404 98.2567 12.9678 98.229 12.8917 98.2197C12.52 98.2197 12.1373 98.2197 11.7984 98.2197C11.4595 98.2197 11.3939 98.296 11.3173 98.5794C10.4536 101.849 9.57894 105.119 8.70427 108.389C8.70427 108.509 8.70427 108.629 8.63867 108.782C9.05414 108.782 9.42587 108.782 9.79761 108.782C10.1693 108.782 10.1475 108.782 10.2021 108.477C10.3989 107.648 10.6285 106.831 10.8363 106.002C10.8363 105.763 10.9893 105.643 11.2627 105.654C11.9952 105.654 12.7277 105.654 13.4493 105.654C13.4947 105.647 13.5409 105.651 13.585 105.663C13.6292 105.675 13.6703 105.696 13.7061 105.724C13.7419 105.753 13.7714 105.788 13.7931 105.829C13.8147 105.869 13.828 105.913 13.832 105.959C13.9523 106.449 14.0835 106.929 14.2256 107.419C14.3677 107.91 14.3568 108.509 14.663 108.695C14.9691 108.88 15.5813 108.76 16.0624 108.771H16.1389C16.1389 108.706 16.1389 108.662 16.1389 108.607C15.1549 105.239 14.2147 101.849 13.2526 98.4704ZM11.2408 104.258C11.5688 103.038 11.8968 101.839 12.2248 100.65H12.3341C12.684 101.839 13.0229 103.027 13.4275 104.269L11.2408 104.258Z" fill="#305743"/>
<path d="M130.827 99.5279C130.707 99.1028 130.707 98.5251 130.423 98.318C130.139 98.1109 129.559 98.2526 129.111 98.209C128.663 98.1654 128.619 98.3289 128.531 98.6668C127.788 101.512 127.023 104.368 126.268 107.212C126.137 107.736 125.995 108.302 125.842 108.826C126.257 108.826 126.618 108.826 126.935 108.826C127.252 108.826 127.351 108.749 127.416 108.455C127.613 107.659 127.843 106.864 128.028 106.068C128.03 106.01 128.045 105.953 128.071 105.902C128.097 105.85 128.135 105.805 128.18 105.769C128.226 105.734 128.28 105.709 128.337 105.697C128.394 105.684 128.453 105.684 128.51 105.697C129.122 105.697 129.734 105.697 130.357 105.697C130.98 105.697 130.948 105.697 131.112 106.286C131.33 107.125 131.56 107.965 131.79 108.793H133.386C133.32 108.564 133.266 108.368 133.222 108.183L130.827 99.5279ZM128.51 104.269C128.848 103.038 129.166 101.85 129.494 100.651H129.603C129.953 101.839 130.292 103.016 130.696 104.28L128.51 104.269Z" fill="#305743"/>
<path d="M24.2172 98.2196H22.8943V98.6883C22.8943 100.927 22.8943 103.157 22.8943 105.381C22.8982 105.699 22.8688 106.017 22.8068 106.329C22.7425 106.708 22.539 107.05 22.2359 107.288C21.9327 107.526 21.5515 107.642 21.1668 107.615C20.7862 107.681 20.3948 107.606 20.0652 107.406C19.7354 107.205 19.4897 106.893 19.3737 106.525C19.2624 106.132 19.2108 105.724 19.2207 105.316C19.2207 103.136 19.2207 100.879 19.2207 98.6556V98.176C18.8489 98.176 18.5428 98.176 18.2367 98.176C17.9305 98.176 17.8649 98.2523 17.8649 98.5357C17.8649 101.108 17.8649 103.691 17.8649 106.264C17.8462 106.769 17.9871 107.266 18.2676 107.687C18.5482 108.107 18.9542 108.429 19.4284 108.607C20.1557 108.916 20.9571 109.006 21.7353 108.869C22.098 108.852 22.4533 108.761 22.7791 108.601C23.1049 108.441 23.3942 108.216 23.6291 107.94C23.8639 107.664 24.0393 107.343 24.1443 106.996C24.2492 106.65 24.2815 106.285 24.2391 105.926V98.6338C24.2281 98.4921 24.2172 98.3504 24.2172 98.2196Z" fill="#305743"/>
<path d="M53.2559 104.259C52.4578 104.259 51.6487 104.259 50.7741 104.259L51.2114 105.588H52.0751C52.1858 105.918 52.1775 106.276 52.0517 106.601C51.926 106.925 51.6906 107.195 51.3863 107.365C51.1076 107.563 50.7776 107.676 50.4358 107.691C50.094 107.706 49.7553 107.622 49.4604 107.449C49.1655 107.276 48.9272 107.022 48.7742 106.717C48.6213 106.412 48.5602 106.069 48.5983 105.73C48.5983 104.219 48.5983 102.704 48.5983 101.185C48.5983 99.8987 49.145 99.3428 50.457 99.3755C50.9561 99.4114 51.4526 99.4769 51.9439 99.5717L52.3266 98.4817C51.6776 98.1264 50.9456 97.9496 50.2055 97.9694C49.8147 97.93 49.42 97.9766 49.0491 98.1057C48.6784 98.2348 48.3403 98.4432 48.059 98.7165C47.7777 98.9897 47.5597 99.3211 47.4206 99.6872C47.2814 100.053 47.2243 100.446 47.2535 100.836C47.2535 102.58 47.2535 104.324 47.2535 106.057C47.2356 106.691 47.4465 107.31 47.8477 107.802C48.249 108.294 48.814 108.627 49.4402 108.739C50.3173 108.989 51.2576 108.891 52.0642 108.466C52.2606 108.617 52.4932 108.713 52.739 108.746C52.9847 108.778 53.2346 108.746 53.4637 108.651C53.4637 108.542 53.4637 108.422 53.4637 108.313C53.4637 107.005 53.4637 105.708 53.4637 104.4C53.4637 104.4 53.3325 104.259 53.2559 104.259Z" fill="#305743"/>
<path d="M92.6484 108.804H97.6122V107.616H97.3498H94.354C94.0588 107.616 93.9604 107.528 93.9714 107.234C93.9714 106.253 93.9714 105.272 93.9714 104.28C93.9714 103.986 94.0698 103.888 94.365 103.899C94.8898 103.899 95.4583 103.899 95.9612 103.899L96.3658 102.558H94.026C94.026 101.599 94.026 100.683 94.026 99.7677C94.0532 99.7192 94.0908 99.6773 94.1361 99.6453C94.1815 99.6133 94.2337 99.5917 94.2884 99.5824C94.6383 99.5824 94.9882 99.5824 95.3818 99.5824H97.7543V98.2417H92.6484V108.804Z" fill="#305743"/>
<path d="M114.362 98.2197H109.584V108.815H114.581C114.581 108.597 114.581 108.422 114.581 108.237C114.581 107.517 114.668 107.605 113.946 107.605H110.94V103.899C111.519 103.899 112.033 103.899 112.613 103.899C112.711 103.899 112.886 103.833 112.919 103.746C113.061 103.386 113.159 103.005 113.29 102.558H110.929V99.5495H114.613C114.613 99.1571 114.613 98.7974 114.613 98.4595C114.601 98.3988 114.571 98.3433 114.526 98.3005C114.481 98.2577 114.424 98.2294 114.362 98.2197Z" fill="#305743"/>
<path d="M85.0273 108.793H86.3721V103.888C86.9079 103.888 87.3999 103.888 87.8809 103.888C88.0012 103.888 88.1761 103.888 88.2089 103.746C88.3729 103.376 88.5041 102.994 88.6572 102.569H87.6404C87.3124 102.569 86.9953 102.569 86.6783 102.569C86.3612 102.569 86.3721 102.46 86.3721 102.242C86.3721 101.752 86.3721 101.25 86.3721 100.76C86.3721 100.269 86.2628 99.8333 86.4596 99.6698C86.6564 99.5063 87.2031 99.5717 87.5529 99.5717C88.3729 99.5717 89.182 99.5717 90.002 99.5717V98.231H85.0273V108.793Z" fill="#305743"/>
<path d="M77.3431 98.1543C75.9109 98.1543 74.4895 98.1543 73.0682 98.1543H72.6855V107.79C72.6855 108.76 72.6855 108.749 73.6586 108.749C73.9538 108.749 74.0413 108.651 74.0413 108.357C74.0413 107.005 74.0413 105.643 74.0413 104.291V103.79H75.5829C75.7031 103.79 75.8781 103.724 75.9109 103.648C76.0749 103.288 76.1951 102.918 76.3482 102.482C75.6594 102.482 75.0471 102.482 74.4349 102.482C74.1178 102.482 74.0303 102.373 74.0413 102.067C74.0413 101.326 74.0413 100.574 74.0413 99.8874C74.0413 99.5931 74.1288 99.495 74.424 99.495C75.2221 99.495 76.0311 99.495 76.8293 99.495C77.6274 99.495 77.7586 99.495 77.7695 98.5467C77.7586 98.2415 77.6274 98.1543 77.3431 98.1543Z" fill="#305743"/>
<path d="M134.12 99.5717H136.437V108.815H137.76V100.346C137.76 99.5608 137.76 99.5608 138.537 99.5608H140.144V98.231H134.098L134.12 99.5717Z" fill="#305743"/>
<path d="M70.3332 107.54H66.5721V98.1655H65.2383C65.2383 98.2963 65.2383 98.3835 65.2383 98.4707V108.39C65.2383 108.684 65.3258 108.782 65.621 108.782H69.8194C70.7378 108.782 70.7268 108.782 70.7159 107.877C70.6831 107.605 70.5847 107.54 70.3332 107.54Z" fill="#305743"/>
<path d="M36.9771 98.209C36.2008 98.209 36.2883 98.0782 36.2773 98.9175C36.2773 99.4843 36.2773 99.4843 36.824 99.5061H37.2395V108.782H38.5843V98.209H36.9771Z" fill="#305743"/>
<path d="M144.506 98.4704C144.43 98.3723 144.342 98.2197 144.255 98.2197C143.653 98.2197 143.052 98.2197 142.462 98.2197C142.405 98.2276 142.35 98.2497 142.304 98.284C142.258 98.3184 142.222 98.3637 142.199 98.4159C142.199 98.7538 142.199 99.1026 142.199 99.4514C142.329 99.4598 142.462 99.4598 142.593 99.4514C143.161 99.4514 143.161 99.4514 143.161 100.051V108.771H144.506C144.506 108.618 144.506 108.498 144.506 108.379V98.5685C144.506 98.5685 144.539 98.5031 144.506 98.4704Z" fill="#305743"/>
<path d="M49.7031 66.5879V65.9993H67.0871V66.5879H49.7031Z" fill="#305743"/>
<path d="M96.6953 66.5771V65.9885H114.079V66.5771H96.6953Z" fill="#305743"/>
<path d="M105.475 19.5544C105.809 19.5742 106.123 19.7251 106.346 19.9743C106.569 20.2235 106.685 20.5506 106.667 20.8842C106.671 21.0402 106.644 21.1953 106.587 21.3406C106.53 21.4859 106.445 21.6185 106.336 21.7302C106.227 21.842 106.096 21.9309 105.952 21.9915C105.808 22.0522 105.653 22.0834 105.497 22.0832C105.162 22.0739 104.842 21.9421 104.598 21.713C104.354 21.484 104.203 21.1735 104.174 20.8406C104.18 20.4995 104.319 20.174 104.562 19.9337C104.805 19.6933 105.133 19.5573 105.475 19.5544Z" fill="#5BA44C"/>
<path d="M16.9245 79.9951C17.1072 79.9951 17.2825 79.9227 17.4116 79.7939C17.5407 79.6652 17.6133 79.4905 17.6133 79.3084C17.6133 79.1263 17.5407 78.9515 17.4116 78.8228C17.2825 78.694 17.1072 78.6217 16.9245 78.6217C16.8285 78.6111 16.7314 78.6203 16.6392 78.6484C16.5468 78.6765 16.4612 78.7232 16.3875 78.7853C16.3139 78.8475 16.2537 78.9241 16.2107 79.0103C16.1677 79.0965 16.1427 79.1905 16.1373 79.2866C16.1331 79.3874 16.1512 79.488 16.1904 79.5811C16.2295 79.6742 16.2888 79.7576 16.364 79.8252C16.4392 79.8929 16.5283 79.9432 16.6253 79.9725C16.7222 80.0019 16.8244 80.0096 16.9245 79.9951Z" fill="#305743"/>
<path d="M111.279 77.3903C110.962 77.3785 110.646 77.4115 110.339 77.4883C110.262 77.4883 110.208 77.7827 110.208 77.9353C110.208 80.4786 110.208 83.0219 110.208 85.5653C110.219 85.7612 110.219 85.9578 110.208 86.1539C110.142 86.6553 109.967 86.8624 109.475 86.8842C108.849 86.9278 108.22 86.9278 107.594 86.8842C107.321 86.8393 107.059 86.747 106.818 86.6117C106.694 86.5624 106.589 86.4739 106.52 86.3598C106.451 86.2455 106.421 86.112 106.435 85.9794C106.435 84.813 106.435 83.636 106.435 82.4697C106.435 82.3389 106.435 82.0882 106.337 82.0773C106.029 82.0332 105.716 82.0332 105.408 82.0773C105.32 82.0773 105.244 82.4151 105.244 82.5895C105.244 83.6795 105.244 84.6606 105.244 85.6961C105.271 85.8649 105.258 86.0379 105.206 86.2009C105.154 86.364 105.065 86.5126 104.944 86.6347C104.824 86.7567 104.676 86.8488 104.514 86.9036C104.351 86.9582 104.178 86.974 104.008 86.9495C103.552 86.8925 103.107 86.7713 102.685 86.5899C102.565 86.5478 102.463 86.4643 102.399 86.3544C102.335 86.2444 102.312 86.1154 102.335 85.9904C102.335 85.2928 102.335 84.5842 102.335 83.8757C102.335 83.407 102.335 83.3853 101.712 83.3853C101.089 83.3853 101.144 83.3852 101.144 83.8757C101.144 84.5297 101.144 85.1728 101.144 85.8268C101.144 86.1049 101.038 86.3727 100.847 86.5754C100.656 86.778 100.394 86.9001 100.116 86.9168C99.8098 86.9517 99.4999 86.9244 99.2048 86.8363C98.9097 86.7482 98.6357 86.6013 98.3992 86.4045C98.3058 86.3162 98.251 86.1948 98.2461 86.0667C98.2461 85.3909 98.2461 84.715 98.2461 84.0393C98.2461 83.3635 98.2462 83.3416 97.5355 83.3307C97.1528 83.3307 97.0216 83.4724 97.0325 83.843C97.0325 84.4534 97.0325 85.0639 97.0325 85.6743C97.048 85.8262 97.031 85.9798 96.983 86.1249C96.9349 86.27 96.8569 86.4034 96.7537 86.5164C96.6506 86.6295 96.5249 86.7197 96.3845 86.7812C96.2443 86.8426 96.0925 86.874 95.9392 86.8732C94.7256 86.8732 93.5012 86.8733 92.2767 86.7643C91.9382 86.705 91.6079 86.6062 91.2925 86.47L91.708 86.1212C92.3758 85.6086 92.8993 84.9328 93.2278 84.1592C93.343 83.9353 93.4037 83.6875 93.405 83.4361C93.4063 83.1845 93.3482 82.9361 93.2354 82.7111C93.1226 82.4861 92.9581 82.2907 92.7554 82.1408C92.5528 81.9909 92.3176 81.8908 92.0688 81.8483C91.8356 81.7844 91.5981 81.737 91.3582 81.7067C90.2144 81.619 89.0639 81.7073 87.9471 81.9682C86.8537 82.1644 87.0833 81.9682 86.8537 83.1345C86.8588 83.2108 86.8799 83.2851 86.9157 83.3528C86.9515 83.4204 87.0011 83.4797 87.0614 83.5269C87.3347 83.734 87.7065 83.8431 87.9143 84.0938C88.45 84.726 88.9092 85.4236 89.434 86.143L88.9528 86.3501C87.3839 86.8369 85.7379 87.0291 84.0984 86.9168C83.8688 86.9168 83.836 86.786 83.836 86.6007C83.836 85.9576 83.836 85.3037 83.836 84.6497C83.8776 84.0939 83.728 83.5407 83.412 83.081C83.0961 82.6214 82.6325 82.2827 82.0976 82.1208C81.3861 81.8968 80.6226 81.8968 79.911 82.1208C79.5517 82.2244 79.2205 82.4076 78.9421 82.6567C78.6639 82.9059 78.4457 83.2146 78.3039 83.5597C78.0452 84.2061 77.9622 84.9092 78.0633 85.598C78.0649 86.2001 78.2887 86.7805 78.6919 87.2287C79.0951 87.677 79.6498 87.9617 80.2499 88.0287C80.8049 88.096 81.3638 88.1251 81.9227 88.1158H82.3273L82.4039 88.2357C82.1625 88.6076 81.88 88.9512 81.5619 89.2604C80.9991 89.655 80.4152 90.019 79.8125 90.3504C79.6157 90.4703 79.4191 90.5793 79.594 90.83C79.7689 91.0807 79.7907 91.5821 80.2827 91.3314C81.0189 90.9647 81.7279 90.5457 82.4039 90.0779C82.8264 89.7935 83.1508 89.3863 83.3331 88.9116C83.5736 88.105 84.0656 88.0287 84.7763 88.0614C86.5592 88.2039 88.35 87.9082 89.9915 87.2003C90.0564 87.184 90.1239 87.1814 90.1898 87.1927C90.2556 87.204 90.3185 87.2288 90.3743 87.2656C90.9685 87.708 91.6786 87.9693 92.4187 88.0178C93.676 88.0941 94.9443 88.1159 96.2125 88.105C96.514 88.1053 96.8113 88.0356 97.0808 87.9012C97.3503 87.7668 97.5847 87.5716 97.7651 87.3311L97.9291 87.2003C98.1779 87.5018 98.4923 87.7429 98.8485 87.9053C99.2046 88.0677 99.5931 88.1471 99.9846 88.1377C100.378 88.1651 100.773 88.0937 101.132 87.93C101.491 87.7662 101.803 87.5153 102.04 87.2003C102.289 87.5011 102.604 87.7418 102.96 87.9041C103.316 88.0665 103.704 88.1463 104.095 88.1377C104.485 88.1667 104.875 88.0958 105.229 87.9317C105.584 87.7676 105.89 87.5157 106.118 87.2003C106.273 87.449 106.485 87.6584 106.735 87.8116C106.986 87.9649 107.269 88.0579 107.561 88.083C108.344 88.1376 109.13 88.1376 109.913 88.083C110.108 88.0894 110.303 88.055 110.485 87.9824C110.667 87.91 110.832 87.8005 110.97 87.6613C111.108 87.5221 111.215 87.356 111.285 87.1735C111.355 86.991 111.386 86.796 111.378 86.6007C111.378 83.6359 111.378 80.6712 111.378 77.7173C111.378 77.5865 111.312 77.3903 111.279 77.3903ZM82.6007 85.6416C82.6224 85.9718 82.6224 86.3032 82.6007 86.6335C82.5808 86.6965 82.5453 86.7535 82.4976 86.7991C82.4498 86.8449 82.3912 86.8778 82.3273 86.8951C81.7849 86.9332 81.2406 86.9332 80.6982 86.8951C80.5197 86.8965 80.3428 86.8625 80.1776 86.7951C80.0125 86.7276 79.8625 86.6281 79.7363 86.5023C79.6102 86.3766 79.5104 86.227 79.4427 86.0624C79.3751 85.8977 79.341 85.7214 79.3424 85.5435C79.3151 85.2679 79.3151 84.9905 79.3424 84.7151C79.3704 84.4264 79.4713 84.1496 79.636 83.9105C79.8005 83.6715 80.0233 83.4781 80.2834 83.3484C80.5436 83.2188 80.8324 83.1571 81.123 83.1693C81.4136 83.1814 81.6963 83.267 81.9446 83.418C82.1711 83.5582 82.3556 83.7568 82.4788 83.9927C82.6019 84.2286 82.659 84.4931 82.6443 84.7587C82.6224 85.0203 82.6007 85.3364 82.6007 85.6416ZM88.5592 83.0692C89.5059 82.8506 90.4862 82.8173 91.4456 82.9711C92.1016 83.1237 92.2875 83.5924 91.9486 84.181C91.5791 84.7655 91.0726 85.2519 90.4725 85.598L88.5592 83.0692Z" fill="#305743"/>
<path d="M50.5552 77.39C50.2515 77.3739 49.9473 77.4145 49.6587 77.5099C49.5494 77.5099 49.5056 77.8478 49.5056 78.0331C49.5056 80.5837 49.5056 83.1343 49.5056 85.6631C49.5164 85.8483 49.5164 86.0339 49.5056 86.219C49.5042 86.3097 49.4846 86.3992 49.4478 86.482C49.4111 86.565 49.358 86.6397 49.2917 86.7018C49.2254 86.7638 49.1472 86.8119 49.0618 86.8432C48.9766 86.8745 48.8857 86.8884 48.795 86.8839C48.1718 86.8839 47.5376 86.8839 46.9144 86.8839C46.6897 86.8555 46.4716 86.7891 46.2694 86.6877C46.1061 86.6337 45.9667 86.5248 45.8751 86.3796C45.7834 86.2345 45.745 86.0623 45.7664 85.892C45.7664 83.8428 45.7664 81.8045 45.7664 79.7553C45.7664 79.0904 45.7664 78.4255 45.7664 77.7606C45.7689 77.6863 45.7546 77.6124 45.7243 77.5444C45.6939 77.4764 45.6486 77.4162 45.5915 77.3682C45.4782 77.3244 45.3561 77.3084 45.2354 77.3217C45.1146 77.3349 44.9989 77.377 44.898 77.4444C44.7971 77.5119 44.714 77.6026 44.6558 77.7088C44.5977 77.8151 44.5661 77.9339 44.5638 78.0549C44.5638 80.6201 44.5638 83.1852 44.5638 85.7503C44.5638 85.892 44.5638 86.0337 44.5638 86.1863C44.5091 86.6768 44.356 86.8512 43.864 86.8948C43.372 86.9384 42.8472 86.8948 42.3443 86.8948C42.0116 86.9371 41.6744 86.8651 41.3882 86.6908C41.102 86.5164 40.8839 86.2501 40.7699 85.9356C40.6245 85.6244 40.511 85.2995 40.431 84.9655C40.2888 84.5295 40.2123 84.0826 40.0483 83.6575C39.8784 83.1481 39.5657 82.6977 39.1472 82.3595C38.7287 82.0215 38.2219 81.8101 37.6867 81.75C36.7734 81.603 35.8369 81.7439 35.008 82.1533C34.3192 82.4912 34.3192 82.5457 34.6691 83.2433C34.7894 83.4722 34.8987 83.5049 35.1392 83.3959C35.5211 83.212 35.9203 83.066 36.331 82.9599C36.6048 82.8618 36.8971 82.8249 37.1869 82.8516C37.4769 82.8783 37.7573 82.9681 38.0086 83.1147C38.2598 83.2612 38.4757 83.461 38.6412 83.6998C38.8066 83.9386 38.9175 84.2107 38.9659 84.4968C39.0986 85.3626 39.4359 86.1846 39.9499 86.8948H31.9467C31.9467 86.1754 31.9467 85.4887 31.9467 84.802C32.0063 84.2202 31.8627 83.6355 31.54 83.147C31.2172 82.6584 30.7353 82.2959 30.1755 82.1206C29.5415 81.9519 28.8742 81.9519 28.2403 82.1206C27.7859 82.2138 27.3673 82.4331 27.0326 82.7533C26.6979 83.0734 26.4609 83.4814 26.3488 83.93C26.2458 84.3654 26.209 84.8137 26.2395 85.2598C26.2044 85.6413 26.2537 86.0257 26.384 86.386C26.5142 86.7463 26.7223 87.0737 26.9935 87.345C27.2646 87.6164 27.5922 87.825 27.9531 87.9564C28.314 88.0876 28.6994 88.1383 29.0822 88.1047C29.432 88.1047 29.7819 88.1047 30.1755 88.1047C30.2883 88.0989 30.4015 88.0989 30.5144 88.1047L30.6128 88.2137C30.3667 88.6082 30.077 88.9738 29.7491 89.3037C29.2003 89.7026 28.627 90.0666 28.0326 90.3937C27.8467 90.5027 27.628 90.5572 27.7702 90.8624C28.0435 91.4292 28.1528 91.5491 28.4808 91.3747C29.1814 91.0268 29.8605 90.6373 30.5144 90.2084C31.1121 89.8143 31.547 89.2183 31.739 88.5298C31.8374 88.181 32.0232 88.1265 32.3403 88.1265H43.4814C43.8626 88.1809 44.2515 88.1374 44.6112 88.0001C44.9709 87.8627 45.2895 87.6361 45.5368 87.3417C45.7173 87.5629 45.9415 87.7448 46.1953 87.876C46.4492 88.0073 46.7275 88.0851 47.0128 88.1047C47.7235 88.1047 48.4342 88.1047 49.1339 88.1047C49.3533 88.113 49.572 88.0733 49.7745 87.9886C49.9771 87.9039 50.1586 87.7761 50.3064 87.6142C50.4542 87.4522 50.5648 87.2601 50.6304 87.0511C50.6962 86.8422 50.7152 86.6214 50.6864 86.4043V82.0443C50.6864 80.6164 50.6864 79.1994 50.6864 77.7715C50.6864 77.6298 50.599 77.39 50.5552 77.39ZM30.6128 86.8185C30.4051 87.0365 29.8366 86.8948 29.432 86.9057C27.5734 86.9711 27.1798 85.7394 27.6171 84.1698C27.7514 83.8025 28.0192 83.4988 28.3676 83.3192C28.7159 83.1394 29.1192 83.0968 29.4976 83.1997C29.8408 83.2192 30.1636 83.3691 30.3994 83.6184C30.6352 83.8678 30.7664 84.1977 30.7659 84.5404C30.7659 84.8892 30.7659 85.2489 30.7659 85.6304H30.8206C30.744 86.0337 30.8424 86.5896 30.6128 86.8185Z" fill="#305743"/>
<path d="M24.054 77.7605C24.054 77.6297 23.9884 77.379 23.9447 77.379C23.6315 77.377 23.3194 77.4135 23.0153 77.488C22.9279 77.488 22.8732 77.8041 22.8732 77.9785C22.8732 80.6054 22.8732 83.2323 22.8732 85.8701C22.8732 86.644 22.6436 86.8947 21.8892 86.9601C20.9052 86.9601 19.9103 86.9601 18.9263 86.9601C18.7904 86.9454 18.6554 86.9236 18.5217 86.8947C18.9181 86.4362 19.2834 85.9519 19.6151 85.445C19.7837 85.1696 19.8921 84.8617 19.933 84.5417C19.9739 84.2216 19.9466 83.8965 19.8526 83.5877C19.7586 83.2789 19.6003 82.9935 19.3879 82.75C19.1755 82.5066 18.9138 82.3106 18.6201 82.175C18.0986 81.9167 17.5242 81.7823 16.9419 81.7823C16.3596 81.7823 15.7851 81.9167 15.2636 82.175C14.9734 82.2977 14.7125 82.4797 14.4973 82.7093C14.2822 82.9389 14.1178 83.2109 14.0148 83.5078C13.9117 83.8048 13.8723 84.1199 13.8991 84.4329C13.9259 84.746 14.0183 85.0499 14.1703 85.3251C14.5147 85.8482 14.8946 86.3471 15.3073 86.8184C15.1011 86.8527 14.893 86.8745 14.6841 86.8838H9.56733C9.27258 86.8804 8.97917 86.8439 8.69266 86.7748C8.26312 86.7325 7.86389 86.5352 7.56995 86.2201C7.27602 85.905 7.10762 85.4937 7.09639 85.0635C7.04364 84.5748 7.01809 84.0836 7.01986 83.592C7.01986 82.9053 7.01986 82.9053 6.34199 82.9162H6.17799C5.93746 82.9162 5.82812 83.047 5.82812 83.2868C5.82812 83.9626 5.82812 84.6493 5.82812 85.3142C5.84037 85.9059 6.04863 86.4769 6.42043 86.9383C6.79223 87.3997 7.30667 87.7254 7.88359 87.8648C8.27708 87.9873 8.68522 88.0569 9.09719 88.0719C10.77 88.0719 12.4537 88.1373 14.1265 88.0719C14.9983 87.9842 15.8637 87.8423 16.7177 87.6468C16.8438 87.6196 16.9742 87.6196 17.1004 87.6468C18.8764 88.1486 20.7354 88.2894 22.5671 88.061C23.6604 88.061 24.1087 87.4179 24.1087 86.317V81.6627C24.054 80.3656 24.054 79.0576 24.054 77.7605ZM17.7127 85.9137C16.9036 86.4696 17.0239 86.5132 16.1601 85.9137C15.7149 85.6125 15.3838 85.1712 15.2199 84.6602C15.1593 84.5114 15.1288 84.352 15.1301 84.1915C15.1314 84.0308 15.1646 83.8721 15.2275 83.7243C15.2905 83.5764 15.3821 83.4424 15.4972 83.3299C15.6122 83.2175 15.7483 83.1287 15.8977 83.0688C16.2201 82.9211 16.5707 82.8446 16.9255 82.8446C17.2803 82.8446 17.6308 82.9211 17.9532 83.0688C18.1936 83.1595 18.3998 83.3226 18.5428 83.5355C18.686 83.7485 18.7588 84.0007 18.7513 84.2569C18.7116 84.5924 18.5977 84.9149 18.4182 85.2014C18.2386 85.4878 17.9977 85.7311 17.7127 85.9137Z" fill="#305743"/>
<path d="M144.233 82.0336C143.933 81.979 143.626 81.979 143.325 82.0336C143.238 82.0336 143.183 82.3824 143.172 82.5786C143.172 83.6686 143.172 84.7041 143.172 85.7723C143.172 86.8405 142.975 86.8623 142.013 86.8623C141.685 86.8623 141.346 86.8623 141.018 86.8623C140.751 86.9027 140.479 86.858 140.24 86.7346C140 86.6113 139.806 86.4157 139.684 86.1756C139.49 85.8298 139.332 85.4644 139.214 85.0856C139.061 84.6278 138.974 84.1373 138.81 83.6795C138.701 83.3132 138.518 82.9731 138.272 82.6806C138.025 82.388 137.721 82.1493 137.377 81.9791C136.74 81.6987 136.041 81.5846 135.347 81.6476C134.653 81.7105 133.986 81.9483 133.409 82.3388C133.321 82.3388 133.223 82.5568 133.245 82.6222C133.344 82.8927 133.484 83.1463 133.66 83.3743C133.66 83.3743 133.999 83.2653 134.185 83.1999C134.355 83.1269 134.531 83.065 134.71 83.0146C136.689 82.4696 137.519 83.2108 137.858 84.7695C137.876 84.8473 137.898 84.9237 137.924 84.9984C138.143 85.6088 138.361 86.2083 138.602 86.8405H131.725C131.014 86.8405 130.817 86.6007 130.763 85.8922C130.763 85.7723 130.763 85.6524 130.763 85.5325V78.1096C130.763 77.2485 130.763 77.2376 129.877 77.4229C129.831 77.4238 129.786 77.4346 129.746 77.4544C129.704 77.4744 129.668 77.5028 129.639 77.5381C129.609 77.5733 129.588 77.6143 129.576 77.6585C129.565 77.7025 129.563 77.7486 129.571 77.7935C129.571 80.7147 129.571 83.6468 129.571 86.5135C129.552 86.8652 129.668 87.2108 129.896 87.48C130.123 87.7494 130.445 87.9222 130.795 87.9632C131.123 88.0283 131.457 88.0611 131.79 88.0613H142.133C142.479 88.0634 142.824 88.0269 143.161 87.9523C143.484 87.9007 143.778 87.7364 143.99 87.4888C144.202 87.2412 144.319 86.9264 144.32 86.6007C144.32 85.1728 144.32 83.7558 144.32 82.3279C144.32 82.2298 144.32 82.0336 144.233 82.0336Z" fill="#305743"/>
<path d="M67.5125 82.1641C66.4603 81.5602 65.2148 81.3845 64.0357 81.6736C63.5044 81.7639 63.0144 82.0172 62.6343 82.3982C62.2541 82.7792 62.0026 83.2688 61.9147 83.7991C61.7959 84.323 61.8563 84.8715 62.0861 85.3573C62.3159 85.8432 62.702 86.2384 63.1829 86.4805C63.4563 86.6549 63.7405 86.8075 64.0139 86.9492C64.2872 87.0909 64.8011 87.3416 65.1837 87.5705C65.5664 87.7994 66.0147 88.0719 65.9819 88.6605C65.9491 89.2491 65.5008 89.4562 65.0744 89.6851C64.9583 89.7451 64.8377 89.7961 64.7136 89.8377C63.992 89.9794 63.2813 90.1756 62.5269 90.2519C61.3319 90.4254 60.112 90.2747 58.9955 89.8159C58.5997 89.6642 58.2567 89.4011 58.0083 89.0585C57.7598 88.716 57.6165 88.3088 57.596 87.8866C57.5368 87.0879 57.6995 86.2884 58.0661 85.5758C58.2301 85.227 58.1536 85.0635 57.8256 84.9436L57.6069 84.8564C57.3336 84.7038 57.1368 84.7692 57.0275 85.0526C56.8416 85.5758 56.6011 86.1426 56.4699 86.6222C56.3131 87.093 56.2584 87.5917 56.3097 88.0851C56.3609 88.5786 56.5168 89.0555 56.767 89.4844C57.0172 89.9132 57.356 90.284 57.761 90.5723C58.1659 90.8606 58.6278 91.0598 59.1157 91.1566C59.9997 91.3521 60.894 91.4977 61.7944 91.5926V91.5272C62.3192 91.5272 62.8877 91.4618 63.3797 91.3855C64.4771 91.2918 65.5227 90.8786 66.3864 90.1974C66.6516 90.0078 66.8651 89.7551 67.0072 89.4623C67.1494 89.1696 67.216 88.8459 67.2008 88.5209C67.1856 88.196 67.0891 87.88 66.9202 87.6016C66.7511 87.3233 66.5151 87.0916 66.2333 86.9274C65.9774 86.7579 65.7108 86.605 65.4352 86.4696C64.8885 86.1644 64.3419 85.9028 63.7952 85.5758C63.5263 85.4332 63.3115 85.207 63.1833 84.9316C63.055 84.6562 63.0203 84.3466 63.0845 84.0498C63.1414 83.7407 63.2946 83.4574 63.5223 83.2402C63.75 83.0229 64.0406 82.8829 64.3528 82.8399C65.2738 82.6526 66.2314 82.7873 67.0643 83.2214C67.1955 83.2868 67.436 83.3522 67.4579 83.3195C67.6337 83.0905 67.7669 82.8322 67.8515 82.5565C67.8733 82.4475 67.6656 82.2513 67.5125 82.1641Z" fill="#305743"/>
<path d="M154.379 77.7278C154.379 77.6079 154.303 77.379 154.27 77.379C153.953 77.3763 153.637 77.4129 153.33 77.488C153.242 77.488 153.188 77.8042 153.188 77.9786C153.188 80.551 153.188 83.1233 153.188 85.7066C153.198 85.8626 153.198 86.0193 153.188 86.1753C153.122 86.6549 152.958 86.8184 152.477 86.8838H152.149C151.526 86.8838 151.515 86.8838 151.34 86.2952C150.585 83.6901 149.831 81.096 149.066 78.4909C148.924 78.0004 148.858 77.9567 148.453 78.0766C147.754 78.2837 147.754 78.2837 147.907 78.8178C148.552 80.9978 149.208 83.2759 149.853 85.5104C149.984 85.9355 150.093 86.3715 150.246 86.8838H147.174C146.354 86.8838 146.354 86.8838 146.387 87.7013C146.387 87.9629 146.496 88.0828 146.77 88.0828C148.749 88.0828 150.717 88.0828 152.685 88.0828C153.887 88.0828 154.412 87.4506 154.412 86.2516V79.9187C154.39 79.1884 154.39 78.4799 154.379 77.7278Z" fill="#305743"/>
<path d="M73.974 81.8697C72.895 81.6206 71.7731 81.6206 70.694 81.8697C70.2894 81.9569 70.2238 82.1313 70.2894 82.709C70.2894 83.0796 70.6174 82.9706 70.847 82.9815C71.6889 82.9815 72.5417 82.9815 73.3945 82.9815C73.7625 82.992 74.1132 83.1402 74.3766 83.3967C74.6399 83.6532 74.7968 83.9992 74.8159 84.3658C74.8816 84.8899 74.9035 85.4186 74.8815 85.9463C74.8815 86.6112 74.6519 86.8292 73.9959 86.8837H69.8412C69.2727 86.8837 69.2617 86.8837 69.2617 87.4723C69.2672 87.523 69.2672 87.5741 69.2617 87.6249C69.2617 87.9846 69.4038 88.0936 69.7318 88.0936C70.4972 88.0936 71.2516 88.0936 72.0169 88.0936H73.9302C74.2647 88.0908 74.5981 88.0543 74.9252 87.9846C75.2366 87.9171 75.5153 87.7447 75.7142 87.4966C75.9133 87.2486 76.0208 86.9398 76.0185 86.6221C76.0185 85.8264 76.0185 85.0307 76.0185 84.235C76.0003 83.6671 75.7874 83.1227 75.4154 82.6923C75.0434 82.2619 74.5346 81.9715 73.974 81.8697Z" fill="#305743"/>
<path d="M125.209 81.8701C124.131 81.6156 123.007 81.6156 121.929 81.8701C121.795 81.9042 121.678 81.9856 121.601 82.099C121.371 82.6985 121.601 83.0037 122.246 82.9601C122.352 82.9547 122.457 82.9547 122.563 82.9601C123.267 82.9401 123.971 82.9583 124.673 83.0146C125.047 83.0308 125.4 83.1868 125.664 83.4515C125.927 83.716 126.081 84.0699 126.094 84.4425C126.149 84.8908 126.171 85.3426 126.16 85.7941C126.16 86.6988 125.93 86.8841 125.067 86.8841H121.306C120.562 86.8841 120.584 86.8841 120.584 87.6471C120.584 87.9959 120.726 88.1049 121.065 88.1049C121.82 88.1049 122.574 88.1049 123.339 88.1049H125.22C125.551 88.1016 125.88 88.0651 126.204 87.9959C126.539 87.9455 126.843 87.7747 127.061 87.5157C127.279 87.2568 127.393 86.9275 127.385 86.5898C127.424 85.8636 127.424 85.1359 127.385 84.4098C127.391 83.7958 127.175 83.2002 126.775 82.7333C126.374 82.2663 125.818 81.9597 125.209 81.8701Z" fill="#305743"/>
<path d="M114.8 77.3902C114.689 77.3418 114.566 77.3202 114.445 77.3269C114.323 77.3335 114.204 77.3684 114.098 77.4287C113.992 77.4889 113.902 77.573 113.834 77.6741C113.766 77.7752 113.722 77.8907 113.707 78.0115V87.5707C113.707 88.0939 113.707 88.1376 114.363 88.1376C115.019 88.1376 114.932 88.1375 114.932 87.5707V77.8262C114.935 77.6706 114.889 77.5182 114.8 77.3902Z" fill="#305743"/>
<path d="M157.954 77.7932C157.954 77.6515 157.878 77.3899 157.834 77.3899C157.517 77.3733 157.2 77.4065 156.894 77.488C156.817 77.488 156.773 77.7823 156.773 77.9458C156.773 81.1504 156.773 84.3623 156.773 87.5814C156.773 88.0937 156.773 88.1155 157.364 88.1155C157.954 88.1155 157.965 88.1155 157.965 87.5923C157.965 85.9682 157.965 84.3223 157.965 82.7309C157.965 81.1395 157.965 79.4391 157.954 77.7932Z" fill="#305743"/>
<path d="M60.9978 93.1626C60.9009 93.1551 60.8035 93.1675 60.7116 93.1991C60.6197 93.2306 60.5353 93.2806 60.4636 93.346C60.3918 93.4114 60.3343 93.4908 60.2945 93.5792C60.2548 93.6676 60.2336 93.7633 60.2324 93.8602C60.2353 93.9527 60.2566 94.0438 60.2951 94.1281C60.3336 94.2124 60.3884 94.2882 60.4567 94.3511C60.5248 94.414 60.6049 94.4627 60.6922 94.4946C60.7794 94.5263 60.8722 94.5403 60.965 94.536C61.0615 94.5449 61.1589 94.5343 61.2513 94.5049C61.3437 94.4755 61.4292 94.4278 61.5027 94.3647C61.5761 94.3016 61.636 94.2244 61.6789 94.1378C61.7219 94.051 61.7467 93.9566 61.7522 93.8602C61.7542 93.7633 61.7356 93.667 61.6976 93.5779C61.6597 93.4887 61.6032 93.4085 61.532 93.3426C61.4607 93.2767 61.3763 93.2267 61.2842 93.1956C61.1921 93.1645 61.0945 93.1533 60.9978 93.1626Z" fill="#305743"/>
<path d="M144.78 78.7524C144.683 78.7432 144.585 78.7544 144.494 78.7855C144.401 78.8166 144.316 78.8666 144.245 78.9325C144.174 78.9984 144.117 79.0786 144.08 79.1678C144.042 79.2569 144.023 79.3532 144.026 79.45C144.027 79.5426 144.046 79.634 144.085 79.7184C144.123 79.8029 144.178 79.8787 144.246 79.941C144.315 80.0034 144.396 80.051 144.484 80.0808C144.572 80.1108 144.665 80.1224 144.758 80.1149C144.854 80.1254 144.953 80.1161 145.046 80.0872C145.139 80.0584 145.225 80.0109 145.298 79.9474C145.373 79.8841 145.433 79.8063 145.474 79.7189C145.517 79.6313 145.541 79.5362 145.545 79.4391C145.544 79.3426 145.522 79.2474 145.483 79.1596C145.443 79.0716 145.386 78.9929 145.314 78.9284C145.241 78.8639 145.157 78.8149 145.065 78.7846C144.973 78.7543 144.876 78.7433 144.78 78.7524Z" fill="#305743"/>
<path d="M36.813 89.9684C36.716 89.9624 36.6189 89.9764 36.5275 90.0093C36.4362 90.0422 36.3526 90.0934 36.282 90.1598C36.2112 90.2263 36.1549 90.3064 36.1165 90.3953C36.0781 90.4842 36.0584 90.5801 36.0586 90.6769C36.0654 90.7735 36.0916 90.8678 36.1358 90.954C36.18 91.0402 36.2412 91.1166 36.3157 91.1787C36.3902 91.2407 36.4766 91.2872 36.5695 91.3152C36.6624 91.3433 36.7602 91.3523 36.8567 91.3418C37.0394 91.3418 37.2146 91.2694 37.3437 91.1407C37.4729 91.0119 37.5455 90.8372 37.5455 90.6551C37.5455 90.473 37.4729 90.2983 37.3437 90.1695C37.2146 90.0408 37.0394 89.9684 36.8567 89.9684H36.813Z" fill="#305743"/>
<path d="M63.0751 93.1625C62.9782 93.1534 62.8805 93.1645 62.788 93.1947C62.6956 93.2248 62.6103 93.2736 62.5375 93.338C62.4648 93.4024 62.406 93.4809 62.365 93.5688C62.3239 93.6568 62.3013 93.7522 62.2988 93.8492C62.3074 94.0361 62.3886 94.2125 62.5254 94.3407C62.6621 94.4689 62.8436 94.5389 63.0314 94.5359C63.224 94.5509 63.4148 94.4896 63.5623 94.365C63.7097 94.2405 63.8018 94.0629 63.8186 93.871C63.822 93.7742 63.8048 93.6778 63.7682 93.5881C63.7315 93.4984 63.6763 93.4174 63.6061 93.3506C63.5359 93.2837 63.4523 93.2324 63.3608 93.1999C63.2693 93.1675 63.1719 93.1548 63.0751 93.1625Z" fill="#305743"/>
<path d="M142.735 80.115C142.833 80.1211 142.93 80.1069 143.022 80.0732C143.114 80.0396 143.197 79.9871 143.267 79.9193C143.337 79.8517 143.391 79.77 143.428 79.6799C143.465 79.5896 143.482 79.4928 143.479 79.3956C143.459 79.2096 143.369 79.0382 143.226 78.9165C143.084 78.7948 142.9 78.7322 142.713 78.7416C142.616 78.7356 142.519 78.7495 142.428 78.7825C142.336 78.8154 142.253 78.8666 142.182 78.933C142.111 78.9995 142.055 79.0796 142.017 79.1685C141.979 79.2575 141.959 79.3533 141.959 79.4501C141.959 79.5468 141.981 79.6423 142.021 79.7301C142.062 79.8179 142.121 79.8959 142.195 79.9589C142.268 80.022 142.355 80.0686 142.448 80.0955C142.542 80.1224 142.639 80.1291 142.735 80.115Z" fill="#305743"/>
<path d="M66.9887 2.398C69.3284 3.6188 71.6572 4.8069 73.997 6.0168L84.1868 11.2052L85.0724 9.3195L83.9791 8.8181C79.0154 6.28203 74.048 3.73143 69.077 1.1663C68.3444 0.7848 67.6228 0.3924 66.8903 0H66.8138C66.442 0.109 66.0703 0.2398 65.7204 0.3379C64.813 0.5668 63.8946 0.7739 62.9434 1.0028C63.1074 1.7004 63.2714 2.3435 63.4244 2.9975C64.4084 2.7577 65.3159 2.5506 66.2124 2.3217C66.3403 2.28163 66.475 2.26773 66.6084 2.28085C66.7418 2.29396 66.8712 2.33381 66.9887 2.398Z" fill="#5BA44C"/>
<path d="M80.7652 32.6998C80.8267 30.488 80.5352 28.2804 79.9014 26.1598C79.7593 25.7238 79.5734 25.3096 79.3876 24.8518L77.5508 25.7892C77.7913 26.6285 78.0646 27.4133 78.2286 28.209C78.5835 30.0954 78.7483 32.0125 78.7206 33.9315C78.7206 36.8854 78.655 39.8284 78.6113 42.7823C78.6113 45.2239 78.5348 47.6546 78.502 50.0962C78.502 50.8047 78.502 51.5132 78.502 52.2217H80.6886C80.6886 51.1317 80.6886 50.0417 80.6886 49.0171C80.6558 43.5998 80.7433 38.1498 80.7652 32.6998Z" fill="#305743"/>
<path d="M76.2928 16.0013C76.2842 14.9767 75.8729 13.9962 75.1472 13.2707C74.4214 12.5451 73.4392 12.1323 72.4114 12.1208C71.9055 12.1363 71.4076 12.2514 70.9465 12.4595C70.4853 12.6676 70.07 12.9646 69.7246 13.3334C69.3791 13.7022 69.1101 14.1355 68.9332 14.6083C68.7564 15.0812 68.6752 15.5842 68.6941 16.0885C68.6646 17.036 69.0126 17.9567 69.6621 18.6491C70.3116 19.3416 71.2096 19.7494 72.16 19.7836C73.2087 19.8192 74.2295 19.4428 75.0025 18.7354C75.7756 18.0279 76.239 17.046 76.2928 16.0013ZM70.8261 16.1429C70.7995 15.6904 70.9443 15.2444 71.2318 14.8932C71.5194 14.542 71.9286 14.3111 72.3786 14.2463C72.8347 14.2486 73.2724 14.425 73.6018 14.7392C73.9314 15.0536 74.1275 15.4819 74.1498 15.9358C74.1224 16.3968 73.9212 16.8303 73.5866 17.1497C73.2521 17.469 72.809 17.6506 72.3458 17.658C72.1445 17.6625 71.9445 17.6264 71.7574 17.552C71.5704 17.4775 71.4004 17.3663 71.2575 17.2249C71.1146 17.0834 71.0018 16.9147 70.9258 16.7288C70.8498 16.543 70.8122 16.3437 70.8152 16.1429H70.8261Z" fill="#305743"/>
<path d="M86.4279 9.86439L84.9519 9.26489L83.9679 11.3686C83.9517 11.4408 83.926 11.5104 83.8914 11.5757C83.6071 12.1534 83.3338 12.742 83.0495 13.3306L82.9074 13.6249C82.3388 14.813 81.814 16.0011 81.1471 17.1674C80.6145 18.1119 80.023 19.022 79.3759 19.8924C79.2503 20.0793 79.0761 20.2288 78.872 20.3247C78.668 20.4207 78.4415 20.4596 78.217 20.4374C77.233 20.4374 76.249 20.4374 75.265 20.4374C74.1494 20.4216 73.0397 20.5986 71.985 20.9606C71.4065 21.1533 70.9113 21.5371 70.5813 22.0484C70.2513 22.5597 70.1062 23.1681 70.17 23.7728C70.1981 24.2489 70.2939 24.7187 70.4543 25.168C70.7495 25.9419 71.1431 26.6831 71.4711 27.457C72.699 30.5054 73.4369 33.7278 73.6578 37.0054C73.8479 38.7591 73.7631 40.5315 73.4063 42.2592C73.3439 42.5746 73.1642 42.855 72.9034 43.044L65.7748 48.5812L64.2988 49.7366L65.5999 51.4261L68.8799 48.9409C70.7932 47.4367 72.7066 45.9216 74.6308 44.4283C75.0192 44.124 75.2928 43.6976 75.4071 43.2184C75.8593 41.4577 76.0254 39.636 75.8991 37.8229C75.7448 34.2832 75.0366 30.7894 73.7999 27.4679C73.4282 26.4978 72.9252 25.5713 72.5426 24.6012C72.0396 23.315 72.2802 22.8681 73.6359 22.7373C75.2322 22.5956 76.8394 22.5738 78.4466 22.552C78.7912 22.585 79.139 22.5447 79.4669 22.4338C79.7949 22.323 80.0954 22.1441 80.349 21.9089C81.0128 21.239 81.6131 20.5091 82.142 19.7289C83.8599 16.9098 85.3234 13.9443 86.5154 10.8672L86.8543 10.0061L86.4279 9.86439Z" fill="#305743"/>
</g>
<defs>
<clipPath id="clip0_1552_456951">
<rect width="164" height="109" fill="white"/>
</clipPath>
</defs>
</svg>
