<svg width="61" height="96" viewBox="0 0 61 96" fill="none" xmlns="http://www.w3.org/2000/svg">
<g clip-path="url(#clip0_1552_456945)">
<path fill-rule="evenodd" clip-rule="evenodd" d="M30.8214 49.9163C30.8214 49.9163 32.3699 65.7582 28.509 77.6775C28.509 77.6775 30.2433 66.314 27.625 56.115L30.8214 49.9163Z" fill="#0056B4"/>
<path d="M28.4344 39.7132C25.2952 57.1852 11.8518 71.9001 8.00781 76.2105C15.8121 69.6662 29.2405 55.9007 32.0155 36.863C33.4608 26.9279 33.3219 19.391 31.3567 12.5193L27.5006 13.2902C29.8824 20.325 30.3911 28.8854 28.4344 39.7132Z" fill="#0056B4"/>
<path fill-rule="evenodd" clip-rule="evenodd" d="M14.597 25.9315C21.5341 31.3843 18.698 36.6672 17.1665 39.6144C15.3712 43.0445 15.1028 44.9213 15.7588 47.8128C16.0851 49.221 16.0683 50.6896 15.71 52.0896C15.2318 53.7418 14.5021 55.3066 13.5478 56.7264L13.5947 56.6794C13.5947 56.6794 18.8717 52.9114 18.089 47.8896C17.6319 44.9568 18.7478 43.1309 20.5402 39.7037C22.0746 36.7594 23.6907 27.2851 14.6148 25.9286L14.597 25.9315ZM0.491883 20.0688C0.39053 19.7424 0.243191 19.4947 0.121191 19.007C-0.130316 17.9808 -0.0195781 17.3894 0.731191 17.2224C0.997714 17.1514 1.57205 17.0112 2.05255 16.9075C2.73199 16.7616 3.24345 16.9075 3.4715 17.8771C4.13593 20.6611 2.92813 19.7597 4.39682 22.0416L7.61387 27.0384C7.61387 27.0384 9.0591 25.7923 9.51519 24.0643C9.91967 22.5149 10.7493 18.6922 16.2909 18.841C16.2909 18.841 13.8162 20.7293 12.6027 24.9322C11.0852 30.1709 6.38542 31.6378 6.38542 31.6378C6.38542 31.6378 2.87276 24.5578 2.21396 22.7962C1.55516 21.0365 0.789376 21.0365 0.479683 20.0698" fill="#0056B4"/>
<path fill-rule="evenodd" clip-rule="evenodd" d="M59.0426 7.61763C59.0426 7.61763 57.8226 5.97891 56.2591 6.30243L11.0581 16.3219C10.9894 16.2299 10.8935 16.1628 10.7847 16.1306C10.6759 16.0985 10.5599 16.103 10.4537 16.1434C9.65323 16.3162 2.72738 17.8714 2.23938 17.9914C1.75138 18.1095 2.17275 19.6656 2.56596 19.5792C2.95918 19.4928 10.1159 17.8752 10.7775 17.7322C11.1473 17.6554 11.2486 17.4346 11.2636 17.2205L53.5732 7.91619C54.7294 7.64835 55.5102 7.89219 56.49 9.12675C57.0136 9.87939 57.4754 10.6752 57.8695 11.5066C57.9139 11.6243 58.0003 11.7204 58.1112 11.7756C58.2221 11.8308 58.3493 11.841 58.4673 11.8042L60.699 11.0074C61.14 10.8375 60.9495 10.489 60.9495 10.489C60.3707 9.48805 59.7306 8.5255 59.0332 7.60707M12.8656 9.51843C13.2926 9.03939 14.0039 8.92323 14.3296 8.80131C13.4343 7.90851 10.9042 7.42755 9.44864 10.3306C8.83583 11.544 6.8613 12.1959 5.82055 10.4112C5.66758 11.1245 6.29166 14.3107 9.53779 13.6291C11.8905 13.1357 11.5029 10.7079 12.8646 9.51843H12.8656ZM23.2093 7.81155C23.808 8.33187 23.4233 8.70435 23.2093 9.15555C22.0156 11.616 25.8426 11.2733 25.8426 11.2733L25.1031 10.5053C24.8779 10.2653 24.7381 10.0896 24.7465 9.84867C24.7634 9.68835 24.8197 9.53475 24.9089 9.40227C25.166 9.00867 25.3218 8.55459 25.3631 8.08131C25.3912 7.41507 25.074 7.12995 24.6348 6.75843L24.5682 6.69603C25.4036 6.38628 26.1362 5.84113 26.6816 5.12355C27.2285 4.40409 27.5667 3.54186 27.6576 2.63523L22.4895 1.91235C20.9204 -0.055652 19.0585 -0.535652 16.2675 0.618268C15.2202 1.1326 14.3309 1.93081 13.6961 2.92611C13.0597 3.92385 12.7012 5.08017 12.6591 6.27075C13.1856 5.25814 13.8768 4.34461 14.7031 3.56931C16.4749 1.97571 19.2208 0.752668 21.5557 3.65571C21.5557 3.65571 24.9154 3.95331 25.3715 4.01283C25.3715 4.01283 25.0393 4.90563 24.4706 5.20323C22.8602 6.06723 21.4431 5.18211 20.423 5.34819C19.7363 5.44111 19.0783 5.68865 18.4963 6.07299C17.9145 6.45699 17.4209 6.96963 17.053 7.57347C17.053 7.57347 20.6257 5.78787 23.2065 7.81155" fill="#0056B4"/>
<path d="M32.3184 73.6674C32.2267 73.6284 32.1276 73.611 32.0284 73.6165H31.8238V74.1196H32.0397C32.1171 74.1237 32.1947 74.1136 32.2687 74.0898C32.3124 74.0748 32.3501 74.0454 32.3758 74.0061C32.4014 73.9669 32.4136 73.92 32.4104 73.8729C32.4152 73.8336 32.4094 73.7937 32.3937 73.7575C32.378 73.7213 32.3529 73.6902 32.3212 73.6674H32.3175H32.3184ZM32.0603 73.4447C32.1867 73.4386 32.3132 73.4555 32.4338 73.4946C32.5011 73.523 32.5576 73.5728 32.5949 73.6366C32.6323 73.7004 32.6485 73.7749 32.6412 73.8489C32.6461 73.9026 32.6366 73.9567 32.6138 74.0054C32.591 74.0541 32.5557 74.0955 32.5117 74.1253C32.4504 74.1619 32.3823 74.1851 32.3118 74.1935C32.359 74.1976 32.4048 74.2123 32.4458 74.2365C32.4868 74.2607 32.5222 74.2939 32.5493 74.3337C32.5962 74.3961 32.6215 74.4719 32.6243 74.5506V74.7647C32.6206 74.7895 32.6206 74.8148 32.6243 74.8396V74.8569H32.3991C32.3975 74.8522 32.3975 74.8471 32.3991 74.8425V74.661C32.4071 74.6004 32.3993 74.5387 32.3764 74.4822C32.3535 74.4257 32.3163 74.3764 32.2687 74.3394C32.1848 74.3034 32.0938 74.2883 32.0031 74.2953H31.8126V74.8482H31.5723V73.4447H32.0603ZM31.3293 73.3727C31.1659 73.5238 31.0516 73.7225 31.0018 73.9419C30.9519 74.1614 30.969 74.3912 31.0505 74.6005C31.1314 74.809 31.2724 74.9872 31.4549 75.1116C31.6373 75.2359 31.8524 75.3005 32.0716 75.2965C32.2172 75.2931 32.3606 75.2592 32.4929 75.197C32.6253 75.1347 32.7438 75.0454 32.8411 74.9346C32.9424 74.8327 33.0223 74.7108 33.076 74.5763C33.1297 74.4418 33.1561 74.2975 33.1536 74.1522C33.1547 73.9347 33.0928 73.7217 32.9757 73.5401C32.8586 73.3585 32.6916 73.2164 32.4958 73.1318C32.3001 73.0479 32.0843 73.0261 31.8764 73.0691C31.6684 73.112 31.4778 73.2178 31.3293 73.3727ZM32.965 75.0565C32.7913 75.2357 32.5693 75.3577 32.3273 75.4069C32.0854 75.4562 31.8347 75.4304 31.6071 75.333C31.3796 75.2355 31.1857 75.0708 31.0503 74.8599C30.9149 74.6491 30.844 74.4016 30.8469 74.1493C30.847 73.9391 30.8975 73.7321 30.994 73.5464C31.0905 73.3608 31.2302 73.2023 31.4006 73.0847C31.5708 72.9676 31.7669 72.8955 31.9711 72.8751C32.1753 72.8546 32.3812 72.8863 32.5705 72.9674C32.7597 73.0485 32.9263 73.1764 33.0553 73.3397C33.1843 73.5029 33.2716 73.6963 33.3094 73.9026C33.3486 74.1091 33.3377 74.3223 33.2777 74.5235C33.2176 74.7246 33.1103 74.9077 32.965 75.0565ZM43.6513 33.3263V17.853H45.6568V31.2623H56.8338V33.3263H43.6513ZM45.6568 53.6994V48.8447H56.2848V46.9295H45.6568V42.3541H56.8432V40.2901H43.6513V55.7634H56.8657V53.6994H45.6568ZM49.2351 78.2006V64.7903H43.6513V62.7263H56.8329V64.7903H51.2397V78.1996H49.2342L49.2351 78.2006ZM56.8657 36.4799H43.6513V37.1337H56.8657V36.4799ZM56.846 58.9161H43.6306V59.5708H56.846V58.9161ZM57.9534 76.6242H57.4297V76.4303H58.7014V76.6242H58.1786V78.2006H57.9534V76.6242ZM60.3427 77.4239C60.3287 77.1772 60.3146 76.8796 60.3174 76.6588C60.2521 76.8851 60.1798 77.1092 60.1006 77.3308L59.7975 78.1881H59.6286L59.3405 77.3461C59.2626 77.1206 59.1959 76.8912 59.1406 76.6588C59.1406 76.8796 59.1237 77.1772 59.1096 77.4412L59.0627 78.1996H58.8515L58.9641 76.4447H59.2532L59.5422 77.302C59.6126 77.519 59.6736 77.7119 59.713 77.8972C59.764 77.6958 59.8248 77.4972 59.8951 77.302L60.202 76.4447H60.491L60.598 78.215H60.3812L60.3437 77.4239H60.3427ZM2.9774 90.6431C2.63602 90.6411 2.29772 90.7092 1.98256 90.8435C1.66741 90.9777 1.38181 91.1753 1.14271 91.4246C0.902318 91.6742 0.712952 91.9704 0.585662 92.2958C0.458372 92.6211 0.395706 92.9692 0.401323 93.3196V93.3349C0.392073 93.6844 0.451703 94.0322 0.576657 94.3577C0.701611 94.6831 0.889332 94.9794 1.12863 95.229C1.36752 95.4774 1.65324 95.6735 1.96846 95.8055C2.28367 95.9376 2.62182 96.0027 2.96238 95.997C3.30495 95.9989 3.64439 95.9302 3.96041 95.795C4.27644 95.6597 4.56259 95.4607 4.80177 95.2098C5.04231 94.9584 5.23131 94.6602 5.35766 94.333C5.484 94.0058 5.54516 93.656 5.53752 93.3042C5.54677 92.9547 5.48714 92.6069 5.36219 92.2815C5.23724 91.9561 5.04951 91.6598 4.81021 91.4101C4.57137 91.162 4.28579 90.966 3.97076 90.834C3.65573 90.702 3.31779 90.6367 2.9774 90.6422V90.6431ZM2.9774 95.3279C2.72456 95.3267 2.47462 95.2726 2.2429 95.1691C2.01118 95.0656 1.80255 94.9148 1.62977 94.726C1.45582 94.537 1.32107 94.3139 1.23366 94.0703C1.14624 93.8266 1.10796 93.5673 1.12112 93.3081C1.10814 93.0492 1.14661 92.7904 1.23419 92.5471C1.32178 92.3039 1.45667 92.0814 1.63071 91.893C1.80436 91.7059 2.01354 91.557 2.24543 91.4555C2.47733 91.354 2.72704 91.3019 2.97928 91.3026C3.23146 91.3037 3.48075 91.3577 3.71174 91.4612C3.94273 91.5647 4.1505 91.7156 4.32222 91.9045C4.49517 92.0938 4.62863 92.3172 4.71446 92.561C4.8003 92.8047 4.83671 93.0638 4.82148 93.3225V93.3378C4.83257 93.5942 4.79318 93.8502 4.70564 94.0906C4.6181 94.3311 4.4842 94.551 4.31189 94.7375C4.13993 94.9229 3.93302 95.0707 3.70365 95.172C3.47429 95.2733 3.22723 95.326 2.9774 95.327V95.3279ZM6.56138 95.9135H7.25772V93.7189H9.90794V93.0527H7.25772V91.4044H10.2233V90.7295H6.56138V95.9135ZM11.1486 95.9135H11.8449V93.7189H14.4951V93.0527H11.8449V91.4044H14.8076V90.7295H11.1476V95.9135H11.1486ZM16.4781 90.7295H15.7808V95.9135H16.4781V90.7295ZM21.6199 94.6194C21.4282 94.8409 21.1929 95.0184 20.9294 95.1405C20.666 95.2626 20.3804 95.3264 20.0912 95.3279C19.8415 95.321 19.5958 95.2628 19.3685 95.157C19.1412 95.0511 18.937 94.8996 18.768 94.7116C18.5981 94.5232 18.4666 94.302 18.3812 94.061C18.2958 93.8201 18.2582 93.5641 18.2706 93.3081C18.2578 93.0533 18.2953 92.7986 18.3808 92.559C18.4662 92.3193 18.5979 92.0997 18.768 91.9132C18.9378 91.7277 19.1426 91.5793 19.37 91.477C19.5974 91.3747 19.8428 91.3206 20.0912 91.318C20.3711 91.3176 20.648 91.3769 20.9043 91.4921C21.1606 91.6073 21.3906 91.7759 21.5796 91.9871L21.6321 92.038L22.1089 91.5138L22.0563 91.4639C21.8035 91.1951 21.4987 90.9833 21.1613 90.8419C20.8238 90.7006 20.4613 90.6329 20.0968 90.6431C19.7574 90.6431 19.4215 90.7127 19.1089 90.848C18.7964 90.9832 18.5135 91.1812 18.2771 91.4303C18.0394 91.6801 17.8528 91.9758 17.7281 92.3002C17.6034 92.6245 17.5431 92.9711 17.5508 93.3196V93.3349C17.5395 93.6821 17.5965 94.0279 17.7186 94.352C17.8406 94.6761 18.0251 94.9717 18.2612 95.2214C18.4969 95.4695 18.7793 95.6662 19.0914 95.7996C19.4036 95.9329 19.7389 96.0001 20.0771 95.997C20.4586 96.006 20.8375 95.9294 21.187 95.7727C21.5365 95.616 21.8483 95.3829 22.1004 95.0898L22.152 95.0361L21.6781 94.5724L21.6199 94.6204V94.6194ZM23.6724 90.7295H22.976V95.9135H23.6724V90.7295ZM26.7965 90.693L24.5029 95.9135H25.2283L25.8064 94.5839H28.3759L28.954 95.9135H29.7085L27.4102 90.693H26.7974H26.7965ZM28.0972 93.9177H26.0889L27.0949 91.6156L28.0972 93.9177ZM31.1819 90.7295H30.4846V95.9135H33.9363V95.2415H31.1819V90.7295ZM37.6076 93.6354H40.2756V92.9663H37.6076V91.3958H40.59V90.7295H36.9112V95.9135H40.6247V95.2473H37.6076V93.6354ZM43.6025 94.9468L41.9085 90.7295H41.1371L43.2843 95.9049L43.3012 95.95H43.8887L46.0528 90.7295H45.302L43.6025 94.9468ZM47.5327 93.6354H50.2036V92.9663H47.5327V91.3958H50.5189V90.7295H46.8364V95.9135H50.5536V95.2473H47.5337V93.6354H47.5327ZM55.1211 94.6262L52.1462 90.7286H51.5221V95.9135H52.2044V91.9247L55.2563 95.9135H55.8025V90.7295H55.1202V94.6262H55.1211ZM56.6921 90.7295V91.4044H58.3372V95.9135H59.0401V91.4044H60.6843V90.7295H56.6931H56.6921Z" fill="#0056B4"/>
</g>
<defs>
<clipPath id="clip0_1552_456945">
<rect width="61" height="96" fill="white"/>
</clipPath>
</defs>
</svg>
