<svg width="150" height="231" viewBox="0 0 150 231" fill="none" xmlns="http://www.w3.org/2000/svg">
<g clip-path="url(#clip0_1552_456421)">
<path fill-rule="evenodd" clip-rule="evenodd" d="M75.7897 120.111C75.7897 120.111 79.5974 158.23 70.1035 186.911C70.1035 186.911 74.3681 159.568 67.9297 135.026L75.7897 120.111Z" fill="#0056B4"/>
<path d="M69.9167 95.5601C62.1975 137.602 29.1398 173.01 19.6875 183.382C38.8783 167.634 71.899 134.511 78.7229 88.7017C82.2767 64.7955 81.9352 46.6597 77.1029 30.1248L67.6206 31.9797C73.4775 48.9074 74.7283 69.5056 69.9167 95.5601Z" fill="#0056B4"/>
<path fill-rule="evenodd" clip-rule="evenodd" d="M35.8942 62.3977C52.9526 75.5185 45.9788 88.2304 42.2126 95.3221C37.798 103.576 37.138 108.092 38.7511 115.05C39.5534 118.438 39.5122 121.972 38.6311 125.341C37.4553 129.316 35.6609 133.081 33.3142 136.498L33.4296 136.385C33.4296 136.385 46.4057 127.318 44.4811 115.234C43.3572 108.177 46.1011 103.784 50.5088 95.537C54.2819 88.4522 58.2557 65.6548 35.938 62.3908L35.8942 62.3977ZM1.20955 48.2905C0.960319 47.5051 0.598011 46.9092 0.298011 45.7357C-0.32045 43.2663 -0.0481428 41.8433 1.79801 41.4414C2.4534 41.2705 3.8657 40.9332 5.04724 40.6837C6.71801 40.3326 7.9757 40.6837 8.53647 43.0168C10.1703 49.7158 7.20032 47.5467 10.8119 53.0376L18.7226 65.0611C18.7226 65.0611 22.2765 62.0628 23.398 57.9048C24.3926 54.1764 26.4326 44.978 40.0595 45.336C40.0595 45.336 33.9742 49.8798 30.9903 59.993C27.2588 72.5987 15.7019 76.1284 15.7019 76.1284C15.7019 76.1284 7.06417 59.0921 5.44417 54.8532C3.82417 50.619 1.94109 50.619 1.17955 48.2928" fill="#0056B4"/>
<path fill-rule="evenodd" clip-rule="evenodd" d="M145.189 18.3298C145.189 18.3298 142.189 14.3867 138.345 15.1651L27.1947 39.2746C27.0258 39.053 26.7901 38.8916 26.5225 38.8143C26.2549 38.7369 25.9696 38.7477 25.7086 38.845C23.7401 39.2608 6.70936 43.0029 5.50936 43.2917C4.30936 43.5758 5.34551 47.3203 6.31244 47.1124C7.27936 46.9045 24.8778 43.0122 26.5047 42.668C27.414 42.4832 27.6632 41.9519 27.7001 41.4368L131.74 19.0483C134.583 18.4038 136.503 18.9905 138.912 21.9612C140.2 23.7722 141.336 25.6872 142.305 27.6877C142.414 27.9709 142.626 28.2022 142.899 28.335C143.172 28.4679 143.485 28.4924 143.775 28.4037L149.262 26.4864C150.347 26.0776 149.879 25.239 149.879 25.239C148.455 22.8305 146.881 20.5144 145.166 18.3044M31.6394 22.9036C32.6894 21.7509 34.4386 21.4714 35.2394 21.1781C33.0378 19.0298 26.8163 17.8725 23.2371 24.8579C21.7301 27.7777 16.8747 29.3462 14.3155 25.0519C13.9394 26.7683 15.474 34.4352 23.4563 32.7951C29.2417 31.6077 28.2886 25.7657 31.637 22.9036H31.6394ZM57.0747 18.7965C58.5471 20.0485 57.6009 20.9448 57.0747 22.0305C54.1394 27.951 63.5501 27.1263 63.5501 27.1263L61.7317 25.2783C61.1778 24.7008 60.834 24.2781 60.8547 23.6983C60.8963 23.3125 61.0347 22.9429 61.254 22.6241C61.8863 21.677 62.2694 20.5844 62.3709 19.4456C62.4401 17.8424 61.6601 17.1564 60.5801 16.2624L60.4163 16.1122C62.4705 15.3669 64.2721 14.0552 65.6132 12.3285C66.9581 10.5973 67.7897 8.52252 68.0132 6.34094L55.3047 4.60151C51.4463 -0.133989 46.8678 -1.28899 40.0047 1.48763C37.4295 2.72524 35.2425 4.64594 33.6817 7.04087C32.1167 9.44169 31.2351 12.2241 31.1317 15.0889C32.4264 12.6523 34.1261 10.4542 36.1578 8.58857C40.5147 4.75397 47.267 1.81103 53.0086 8.79647C53.0086 8.79647 61.2701 9.51257 62.3917 9.65579C62.3917 9.65579 61.5747 11.8041 60.1763 12.5202C56.2163 14.5992 52.7317 12.4694 50.2232 12.869C48.5346 13.0926 46.9165 13.6882 45.4855 14.6131C44.0547 15.5371 42.8409 16.7706 41.9363 18.2236C41.9363 18.2236 50.7217 13.927 57.0678 18.7965" fill="#0056B4"/>
<path d="M79.4713 177.262C79.2458 177.169 79.0021 177.127 78.7582 177.14H78.2551V178.351H78.7859C78.9763 178.36 79.167 178.336 79.349 178.279C79.4566 178.243 79.5493 178.172 79.6124 178.077C79.6754 177.983 79.7054 177.87 79.6974 177.757C79.7092 177.662 79.695 177.566 79.6564 177.479C79.6178 177.392 79.5562 177.317 79.4782 177.262H79.469H79.4713ZM78.8367 176.727C79.1475 176.712 79.4585 176.753 79.7551 176.847C79.9205 176.915 80.0594 177.035 80.1513 177.188C80.2432 177.342 80.2831 177.521 80.2651 177.699C80.2771 177.828 80.2538 177.959 80.1977 178.076C80.1416 178.193 80.0549 178.293 79.9467 178.364C79.7958 178.452 79.6285 178.508 79.4551 178.528C79.5712 178.538 79.6837 178.574 79.7846 178.632C79.8855 178.69 79.9723 178.77 80.039 178.866C80.1544 179.016 80.2167 179.198 80.2236 179.388V179.903C80.2145 179.963 80.2145 180.023 80.2236 180.083V180.125H79.6697C79.6657 180.113 79.6657 180.101 79.6697 180.09V179.653C79.6895 179.507 79.6702 179.359 79.6138 179.223C79.5575 179.087 79.4661 178.969 79.349 178.88C79.1427 178.793 78.9189 178.756 78.6959 178.773H78.2274V180.104H77.6367V176.727H78.8367ZM77.039 176.553C76.6372 176.917 76.3562 177.395 76.2336 177.923C76.1111 178.451 76.153 179.004 76.3536 179.508C76.5524 180.009 76.8992 180.438 77.3478 180.738C77.7964 181.037 78.3254 181.192 78.8644 181.183C79.2224 181.174 79.575 181.093 79.9004 180.943C80.2259 180.793 80.5173 180.578 80.7567 180.312C81.0056 180.066 81.2021 179.773 81.3342 179.449C81.4663 179.126 81.5313 178.779 81.5251 178.429C81.5277 177.906 81.3754 177.393 81.0876 176.956C80.7997 176.519 80.3891 176.177 79.9074 175.974C79.4262 175.772 78.8957 175.719 78.3843 175.823C77.8729 175.926 77.4043 176.181 77.039 176.553ZM81.0613 180.605C80.6341 181.036 80.0881 181.33 79.4933 181.448C78.8984 181.567 78.2818 181.505 77.7223 181.27C77.1628 181.036 76.6861 180.639 76.353 180.132C76.0199 179.625 75.8458 179.029 75.8528 178.422C75.853 177.916 75.9772 177.418 76.2146 176.971C76.452 176.525 76.7953 176.143 77.2144 175.86C77.633 175.578 78.1151 175.405 78.6172 175.356C79.1193 175.307 79.6258 175.383 80.0912 175.578C80.5565 175.773 80.9662 176.081 81.2833 176.474C81.6005 176.867 81.8152 177.332 81.9082 177.828C82.0046 178.325 81.9778 178.838 81.8301 179.322C81.6824 179.806 81.4185 180.247 81.0613 180.605ZM107.339 80.1917V42.9591H112.271V75.2252H139.755V80.1917H107.339ZM112.271 129.215V117.533H138.405V112.924H112.271V101.915H139.778V96.9484H107.339V134.181H139.834V129.215H112.271ZM121.07 188.17V155.902H107.339V150.935H139.753V155.902H125.999V188.168H121.067L121.07 188.17ZM139.834 87.78H107.339V89.3531H139.834V87.78ZM139.785 141.767H107.288V143.342H139.785V141.767ZM142.508 184.377H141.221V183.911H144.347V184.377H143.062V188.17H142.508V184.377ZM148.384 186.302C148.349 185.708 148.314 184.992 148.321 184.46C148.161 185.005 147.983 185.544 147.788 186.077L147.043 188.14H146.627L145.919 186.114C145.728 185.572 145.563 185.02 145.427 184.46C145.427 184.992 145.386 185.708 145.351 186.343L145.236 188.168H144.717L144.994 183.945H145.704L146.415 186.008C146.588 186.53 146.738 186.995 146.835 187.44C146.961 186.956 147.11 186.478 147.283 186.008L148.037 183.945H148.748L149.011 188.205H148.478L148.386 186.302H148.384ZM7.32128 218.11C6.48183 218.105 5.64994 218.269 4.87497 218.592C4.09999 218.915 3.3977 219.391 2.80975 219.991C2.21862 220.591 1.75297 221.304 1.43996 222.087C1.12695 222.87 0.972857 223.707 0.986669 224.551V224.587C0.963923 225.428 1.11055 226.265 1.41782 227.048C1.72508 227.831 2.18669 228.544 2.77513 229.145C3.36257 229.743 4.06515 230.215 4.84027 230.532C5.6154 230.85 6.4469 231.007 7.28436 230.993C8.12674 230.998 8.96141 230.832 9.73853 230.507C10.5157 230.181 11.2193 229.703 11.8074 229.099C12.3989 228.494 12.8637 227.776 13.1744 226.989C13.4851 226.202 13.6354 225.36 13.6167 224.514C13.6394 223.673 13.4928 222.836 13.1855 222.053C12.8783 221.27 12.4166 220.557 11.8282 219.956C11.2409 219.359 10.5386 218.887 9.76397 218.57C8.98931 218.252 8.15832 218.095 7.32128 218.108V218.11ZM7.32128 229.383C6.69954 229.38 6.08495 229.25 5.51514 229.001C4.94533 228.752 4.4323 228.389 4.00744 227.935C3.57969 227.48 3.24835 226.943 3.03339 226.357C2.81843 225.77 2.7243 225.147 2.75667 224.523C2.72475 223.9 2.81933 223.277 3.03471 222.692C3.25009 222.107 3.58178 221.571 4.00975 221.118C4.43676 220.668 4.95114 220.309 5.52137 220.065C6.09159 219.821 6.70565 219.696 7.3259 219.697C7.94602 219.7 8.55904 219.83 9.12704 220.079C9.69504 220.328 10.206 220.691 10.6282 221.146C11.0535 221.601 11.3817 222.138 11.5928 222.725C11.8038 223.312 11.8934 223.935 11.8559 224.557V224.594C11.8832 225.211 11.7863 225.827 11.5711 226.406C11.3558 226.984 11.0265 227.514 10.6028 227.962C10.18 228.408 9.67116 228.764 9.10715 229.008C8.54314 229.252 7.93562 229.379 7.32128 229.381V229.383ZM16.1344 230.792H17.8467V225.511H24.3636V223.908H17.8467V219.942H25.139V218.318H16.1344V230.792ZM27.4144 230.792H29.1267V225.511H35.6436V223.908H29.1267V219.942H36.4121V218.318H27.4121V230.792H27.4144ZM40.5197 218.318H38.8051V230.792H40.5197V218.318ZM53.1636 227.678C52.692 228.211 52.1134 228.638 51.4656 228.932C50.8179 229.226 50.1155 229.379 49.4044 229.383C48.7905 229.366 48.1862 229.226 47.6273 228.972C47.0683 228.717 46.5662 228.353 46.1505 227.9C45.7328 227.447 45.4095 226.914 45.1995 226.335C44.9895 225.755 44.897 225.139 44.9274 224.523C44.8961 223.91 44.9883 223.297 45.1984 222.72C45.4085 222.144 45.7323 221.615 46.1505 221.166C46.5681 220.72 47.0717 220.363 47.6309 220.117C48.1902 219.871 48.7935 219.74 49.4044 219.734C50.0927 219.733 50.7737 219.876 51.4039 220.153C52.0341 220.43 52.5996 220.836 53.0644 221.344L53.1936 221.467L54.3659 220.205L54.2367 220.085C53.6151 219.438 52.8654 218.929 52.0357 218.589C51.206 218.249 50.3145 218.086 49.4182 218.11C48.5837 218.11 47.7576 218.278 46.989 218.603C46.2204 218.929 45.5249 219.405 44.9436 220.004C44.3591 220.605 43.9001 221.317 43.5935 222.098C43.2868 222.878 43.1385 223.712 43.1574 224.551V224.587C43.1296 225.423 43.2699 226.255 43.57 227.035C43.8702 227.815 44.3239 228.526 44.9044 229.127C45.4839 229.724 46.1784 230.197 46.946 230.518C47.7135 230.839 48.538 231 49.3697 230.993C50.3079 231.015 51.2395 230.83 52.099 230.453C52.9585 230.076 53.7251 229.515 54.3451 228.81L54.4721 228.681L53.3067 227.565L53.1636 227.681V227.678ZM58.2105 218.318H56.4982V230.792H58.2105V218.318ZM65.8928 218.23L60.2528 230.792H62.0367L63.4582 227.593H69.7767L71.1982 230.792H73.0536L67.4021 218.23H65.8951H65.8928ZM69.0913 225.99H64.1528L66.6267 220.45L69.0913 225.99ZM76.6767 218.318H74.9621V230.792H83.4497V229.175H76.6767V218.318ZM92.4774 225.311H99.0382V223.7H92.4774V219.921H99.8113V218.318H90.7651V230.792H99.8967V229.189H92.4774V225.311ZM107.219 228.466L103.054 218.318H101.157L106.437 230.771L106.478 230.88H107.923L113.244 218.318H111.398L107.219 228.466ZM116.884 225.311H123.451V223.7H116.884V219.921H124.227V218.318H115.171V230.792H124.312V229.189H116.886V225.311H116.884ZM135.544 227.694L128.228 218.316H126.694V230.792H128.371V221.194L135.876 230.792H137.219V218.318H135.541V227.694H135.544ZM139.407 218.318V219.942H143.452V230.792H145.181V219.942H149.224V218.318H139.409H139.407Z" fill="#0056B4"/>
</g>
<defs>
<clipPath id="clip0_1552_456421">
<rect width="150" height="231" fill="white"/>
</clipPath>
</defs>
</svg>
