<svg width="19" height="21" viewBox="0 0 19 21" fill="none" xmlns="http://www.w3.org/2000/svg">
<path d="M9.32526 20.7C9.70452 20.7 10.0682 20.5594 10.3364 20.309C10.6046 20.0587 10.7553 19.7191 10.7553 19.3651V4.72579L16.1753 10.1523C16.3015 10.2873 16.4555 10.3972 16.6282 10.4754C16.8009 10.5537 16.9887 10.5987 17.1805 10.6077C17.3722 10.6167 17.5639 10.5897 17.7441 10.5281C17.9244 10.4665 18.0895 10.3716 18.2297 10.2492C18.3699 10.1267 18.4822 9.97922 18.56 9.81539C18.6377 9.65156 18.6794 9.47479 18.6824 9.29561C18.6855 9.11644 18.6498 8.93853 18.5777 8.77248C18.5055 8.60644 18.3982 8.45566 18.2623 8.32914L10.3723 0.424171C10.2385 0.290324 10.0766 0.183597 9.89674 0.110627C9.71689 0.0376558 9.52287 0 9.32676 0C9.13065 0 8.93663 0.0376558 8.75677 0.110627C8.57691 0.183597 8.41506 0.290324 8.28126 0.424171L0.383259 8.32914C0.124407 8.5891 -0.0132179 8.93441 0.000659943 9.28909C0.0145378 9.64378 0.178782 9.97879 0.457258 10.2204C0.735735 10.4621 1.10563 10.5905 1.48558 10.5776C1.86553 10.5646 2.22441 10.4113 2.48326 10.1514L7.89526 4.72579L7.89526 19.366C7.89552 19.7199 8.0463 20.0592 8.31445 20.3094C8.5826 20.5595 8.94617 20.7 9.32526 20.7Z" fill="#096637"/>
</svg>
