<svg width="295" height="77" viewBox="0 0 295 77" fill="none" xmlns="http://www.w3.org/2000/svg">
<g clip-path="url(#clip0_3072_241007)">
<path fill-rule="evenodd" clip-rule="evenodd" d="M63.3972 10.6134L65.4119 2.1882L62.8366 4.109L63.4979 5.5734C63.1277 6.05191 62.6484 6.4346 62.1001 6.68939C61.5518 6.94418 60.9505 7.06366 60.3466 7.0378C59.5493 7.06101 58.7616 6.85987 58.0728 6.45722C57.384 6.05458 56.8218 5.46657 56.4501 4.76L57.6217 2.7594L55.8559 0L54.0901 2.7566L55.2631 4.76C54.8918 5.46805 54.3295 6.05749 53.6401 6.46118C52.9508 6.86488 52.162 7.06661 51.3637 7.0434C50.7598 7.06926 50.1585 6.94978 49.6102 6.69499C49.0619 6.4402 48.5826 6.05751 48.2124 5.579L48.8737 4.1146L46.2998 2.1938L48.3145 10.619H63.3972V10.6134ZM55.8559 6.1026C56.5035 6.94442 57.3774 7.58384 58.3751 7.94588C59.3729 8.30792 60.453 8.37755 61.4888 8.1466C60.6871 8.81056 59.6688 9.15475 58.6293 9.11315C57.5897 9.07156 56.6021 8.6471 55.8559 7.9212C55.1096 8.6471 54.122 9.07156 53.0825 9.11315C52.0429 9.15475 51.0246 8.81056 50.2229 8.1466C51.2587 8.37737 52.3388 8.30766 53.3365 7.94564C54.3342 7.58362 55.2081 6.94428 55.8559 6.1026ZM62.8562 13.51L63.1568 12.1408H48.555L48.8555 13.51H62.8562ZM0.468559 12.124C7.23456 10.7336 14.2731 11.7584 20.3636 15.0206C21.1871 15.47 20.6041 15.5806 19.9651 15.3132C18.056 14.5209 16.0594 13.9592 14.0176 13.6402C9.61594 12.7891 5.06166 13.2496 0.918752 14.9646C0.510505 15.1592 0.492327 15.6926 1.15782 15.4896C7.45499 13.5864 14.2144 13.9112 20.3007 16.4094C20.4661 16.4372 20.6191 16.5146 20.7397 16.6313C20.8603 16.748 20.9426 16.8986 20.976 17.0632C20.9093 17.1968 20.7997 17.3042 20.6649 17.3682C20.5301 17.4322 20.3777 17.449 20.2322 17.416C19.0984 17.1973 17.924 17.3893 16.9187 17.9578C16.9109 18.3117 17.0223 18.6579 17.2348 18.9407C17.4473 19.2236 17.7486 19.4267 18.0903 19.5174C18.5702 19.6034 19.0616 19.6034 19.5415 19.5174C19.7274 19.5076 19.7107 19.6238 19.5806 19.677C17.0291 20.7186 17.1382 25.137 17.9029 27.797C18.7823 30.8504 20.7634 35.6482 17.8931 40.677C14.8523 45.997 4.32174 45.0394 7.33046 57.3174C7.81775 56.3487 7.99217 55.2523 7.82958 54.18C7.82515 54.1584 7.82747 54.1359 7.83621 54.1156C7.84495 54.0954 7.8597 54.0783 7.87846 54.0667C7.89721 54.0551 7.91908 54.0495 7.94109 54.0507C7.96311 54.052 7.98421 54.06 8.00154 54.0736C9.4346 55.5226 10.6216 61.8142 6.99631 65.4514C6.99631 65.4514 6.73906 72.8714 9.1396 77.0042H12.1637C12.1594 76.4385 12.0289 75.8809 11.7816 75.3722C11.5344 74.8635 11.1768 74.4166 10.7348 74.0642C10.0165 71.5162 9.89549 68.8365 10.3811 66.234C12.0588 59.3404 17.545 61.8688 22.6145 52.6218C22.9934 51.9302 23.7736 57.0906 16.8823 61.5524C16.8823 61.5524 17.1801 64.1172 18.9263 63.8162C21.1423 63.4298 25.0039 63.9184 26.6537 65.961C26.6714 66.2375 26.7488 66.5069 26.8806 66.7505C27.0124 66.9942 27.1954 67.2063 27.417 67.3722C28.604 67.6732 31.6756 67.4324 30.2901 66.08C27.6824 63.9386 24.7039 62.2953 21.503 61.2318C22.5083 60.2434 27.7665 57.1956 27.2241 54.9976C26.945 53.7059 26.4797 52.4618 25.8428 51.3044C25.8428 51.3044 32.0797 47.2822 32.5914 40.453C29.482 41.9412 25.8693 41.5954 24.5439 38.801C24.5373 38.7876 24.5355 38.7723 24.5391 38.7578C24.5427 38.7433 24.5513 38.7305 24.5634 38.7218C24.5755 38.713 24.5903 38.7089 24.6052 38.7101C24.62 38.7112 24.634 38.7177 24.6446 38.7282C26.0287 40.1282 29.4345 40.649 32.6278 39.1636C33.7966 38.6204 35.5638 37.807 36.8682 38.766C36.9038 38.793 36.9319 38.8287 36.95 38.8696C36.9681 38.9104 36.9756 38.9553 36.9717 38.9998C36.7969 41.1852 36.2978 43.5932 34.4551 44.926C33.9664 44.9558 33.491 45.0975 33.0656 45.3402C32.6402 45.5829 32.2761 45.9202 32.0014 46.326C32.1053 46.8197 32.3159 47.2847 32.6183 47.6884C32.9206 48.092 33.3075 48.4245 33.7518 48.6626C34.2114 48.3383 34.6486 47.9833 35.0605 47.6C35.3652 47.3298 35.4547 46.4324 35.8686 45.8234C37.1859 44.0615 38.336 42.1801 39.3037 40.2038C39.3156 40.1797 39.3353 40.1603 39.3595 40.1487C39.3837 40.1371 39.4111 40.134 39.4373 40.1398C39.4635 40.1456 39.4871 40.16 39.5042 40.1807C39.5212 40.2015 39.5309 40.2273 39.5316 40.2542C39.547 42.5768 38.3977 46.3232 34.5921 49.7742C34.5753 49.9982 34.5613 50.218 34.5613 50.4392C34.5613 68.5664 49.4456 65.345 55.8573 72.8994C62.269 65.3394 77.1532 68.5594 77.1532 50.4392C77.1532 50.218 77.1378 49.9968 77.121 49.7742C73.3154 46.3218 72.1661 42.5754 72.1815 40.2542C72.1822 40.2273 72.1919 40.2015 72.209 40.1807C72.2261 40.16 72.2496 40.1456 72.2758 40.1398C72.302 40.134 72.3294 40.1371 72.3536 40.1487C72.3778 40.1603 72.3975 40.1797 72.4094 40.2038C73.3771 42.1801 74.5271 44.0615 75.8446 45.8234C76.264 46.4324 76.3479 47.3298 76.6527 47.6C77.064 47.9801 77.5003 48.3323 77.9585 48.6542C78.4026 48.416 78.7892 48.0835 79.0914 47.6798C79.3935 47.2762 79.6038 46.8112 79.7075 46.3176C79.4329 45.9117 79.0688 45.5744 78.6434 45.3316C78.218 45.0889 77.7426 44.9473 77.2538 44.9176C75.4181 43.5848 74.9176 41.1782 74.7373 38.9914C74.7334 38.9468 74.7408 38.902 74.7589 38.8611C74.777 38.8203 74.8051 38.7846 74.8407 38.7576C76.1451 37.7986 77.9165 38.6176 79.0812 39.1552C82.2744 40.6406 85.6802 40.1268 87.0643 38.7198C87.074 38.7066 87.0885 38.6978 87.1046 38.6953C87.1207 38.6928 87.1372 38.6968 87.1503 38.7065C87.1635 38.7162 87.1723 38.7307 87.1748 38.7468C87.1773 38.7629 87.1732 38.7794 87.1636 38.7926C85.8396 41.5926 82.2269 41.9328 79.1175 40.4446C79.6278 47.2738 85.8662 51.296 85.8662 51.296C85.2289 52.4533 84.7636 53.6974 84.4848 54.9892C83.9424 57.1872 89.2006 60.235 90.2059 61.2234C87.0048 62.2864 84.0263 63.9298 81.4188 66.0716C80.0333 67.424 83.0965 67.6648 84.2905 67.3638C84.512 67.1978 84.695 66.9857 84.8268 66.7421C84.9586 66.4984 85.0361 66.2291 85.0539 65.9526C86.7036 63.91 90.5638 63.4214 92.7812 63.8078C94.5274 64.1088 94.8252 61.544 94.8252 61.544C87.9312 57.0822 88.7099 51.9218 89.093 52.6134C94.1625 61.8604 99.6515 59.3334 101.326 66.2256C101.812 68.8281 101.691 71.5078 100.973 74.0558C100.53 74.4087 100.172 74.8563 99.9255 75.3658C99.6785 75.8753 99.5485 76.4337 99.5452 77H102.575C104.975 72.8644 104.718 65.4472 104.718 65.4472C101.094 61.8072 102.28 55.5184 103.714 54.0694C103.731 54.0549 103.753 54.0461 103.775 54.0444C103.798 54.0427 103.82 54.0482 103.839 54.06C103.858 54.0718 103.873 54.0894 103.881 54.1102C103.89 54.131 103.892 54.154 103.886 54.1758C103.723 55.2453 103.896 56.3391 104.38 57.3062C107.389 45.0282 96.8581 45.9788 93.8172 40.6658C90.9469 35.644 92.928 30.8448 93.8074 27.7858C94.5708 25.1258 94.6798 20.7144 92.1297 19.6658C91.9997 19.6126 91.9815 19.4964 92.1688 19.5062C92.6488 19.5921 93.1401 19.5921 93.6201 19.5062C93.9617 19.4155 94.2631 19.2124 94.4756 18.9295C94.6881 18.6467 94.7994 18.3005 94.7917 17.9466C93.7868 17.3784 92.6128 17.1863 91.4796 17.4048C91.334 17.4378 91.1817 17.421 91.0468 17.357C90.912 17.293 90.8025 17.1856 90.7358 17.052C90.7687 16.8873 90.851 16.7365 90.9716 16.6197C91.0922 16.5029 91.2455 16.4256 91.4111 16.3982C97.4973 13.8999 104.257 13.5751 110.554 15.4784C111.219 15.6814 111.201 15.148 110.793 14.9534C106.65 13.2384 102.096 12.7779 97.6941 13.629C95.6518 13.9479 93.6547 14.5096 91.7452 15.302C91.1063 15.5638 90.5233 15.4588 91.3481 15.0094C97.4385 11.7471 104.477 10.7223 111.243 12.1128C111.818 12.2192 111.865 11.753 111.439 11.5948C107.093 10.3516 102.492 10.3104 98.1247 11.4758C91.7035 12.9613 85.9158 16.4419 81.5894 21.42C80.8022 22.372 80.0584 23.156 79.4601 23.7762C79.3334 24.2314 79.35 24.7147 79.5076 25.1602C79.6652 25.6056 79.9562 25.9916 80.3409 26.2654C80.6708 27.0984 80.991 27.3364 81.7991 26.9822C83.3101 26.371 84.8729 25.8973 86.4688 25.5668C87.0583 25.3456 87.5858 24.9852 88.0067 24.5163C88.4275 24.0474 88.7291 23.4837 88.8861 22.8732C88.9378 22.7052 89.1391 22.5722 89.1936 22.9418C89.3045 23.5144 89.2506 24.1067 89.0385 24.6498C87.8836 27.0732 82.8365 27.0508 80.7897 32.9322C78.4392 33.3219 76.1533 34.0332 73.9963 35.0462C73.9679 35.0618 73.9359 35.0699 73.9035 35.0696C73.8711 35.0693 73.8393 35.0606 73.8112 35.0444C73.7831 35.0282 73.7597 35.0051 73.7431 34.9772C73.7266 34.9493 73.7174 34.9176 73.7166 34.8852C73.6873 27.538 78.74 20.9482 78.74 20.9482L75.3692 15.4H36.3425L32.9871 20.944C32.9871 20.944 38.0398 27.5338 38.0105 34.881C38.0097 34.9134 38.0005 34.9451 37.984 34.973C37.9674 35.0009 37.9439 35.024 37.9158 35.0402C37.8878 35.0564 37.856 35.0651 37.8236 35.0654C37.7912 35.0657 37.7592 35.0576 37.7308 35.042C35.5738 34.029 33.2879 33.3177 30.9374 32.928C28.885 27.048 23.8379 27.069 22.6886 24.6456C22.476 24.1026 22.4222 23.5101 22.5334 22.9376C22.588 22.5666 22.7893 22.701 22.8396 22.869C22.9971 23.4793 23.299 24.0427 23.7197 24.5115C24.1404 24.9803 24.6677 25.3408 25.2569 25.5626C26.8528 25.8931 28.4156 26.3668 29.9266 26.978C30.7361 27.3322 31.0549 27.0942 31.3848 26.2612C31.7695 25.9874 32.0605 25.6014 32.2181 25.156C32.3757 24.7105 32.3923 24.2272 32.2657 23.772C31.6673 23.1532 30.9235 22.372 30.1363 21.4158C25.8079 16.4428 20.0204 12.9672 13.601 11.4856C9.23365 10.3202 4.63265 10.3614 0.286809 11.6046C-0.153594 11.76 -0.106062 12.2304 0.468559 12.124ZM73.9711 58.4248C73.7041 63.476 57.4958 66.6848 55.8559 69.9048C54.2159 66.6778 38.0077 63.4648 37.7406 58.4248C40.6683 62.7438 53.7881 64.8998 55.8559 67.8286C57.925 64.8984 71.0435 62.7438 73.9711 58.4248ZM72.0026 55.4694C71.0896 56.322 66.7205 58.912 65.5042 57.2824L55.8153 44.2932L46.2173 57.3006C45.001 58.9358 40.6249 56.3416 39.7161 55.5002C39.5578 55.3493 39.4579 55.1472 39.4341 54.9297C39.4103 54.7122 39.4642 54.4932 39.5861 54.3116C39.8088 53.8807 40.0625 53.4666 40.3453 53.0726C41.1436 52.0044 42.1628 53.578 44.8835 55.1362C44.7055 55.4481 44.4423 55.7027 44.1248 55.8701C43.8073 56.0375 43.4487 56.1107 43.0912 56.0812C42.8367 56.0812 42.448 56.0364 42.4229 56.0364C41.9489 56.0364 42.9192 56.6692 43.9188 56.6692C44.3793 56.6497 44.8289 56.5229 45.2318 56.2988C45.6347 56.0747 45.9798 55.7596 46.2397 55.3784C46.2397 55.3784 53.3323 45.8038 63.6852 31.8192C63.6067 31.7101 63.5471 31.5884 63.5091 31.4594L69.1602 23.779C69.3275 23.6929 69.5105 23.6418 69.6982 23.629C69.8858 23.6163 70.0741 23.642 70.2515 23.7046C70.4289 23.7673 70.5916 23.8656 70.7297 23.9934C70.8678 24.1213 70.9784 24.276 71.0546 24.4482V24.4608V24.4986L65.2483 32.3386C65.0556 32.4207 64.8424 32.4417 64.6374 32.3988L56.5283 43.3762L65.4762 55.3644C65.7366 55.7451 66.0821 56.0596 66.4853 56.283C66.8884 56.5063 67.3381 56.6323 67.7985 56.651C68.7939 56.651 69.7754 56.0154 69.2944 56.0154C69.2693 56.0154 68.875 56.0616 68.6261 56.0616C68.272 56.0878 67.9175 56.0174 67.6001 55.8579C67.2828 55.6984 67.0146 55.4558 66.824 55.1558C69.5866 53.4968 70.5807 51.9988 71.365 53.0474C71.6494 53.4406 71.9046 53.8543 72.1284 54.285C72.2497 54.4658 72.3036 54.6835 72.2806 54.9001C72.2576 55.1167 72.1592 55.3183 72.0026 55.4694ZM55.2169 41.6094C55.016 41.9509 54.7868 42.275 54.5318 42.5782L46.9513 32.4142C46.7828 32.4409 46.6104 32.4299 46.4466 32.382L40.5746 24.5252L40.5914 24.486C40.6656 24.316 40.7732 24.1626 40.9077 24.035C41.0421 23.9073 41.2008 23.8079 41.3742 23.7426C41.5477 23.6774 41.7325 23.6476 41.9176 23.6551C42.1028 23.6625 42.2845 23.707 42.4522 23.786L48.1383 31.4174C48.1271 31.579 48.0709 31.7341 47.9761 31.8654L47.9538 31.878L55.2169 41.6094ZM53.2806 28.4004C53.2811 27.8899 53.4328 27.3911 53.7164 26.9669C54 26.5427 54.4029 26.2123 54.874 26.0173C55.3451 25.8223 55.8634 25.7716 56.3633 25.8715C56.8633 25.9715 57.3224 26.2176 57.6826 26.5787C58.0429 26.9399 58.2882 27.3999 58.3874 27.9006C58.4867 28.4013 58.4355 28.9202 58.2402 29.3918C58.045 29.8633 57.7146 30.2664 57.2907 30.5499C56.8668 30.8335 56.3684 30.9848 55.8587 30.9848C55.5192 30.985 55.183 30.9181 54.8695 30.7879C54.5559 30.6578 54.2711 30.4669 54.0313 30.2263C53.7915 29.9857 53.6015 29.7 53.4722 29.3857C53.3429 29.0715 53.2768 28.7347 53.2778 28.3948L53.2806 28.4004ZM37.9168 18.487L36.2964 21.1764C36.2964 21.1498 37.9252 23.4094 37.1562 25.2504C36.7739 23.6892 35.9785 22.2601 34.8535 21.1134L37.282 17.1052H74.4297L76.8582 21.1134C75.7332 22.2601 74.9378 23.6892 74.5555 25.2504C73.7865 23.4094 75.4097 21.1498 75.4153 21.1764L73.7949 18.487H37.9168ZM156.856 36.183C156.622 36.1273 156.376 36.1497 156.155 36.2467C155.935 36.3438 155.752 36.5103 155.634 36.7209C155.516 36.9315 155.471 37.1748 155.504 37.4138C155.537 37.6528 155.647 37.8744 155.817 38.0452C155.987 38.2159 156.208 38.3264 156.447 38.3599C156.686 38.3934 156.929 38.348 157.139 38.2306C157.35 38.1133 157.516 37.9304 157.614 37.7096C157.711 37.4889 157.734 37.2424 157.678 37.0076C157.633 36.8065 157.532 36.6224 157.386 36.4765C157.241 36.3306 157.057 36.2289 156.856 36.183ZM135.805 28.7C135.406 29.0016 134.912 29.1504 134.413 29.1196C133.914 29.0888 133.442 28.8804 133.083 28.532C132.943 28.392 129.57 24.4048 129.57 24.4048C130.369 24.2138 131.086 23.7705 131.615 23.1403C132.143 22.5101 132.456 21.7263 132.506 20.9048C132.506 17.7254 130.18 16.8448 127.043 16.8448H121.402C121.402 16.8448 121.008 17.8458 122.253 17.8458H122.754V29.1718H121.814C121.814 29.1718 121.364 30.1518 122.681 30.1518H124.971C126.246 30.1518 126.34 29.3118 126.055 29.0654C125.533 29.1508 125.101 29.1886 124.887 29.2054V24.8318H127.292C127.292 24.8318 130.803 28.7714 131.081 29.0948C131.738 29.8019 132.645 30.2251 133.609 30.275C134.094 30.3037 134.579 30.2172 135.024 30.0225C135.469 29.8279 135.863 29.5306 136.171 29.155C136.149 29.0562 136.105 28.9637 136.041 28.8848C135.978 28.806 135.897 28.7427 135.805 28.7ZM127.161 23.7888H124.889V17.8304H126.986C128.651 17.8304 130.38 18.3764 130.392 20.8418C130.386 21.2519 130.296 21.6564 130.128 22.0303C129.96 22.4042 129.717 22.7396 129.414 23.0155C129.111 23.2914 128.755 23.5021 128.367 23.6344C127.979 23.7667 127.569 23.8178 127.161 23.7846V23.7888ZM264.004 19.74V16.828H253.492C253.492 16.828 253.147 17.829 253.92 17.829H254.759V28.9884H253.674C253.369 29.05 253.358 30.1364 253.767 30.1364H264.154V28.63C264.103 28.1667 264.158 27.6979 264.316 27.2594C263.361 27.0256 263.058 27.5394 263.058 28.5194V28.9912H256.886V24.0436H261.277C261.409 24.0452 261.541 24.0152 261.66 23.9561C261.779 23.897 261.882 23.8104 261.961 23.7035C262.04 23.5966 262.092 23.4725 262.114 23.3412C262.136 23.21 262.126 23.0755 262.086 22.9488H256.886V17.8304H262.877V18.62C262.884 19.5566 263.389 19.8632 264.004 19.74ZM239.118 28.994C238.813 29.0556 238.802 30.142 239.212 30.142H249.598V28.63C249.547 28.1667 249.603 27.6979 249.76 27.2594C248.805 27.0256 248.502 27.5394 248.502 28.5194V28.9912H242.331V24.0436H246.721C246.854 24.0452 246.985 24.0152 247.104 23.9561C247.223 23.897 247.326 23.8104 247.405 23.7035C247.484 23.5966 247.537 23.4725 247.559 23.3412C247.58 23.21 247.571 23.0755 247.53 22.9488H242.331V17.8304H248.322V18.62C248.322 19.5552 248.826 19.8618 249.44 19.74V16.828H238.936C238.936 16.828 238.591 17.829 239.364 17.829H240.203V28.9884H239.118V28.994ZM144.424 16.5018C141.702 16.5018 137.595 17.8864 137.595 23.6544C137.562 24.5447 137.71 25.4324 138.03 26.2636C138.351 27.0948 138.836 27.8523 139.457 28.49C140.078 29.1278 140.823 29.6326 141.644 29.9739C142.466 30.3151 143.349 30.4857 144.238 30.4752C145.866 30.4752 151.426 29.932 151.426 23.6544C151.43 17.8472 147.274 16.5018 144.424 16.5018ZM144.374 29.3608C142.647 29.3608 139.727 28.1988 139.727 23.6544C139.727 19.11 142.362 17.4426 144.557 17.4426C146.243 17.4426 149.293 18.7208 149.293 23.6544C149.297 28.7 146.175 29.3608 144.378 29.3608H144.374ZM183.69 46.2322V41.2384H184.093C184.369 41.238 184.634 41.1278 184.829 40.932C185.025 40.7362 185.134 40.4707 185.134 40.194V40.0246H182.6C182.46 40.0258 182.321 40.055 182.193 40.1104C182.064 40.1658 181.948 40.2463 181.851 40.3472C181.754 40.4481 181.678 40.5673 181.627 40.698C181.577 40.8287 181.553 40.9681 181.557 41.1082V46.3848H177.593V40.026H177.081C176.864 40.0164 176.647 40.0526 176.445 40.1322C176.242 40.2118 176.059 40.333 175.906 40.488C175.753 40.6431 175.635 40.8285 175.558 41.0322C175.482 41.236 175.448 41.4536 175.461 41.671V46.3834H158.124V41.2384H158.527C158.664 41.2384 158.8 41.2114 158.926 41.1589C159.052 41.1064 159.167 41.0294 159.264 40.9324C159.361 40.8354 159.437 40.7203 159.49 40.5936C159.542 40.4669 159.569 40.3311 159.569 40.194V40.0246H157.034C156.758 40.025 156.493 40.1352 156.297 40.331C156.102 40.5268 155.992 40.7922 155.992 41.069V49.2632C155.992 51.0762 153.533 51.324 152.068 49.8316C151.869 50.1127 151.788 50.4603 151.842 50.8002C151.896 51.1402 152.08 51.4457 152.356 51.6516C153.576 52.5266 158.127 52.577 158.127 49.028V47.264C158.308 47.4371 158.549 47.5326 158.8 47.53H176.037C176.402 47.4903 176.738 47.3125 176.976 47.033C177.05 47.1834 177.165 47.3099 177.307 47.3978C177.45 47.4858 177.614 47.5316 177.782 47.53H182.135C182.492 47.4851 182.828 47.339 183.104 47.1091C183.38 46.8791 183.585 46.5749 183.694 46.2322H183.69ZM184.249 28.9898C183.943 29.0514 183.935 30.1378 184.342 30.1378H194.358V28.63C194.324 28.1245 194.379 27.617 194.52 27.1306C193.565 26.8968 193.234 27.5016 193.234 28.4802V28.9884H187.522V17.8304H187.626C187.756 17.8423 187.887 17.8237 188.008 17.7759C188.13 17.7282 188.239 17.6528 188.326 17.5556C188.413 17.4584 188.477 17.3421 188.511 17.2161C188.546 17.09 188.55 16.9576 188.525 16.8294H184.63C184.35 16.9694 184.21 17.8304 184.853 17.8304H185.396V28.9898H184.252H184.249ZM153.906 17.836H154.435L159.082 24.8794V29.1564H158.225C158.225 29.1564 157.772 30.1364 159.09 30.1364H160.922C162.197 30.1364 162.291 29.2964 162.007 29.0486C161.699 29.099 161.427 29.134 161.207 29.1564V24.6764L165.642 17.8304H166.103C166.235 17.8417 166.367 17.8229 166.49 17.7756C166.613 17.7283 166.724 17.6537 166.814 17.5573C166.904 17.4609 166.971 17.3453 167.01 17.2192C167.049 17.0932 167.059 16.9599 167.039 16.8294H163.029C162.749 16.9694 162.601 17.8304 163.253 17.8304H164.328L160.567 23.6376L156.792 17.8276C156.91 17.8163 157.025 17.7811 157.129 17.7241C157.233 17.6671 157.324 17.5895 157.397 17.4959C157.47 17.4024 157.524 17.295 157.554 17.1801C157.584 17.0653 157.591 16.9455 157.574 16.828H153.678C153.399 16.9722 153.255 17.836 153.906 17.836ZM196.843 36.0864C196.685 36.0491 196.519 36.053 196.363 36.0978C196.206 36.1425 196.063 36.2265 195.948 36.342C195.833 36.4574 195.749 36.6003 195.705 36.7572C195.661 36.9142 195.657 37.0798 195.694 37.2386C195.733 37.4131 195.821 37.573 195.947 37.6996C196.074 37.8262 196.233 37.9144 196.407 37.954C196.566 37.9905 196.731 37.986 196.887 37.941C197.043 37.8959 197.186 37.8119 197.301 37.6967C197.416 37.5815 197.499 37.4389 197.544 37.2824C197.589 37.1258 197.593 36.9605 197.557 36.8018C197.517 36.6274 197.429 36.4677 197.303 36.3412C197.177 36.2146 197.018 36.1263 196.843 36.0864ZM179.539 30.1378C180.814 30.1378 180.908 29.2978 180.624 29.0514C180.311 29.1018 180.033 29.1368 179.81 29.1592L175.123 16.8294H171.929C171.929 16.8294 171.608 17.8304 172.554 17.8304L168.08 29.1592C167.94 29.1592 166.857 29.1592 166.717 29.1592C166.717 29.1592 166.264 30.1392 167.584 30.1392H169.421C170.698 30.1392 170.791 29.2992 170.505 29.0528C170 29.1354 169.579 29.1746 169.355 29.1928L170.63 25.8692H176.427L177.701 29.1606H176.832C176.832 29.1606 176.379 30.1406 177.698 30.1406H179.536L179.539 30.1378ZM171.102 24.8178L173.599 18.3778H173.636L176.037 24.8178H171.102ZM176.785 36.1774C176.55 36.1217 176.304 36.1441 176.084 36.2411C175.863 36.3382 175.68 36.5047 175.563 36.7153C175.445 36.9259 175.399 37.1692 175.432 37.4081C175.465 37.6472 175.575 37.8688 175.746 38.0396C175.916 38.2104 176.137 38.3208 176.376 38.3543C176.614 38.3878 176.857 38.3424 177.068 38.225C177.278 38.1077 177.445 37.9248 177.542 37.7041C177.639 37.4833 177.662 37.2368 177.607 37.002C177.561 36.8018 177.459 36.6186 177.314 36.4735C177.168 36.3285 176.985 36.2273 176.785 36.1816V36.1774ZM217.014 29.0976V24.4244C217.123 24.4097 217.228 24.37 217.32 24.3084C217.412 24.2467 217.488 24.1647 217.543 24.0687C217.598 23.9727 217.63 23.8654 217.637 23.7549C217.644 23.6445 217.626 23.5339 217.583 23.4318H213.389C213.351 23.5579 213.345 23.6913 213.369 23.8205C213.394 23.9497 213.45 24.0711 213.531 24.1742C213.613 24.2774 213.718 24.3593 213.838 24.4131C213.958 24.4669 214.089 24.4909 214.221 24.4832H215.396V28.84C213.998 29.8662 206.822 29.869 206.868 23.4892C206.894 18.5234 210.437 17.3404 212.831 17.3404C213.937 17.3059 215.037 17.5083 216.059 17.934C216.009 18.3425 216.005 18.7553 216.048 19.1646C216.042 19.2831 216.066 19.4013 216.12 19.5073C216.173 19.6133 216.253 19.7035 216.352 19.7689C216.451 19.8342 216.565 19.8726 216.684 19.88C216.802 19.8875 216.92 19.8638 217.027 19.8114V17.4594C215.609 16.7042 214.017 16.3372 212.413 16.3954C211.43 16.3427 210.447 16.4844 209.519 16.8125C208.591 17.1405 207.737 17.6485 207.005 18.3073C206.273 18.966 205.678 19.7628 205.254 20.6519C204.83 21.5411 204.585 22.5052 204.533 23.4892C204.533 27.8824 208.076 30.3576 212.02 30.3576C213.77 30.422 215.502 29.9864 217.014 29.1018V29.0976ZM243.758 49.0882C243.524 49.0328 243.278 49.0555 243.057 49.1528C242.837 49.2502 242.654 49.4168 242.537 49.6275C242.42 49.8382 242.374 50.0815 242.407 50.3204C242.441 50.5593 242.551 50.7808 242.721 50.9514C242.891 51.122 243.113 51.2323 243.351 51.2656C243.59 51.2989 243.833 51.2533 244.043 51.1359C244.254 51.0184 244.42 50.8355 244.517 50.6147C244.614 50.394 244.637 50.1476 244.582 49.9128C244.535 49.7125 244.433 49.5294 244.287 49.3844C244.142 49.2393 243.959 49.1382 243.758 49.0924V49.0882ZM242.693 41.0648V46.3848H225.969V35.9926H226.37C226.647 35.9926 226.912 35.8826 227.108 35.6867C227.303 35.4908 227.413 35.2252 227.413 34.9482V34.7788H224.878C224.602 34.7788 224.336 34.8888 224.141 35.0847C223.945 35.2806 223.835 35.5462 223.835 35.8232V46.2322C223.945 46.5726 224.149 46.8747 224.423 47.1035C224.698 47.3323 225.032 47.4783 225.386 47.5244H243.27C243.624 47.4783 243.958 47.3323 244.233 47.1035C244.507 46.8747 244.711 46.5726 244.821 46.2322V41.2384H245.228C245.504 41.238 245.769 41.1278 245.964 40.932C246.16 40.7362 246.269 40.4707 246.269 40.194V40.0246H243.735C243.458 40.025 243.193 40.1352 242.998 40.331C242.803 40.5268 242.693 40.7922 242.693 41.069V41.0648ZM241.049 49.0882C240.814 49.0328 240.568 49.0555 240.348 49.1528C240.127 49.2502 239.945 49.4168 239.827 49.6275C239.71 49.8382 239.665 50.0815 239.698 50.3204C239.731 50.5593 239.841 50.7808 240.012 50.9514C240.182 51.122 240.403 51.2323 240.642 51.2656C240.88 51.2989 241.123 51.2533 241.334 51.1359C241.544 51.0184 241.71 50.8355 241.808 50.6147C241.905 50.394 241.928 50.1476 241.872 49.9128C241.826 49.7125 241.724 49.5293 241.578 49.3842C241.433 49.2391 241.249 49.138 241.049 49.0924V49.0882ZM252.319 39.746C250.279 39.746 247.356 40.8534 247.226 43.8158C247.027 48.4358 251.839 48.6304 253.816 47.7848V49.3766C253.816 50.8704 251.449 51.6964 249.762 49.8918C249.657 50.0278 249.581 50.184 249.538 50.3506C249.495 50.5172 249.487 50.6908 249.514 50.8606C249.541 51.0305 249.603 51.193 249.695 51.3382C249.787 51.4834 249.908 51.6081 250.05 51.7048C251.588 52.5826 255.782 52.36 255.782 48.8096V41.2384C255.919 41.2747 256.064 41.2722 256.2 41.231C256.336 41.1898 256.457 41.1117 256.551 41.0053C256.646 40.8988 256.708 40.7683 256.733 40.6283C256.757 40.4883 256.742 40.3442 256.689 40.2122C255.255 39.8888 253.789 39.7342 252.319 39.7516V39.746ZM253.816 46.816C252.288 47.3046 249.352 46.7824 249.352 44.009C249.308 43.4569 249.407 42.9027 249.639 42.4C249.871 41.8973 250.229 41.463 250.678 41.1393C251.127 40.8156 251.651 40.6132 252.201 40.5519C252.751 40.4905 253.307 40.5722 253.816 40.789V46.816ZM278.104 16.828C277.824 16.968 277.685 17.829 278.328 17.829H279.481V27.8446H279.214L272.113 16.828H268.405C268.374 16.9496 268.372 17.0768 268.399 17.1995C268.426 17.3221 268.481 17.4367 268.56 17.5341C268.639 17.6315 268.74 17.7089 268.855 17.7601C268.969 17.8113 269.094 17.8349 269.219 17.829H269.801V29.169C269.391 29.1592 269.695 29.169 268.24 29.169C268.24 29.169 267.79 30.149 269.107 30.149H271.548C272.825 30.149 272.919 29.309 272.632 29.0626C272.198 29.1342 271.761 29.1809 271.322 29.2026L270.943 29.1942V19.18H271.03L278.15 30.1364H279.871C279.976 30.1435 280.08 30.1273 280.177 30.0891C280.274 30.0509 280.362 29.9915 280.434 29.9153C280.505 29.8391 280.559 29.748 280.591 29.6485C280.623 29.5489 280.633 29.4435 280.619 29.3398V17.8318H281.064C281.195 17.8431 281.327 17.8243 281.45 17.777C281.573 17.7297 281.684 17.6551 281.774 17.5587C281.864 17.4623 281.931 17.3467 281.97 17.2206C282.009 17.0946 282.019 16.9613 281.999 16.8308H278.104V16.828ZM291.192 22.7822C289.697 22.2502 287.715 21.6426 287.715 20.0774C287.796 19.3334 288.162 18.6497 288.735 18.1696C289.308 17.6894 290.045 17.45 290.79 17.5014C291.716 17.4595 292.635 17.6633 293.457 18.0922C293.457 18.0922 293.457 18.6816 293.457 19.5062C293.441 19.6491 293.461 19.7936 293.516 19.9267C293.57 20.0598 293.657 20.1772 293.768 20.2682C293.879 20.3593 294.011 20.4212 294.152 20.4482C294.293 20.4753 294.438 20.4667 294.575 20.4232V17.64C291.158 15.2376 285.578 16.2302 285.578 20.23C285.578 22.9894 288.737 23.856 290.382 24.521C291.962 25.1608 292.934 25.5934 292.934 27.321C292.922 27.6992 292.83 28.0706 292.664 28.4106C292.498 28.7506 292.262 29.0513 291.971 29.2929C291.68 29.5345 291.341 29.7114 290.977 29.812C290.613 29.9125 290.231 29.9343 289.858 29.876C287.23 29.876 286.521 28.9128 286.521 28.9128V26.887C286.372 26.8544 286.217 26.8584 286.07 26.8987C285.923 26.9391 285.788 27.0145 285.677 27.1186C285.565 27.2226 285.481 27.3522 285.43 27.4962C285.38 27.6403 285.365 27.7944 285.387 27.9454V29.421C285.387 29.421 286.57 30.8056 289.833 30.8056C293.338 30.8056 294.995 28.7252 294.995 26.8198C295 24.052 292.335 23.191 291.192 22.7822ZM226.508 29.05C225.987 29.1354 225.555 29.1732 225.338 29.19V24.8332H227.751C227.751 24.8332 231.262 28.7714 231.54 29.0934C232.198 29.8014 233.105 30.2248 234.069 30.2736C234.554 30.3016 235.039 30.2148 235.484 30.0202C235.929 29.8256 236.322 29.5287 236.631 29.1536C236.609 29.0542 236.565 28.9611 236.501 28.8819C236.437 28.8027 236.356 28.7394 236.263 28.6972C235.897 28.9447 235.47 29.0853 235.029 29.1032C234.753 29.1322 234.474 29.0955 234.215 28.996C233.956 28.8964 233.724 28.737 233.538 28.5306C233.398 28.3906 230.027 24.4034 230.027 24.4034C230.827 24.213 231.545 23.7699 232.073 23.1396C232.602 22.5092 232.914 21.7252 232.964 20.9034C232.964 17.7226 230.64 16.835 227.503 16.835H221.858C221.858 16.835 221.465 17.836 222.711 17.836H223.208V29.162H222.269C222.269 29.162 221.818 30.142 223.136 30.142H225.425C226.699 30.1378 226.795 29.2964 226.508 29.05ZM225.338 17.829H227.435C229.096 17.829 230.829 18.3764 230.838 20.8404C230.832 21.2503 230.742 21.6545 230.574 22.0281C230.405 22.4017 230.162 22.7367 229.859 23.0123C229.556 23.2879 229.2 23.4983 228.812 23.6304C228.424 23.7626 228.014 23.8136 227.606 23.7804H225.334V17.829H225.338ZM260.944 41.069V49.2632C260.944 51.4794 258.483 51.324 257.021 49.8344C256.823 50.1144 256.742 50.4608 256.796 50.7997C256.85 51.1385 257.034 51.4428 257.309 51.6474C258.529 52.5224 263.08 52.5728 263.08 49.0238V41.2384H263.481C263.618 41.2384 263.754 41.2114 263.88 41.1589C264.007 41.1064 264.122 41.0295 264.219 40.9325C264.316 40.8355 264.393 40.7204 264.445 40.5937C264.497 40.467 264.524 40.3312 264.524 40.194V40.0246H261.99C261.852 40.0242 261.716 40.051 261.59 40.1033C261.463 40.1556 261.347 40.2325 261.25 40.3295C261.153 40.4265 261.076 40.5418 261.023 40.6687C260.971 40.7956 260.944 40.9316 260.944 41.069ZM200.965 46.389H198.932C198.003 46.4103 197.101 46.0719 196.414 45.4443C195.727 44.8167 195.308 43.9481 195.244 43.0192C195.232 42.6462 195.297 42.2747 195.432 41.9272C195.568 41.5797 195.773 41.2634 196.034 40.9974C196.296 40.7313 196.608 40.5211 196.953 40.3794C197.298 40.2377 197.668 40.1675 198.04 40.173C198.576 40.144 199.11 40.2488 199.595 40.4782C199.49 40.9441 199.453 41.4227 199.485 41.8992C199.563 42.8456 200.603 42.3808 200.603 42.3808V40.026C199.65 39.6088 198.616 39.4098 197.576 39.4436C196.793 39.4047 196.012 39.5676 195.309 39.9169C194.607 40.2662 194.005 40.7901 193.562 41.4386C193.114 42.2454 192.967 43.1852 193.146 44.0907C193.325 44.9961 193.82 45.8086 194.541 46.3834H189.916V41.2384H190.319C190.595 41.238 190.86 41.1278 191.055 40.932C191.25 40.7362 191.36 40.4707 191.36 40.194V40.0246H188.825C188.549 40.025 188.284 40.1352 188.089 40.331C187.893 40.5268 187.784 40.7922 187.784 41.069V49.2632C187.784 51.0762 185.325 51.324 183.859 49.8316C183.661 50.1127 183.58 50.4603 183.634 50.8002C183.688 51.1402 183.872 51.4457 184.147 51.6516C185.368 52.5266 189.919 52.577 189.919 49.028V47.264C190.1 47.4371 190.341 47.5326 190.591 47.53H200.926C201.071 47.3764 201.155 47.1748 201.161 46.9634C201.168 46.752 201.097 46.5456 200.961 46.3834L200.965 46.389ZM182.239 49.098C182.004 49.0423 181.758 49.0647 181.538 49.1617C181.317 49.2588 181.134 49.4253 181.017 49.6359C180.899 49.8465 180.853 50.0898 180.886 50.3288C180.919 50.5678 181.029 50.7895 181.2 50.9602C181.37 51.131 181.591 51.2414 181.83 51.2749C182.068 51.3084 182.311 51.263 182.522 51.1456C182.732 51.0283 182.899 50.8454 182.996 50.6247C183.093 50.4039 183.116 50.1574 183.061 49.9226C183.016 49.7199 182.915 49.5341 182.768 49.3871C182.622 49.24 182.437 49.1378 182.235 49.0924L182.239 49.098ZM180.354 49.924C180.309 49.732 180.214 49.5556 180.078 49.413C179.942 49.2703 179.77 49.1667 179.581 49.1127C179.391 49.0586 179.191 49.0563 179 49.1058C178.809 49.1553 178.636 49.2549 178.496 49.3943C178.357 49.5336 178.257 49.7078 178.208 49.8986C178.158 50.0895 178.16 50.2901 178.214 50.4799C178.268 50.6696 178.371 50.8415 178.513 50.9778C178.656 51.1142 178.832 51.21 179.023 51.2554C179.208 51.3016 179.401 51.2992 179.584 51.2483C179.767 51.1975 179.934 51.0999 180.068 50.9652C180.202 50.8305 180.299 50.6633 180.35 50.4798C180.4 50.2963 180.402 50.1029 180.356 49.9184L180.354 49.924ZM215.076 50.96C218.943 50.96 220.119 48.7284 220.119 48.2482V35.9926H220.522C220.798 35.9922 221.063 35.882 221.258 35.6862C221.454 35.4904 221.563 35.2249 221.563 34.9482V34.7788H219.029C218.752 34.7788 218.487 34.8888 218.291 35.0847C218.096 35.2806 217.986 35.5462 217.986 35.8232V48.9286C217.576 49.2846 217.096 49.5494 216.577 49.7056C216.058 49.8617 215.512 49.9056 214.974 49.8344C214.429 49.8469 213.887 49.7453 213.384 49.5359C212.88 49.3266 212.426 49.0142 212.049 48.6188C211.673 48.2234 211.384 47.7537 211.2 47.2397C211.016 46.7258 210.941 46.179 210.98 45.6344C210.94 44.5874 211.201 43.551 211.732 42.6482C211.456 42.5188 211.143 42.491 210.848 42.5698C210.267 42.6664 209.2 43.6212 209.2 46.1062C209.2 48.7956 211.335 50.96 215.076 50.96ZM140.848 65.394C140.67 65.394 140.511 65.4038 140.429 65.4038C140.346 65.4038 140.113 65.4038 139.878 65.3926C139.608 65.3926 139.318 65.38 139.179 65.38H139.119V65.8L139.169 65.8084C139.748 65.9092 139.795 66.1248 139.795 66.3208V67.956C139.37 68.1873 138.901 68.3252 138.418 68.3606C137.986 68.3665 137.558 68.2786 137.163 68.1031C136.768 67.9276 136.415 67.6685 136.13 67.3437C135.844 67.0189 135.632 66.636 135.508 66.2214C135.384 65.8068 135.352 65.3703 135.412 64.9418C135.379 64.5498 135.427 64.155 135.554 63.7826C135.681 63.4103 135.884 63.0684 136.15 62.7788C136.416 62.4891 136.739 62.258 137.099 62.1002C137.459 61.9423 137.848 61.8611 138.241 61.8618C138.647 61.8452 139.05 61.936 139.41 62.1253C139.771 62.3145 140.074 62.5955 140.292 62.9398L140.308 62.9706H140.707L140.629 61.4768H140.57C140.366 61.4723 140.163 61.445 139.964 61.3956C139.798 61.3606 139.646 61.3242 139.497 61.2878C139.072 61.1681 138.633 61.1036 138.192 61.096C137.639 61.0619 137.086 61.1423 136.566 61.3321C136.045 61.5219 135.57 61.817 135.169 62.1991C134.768 62.5812 134.45 63.0421 134.235 63.5528C134.02 64.0635 133.912 64.6132 133.919 65.1674C133.926 65.7216 134.046 66.2685 134.274 66.7739C134.501 67.2793 134.83 67.7324 135.24 68.1047C135.65 68.477 136.132 68.7607 136.657 68.9379C137.181 69.1152 137.737 69.1822 138.288 69.1348C138.917 69.1385 139.545 69.0694 140.159 68.929C140.479 68.8345 140.806 68.7676 141.137 68.7288H141.193V66.36C141.17 66.2469 141.187 66.1293 141.241 66.0273C141.295 65.9252 141.382 65.8449 141.488 65.8L141.533 65.7874V65.38H141.472C141.315 65.38 141.069 65.3884 140.848 65.394ZM147.317 61.0876C146.789 61.0814 146.266 61.1825 145.778 61.3846C145.29 61.5868 144.848 61.8858 144.479 62.2637C144.11 62.6416 143.821 63.0905 143.63 63.5832C143.439 64.076 143.35 64.6025 143.367 65.1308C143.358 65.6556 143.452 66.1771 143.646 66.6648C143.84 67.1526 144.129 67.5968 144.496 67.9714C144.863 68.346 145.301 68.6436 145.784 68.8468C146.268 69.0499 146.787 69.1546 147.311 69.1546C147.835 69.1546 148.354 69.0499 148.837 68.8468C149.321 68.6436 149.759 68.346 150.126 67.9714C150.493 67.5968 150.782 67.1526 150.976 66.6648C151.169 66.1771 151.264 65.6556 151.254 65.1308C151.272 64.6035 151.184 64.0779 150.994 63.5858C150.804 63.0936 150.516 62.6452 150.148 62.2674C149.78 61.8897 149.34 61.5906 148.853 61.388C148.366 61.1855 147.844 61.0838 147.317 61.089V61.0876ZM149.765 65.1308C149.765 66.6918 149.122 68.3592 147.317 68.3592C145.512 68.3592 144.858 66.6918 144.858 65.1308C144.858 63.5474 145.504 61.8548 147.317 61.8548C149.13 61.8548 149.765 63.5488 149.765 65.1322V65.1308ZM158.452 67.2966C158.37 67.5662 158.201 67.8013 157.973 67.9653C157.744 68.1293 157.467 68.2132 157.186 68.2038H155.179V62.16C155.191 62.0134 155.258 61.8769 155.366 61.7775C155.474 61.6782 155.616 61.6233 155.763 61.6238L155.809 61.6112V61.208H155.749C155.637 61.208 155.345 61.208 155.068 61.2206C154.815 61.2206 154.573 61.2318 154.488 61.2318C154.403 61.2318 154.124 61.2318 153.86 61.2192C153.596 61.2066 153.329 61.2066 153.228 61.2066H153.167V61.6168L153.216 61.6266C153.289 61.623 153.361 61.6342 153.43 61.6594C153.498 61.6847 153.561 61.7235 153.614 61.7736C153.667 61.8236 153.71 61.8839 153.739 61.9508C153.768 62.0176 153.784 62.0898 153.785 62.1628V68.0162C153.782 68.1584 153.728 68.2946 153.632 68.3997C153.536 68.5048 153.406 68.5715 153.265 68.5874L153.213 68.6V69.0116H153.274C153.421 69.0116 153.694 69.0046 153.957 68.9976C154.178 68.9976 154.376 68.9878 154.475 68.9878H156.728C157.353 68.9753 157.978 68.9992 158.6 69.0592H158.66L158.864 67.347L158.466 67.2504L158.452 67.2966ZM163.999 61.2066H160.538V61.6154L160.585 61.6266C160.721 61.6414 160.847 61.7029 160.943 61.8008C161.038 61.8986 161.096 62.0266 161.108 62.1628V68.0162C161.105 68.1598 161.052 68.2977 160.956 68.4048C160.861 68.512 160.73 68.5812 160.588 68.6L160.538 68.6084V69.0074H160.599C160.75 69.0074 161.07 69.0004 161.355 68.9934C161.585 68.9934 161.792 68.9836 161.871 68.9836C161.951 68.9836 162.211 68.9836 162.471 68.9948C162.769 68.9948 163.086 69.0088 163.226 69.0088H163.288V68.6L163.236 68.5916C162.503 68.4782 162.503 68.1716 162.503 68.0568V65.3604H164.094C164.228 65.3612 164.357 65.4026 164.467 65.4791C164.576 65.5557 164.659 65.6637 164.705 65.7888L164.721 65.8252H165.116V65.7636C165.116 65.6236 165.108 65.429 165.101 65.2624C165.101 65.1406 165.093 65.0328 165.093 64.9824C165.093 64.8508 165.093 64.449 165.116 64.2138V64.1466H164.697L164.68 64.1816C164.638 64.3068 164.557 64.4155 164.45 64.4925C164.342 64.5696 164.214 64.6112 164.082 64.6114H162.491V61.9864H164.272C164.498 61.9781 164.721 62.0412 164.91 62.1668C165.098 62.2924 165.242 62.4742 165.322 62.6864L165.339 62.7228H165.736L165.761 61.1296L165.599 61.1408C165.116 61.18 164.645 61.208 163.998 61.208L163.999 61.2066ZM178.464 67.7432L177.485 66.8696C177.652 66.5476 177.804 66.1696 177.952 65.8126C178.008 65.6726 178.064 65.5326 178.12 65.4052C178.156 65.3066 178.198 65.2103 178.246 65.1168C178.48 64.8031 178.799 64.5639 179.166 64.428L179.206 64.4126V64.0038H179.139C178.86 64.0276 178.249 64.0388 178.087 64.0388C177.924 64.0388 177.325 64.0262 177.046 64.0038H176.979V64.4L177.01 64.4182C177.121 64.4674 177.212 64.5537 177.267 64.6624C177.322 64.7711 177.338 64.8956 177.312 65.0146C177.169 65.4383 177 65.853 176.807 66.2564L175.13 64.7794C175.56 64.6725 175.948 64.436 176.24 64.1019C176.532 63.7677 176.715 63.3519 176.764 62.9104C176.764 61.7904 175.925 61.1562 174.479 61.1562C174.193 61.1218 173.902 61.1471 173.626 61.2304C173.349 61.3138 173.093 61.4534 172.873 61.6405C172.652 61.8277 172.473 62.0583 172.346 62.3181C172.219 62.5778 172.147 62.8609 172.135 63.1498C172.192 63.5047 172.32 63.8443 172.513 64.1478C172.705 64.4513 172.957 64.7124 173.253 64.9152C172.836 65.0944 172.477 65.3853 172.214 65.7557C171.951 66.1262 171.796 66.562 171.764 67.0152C171.772 67.3389 171.849 67.6571 171.99 67.9483C172.132 68.2395 172.334 68.4968 172.584 68.7028C172.833 68.9087 173.124 69.0585 173.436 69.142C173.749 69.2255 174.075 69.2407 174.394 69.1866C174.85 69.2161 175.305 69.1266 175.716 68.9268C176.127 68.727 176.479 68.4239 176.737 68.047L177.113 68.362C177.461 68.6955 177.89 68.9326 178.357 69.0499C178.825 69.1673 179.314 69.1608 179.778 69.0312L179.83 69.0228V68.6294L179.789 68.6154C179.294 68.4157 178.844 68.1198 178.464 67.7446V67.7432ZM173.634 62.7942C173.624 62.6748 173.639 62.5548 173.677 62.4413C173.715 62.3279 173.776 62.2235 173.856 62.1344C173.936 62.0453 174.034 61.9735 174.142 61.9232C174.251 61.873 174.368 61.8454 174.488 61.8422C174.61 61.8388 174.731 61.8636 174.841 61.9146C174.952 61.9655 175.049 62.0413 175.126 62.1361C175.203 62.2308 175.257 62.342 175.284 62.4609C175.311 62.5799 175.31 62.7035 175.282 62.8222C175.295 63.1083 175.223 63.3919 175.073 63.6361C174.923 63.8803 174.704 64.0738 174.443 64.1914L174.405 64.1578C174.172 64.0145 173.979 63.8144 173.844 63.5762C173.709 63.338 173.637 63.0694 173.634 62.7956V62.7942ZM176.105 67.48C175.959 67.6903 175.763 67.8613 175.534 67.978C175.306 68.0947 175.053 68.1535 174.797 68.1492C174.595 68.1672 174.391 68.1414 174.2 68.0737C174.009 68.006 173.834 67.8979 173.688 67.7568C173.543 67.6156 173.429 67.4447 173.355 67.2557C173.281 67.0666 173.248 66.8638 173.259 66.661C173.262 66.4327 173.32 66.2085 173.426 66.0068C173.533 65.805 173.686 65.6315 173.873 65.5004L176.105 67.48ZM191.947 67.2882C191.701 67.6691 191.352 67.9722 190.941 68.1625C190.53 68.3528 190.073 68.4225 189.624 68.3634C188.843 68.2775 188.126 67.8893 187.627 67.2818C187.127 66.6742 186.885 65.8953 186.951 65.1112C186.951 63.1652 188.024 61.859 189.624 61.859C190.056 61.8038 190.495 61.8761 190.886 62.0671C191.278 62.2581 191.605 62.5595 191.828 62.9342L191.845 62.9678H192.24L192.161 61.474H192.103C191.898 61.4694 191.695 61.4421 191.497 61.3928L191.164 61.3186C190.659 61.1863 190.14 61.1102 189.618 61.0918C189.075 61.057 188.531 61.1359 188.02 61.3235C187.509 61.5112 187.043 61.8035 186.651 62.1817C186.259 62.5599 185.95 63.0158 185.744 63.5202C185.538 64.0246 185.44 64.5665 185.455 65.1112C185.427 65.6593 185.516 66.2071 185.718 66.7175C185.919 67.228 186.228 67.6892 186.622 68.0701C187.017 68.451 187.489 68.7428 188.005 68.9258C188.522 69.1087 189.072 69.1785 189.618 69.1306C190.222 69.1119 190.822 69.0264 191.408 68.8758L191.616 68.831C191.811 68.7837 192.01 68.7561 192.21 68.7484L192.28 68.7624L192.358 67.2546H191.96L191.947 67.2882ZM197.912 61.0918C197.384 61.0868 196.861 61.1887 196.374 61.3912C195.887 61.5938 195.445 61.8929 195.076 62.2705C194.707 62.6481 194.419 63.0966 194.227 63.5888C194.036 64.0811 193.945 64.607 193.962 65.135C193.952 65.6598 194.047 66.1813 194.241 66.6691C194.434 67.1568 194.723 67.601 195.09 67.9756C195.458 68.3502 195.896 68.6478 196.379 68.851C196.862 69.0541 197.381 69.1588 197.905 69.1588C198.43 69.1588 198.948 69.0541 199.432 68.851C199.915 68.6478 200.353 68.3502 200.72 67.9756C201.087 67.601 201.376 67.1568 201.57 66.6691C201.764 66.1813 201.859 65.6598 201.849 65.135C201.868 64.6073 201.78 64.0813 201.59 63.5887C201.4 63.096 201.112 62.6471 200.744 62.2689C200.376 61.8907 199.936 61.5912 199.449 61.3884C198.962 61.1856 198.439 61.0837 197.912 61.089V61.0918ZM200.36 65.135C200.36 66.696 199.717 68.3634 197.912 68.3634C196.107 68.3634 195.452 66.696 195.452 65.135C195.452 63.5516 196.098 61.859 197.912 61.859C199.725 61.859 200.36 63.5488 200.36 65.1322V65.135ZM210.64 61.2234C210.45 61.2234 210.268 61.2346 210.183 61.2346C210.098 61.2346 209.884 61.2346 209.685 61.222C209.487 61.2094 209.285 61.2094 209.185 61.2094H209.123V61.6196L209.172 61.6294C209.245 61.6258 209.318 61.637 209.386 61.6622C209.455 61.6875 209.517 61.7263 209.57 61.7764C209.623 61.8264 209.666 61.8867 209.695 61.9536C209.725 62.0204 209.74 62.0926 209.741 62.1656V66.4804C209.727 66.7581 209.656 67.0299 209.533 67.2787C209.409 67.5275 209.235 67.7478 209.021 67.9258C208.808 68.1038 208.56 68.2356 208.294 68.3129C208.027 68.3901 207.747 68.4111 207.472 68.3746C207.224 68.3817 206.978 68.3371 206.749 68.2435C206.52 68.15 206.312 68.0097 206.14 67.8314C205.968 67.6532 205.835 67.441 205.75 67.2084C205.664 66.9758 205.628 66.7278 205.643 66.4804V62.1754C205.645 62.0408 205.695 61.9115 205.785 61.8109C205.874 61.7104 205.996 61.6455 206.13 61.628L206.179 61.6182V61.208H206.117C205.965 61.208 205.682 61.215 205.429 61.222C205.227 61.222 205.043 61.2318 204.964 61.2318C204.884 61.2318 204.656 61.2318 204.428 61.2206C204.168 61.2206 203.89 61.208 203.75 61.208H203.689V61.6168L203.736 61.628C203.872 61.644 203.998 61.7078 204.092 61.808C204.186 61.9082 204.241 62.0383 204.248 62.1754V66.1808C204.212 66.5825 204.265 66.9872 204.405 67.3655C204.544 67.7439 204.766 68.0863 205.054 68.3679C205.343 68.6495 205.69 68.8632 206.071 68.9934C206.452 69.1237 206.858 69.1672 207.258 69.1208C209.453 69.1208 210.613 68.1016 210.613 66.1808V62.16C210.613 61.9332 210.711 61.7652 211.199 61.6238L211.243 61.6098V61.208H211.181C211.069 61.208 210.85 61.215 210.64 61.2206V61.2234ZM220.438 61.2234C220.248 61.2234 220.066 61.2346 219.981 61.2346C219.895 61.2346 219.682 61.2346 219.483 61.222C219.284 61.2094 219.083 61.2094 218.982 61.2094H218.921V61.6196L218.97 61.6294C219.043 61.6258 219.116 61.637 219.184 61.6622C219.252 61.6875 219.315 61.7263 219.368 61.7764C219.421 61.8264 219.464 61.8867 219.493 61.9536C219.523 62.0204 219.538 62.0926 219.539 62.1656V66.864L214.689 61.2318L214.671 61.2094H214.643C214.503 61.2094 214.395 61.2164 214.297 61.2234C214.134 61.2338 213.969 61.2338 213.805 61.2234C213.691 61.2234 213.561 61.2094 213.394 61.2094H213.333V61.6154L213.376 61.628C213.517 61.6773 213.636 61.7742 213.712 61.9021C213.789 62.03 213.818 62.1806 213.796 62.328V68.068C213.796 68.2948 213.698 68.4628 213.211 68.6042L213.166 68.6168V69.0102H213.228C213.34 69.0102 213.559 69.0102 213.769 68.9962C213.979 68.9822 214.141 68.985 214.226 68.985C214.311 68.985 214.525 68.985 214.724 68.9976C214.922 69.0102 215.124 69.0102 215.224 69.0102H215.286V68.6L215.238 68.5902C214.735 68.4838 214.668 68.2654 214.668 68.0666V63.28L218.924 68.222C219.236 68.5442 219.573 68.8419 219.932 69.1124L219.949 69.125H220.411V62.16C220.411 61.9332 220.509 61.7652 220.997 61.6238L221.042 61.6098V61.208H220.98C220.867 61.208 220.648 61.215 220.438 61.2206V61.2234ZM226.081 61.2346C223.87 61.2346 223.304 61.1954 222.806 61.1604L222.606 61.1464L222.646 62.8838H223.05L223.061 62.8376C223.083 62.6191 223.183 62.4159 223.342 62.2648C223.502 62.1138 223.71 62.025 223.929 62.0144H225.375V68.04C225.344 68.183 225.269 68.3127 225.16 68.4109C225.052 68.5091 224.916 68.5708 224.771 68.5874L224.724 68.6V69.0102H224.786C224.937 69.0102 225.257 69.0032 225.542 68.9962C225.77 68.9962 225.979 68.9864 226.058 68.9864C226.138 68.9864 226.392 68.9864 226.647 68.9976C226.938 68.9976 227.249 69.0116 227.389 69.0116H227.451V68.6L227.402 68.5902C227.253 68.5759 227.113 68.5155 227 68.4174C226.887 68.3193 226.808 68.1883 226.773 68.0428V62.0116H228.221C228.441 62.0161 228.651 62.1033 228.81 62.2558C228.968 62.4084 229.063 62.6151 229.077 62.8348L229.089 62.881H229.493L229.545 61.1436L229.34 61.1576C228.845 61.1926 228.285 61.2318 226.081 61.2318V61.2346ZM237.045 67.7432L235.34 65.5494C235.81 65.4429 236.231 65.1846 236.539 64.8144C236.848 64.4442 237.026 63.9828 237.046 63.5012C237.027 63.1543 236.936 62.8152 236.779 62.5055C236.621 62.1957 236.402 61.9222 236.133 61.7022C235.864 61.4823 235.553 61.3208 235.219 61.228C234.884 61.1352 234.534 61.1131 234.191 61.1632C233.987 61.1632 233.632 61.1828 233.281 61.201C232.93 61.2192 232.643 61.2346 232.478 61.2346C232.385 61.2346 232.174 61.2346 231.948 61.2234C231.691 61.2234 231.417 61.2108 231.277 61.2108H231.217V61.6196L231.265 61.6308C231.401 61.6434 231.529 61.7043 231.625 61.8026C231.721 61.9008 231.778 62.03 231.788 62.167V68.047C231.78 68.1836 231.725 68.3131 231.631 68.4131C231.538 68.5131 231.413 68.5773 231.277 68.5944L231.228 68.6V69.0102H231.29C231.441 69.0102 231.725 69.0032 231.978 68.9962C232.181 68.9962 232.364 68.9864 232.443 68.9864C232.523 68.9864 232.751 68.9864 232.979 68.9976C233.239 68.9976 233.516 69.0116 233.656 69.0116H233.717V68.6L233.67 68.5888C233.535 68.5733 233.411 68.509 233.322 68.4081C233.232 68.3072 233.182 68.1767 233.182 68.0414V65.6306C233.376 65.655 233.572 65.6686 233.769 65.6712L235.783 68.2584C235.93 68.5047 236.14 68.7076 236.391 68.8463C236.641 68.985 236.925 69.0546 237.211 69.048C237.473 69.0429 237.734 69.0181 237.993 68.9738L238.046 68.9654V68.6126L238.012 68.6C237.634 68.3829 237.305 68.0903 237.045 67.7404V67.7432ZM235.556 63.49C235.566 63.7009 235.53 63.9116 235.45 64.107C235.37 64.3025 235.248 64.478 235.093 64.621C234.938 64.7641 234.753 64.8712 234.552 64.9349C234.351 64.9986 234.139 65.0172 233.93 64.9894C233.68 64.9884 233.43 64.9744 233.182 64.9474V61.9052C233.405 61.8659 233.631 61.8458 233.858 61.845C234.082 61.823 234.307 61.85 234.519 61.9239C234.731 61.9978 234.925 62.1171 235.086 62.2732C235.247 62.4294 235.373 62.6189 235.454 62.8285C235.535 63.0381 235.57 63.2629 235.556 63.4872V63.49ZM244.899 61.2248C244.747 61.2248 244.62 61.2346 244.548 61.2346C244.477 61.2346 244.348 61.2346 244.196 61.2248C243.99 61.2248 243.753 61.2094 243.596 61.2094H243.535V61.621L243.586 61.6294C243.768 61.6574 243.832 61.7176 243.832 61.7596C243.814 61.9212 243.751 62.0747 243.652 62.2034L242.17 64.5064L240.701 62.1684C240.618 62.0472 240.57 61.906 240.561 61.7596C240.573 61.7204 240.597 61.6862 240.631 61.6626C240.664 61.639 240.704 61.6273 240.745 61.6294L240.798 61.6224V61.2024H240.737C240.561 61.2024 240.27 61.2108 240.018 61.2178C239.828 61.2178 239.66 61.2276 239.584 61.2276C239.507 61.2276 239.322 61.2276 239.124 61.2178C238.876 61.2178 238.596 61.2038 238.424 61.2038H238.377V61.6028L238.412 61.6196C238.797 61.8252 239.124 62.1253 239.361 62.4918L241.229 65.4318V68.04C241.227 68.178 241.173 68.3102 241.079 68.4112C240.985 68.5123 240.857 68.575 240.72 68.5874L240.67 68.6V69.0102H240.731C240.899 69.0102 241.196 69.0032 241.454 68.9962C241.653 68.9962 241.83 68.9864 241.907 68.9864C241.984 68.9864 242.208 68.9864 242.431 68.9962C242.692 68.9962 242.973 69.0102 243.121 69.0102H243.182V68.6L243.135 68.5888C242.997 68.577 242.868 68.5146 242.774 68.4135C242.679 68.3124 242.626 68.1798 242.623 68.0414V65.3884L244.339 62.7214C244.614 62.2439 245.027 61.8612 245.524 61.6238L245.56 61.607V61.208H245.499C245.342 61.208 245.103 61.2164 244.899 61.2234V61.2248ZM257.43 67.2882C257.184 67.6691 256.835 67.9722 256.424 68.1625C256.013 68.3528 255.556 68.4225 255.107 68.3634C254.326 68.2775 253.609 67.8893 253.11 67.2818C252.61 66.6742 252.368 65.8953 252.434 65.1112C252.434 63.1652 253.507 61.859 255.107 61.859C255.539 61.8038 255.978 61.8761 256.369 62.0671C256.761 62.2581 257.088 62.5595 257.311 62.9342L257.328 62.9678H257.727L257.65 61.474H257.591C257.387 61.4694 257.184 61.4421 256.986 61.3928L256.652 61.3186C256.149 61.1868 255.633 61.1108 255.114 61.0918C254.571 61.057 254.026 61.1359 253.515 61.3235C253.004 61.5112 252.538 61.8035 252.146 62.1817C251.755 62.5599 251.446 63.0158 251.24 63.5202C251.034 64.0246 250.935 64.5665 250.95 65.1112C250.922 65.6593 251.012 66.2071 251.214 66.7175C251.415 67.228 251.723 67.6892 252.118 68.0701C252.513 68.451 252.984 68.7428 253.501 68.9258C254.018 69.1087 254.568 69.1785 255.114 69.1306C255.717 69.1117 256.317 69.0262 256.902 68.8758L257.112 68.8296C257.306 68.781 257.505 68.7533 257.706 68.747L257.774 68.761L257.853 67.2532H257.447L257.43 67.2882ZM264.98 67.3008C264.899 67.5705 264.73 67.8057 264.501 67.9698C264.273 68.1339 263.996 68.2176 263.715 68.208H261.709V62.16C261.721 62.0134 261.788 61.8769 261.896 61.7775C262.004 61.6782 262.146 61.6233 262.293 61.6238L262.338 61.6112V61.208H262.285C262.171 61.208 261.88 61.208 261.602 61.2206C261.351 61.2206 261.109 61.2318 261.023 61.2318C260.938 61.2318 260.659 61.2318 260.394 61.2192C260.13 61.2066 259.864 61.2066 259.764 61.2066H259.702V61.6168L259.751 61.6266C259.824 61.623 259.897 61.6342 259.965 61.6594C260.034 61.6847 260.096 61.7235 260.15 61.7736C260.203 61.8236 260.245 61.8839 260.275 61.9508C260.304 62.0176 260.319 62.0898 260.32 62.1628V68.0162C260.317 68.1584 260.263 68.2946 260.167 68.3997C260.072 68.5048 259.941 68.5715 259.8 68.5874L259.743 68.6V69.0116H259.804C259.951 69.0116 260.224 69.0046 260.487 68.9976C260.707 68.9976 260.906 68.9878 261.005 68.9878H263.263C263.889 68.9753 264.514 68.9992 265.137 69.0592H265.197L265.4 67.347L265.002 67.2504L264.98 67.3008ZM273.946 61.2234C273.756 61.2234 273.574 61.2346 273.489 61.2346C273.404 61.2346 273.19 61.2346 272.993 61.222C272.796 61.2094 272.591 61.2094 272.491 61.2094H272.429V61.6196L272.478 61.6294C272.551 61.6258 272.624 61.637 272.692 61.6622C272.761 61.6875 272.823 61.7263 272.876 61.7764C272.93 61.8264 272.972 61.8867 273.001 61.9536C273.031 62.0204 273.046 62.0926 273.047 62.1656V66.4804C273.034 66.7581 272.963 67.0299 272.839 67.2787C272.715 67.5275 272.541 67.7478 272.327 67.9258C272.114 68.1038 271.866 68.2356 271.6 68.3129C271.333 68.3901 271.053 68.4111 270.778 68.3746C270.531 68.3817 270.284 68.3371 270.055 68.2435C269.826 68.15 269.618 68.0097 269.446 67.8314C269.274 67.6532 269.141 67.441 269.056 67.2084C268.97 66.9758 268.934 66.7278 268.949 66.4804V62.1754C268.951 62.0408 269.001 61.9115 269.091 61.8109C269.18 61.7104 269.303 61.6455 269.436 61.628L269.485 61.6182V61.208H269.423C269.272 61.208 268.988 61.215 268.735 61.222C268.533 61.222 268.35 61.2318 268.27 61.2318C268.19 61.2318 267.962 61.2318 267.734 61.2206C267.474 61.2206 267.198 61.208 267.058 61.208H266.996V61.6168L267.038 61.628C267.174 61.6443 267.3 61.7082 267.393 61.8084C267.486 61.9086 267.541 62.0386 267.548 62.1754V66.1808C267.512 66.5825 267.566 66.9872 267.705 67.3655C267.845 67.7439 268.067 68.0863 268.355 68.3679C268.643 68.6495 268.991 68.8632 269.372 68.9934C269.753 69.1237 270.158 69.1672 270.559 69.1208C272.754 69.1208 273.914 68.1016 273.914 66.1808V62.16C273.914 61.9332 274.012 61.7652 274.5 61.6238L274.543 61.6098V61.208H274.483C274.375 61.208 274.156 61.215 273.946 61.2206V61.2234ZM280.843 64.8634C281.159 64.7176 281.427 64.4826 281.612 64.1873C281.798 63.892 281.893 63.549 281.887 63.2002C281.887 61.8646 280.952 61.159 279.185 61.159C278.981 61.159 278.721 61.1786 278.468 61.1968C278.215 61.215 278.006 61.2304 277.843 61.2304C277.748 61.2304 277.536 61.2304 277.311 61.2192C277.056 61.2192 276.78 61.2066 276.642 61.2066H276.58V61.6154L276.628 61.6266C276.763 61.6414 276.89 61.7029 276.985 61.8008C277.081 61.8986 277.139 62.0266 277.151 62.1628V68.0162C277.148 68.1584 277.093 68.2946 276.998 68.3997C276.902 68.5048 276.772 68.5715 276.63 68.5874L276.58 68.6V69.0116H276.642C276.781 69.0116 277.061 69.0046 277.324 68.9976C277.545 68.9976 277.743 68.9878 277.843 68.9878C278.008 68.9878 278.294 69.0046 278.599 69.0214C278.904 69.0382 279.255 69.0592 279.459 69.0592C280.31 69.0592 282.29 68.8408 282.29 66.8192C282.272 66.3858 282.124 65.9678 281.866 65.6193C281.608 65.2708 281.252 65.008 280.843 64.8648V64.8634ZM278.546 64.533V61.901L278.574 61.8926C278.687 61.8562 278.806 61.8396 278.925 61.8436C279.118 61.8168 279.315 61.8339 279.5 61.8936C279.686 61.9534 279.856 62.0543 279.997 62.1888C280.138 62.3233 280.248 62.488 280.317 62.6706C280.386 62.8533 280.413 63.0491 280.396 63.2436C280.413 63.4292 280.387 63.6164 280.32 63.7902C280.252 63.964 280.145 64.1195 280.007 64.2444C279.868 64.3693 279.703 64.46 279.523 64.5094C279.344 64.5588 279.155 64.5654 278.972 64.5288H278.546V64.533ZM280.801 66.7884C280.816 66.9968 280.784 67.2058 280.709 67.4007C280.633 67.5955 280.516 67.7713 280.365 67.9157C280.215 68.06 280.034 68.1693 279.836 68.2358C279.638 68.3023 279.428 68.3243 279.221 68.3004C278.995 68.2998 278.769 68.2796 278.546 68.2402V65.289H279.256C279.456 65.2842 279.656 65.3193 279.842 65.3925C280.029 65.4656 280.199 65.5752 280.343 65.7149C280.487 65.8547 280.601 66.0217 280.68 66.2062C280.759 66.3908 280.8 66.5891 280.801 66.7898V66.7884Z" fill="#AF884D"/>
</g>
<defs>
<clipPath id="clip0_3072_241007">
<rect width="295" height="77" fill="white"/>
</clipPath>
</defs>
</svg>
